<svg width="87" height="60" viewBox="0 0 87 60" fill="none" xmlns="http://www.w3.org/2000/svg">
<rect width="87" height="60" rx="12" fill="#0D9488"/>
<g filter="url(#filter0_d_697_4641)">
<rect width="87" height="50" rx="12" fill="#0D9488"/>
<rect x="1" y="1" width="85" height="48" rx="11" stroke="url(#paint0_linear_697_4641)" stroke-opacity="0.2" stroke-width="2"/>
</g>
<g filter="url(#filter1_d_697_4641)">
<path d="M19.125 35V17.5455H31.7045V21.3636H23.8636V24.3636H31.0568V28.1818H23.8636V31.1818H31.6705V35H19.125ZM49.637 17.5455V35H45.6824L39.3756 25.8295H39.2733V35H34.5347V17.5455H38.5574L44.762 26.6818H44.8983V17.5455H49.637ZM59.0743 35H52.3584V17.5455H59.0062C60.8016 17.5455 62.3528 17.8949 63.6596 18.5938C64.9721 19.2869 65.9834 20.2869 66.6937 21.5938C67.4096 22.8949 67.7675 24.4545 67.7675 26.2727C67.7675 28.0909 67.4124 29.6534 66.7022 30.9602C65.992 32.2614 64.9863 33.2614 63.6851 33.9602C62.384 34.6534 60.8471 35 59.0743 35ZM57.0971 30.9773H58.9039C59.7675 30.9773 60.5033 30.8381 61.1113 30.5597C61.7249 30.2812 62.1908 29.8011 62.509 29.1193C62.8329 28.4375 62.9948 27.4886 62.9948 26.2727C62.9948 25.0568 62.83 24.108 62.5005 23.4261C62.1766 22.7443 61.6993 22.2642 61.0687 21.9858C60.4437 21.7074 59.6766 21.5682 58.7675 21.5682H57.0971V30.9773Z" fill="white"/>
</g>
<defs>
<filter id="filter0_d_697_4641" x="0" y="0" width="87" height="60" filterUnits="userSpaceOnUse" color-interpolation-filters="sRGB">
<feFlood flood-opacity="0" result="BackgroundImageFix"/>
<feColorMatrix in="SourceAlpha" type="matrix" values="0 0 0 0 0 0 0 0 0 0 0 0 0 0 0 0 0 0 127 0" result="hardAlpha"/>
<feOffset dy="10"/>
<feComposite in2="hardAlpha" operator="out"/>
<feColorMatrix type="matrix" values="0 0 0 0 0 0 0 0 0 0 0 0 0 0 0 0 0 0 0.2 0"/>
<feBlend mode="normal" in2="BackgroundImageFix" result="effect1_dropShadow_697_4641"/>
<feBlend mode="normal" in="SourceGraphic" in2="effect1_dropShadow_697_4641" result="shape"/>
</filter>
<filter id="filter1_d_697_4641" x="19.125" y="17.5454" width="48.6426" height="19.4546" filterUnits="userSpaceOnUse" color-interpolation-filters="sRGB">
<feFlood flood-opacity="0" result="BackgroundImageFix"/>
<feColorMatrix in="SourceAlpha" type="matrix" values="0 0 0 0 0 0 0 0 0 0 0 0 0 0 0 0 0 0 127 0" result="hardAlpha"/>
<feOffset dy="2"/>
<feComposite in2="hardAlpha" operator="out"/>
<feColorMatrix type="matrix" values="0 0 0 0 0 0 0 0 0 0 0 0 0 0 0 0 0 0 0.15 0"/>
<feBlend mode="normal" in2="BackgroundImageFix" result="effect1_dropShadow_697_4641"/>
<feBlend mode="normal" in="SourceGraphic" in2="effect1_dropShadow_697_4641" result="shape"/>
</filter>
<linearGradient id="paint0_linear_697_4641" x1="43.5" y1="0" x2="43.5" y2="50" gradientUnits="userSpaceOnUse">
<stop stop-color="white" stop-opacity="0.5"/>
<stop offset="0.296666" stop-color="white" stop-opacity="0"/>
<stop offset="0.641666" stop-color="white" stop-opacity="0"/>
<stop offset="0.956666" stop-color="white"/>
</linearGradient>
</defs>
</svg>
