<svg width="244" height="244" viewBox="0 0 244 244" fill="none" xmlns="http://www.w3.org/2000/svg">
<rect width="244" height="244" rx="68.0478" fill="#0D9488"/>
<rect x="5.83301" width="232.335" height="232.335" rx="68.0478" fill="#2DD4BF"/>
<path d="M29 52.1149C31.9345 52.0368 34.8234 52.0008 37.67 52.0028C160.413 52.1188 201.677 125.573 212.784 152.911C215.327 159.162 216.289 163 216.289 163C216.289 163 217.066 162.649 218.469 161.989C220.152 156.211 221 150.232 221 144.128V81.9637C221 73.0621 219.195 64.4226 215.633 56.2855C212.195 48.4295 207.273 41.376 201.007 35.3202C194.74 29.2644 187.441 24.5084 179.312 21.1863C170.891 17.7441 161.951 16 152.739 16H89.8911C80.6795 16 71.7392 17.7441 63.3187 21.1863C55.1892 24.5084 47.8901 29.2644 41.6234 35.3202C36.4854 40.2843 32.2524 45.918 29 52.1149Z" fill="#5EEAD4"/>
<path d="M152.497 67.398C155.178 67.398 157.859 68.4207 159.905 70.466L171.679 82.2401C173.725 84.2855 174.748 86.9676 174.748 89.6477C174.748 89.6954 174.746 89.7439 174.745 89.7916C175.053 90.7957 175.209 91.8359 175.209 92.877C175.209 95.5581 174.187 98.2392 172.14 100.286L150.011 122.415L171.679 144.083C173.762 146.165 174.782 148.906 174.745 151.634C175.848 155.224 174.981 159.289 172.141 162.128L160.367 173.903C158.322 175.948 155.64 176.97 152.959 176.97C150.278 176.97 147.596 175.948 145.55 173.903L122.037 150.389L98.5232 173.903C96.4779 175.948 93.7968 176.97 91.1148 176.97C88.4337 176.97 85.7526 175.948 83.7063 173.903L71.9321 162.128C69.8498 160.046 68.8301 157.306 68.867 154.577C67.7637 150.988 68.6308 146.924 71.4703 144.083L93.5995 121.954L71.9311 100.286C69.8489 98.2042 68.8292 95.4638 68.8661 92.7351C67.7628 89.1451 68.6299 85.0807 71.4694 82.2412L83.2435 70.4669C85.2889 68.4216 87.971 67.3989 90.6521 67.3989C93.3332 67.3989 96.0142 68.4216 98.0605 70.4669L121.574 93.9803L145.087 70.4669C147.135 68.4216 149.816 67.398 152.497 67.398ZM152.497 56C146.653 56 141.16 58.2757 137.029 62.4071L121.575 77.8609L106.121 62.4071C101.99 58.2757 96.4964 56 90.653 56C84.8097 56 79.3163 58.2757 75.1848 62.4071L63.4115 74.1814C58.0941 79.4998 55.9127 87.091 57.5157 94.3537C57.8627 99.642 60.083 104.557 63.8723 108.347L77.4809 121.956L63.4115 136.025C58.0931 141.343 55.9127 148.935 57.5157 156.198C57.8627 161.487 60.083 166.402 63.8723 170.191L75.6456 181.965C79.7771 186.097 85.2705 188.372 91.1138 188.372C96.9572 188.372 102.451 186.097 106.582 181.965L122.036 166.512L137.489 181.965C141.621 186.097 147.114 188.372 152.958 188.372C158.8 188.372 164.293 186.097 168.426 181.965L180.2 170.191C185.518 164.874 187.699 157.281 186.096 150.019C185.749 144.73 183.529 139.814 179.739 136.025L166.132 122.418L180.201 108.348C184.332 104.217 186.608 98.7233 186.608 92.88C186.608 91.3003 186.437 89.7294 186.099 88.1896C185.752 82.8964 183.525 77.9678 179.739 74.1824L167.965 62.4081C163.834 58.2747 158.34 56 152.497 56Z" fill="white"/>
<path d="M71.472 144.085L145.089 70.4684C149.181 66.3767 155.813 66.3767 159.905 70.4684L171.679 82.2426C173.725 84.288 174.748 86.97 174.748 89.6511C174.748 92.3322 173.726 95.0132 171.679 97.0595L98.0622 170.677C93.9706 174.768 87.3379 174.768 83.2463 170.677L71.472 158.902C67.3804 154.81 67.3804 148.176 71.472 144.085Z" fill="#14B8A6"/>
<path d="M145.089 170.676L71.472 97.0585C67.3804 92.9669 67.3804 86.3342 71.472 82.2426L83.2463 70.4684C85.2916 68.423 87.9737 67.3994 90.6547 67.3994C93.3358 67.3994 96.0169 68.4221 98.0632 70.4684L171.68 144.085C175.772 148.177 175.772 154.81 171.68 158.901L159.906 170.676C155.813 174.766 149.18 174.766 145.089 170.676Z" fill="#14B8A6"/>
<rect x="22.3577" y="16.5247" width="199.283" height="199.283" rx="64.1594" stroke="#14B8A6" stroke-width="7.77689"/>
</svg>
