<svg width="500" height="500" viewBox="0 0 500 500" fill="none" xmlns="http://www.w3.org/2000/svg">
<g clip-path="url(#clip0_754_2146)">
<rect width="500" height="500" rx="100" fill="white"/>
<path d="M401.96 22.7109C406.895 20.4297 412.548 20.255 417.614 22.2246C422.682 24.1952 426.731 28.1426 428.827 33.1582C440.74 61.6355 459.42 87.7488 484.645 108.942C556.733 165.613 592.983 261.287 569.319 356.096C537.19 484.819 406.792 563.127 278.067 530.998C149.342 498.868 71.0366 368.468 103.165 239.745C118.762 177.257 157.549 126.624 208.013 94.7778C213.051 91.5983 219.244 90.8284 224.908 92.677C230.572 94.5259 235.118 98.8012 237.31 104.341C245.28 124.479 256.465 143.225 270.392 159.795C295.91 97.7004 343.802 49.5937 401.96 22.7109Z" fill="#14B8A6"/>
<path d="M273.192 418.385C286.736 414.505 291.711 390.402 284.305 364.548C276.899 338.695 259.915 320.881 246.372 324.761C232.829 328.641 227.853 352.745 235.26 378.598C242.666 404.452 259.649 422.265 273.192 418.385Z" fill="#115E59"/>
<path d="M251.655 375.934C257.329 374.309 259.413 364.212 256.311 353.382C253.208 342.552 246.094 335.09 240.42 336.716C234.746 338.341 232.661 348.438 235.764 359.268C238.866 370.098 245.981 377.559 251.655 375.934Z" fill="white"/>
<path d="M382.294 363.933C371.003 388.194 351.514 407.692 327.259 418.994C325.487 419.784 324.062 421.19 323.251 422.952C322.439 424.714 322.296 426.711 322.849 428.571C326.219 438.819 341.686 442.025 357.966 439.971C370.349 438.237 381.996 433.058 391.578 425.025C410.568 409.484 420.542 389.468 414.9 361.504C414.218 357.398 412.053 353.684 408.816 351.067C406.517 349.254 403.665 348.285 400.738 348.323C397.81 348.361 394.984 349.404 392.733 351.276C388.175 354.476 384.567 358.849 382.294 363.933Z" fill="#115E59" stroke="#115E59" stroke-width="1.13033" stroke-linecap="round" stroke-linejoin="round"/>
<path d="M360.343 396.808C346.555 412.116 351.327 428.1 362.998 433.409C366.082 434.682 369.44 435.15 372.755 434.767C376.07 434.383 379.233 433.163 381.946 431.219C407.036 414.365 426.321 392.938 415.671 359.304C414.914 356.614 413.477 354.165 411.498 352.192C409.519 350.219 407.065 348.789 404.373 348.041C394.344 345.597 386.13 354.717 380.414 366.988C378.559 370.963 376.429 374.803 374.039 378.481C369.96 384.938 365.38 391.066 360.343 396.808Z" fill="white" stroke="#115E59" stroke-width="1.13033" stroke-miterlimit="10"/>
<path d="M198.204 296.32C214.438 283.646 238.466 279.953 255.478 293.785C255.883 294.075 256.226 294.443 256.486 294.868C256.747 295.293 256.919 295.767 256.992 296.26C257.066 296.753 257.039 297.255 256.915 297.738C256.79 298.22 256.57 298.673 256.267 299.069C255.703 299.809 254.885 300.315 253.97 300.488C253.056 300.66 252.11 300.488 251.315 300.004C236.067 290.307 219.208 295.233 206.821 306.998C205.402 308.129 203.591 308.65 201.788 308.446C199.985 308.242 198.336 307.33 197.206 305.911C196.075 304.491 195.554 302.681 195.758 300.877C195.962 299.074 196.874 297.426 198.293 296.295L198.204 296.32Z" fill="#115E59"/>
<path d="M326.938 288.635C337.767 267.891 349.123 241.728 373.664 233.586C381.123 231.449 395.362 231.72 393.947 242.807C393.585 245.018 392.361 246.995 390.543 248.304C388.725 249.613 386.462 250.148 384.25 249.79C381.977 249.112 379.584 248.932 377.235 249.263C374.886 249.594 372.636 250.428 370.638 251.708C355.346 260.922 345.651 278.199 336.056 293.466C335.415 294.675 334.32 295.58 333.012 295.982C331.704 296.384 330.29 296.25 329.081 295.609C327.872 294.969 326.967 293.874 326.565 292.566C326.163 291.258 326.298 289.844 326.938 288.635Z" fill="#115E59"/>
<path d="M401.376 298.436C383.577 312.179 370.506 331.129 363.981 352.649L353.114 346.095C367.413 331.897 384.712 317.71 405.44 314.14C410.06 313.397 430.751 311.723 429.065 318.828C428.977 319.273 428.803 319.696 428.552 320.073C428.3 320.451 427.977 320.775 427.599 321.026C427.222 321.278 426.799 321.453 426.354 321.541C425.909 321.628 425.452 321.627 425.007 321.537C412.824 320.013 400.499 322.926 390.286 329.743C379.768 336.77 370.36 345.33 362.375 355.139C361.358 356.303 359.957 357.064 358.427 357.283C356.897 357.502 355.339 357.165 354.036 356.334C352.733 355.502 351.771 354.23 351.326 352.75C350.881 351.27 350.981 349.679 351.609 348.266C356.436 337.056 362.983 326.667 371.016 317.477C378.927 308.54 388.118 300.825 398.291 294.583C398.826 294.276 399.457 294.18 400.059 294.315C400.661 294.45 401.19 294.807 401.542 295.314C401.894 295.821 402.043 296.441 401.959 297.053C401.875 297.664 401.565 298.222 401.089 298.615L401.376 298.436Z" fill="#115E59"/>
<path d="M416.328 358.39C413.706 366.915 408.865 374.591 402.302 380.63C402.095 380.804 401.828 380.888 401.559 380.866C401.29 380.843 401.041 380.715 400.866 380.51C400.72 380.309 400.646 380.066 400.654 379.819C400.662 379.572 400.752 379.334 400.909 379.144C406.6 372.933 410.509 365.301 412.223 357.053C412.278 356.752 412.396 356.466 412.568 356.214C412.741 355.961 412.965 355.748 413.226 355.587C413.486 355.427 413.777 355.323 414.08 355.282C414.383 355.242 414.692 355.265 414.985 355.351C415.279 355.437 415.551 355.584 415.784 355.782C416.017 355.98 416.206 356.225 416.339 356.5C416.472 356.776 416.545 357.077 416.554 357.382C416.563 357.688 416.507 357.992 416.391 358.275L416.328 358.39Z" fill="#115E59"/>
</g>
<defs>
<clipPath id="clip0_754_2146">
<rect width="500" height="500" rx="100" fill="white"/>
</clipPath>
</defs>
</svg>
