<svg width="102" height="60" viewBox="0 0 102 60" fill="none" xmlns="http://www.w3.org/2000/svg">
<rect width="102" height="60" rx="12" fill="#0D9488"/>
<g filter="url(#filter0_d_697_4643)">
<rect width="102" height="50" rx="12" fill="#0D9488"/>
<rect x="1" y="1" width="100" height="48" rx="11" stroke="url(#paint0_linear_697_4643)" stroke-opacity="0.2" stroke-width="2"/>
</g>
<g filter="url(#filter1_d_697_4643)">
<path d="M19.125 35V17.5455H26.6591C27.9545 17.5455 29.0881 17.8011 30.0597 18.3125C31.0313 18.8239 31.7869 19.5426 32.3267 20.4688C32.8665 21.3949 33.1364 22.4773 33.1364 23.7159C33.1364 24.9659 32.858 26.0483 32.3011 26.9631C31.75 27.8778 30.9744 28.5824 29.9744 29.0767C28.9801 29.571 27.8182 29.8182 26.4886 29.8182H21.9886V26.1364H25.5341C26.0909 26.1364 26.5653 26.0398 26.9574 25.8466C27.3551 25.6477 27.6591 25.3665 27.8693 25.0028C28.0852 24.6392 28.1932 24.2102 28.1932 23.7159C28.1932 23.2159 28.0852 22.7898 27.8693 22.4375C27.6591 22.0795 27.3551 21.8068 26.9574 21.6193C26.5653 21.4261 26.0909 21.3295 25.5341 21.3295H23.8636V35H19.125ZM37.7094 35H32.5958L38.3571 17.5455H44.8344L50.5958 35H45.4821L41.6639 22.3523H41.5276L37.7094 35ZM36.7549 28.1136H46.3685V31.6591H36.7549V28.1136ZM61.4863 23C61.4408 22.4318 61.2278 21.9886 60.8471 21.6705C60.4721 21.3523 59.9011 21.1932 59.134 21.1932C58.6454 21.1932 58.2448 21.2528 57.9323 21.3722C57.6255 21.4858 57.3982 21.642 57.2505 21.8409C57.1028 22.0398 57.0261 22.267 57.0204 22.5227C57.009 22.733 57.0459 22.9233 57.1312 23.0938C57.2221 23.2585 57.3641 23.4091 57.5573 23.5455C57.7505 23.6761 57.9976 23.7955 58.2988 23.9034C58.5999 24.0114 58.9579 24.108 59.3726 24.1932L60.8045 24.5C61.7704 24.7045 62.5971 24.9744 63.2846 25.3097C63.9721 25.6449 64.5346 26.0398 64.9721 26.4943C65.4096 26.9432 65.7306 27.4489 65.9351 28.0114C66.1454 28.5739 66.2533 29.1875 66.259 29.8523C66.2533 31 65.9664 31.9716 65.3982 32.767C64.83 33.5625 64.0175 34.1676 62.9607 34.5824C61.9096 34.9972 60.6454 35.2045 59.1681 35.2045C57.6511 35.2045 56.3272 34.9801 55.1965 34.5312C54.0715 34.0824 53.1965 33.392 52.5715 32.4602C51.9522 31.5227 51.6397 30.3239 51.634 28.8636H56.134C56.1624 29.3977 56.2959 29.8466 56.5346 30.2102C56.7732 30.5739 57.1084 30.8494 57.5403 31.0369C57.9778 31.2244 58.4976 31.3182 59.0999 31.3182C59.6056 31.3182 60.0289 31.2557 60.3698 31.1307C60.7107 31.0057 60.9692 30.8324 61.1454 30.6108C61.3215 30.3892 61.4124 30.1364 61.4181 29.8523C61.4124 29.5852 61.3243 29.3523 61.1539 29.1534C60.9891 28.9489 60.7164 28.767 60.3357 28.608C59.955 28.4432 59.4408 28.2898 58.7931 28.1477L57.0545 27.7727C55.509 27.4375 54.2903 26.8778 53.3982 26.0938C52.5118 25.304 52.0715 24.2273 52.0772 22.8636C52.0715 21.7557 52.367 20.7869 52.9636 19.9574C53.5658 19.1222 54.3982 18.4716 55.4607 18.0057C56.5289 17.5398 57.7533 17.3068 59.134 17.3068C60.5431 17.3068 61.7618 17.5426 62.7903 18.0142C63.8187 18.4858 64.6113 19.1506 65.1681 20.0085C65.7306 20.8608 66.0147 21.858 66.0204 23H61.4863ZM77.9507 23C77.9052 22.4318 77.6921 21.9886 77.3114 21.6705C76.9364 21.3523 76.3654 21.1932 75.5984 21.1932C75.1097 21.1932 74.7092 21.2528 74.3967 21.3722C74.0899 21.4858 73.8626 21.642 73.7149 21.8409C73.5671 22.0398 73.4904 22.267 73.4847 22.5227C73.4734 22.733 73.5103 22.9233 73.5955 23.0938C73.6864 23.2585 73.8285 23.4091 74.0217 23.5455C74.2149 23.6761 74.462 23.7955 74.7632 23.9034C75.0643 24.0114 75.4222 24.108 75.837 24.1932L77.2688 24.5C78.2347 24.7045 79.0614 24.9744 79.7489 25.3097C80.4364 25.6449 80.9989 26.0398 81.4364 26.4943C81.8739 26.9432 82.195 27.4489 82.3995 28.0114C82.6097 28.5739 82.7177 29.1875 82.7234 29.8523C82.7177 31 82.4308 31.9716 81.8626 32.767C81.2944 33.5625 80.4819 34.1676 79.4251 34.5824C78.3739 34.9972 77.1097 35.2045 75.6325 35.2045C74.1154 35.2045 72.7916 34.9801 71.6609 34.5312C70.5359 34.0824 69.6609 33.392 69.0359 32.4602C68.4166 31.5227 68.1041 30.3239 68.0984 28.8636H72.5984C72.6268 29.3977 72.7603 29.8466 72.9989 30.2102C73.2376 30.5739 73.5728 30.8494 74.0046 31.0369C74.4421 31.2244 74.962 31.3182 75.5643 31.3182C76.07 31.3182 76.4933 31.2557 76.8342 31.1307C77.1751 31.0057 77.4336 30.8324 77.6097 30.6108C77.7859 30.3892 77.8768 30.1364 77.8825 29.8523C77.8768 29.5852 77.7887 29.3523 77.6183 29.1534C77.4535 28.9489 77.1808 28.767 76.8001 28.608C76.4194 28.4432 75.9052 28.2898 75.2575 28.1477L73.5188 27.7727C71.9734 27.4375 70.7546 26.8778 69.8626 26.0938C68.9762 25.304 68.5359 24.2273 68.5416 22.8636C68.5359 21.7557 68.8313 20.7869 69.4279 19.9574C70.0302 19.1222 70.8626 18.4716 71.9251 18.0057C72.9933 17.5398 74.2177 17.3068 75.5984 17.3068C77.0075 17.3068 78.2262 17.5426 79.2546 18.0142C80.283 18.4858 81.0757 19.1506 81.6325 20.0085C82.195 20.8608 82.4791 21.858 82.4847 23H77.9507Z" fill="white"/>
</g>
<defs>
<filter id="filter0_d_697_4643" x="0" y="0" width="102" height="60" filterUnits="userSpaceOnUse" color-interpolation-filters="sRGB">
<feFlood flood-opacity="0" result="BackgroundImageFix"/>
<feColorMatrix in="SourceAlpha" type="matrix" values="0 0 0 0 0 0 0 0 0 0 0 0 0 0 0 0 0 0 127 0" result="hardAlpha"/>
<feOffset dy="10"/>
<feComposite in2="hardAlpha" operator="out"/>
<feColorMatrix type="matrix" values="0 0 0 0 0 0 0 0 0 0 0 0 0 0 0 0 0 0 0.2 0"/>
<feBlend mode="normal" in2="BackgroundImageFix" result="effect1_dropShadow_697_4643"/>
<feBlend mode="normal" in="SourceGraphic" in2="effect1_dropShadow_697_4643" result="shape"/>
</filter>
<filter id="filter1_d_697_4643" x="19.125" y="17.3066" width="63.5984" height="19.8979" filterUnits="userSpaceOnUse" color-interpolation-filters="sRGB">
<feFlood flood-opacity="0" result="BackgroundImageFix"/>
<feColorMatrix in="SourceAlpha" type="matrix" values="0 0 0 0 0 0 0 0 0 0 0 0 0 0 0 0 0 0 127 0" result="hardAlpha"/>
<feOffset dy="2"/>
<feComposite in2="hardAlpha" operator="out"/>
<feColorMatrix type="matrix" values="0 0 0 0 0 0 0 0 0 0 0 0 0 0 0 0 0 0 0.15 0"/>
<feBlend mode="normal" in2="BackgroundImageFix" result="effect1_dropShadow_697_4643"/>
<feBlend mode="normal" in="SourceGraphic" in2="effect1_dropShadow_697_4643" result="shape"/>
</filter>
<linearGradient id="paint0_linear_697_4643" x1="51" y1="0" x2="51" y2="50" gradientUnits="userSpaceOnUse">
<stop stop-color="white" stop-opacity="0.5"/>
<stop offset="0.296666" stop-color="white" stop-opacity="0"/>
<stop offset="0.641666" stop-color="white" stop-opacity="0"/>
<stop offset="0.956666" stop-color="white"/>
</linearGradient>
</defs>
</svg>
