<svg width="63" height="60" viewBox="0 0 63 60" fill="none" xmlns="http://www.w3.org/2000/svg">
<path d="M32.0931 50.1878L37.0074 59.2274L4.91428 51.9293L0 42.8896L32.0931 50.1878Z" fill="#2563EB"/>
<path d="M41.4964 0L57.7377 23.678L32.0931 50.1877L0 42.8896L5.81338 11.8706L41.4964 0Z" fill="#60A5FA"/>
<path d="M57.4761 23.2988L31.8906 49.7486L0.0688494 42.5121L0 42.8895L32.0931 50.1877L57.7377 23.6779L57.4761 23.2988Z" fill="#BFDBFE"/>
<path d="M57.7374 23.6777L62.6517 32.7182L37.0071 59.2271L32.0928 50.1875L57.7374 23.6777Z" fill="#3B82F6"/>
<path d="M36.8956 7.6709L37.1491 7.94872L48.1157 24.037L30.3937 42.3479L8.48075 37.5859L8.22803 37.3072L12.2383 15.8778L36.8956 7.6709Z" fill="#BFDBFE"/>
<path d="M37.1494 7.94873L48.3687 24.3148L30.6467 42.6265L8.48096 37.5859L12.4913 16.1565L37.1494 7.94873Z" fill="#3B82F6"/>
<path d="M34.3362 17.3325L34.7492 24.3204L39.9632 25.6642L41.2924 27.4745L33.382 31.6063L30.3096 38.8291L25.0057 34.3952L16.5607 35.7033L15.2314 33.8938L21.1947 28.8353L19.0538 22.4177L27.217 22.6072L33.0077 15.5229L34.3362 17.3325Z" fill="#2563EB"/>
<path d="M33.0077 15.5229L33.42 22.5108L39.9632 25.6642L32.0536 29.7968L28.9812 37.0196L23.6765 32.5848L15.2314 33.8938L19.8655 27.025L17.7246 20.6073L25.8878 20.7977L33.0077 15.5229Z" fill="#60A5FA"/>
<path opacity="0.7" d="M8.48096 37.5857L10.5205 38.0498L14.3138 17.7763L12.4913 16.1562L8.48096 37.5857Z" fill="#2563EB"/>
<path d="M37.1493 7.94873L12.4912 16.1565L14.3137 17.7765L38.391 9.76234L37.1493 7.94873Z" fill="#2563EB"/>
<path opacity="0.4" d="M39.9628 25.6644L34.7958 28.3634L28.5167 18.8499L33.0065 15.5232L33.4196 22.5111L39.9628 25.6644ZM15.7851 33.0727L15.231 33.8941L16.2265 33.7401L15.7851 33.0727ZM2.88013 43.5452L26.196 48.8475L20.5795 40.3376L8.47967 37.5869L10.7517 25.4474L4.92376 16.6167L0.540039 40.0015L2.88013 43.5452ZM36.9018 1.52881L20.6524 6.93476L24.1726 12.2686L37.1481 7.94969L48.3682 24.3158L38.7097 34.295L42.2616 39.6759L54.0415 27.4983L36.9018 1.52881Z" fill="white"/>
</svg>
