<svg width="66" height="65" viewBox="0 0 66 65" fill="none" xmlns="http://www.w3.org/2000/svg">
<path d="M36.5752 0L41.2601 5.95862L46.0612 24.9433L41.3781 18.9838L36.5752 0Z" fill="#60A5FA"/>
<path d="M22.6888 43.9234L5.20838 49.7244L12.175 33.1682L4.03467 19.9259L21.4944 18.4045L33.8106 4.42627L37.7362 19.9448L53.579 24.6171L38.419 35.757L35.8779 52.5105L22.6888 43.9234Z" fill="#60A5FA"/>
<path d="M4.79932 20.3106L0 18.991L21.4907 17.1191L21.7123 18.8378L4.79932 20.3106Z" fill="#93C5FD"/>
<path d="M21.7123 18.8379L21.4907 17.1192L36.5751 0L33.5845 5.365L21.7123 18.8379Z" fill="#2563EB"/>
<path d="M12.6802 33.1293L10.0139 35.2776L0 18.9907L4.79932 20.3104L12.6802 33.1293Z" fill="#2563EB"/>
<path d="M33.5845 5.365L36.575 0L41.378 18.9838L37.3632 20.3043L33.5845 5.365Z" fill="#DBEAFE"/>
<path d="M6.00798 48.9839L1.53564 55.4226L10.0137 35.2777L12.68 33.1294L6.00798 48.9839Z" fill="#1D4ED8"/>
<path d="M22.811 48.3623L27.4968 54.3209L6.22146 61.3812L1.53564 55.4226L22.811 48.3623Z" fill="#2563EB"/>
<path d="M22.7534 43.4272L22.811 48.3626L1.53564 55.4228L6.00798 48.9841L22.7534 43.4272Z" fill="#93C5FD"/>
<path d="M60.713 24.6846L65.398 30.6432L46.8753 44.253L42.1904 38.2944L60.713 24.6846Z" fill="#3B82F6"/>
<path d="M37.3633 20.3044L41.378 18.9839L60.7131 24.6849L52.581 24.7921L37.3633 20.3044Z" fill="#3B82F6"/>
<path d="M52.581 24.7918L60.7131 24.6846L42.1905 38.2944L38.002 35.5047L52.581 24.7918Z" fill="#93C5FD"/>
<path d="M42.1902 38.2944L46.8751 44.2531L43.744 64.8997L39.0591 58.9411L42.1902 38.2944Z" fill="#60A5FA"/>
<path d="M39.0597 58.941L43.7446 64.8996L27.4973 54.3209L22.8115 48.3623L39.0597 58.941Z" fill="#1D4ED8"/>
<path d="M35.5381 51.7522L39.0592 58.9413L22.8111 48.3626L22.7534 43.4272L35.5381 51.7522Z" fill="#3B82F6"/>
<path d="M38.0017 35.5049L42.1903 38.2946L39.0592 58.9412L35.5381 51.7521L38.0017 35.5049Z" fill="#DBEAFE"/>
</svg>
