<svg width="53" height="68" viewBox="0 0 53 68" fill="none" xmlns="http://www.w3.org/2000/svg">
<path d="M13.3478 32.7147L3.15976 31.6127C2.73176 31.5247 1.81776 31.8897 1.53076 31.6127L10.4978 40.3417C10.7828 40.6207 11.1498 40.8167 11.5798 40.9027L21.2318 42.8557L13.3478 32.7147Z" fill="#2563EB"/>
<path d="M51.5507 9.33252L42.5837 0.603516C43.3707 1.36952 42.5137 2.91251 41.8477 4.08951L29.9097 25.2775L39.9527 33.8065L51.7747 12.5775C52.4417 11.4005 52.3367 10.0975 51.5507 9.33252Z" fill="#2563EB"/>
<path d="M50.6898 36.3267L41.7228 27.5967C42.1178 27.9797 41.7018 28.6517 41.7228 29.2787C41.7618 30.3547 41.2798 31.3177 40.2848 32.0287C40.2848 32.0287 1.04276 58.9257 0.763763 58.6847C0.724763 58.6537 0.689785 58.6207 0.654785 58.5867L9.61978 67.3157C9.65478 67.3507 9.69176 67.3817 9.72876 67.4157C10.0098 67.6557 10.3498 67.8107 10.7068 67.8827C10.9508 67.9317 11.2068 67.9457 11.4668 67.9217C12.0298 67.8707 12.6138 67.6507 13.1468 67.2677L49.7858 40.8127C50.7778 40.1017 51.3798 38.9517 51.3408 37.8747C51.3188 37.2467 51.0828 36.7097 50.6898 36.3267Z" fill="#1D4ED8"/>
<path d="M40.7506 0.0115848C41.3986 -0.0474152 42.0206 0.118597 42.4926 0.517597C43.3616 1.2696 43.5006 2.6266 42.8086 3.8496L30.9886 25.0766L40.6336 27.0296C41.6586 27.2426 42.3386 28.0606 42.3736 29.1446C42.4126 30.2206 41.8126 31.3716 40.8186 32.0826L4.18162 58.5356C3.64662 58.9206 3.06261 59.1386 2.49961 59.1896C2.23961 59.2126 1.98363 59.2016 1.73963 59.1526C1.38263 59.0786 1.04261 58.9246 0.762612 58.6836C-0.118388 57.9416 -0.24736 56.5836 0.43464 55.3616L12.2646 34.1256L2.61262 32.1746C1.59262 31.9676 0.91764 31.1436 0.87864 30.0676C0.84164 28.9836 1.44162 27.8406 2.43562 27.1226L39.0746 0.667591C39.6036 0.283591 40.1876 0.0625848 40.7506 0.0115848Z" fill="#60A5FA"/>
<path opacity="0.4" d="M40.7505 0.0117363C40.1875 0.0627363 39.6045 0.282743 39.0745 0.665743L25.9985 10.1067V42.7827L40.8185 32.0817C41.8125 31.3707 42.4125 30.2207 42.3735 29.1437C42.3385 28.0597 41.6585 27.2417 40.6335 27.0287L30.9885 25.0757L42.8085 3.84874C43.4995 2.62574 43.3615 1.26874 42.4925 0.516741C42.0195 0.119741 41.3985 -0.0462637 40.7505 0.0117363Z" fill="white"/>
</svg>
