<svg width="49" height="74" viewBox="0 0 49 74" fill="none" xmlns="http://www.w3.org/2000/svg">
<path d="M25.6921 0.87133L2.00577 19.2124L0.72921 52.8463L22.9571 72.9299L46.6435 54.5889L47.92 20.955L25.6921 0.87133Z" fill="#2563EB"/>
<path d="M24.4158 34.5034L14.0723 25.4172L2.00597 19.2124L0.729405 52.8463L13.2313 47.5749L24.4158 34.5034Z" fill="#2563EB"/>
<path d="M24.4156 34.5033L25.6921 0.87133L2.00577 19.2124L14.0721 25.4172L24.4156 34.5033Z" fill="#60A5FA"/>
<path d="M35.4185 26.2276L47.9204 20.9553L25.6925 0.871582L24.416 34.5036L35.4185 26.2276Z" fill="#EFF6FF"/>
<path d="M35.4187 26.2276L24.4162 34.5037L34.5777 48.3854L46.6441 54.5892L47.9206 20.9553L35.4187 26.2276Z" fill="#93C5FD"/>
<path opacity="0.4" d="M35.4187 26.2276L24.4162 34.5037L34.5777 48.3854L46.6441 54.5892L47.9206 20.9553L35.4187 26.2276Z" fill="white"/>
<path d="M24.4156 34.5034L22.9572 72.93L46.6435 54.589L34.5772 48.3851L24.4156 34.5034Z" fill="#60A5FA"/>
<path d="M13.2312 47.5752L0.729335 52.8466L22.9573 72.9302L24.4157 34.5037L13.2312 47.5752Z" fill="#3B82F6"/>
<path d="M13.2312 47.575L14.0722 25.4173L25.0842 16.889L35.4182 26.2274L34.5772 48.3851L23.5652 56.9125L13.2312 47.575Z" fill="#93C5FD"/>
</svg>
