<svg width="46" height="74" viewBox="0 0 46 74" fill="none" xmlns="http://www.w3.org/2000/svg">
<path d="M18.3648 12.1392L22.3158 16.9042L17.1278 20.3932L13.1748 15.6252L18.3648 12.1392Z" fill="#2563EB"/>
<path d="M10.939 24.3688L14.89 29.1368L3.952 27.1288L0 22.3608L10.939 24.3688Z" fill="#60A5FA"/>
<path d="M13.175 15.625L17.128 20.393L14.89 29.137L10.939 24.369L13.175 15.625Z" fill="#3B82F6"/>
<path d="M26.4532 13.6232L30.4052 18.3892L22.3162 16.9042L18.3652 12.1392L26.4532 13.6232Z" fill="#60A5FA"/>
<path d="M34.3789 3.32422L38.3309 8.09222L45.6679 20.6042L41.7159 15.8362L34.3789 3.32422Z" fill="#BFDBFE"/>
<path d="M41.7161 15.8359L45.6681 20.6039L40.9451 39.0609L36.9941 34.2929L41.7161 15.8359Z" fill="#3B82F6"/>
<path opacity="0.4" d="M41.7161 15.8359L45.6681 20.6039L40.9451 39.0609L36.9941 34.2929L41.7161 15.8359Z" fill="white"/>
<path d="M36.9938 34.293L40.9448 39.061L22.1458 52.406L18.1948 47.641L36.9938 34.293Z" fill="#2563EB"/>
<path d="M18.195 47.6411L22.146 52.4061L21.096 56.5121L17.145 51.7441L18.195 47.6411Z" fill="#3B82F6"/>
<path opacity="0.4" d="M13.175 15.625L17.128 20.393L14.89 29.137L10.939 24.369L13.175 15.625Z" fill="white"/>
<path opacity="0.4" d="M18.195 47.6411L22.146 52.4061L21.096 56.5121L17.145 51.7441L18.195 47.6411Z" fill="white"/>
<path d="M17.1448 51.7438L21.0958 56.5118L8.69077 54.2338L4.73877 49.4668L17.1448 51.7438Z" fill="#60A5FA"/>
<path d="M34.379 3.32401L41.716 15.836L36.994 34.293L18.195 47.641L17.145 51.744L4.739 49.467L6.5 42.584L26.291 28.174L28.965 17.723L26.453 13.623L18.365 12.139L13.175 15.625L10.939 24.369L0 22.361L3.466 8.81601L16.259 0L34.379 3.32401Z" fill="#3B82F6"/>
<path d="M15.9138 56.5552L19.8658 61.3222L16.7918 73.3362L12.8408 68.5712L15.9138 56.5552Z" fill="#2563EB"/>
<path d="M12.8411 68.571L16.7921 73.336L4.38609 71.061L0.434082 66.293L12.8411 68.571Z" fill="#60A5FA"/>
<path d="M15.9141 56.5548L12.8411 68.5708L0.434082 66.2928L3.50809 54.2778L15.9141 56.5548Z" fill="#3B82F6"/>
</svg>
