<svg width="922" height="922" viewBox="0 0 922 922" fill="none" xmlns="http://www.w3.org/2000/svg">
<g clip-path="url(#clip0_741_908)">
<path d="M461 461L0 0H83.819C243.184 184.32 368.911 337.987 461 461Z" fill="white"/>
<path d="M461 461C387.351 326.13 289.563 172.463 167.638 0H251.457C337.455 163.354 407.303 317.02 461 461Z" fill="white"/>
<path d="M461 461C428.337 310.843 386.429 157.176 335.276 0H419.095C436.072 154.06 450.041 307.727 461 461Z" fill="white"/>
<path d="M461 461C471.966 307.727 485.934 154.06 502.905 0H586.724C535.571 157.183 493.663 310.849 461 461Z" fill="white"/>
<path d="M461 461C514.697 317.02 584.545 163.354 670.543 0H754.362C632.437 172.463 534.649 326.13 461 461Z" fill="white"/>
<path d="M461 461C553.089 337.987 678.816 184.32 838.181 0H922L461 461Z" fill="white"/>
<path d="M461 461C584.013 368.911 737.68 243.184 922 83.8193V167.638C749.543 289.564 595.876 387.351 461 461Z" fill="white"/>
<path d="M461 461C604.98 407.303 758.646 337.455 922 251.457V335.276C764.817 386.429 611.151 428.337 461 461Z" fill="white"/>
<path d="M461 461C614.273 450.04 767.94 436.072 922 419.095V502.905C767.946 485.927 614.279 471.959 461 461Z" fill="white"/>
<path d="M461 461C611.157 493.663 764.824 535.571 922 586.724V670.543C758.652 584.551 604.986 514.703 461 461Z" fill="white"/>
<path d="M461 461C595.87 534.649 749.537 632.437 922 754.362V838.181C737.686 678.816 584.019 553.089 461 461Z" fill="white"/>
<path d="M461 461L922 922H838.181C678.816 737.686 553.089 584.019 461 461Z" fill="white"/>
<path d="M461 461C534.649 595.87 632.437 749.537 754.362 922H670.543C584.551 758.652 514.703 604.986 461 461Z" fill="white"/>
<path d="M461 461C493.663 611.157 535.571 764.824 586.724 922H502.905C485.928 767.946 471.96 614.279 461 461Z" fill="white"/>
<path d="M461 461C450.041 614.273 436.072 767.94 419.095 922H335.276C386.429 764.817 428.337 611.151 461 461Z" fill="white"/>
<path d="M461 461C407.303 604.98 337.455 758.646 251.457 922H167.638C289.563 749.543 387.351 595.876 461 461Z" fill="white"/>
<path d="M461 461C368.911 584.013 243.184 737.68 83.819 922H0L461 461Z" fill="white"/>
<path d="M461 461C337.987 553.089 184.32 678.816 0 838.181V754.362C172.463 632.437 326.13 534.649 461 461Z" fill="white"/>
<path d="M461 461C317.02 514.697 163.354 584.545 0 670.543V586.724C157.183 535.571 310.849 493.663 461 461Z" fill="white"/>
<path d="M461 461C307.727 471.965 154.06 485.934 0 502.905V419.095C154.06 436.072 307.727 450.04 461 461Z" fill="white"/>
<path d="M461 461C310.843 428.337 157.176 386.429 0 335.276V251.457C163.354 337.455 317.02 407.303 461 461Z" fill="white"/>
<path d="M461 461C326.13 387.351 172.463 289.564 0 167.638V83.8193C184.32 243.184 337.987 368.911 461 461Z" fill="white"/>
</g>
<defs>
<clipPath id="clip0_741_908">
<rect width="922" height="922" rx="461" fill="white"/>
</clipPath>
</defs>
</svg>
