<svg width="166" height="159" viewBox="0 0 166 159" fill="none" xmlns="http://www.w3.org/2000/svg">
<path d="M93.7414 6.69525L110.076 39.7933C111.826 43.3383 115.208 45.7953 119.12 46.3643L155.646 51.6713C165.498 53.1033 169.432 65.2102 162.303 72.1592L135.873 97.9222C133.042 100.681 131.75 104.657 132.419 108.554L138.658 144.932C140.341 154.744 130.042 162.227 121.23 157.594L88.5614 140.419C85.0624 138.579 80.8814 138.579 77.3824 140.419L44.7134 157.594C35.9014 162.227 25.6024 154.744 27.2854 144.932L33.5244 108.554C34.1924 104.658 32.9004 100.682 30.0704 97.9222L3.6404 72.1592C-3.4886 65.2102 0.445417 53.1033 10.2974 51.6713L46.8234 46.3643C50.7354 45.7953 54.1174 43.3383 55.8674 39.7933L72.2024 6.69525C76.6054 -2.23175 89.3354 -2.23175 93.7414 6.69525Z" fill="#FFD4E1"/>
<path d="M49.2664 90.5632C53.6847 90.5632 57.2664 86.9815 57.2664 82.5632C57.2664 78.145 53.6847 74.5632 49.2664 74.5632C44.8481 74.5632 41.2664 78.145 41.2664 82.5632C41.2664 86.9815 44.8481 90.5632 49.2664 90.5632Z" fill="#35190E"/>
<path d="M44.6354 82.5632C44.6354 82.5632 44.5584 82.4351 44.4554 82.2131C44.3494 82.0121 44.2504 81.6241 44.2374 81.1981C44.1944 80.7601 44.2884 80.2541 44.4694 79.7311C44.5794 79.4811 44.6904 79.2121 44.8594 78.9751C45.0074 78.7221 45.2124 78.5061 45.4084 78.2831C45.6314 78.0871 45.8464 77.8811 46.0994 77.7331C46.3354 77.5621 46.6054 77.4531 46.8554 77.3421C47.1204 77.2581 47.3694 77.1701 47.6214 77.1431C47.8674 77.0991 48.1054 77.0942 48.3234 77.1102C48.5364 77.1052 48.7354 77.1501 48.9054 77.1911C49.0744 77.2201 49.2194 77.2771 49.3354 77.3301C49.5684 77.4331 49.6894 77.5112 49.6894 77.5112C49.6894 77.5112 49.5634 77.6022 49.3624 77.7272C49.1604 77.8452 48.8914 78.0301 48.6024 78.2251C48.0194 78.6341 47.3874 79.1371 46.8244 79.6991C46.2614 80.2611 45.7554 80.8932 45.3484 81.4772C45.1544 81.7712 44.9724 82.0032 44.8524 82.2352C44.7254 82.4442 44.6354 82.5632 44.6354 82.5632Z" fill="white"/>
<path d="M116.675 90.5632C121.094 90.5632 124.675 86.9815 124.675 82.5632C124.675 78.145 121.094 74.5632 116.675 74.5632C112.257 74.5632 108.675 78.145 108.675 82.5632C108.675 86.9815 112.257 90.5632 116.675 90.5632Z" fill="#35190E"/>
<path d="M112.044 82.5632C112.044 82.5632 111.967 82.4351 111.864 82.2131C111.758 82.0121 111.659 81.6241 111.646 81.1981C111.603 80.7601 111.697 80.2541 111.878 79.7311C111.988 79.4811 112.099 79.2121 112.268 78.9751C112.416 78.7221 112.621 78.5061 112.817 78.2831C113.04 78.0871 113.255 77.8811 113.508 77.7331C113.744 77.5621 114.014 77.4531 114.264 77.3421C114.529 77.2581 114.778 77.1701 115.03 77.1431C115.276 77.0991 115.514 77.0942 115.732 77.1102C115.945 77.1052 116.144 77.1501 116.314 77.1911C116.483 77.2201 116.628 77.2771 116.744 77.3301C116.977 77.4331 117.098 77.5112 117.098 77.5112C117.098 77.5112 116.972 77.6022 116.771 77.7272C116.57 77.8452 116.3 78.0301 116.011 78.2251C115.428 78.6341 114.796 79.1371 114.233 79.6991C113.67 80.2611 113.164 80.8932 112.757 81.4772C112.563 81.7712 112.381 82.0032 112.261 82.2352C112.134 82.4442 112.044 82.5632 112.044 82.5632Z" fill="white"/>
<path d="M18.6034 59.3584C12.1784 59.3584 13.1094 69.3194 19.5134 69.3194C25.9384 69.3194 25.0074 59.3584 18.6034 59.3584Z" fill="#FFB8CB"/>
<path d="M38.1464 55.2693C31.7084 55.2693 31.5094 65.2673 37.9594 65.2673C44.3974 65.2673 44.5974 55.2693 38.1464 55.2693Z" fill="#FFB8CB"/>
<path d="M61.0594 45.5593C54.7164 45.5593 53.3264 55.4733 59.7524 55.4733C66.0954 55.4733 67.4854 45.5593 61.0594 45.5593Z" fill="#FFB8CB"/>
<path d="M69.4514 26.9312C63.0264 26.9312 63.9504 36.8931 70.3554 36.8931C76.7804 36.8921 75.8554 26.9312 69.4514 26.9312Z" fill="#FFB8CB"/>
<path d="M29.5314 78.3472C23.0974 78.3472 23.8794 88.3192 30.2944 88.3192C36.7284 88.3192 35.9464 78.3472 29.5314 78.3472Z" fill="#FFB8CB"/>
<path d="M44.7464 97.3623C38.3894 97.3623 37.1374 107.293 43.5704 107.293C49.9284 107.293 51.1794 97.3623 44.7464 97.3623Z" fill="#FFB8CB"/>
<path d="M41.1364 120.405C34.7294 120.405 33.9564 130.38 40.3964 130.38C46.8034 130.38 47.5764 120.405 41.1364 120.405Z" fill="#FFB8CB"/>
<path d="M37.8054 142.107C31.3564 142.107 31.8754 152.095 38.3004 152.095C44.7504 152.094 44.2304 142.107 37.8054 142.107Z" fill="#FFB8CB"/>
<path d="M59.4544 133.323C53.0144 133.323 53.5794 143.308 59.9994 143.308C66.4404 143.308 65.8754 133.323 59.4544 133.323Z" fill="#FFB8CB"/>
<path d="M148.311 59.3584C154.736 59.3584 153.805 69.3194 147.401 69.3194C140.976 69.3194 141.907 59.3584 148.311 59.3584Z" fill="#FFB8CB"/>
<path d="M128.768 55.2693C135.206 55.2693 135.405 65.2673 128.955 65.2673C122.517 65.2673 122.317 55.2693 128.768 55.2693Z" fill="#FFB8CB"/>
<path d="M105.855 45.5593C112.198 45.5593 113.588 55.4733 107.162 55.4733C100.819 55.4733 99.4294 45.5593 105.855 45.5593Z" fill="#FFB8CB"/>
<path d="M97.4634 26.9312C103.888 26.9312 102.964 36.8931 96.5594 36.8931C90.1344 36.8921 91.0594 26.9312 97.4634 26.9312Z" fill="#FFB8CB"/>
<path d="M137.384 78.3472C143.818 78.3472 143.036 88.3192 136.621 88.3192C130.186 88.3192 130.968 78.3472 137.384 78.3472Z" fill="#FFB8CB"/>
<path d="M122.168 97.3623C128.525 97.3623 129.777 107.293 123.344 107.293C116.986 107.293 115.735 97.3623 122.168 97.3623Z" fill="#FFB8CB"/>
<path d="M125.778 120.405C132.185 120.405 132.958 130.38 126.518 130.38C120.111 130.38 119.338 120.405 125.778 120.405Z" fill="#FFB8CB"/>
<path d="M129.109 142.107C135.558 142.107 135.039 152.095 128.614 152.095C122.164 152.094 122.684 142.107 129.109 142.107Z" fill="#FFB8CB"/>
<path d="M107.46 133.323C113.9 133.323 113.335 143.308 106.915 143.308C100.474 143.308 101.039 133.323 107.46 133.323Z" fill="#FFB8CB"/>
<path d="M81.5094 123.824C75.0954 123.824 76.4184 133.744 82.7864 133.744C89.2004 133.744 87.8774 123.824 81.5094 123.824Z" fill="#FFB8CB"/>
<path d="M82.7064 4.6792C76.2584 4.6792 76.5084 14.6762 82.9464 14.6762C89.3944 14.6762 89.1444 4.6792 82.7064 4.6792Z" fill="#FFB8CB"/>
</svg>
