<svg width="140" height="130" viewBox="0 0 140 130" fill="none" xmlns="http://www.w3.org/2000/svg">
<path d="M137.046 48.516C128.801 15.253 101.276 0 69.6102 0C37.9442 0 10.4202 15.253 2.17416 48.516C-0.384842 58.841 -0.656839 69.375 1.21016 79.573C1.25216 79.804 1.30516 80.027 1.35016 80.257C7.55116 112.438 33.0962 129.374 69.6102 129.374C106.124 129.374 131.67 112.438 137.87 80.257C137.914 80.028 137.967 79.804 138.01 79.573C139.877 69.375 139.605 58.84 137.046 48.516ZM69.6102 126.091C34.8722 126.091 6.14716 104.894 1.37816 77.327C1.53216 72.606 2.26816 67.917 3.67916 63.437C4.05716 62.236 4.48416 61.049 4.96016 59.881C6.15016 56.961 7.64916 54.156 9.48216 51.52C9.97316 50.814 10.4902 50.122 11.0312 49.447C12.1142 48.096 13.2942 46.81 14.5592 45.6C15.5072 44.692 16.5032 43.827 17.5402 43.009C18.5772 42.191 19.6562 41.42 20.7702 40.702C24.4842 38.306 28.5932 36.489 32.8822 35.423C34.1692 35.103 35.4722 34.851 36.7852 34.672C38.0982 34.492 39.4222 34.385 40.7512 34.355C42.5222 34.315 44.3022 34.412 46.0752 34.656C47.3812 34.836 48.6702 35.108 49.9332 35.462C51.8282 35.994 53.6662 36.712 55.4152 37.592C56.5812 38.178 57.7092 38.836 58.7882 39.558C59.8672 40.279 60.8982 41.065 61.8722 41.906C65.2802 44.85 67.9892 68.49 69.6102 72.469C71.2312 68.49 73.9392 44.85 77.3482 41.906C78.3222 41.065 79.3532 40.28 80.4322 39.558C81.5112 38.836 82.6382 38.179 83.8052 37.592C85.5542 36.712 87.3922 35.994 89.2872 35.462C90.5502 35.108 91.8402 34.836 93.1452 34.656C107.335 32.696 121.885 40.221 129.738 51.521C130.837 53.103 131.817 54.745 132.682 56.437C133.042 57.142 133.383 57.855 133.704 58.576C134.666 60.739 135.453 62.971 136.073 65.25C136.569 67.073 136.959 68.926 137.248 70.798C137.44 72.046 137.588 73.302 137.692 74.562C137.768 75.481 137.813 76.404 137.843 77.327C133.073 104.894 104.349 126.091 69.6102 126.091Z" fill="#489ED3"/>
<path d="M69.6102 126.091C104.348 126.091 133.073 104.894 137.842 77.3271C137.812 76.4041 137.767 75.4811 137.691 74.5621C137.587 73.3011 137.44 72.0451 137.247 70.7981C136.958 68.9261 136.569 67.0731 136.072 65.2501C135.245 62.2111 134.123 59.2561 132.681 56.4361C131.816 54.7451 130.837 53.1021 129.737 51.5201C121.884 40.2211 107.334 32.6951 93.1442 34.6551C91.8382 34.8351 90.5492 35.1071 89.2862 35.4611C87.3912 35.9931 85.5532 36.7111 83.8042 37.5911C82.6382 38.1771 81.5102 38.8351 80.4312 39.5571C79.3522 40.2781 78.3212 41.0641 77.3472 41.9051C73.9392 44.8491 71.2302 68.4891 69.6092 72.4681C67.9882 68.4891 65.2802 44.8491 61.8712 41.9051C60.8972 41.0641 59.8662 40.2791 58.7872 39.5571C57.7082 38.8351 56.5812 38.1781 55.4142 37.5911C53.6642 36.7111 51.8272 35.9931 49.9322 35.4611C48.6692 35.1071 47.3792 34.8351 46.0742 34.6551C44.3002 34.4101 42.5212 34.3131 40.7502 34.3541C38.0932 34.4141 35.4552 34.7831 32.8812 35.4231C28.5922 36.4891 24.4832 38.3071 20.7692 40.7021C18.5412 42.1391 16.4552 43.7851 14.5582 45.6001C13.2932 46.8101 12.1132 48.0971 11.0302 49.4471C10.4882 50.1221 9.97216 50.8141 9.48116 51.5201C7.64916 54.1561 6.14916 56.9611 4.95916 59.8811C4.48316 61.0491 4.05616 62.2351 3.67816 63.4371C2.26716 67.9171 1.53116 72.6071 1.37716 77.3271C6.14816 104.894 34.8722 126.091 69.6102 126.091Z" fill="white"/>
<path d="M35.6832 80.343C40.1014 80.343 43.6832 76.7613 43.6832 72.343C43.6832 67.9247 40.1014 64.343 35.6832 64.343C31.2649 64.343 27.6832 67.9247 27.6832 72.343C27.6832 76.7613 31.2649 80.343 35.6832 80.343Z" fill="#35190E"/>
<path d="M31.0521 72.3429C31.0521 72.3429 30.9752 72.2149 30.8722 71.9929C30.7662 71.7919 30.6672 71.4039 30.6542 70.9779C30.6112 70.5399 30.7051 70.0339 30.8861 69.5109C30.9961 69.2609 31.1071 68.9919 31.2761 68.7549C31.4241 68.5019 31.6292 68.2859 31.8252 68.0629C32.0482 67.8669 32.2632 67.6609 32.5162 67.5129C32.7522 67.3419 33.0222 67.2329 33.2722 67.1209C33.5372 67.0369 33.7862 66.9489 34.0382 66.9219C34.2842 66.8779 34.5222 66.873 34.7402 66.889C34.9532 66.884 35.1512 66.9289 35.3222 66.9699C35.4912 66.9989 35.6362 67.0559 35.7522 67.1089C35.9842 67.2119 36.1061 67.2899 36.1061 67.2899C36.1061 67.2899 35.9802 67.3809 35.7792 67.5059C35.5782 67.6239 35.3082 67.8089 35.0192 68.0029C34.4362 68.4119 33.8042 68.9149 33.2412 69.4759C32.6782 70.0379 32.1721 70.6699 31.7651 71.2539C31.5711 71.5479 31.3892 71.7799 31.2692 72.0109C31.1412 72.2239 31.0521 72.3429 31.0521 72.3429Z" fill="white"/>
<path d="M103.092 80.343C107.51 80.343 111.092 76.7613 111.092 72.343C111.092 67.9247 107.51 64.343 103.092 64.343C98.6739 64.343 95.0922 67.9247 95.0922 72.343C95.0922 76.7613 98.6739 80.343 103.092 80.343Z" fill="#35190E"/>
<path d="M98.4602 72.3429C98.4602 72.3429 98.3832 72.2149 98.2802 71.9929C98.1742 71.7919 98.0752 71.4039 98.0622 70.9779C98.0192 70.5399 98.1132 70.0339 98.2942 69.5109C98.4042 69.2609 98.5152 68.9919 98.6842 68.7549C98.8322 68.5019 99.0371 68.2859 99.2331 68.0629C99.4561 67.8669 99.6712 67.6609 99.9242 67.5129C100.16 67.3419 100.43 67.2329 100.68 67.1209C100.945 67.0369 101.194 66.9489 101.446 66.9219C101.692 66.8779 101.93 66.873 102.148 66.889C102.361 66.884 102.559 66.9289 102.73 66.9699C102.899 66.9989 103.044 67.0559 103.16 67.1089C103.392 67.2119 103.514 67.2899 103.514 67.2899C103.514 67.2899 103.388 67.3809 103.187 67.5059C102.986 67.6239 102.716 67.8089 102.427 68.0029C101.844 68.4119 101.212 68.9149 100.648 69.4759C100.085 70.0379 99.5792 70.6699 99.1722 71.2539C98.9782 71.5479 98.7962 71.7799 98.6762 72.0109C98.5502 72.2239 98.4602 72.3429 98.4602 72.3429Z" fill="white"/>
<path d="M85.4242 92.1551C85.4242 100.889 53.7962 100.889 53.7962 92.1551C53.7962 83.4211 60.8762 76.3411 69.6102 76.3411C78.3442 76.3411 85.4242 83.4211 85.4242 92.1551Z" fill="#FFD16C"/>
</svg>
