<svg width="237" height="132" viewBox="0 0 237 132" fill="none" xmlns="http://www.w3.org/2000/svg">
<path d="M67.8635 121.902C68.4485 127.206 72.8904 132.485 78.2014 131.965C84.0324 131.394 87.0764 124.91 88.9874 119.371C91.7534 111.356 93.9574 99.934 82.9864 101.056C72.8994 102.087 66.8255 112.497 67.8635 121.902Z" fill="#FF7171"/>
<path d="M49.5174 102.741C48.1844 105.487 47.3944 108.605 47.9524 111.606C48.5104 114.607 50.6234 117.428 53.5694 118.227C57.5714 119.313 61.6014 116.556 64.3534 113.455C67.8124 109.557 77.3444 94.601 70.8794 90.07C64.2924 85.454 51.9114 97.8089 49.5174 102.741Z" fill="#FF7171"/>
<path d="M38.3145 82.809C38.1395 85.152 39.8684 87.302 41.9664 88.358C44.0644 89.414 46.4775 89.605 48.8195 89.777C55.1085 90.239 76.4965 88.799 65.5855 78.819C60.9775 74.604 38.9635 74.125 38.3145 82.809Z" fill="#FF7171"/>
<path d="M186.813 102.741C188.146 105.487 188.937 108.605 188.378 111.606C187.82 114.607 185.707 117.428 182.761 118.227C178.759 119.313 174.729 116.556 171.977 113.455C168.518 109.557 158.986 94.601 165.451 90.07C172.038 85.454 184.419 97.8089 186.813 102.741Z" fill="#FF7171"/>
<path d="M168.467 121.902C167.882 127.206 163.44 132.485 158.129 131.965C152.298 131.394 149.254 124.91 147.343 119.371C144.577 111.356 142.373 99.934 153.345 101.056C163.431 102.087 169.505 112.497 168.467 121.902Z" fill="#FF7171"/>
<path d="M198.016 82.809C198.191 85.152 196.462 87.302 194.364 88.358C192.266 89.414 189.853 89.605 187.511 89.777C181.222 90.239 159.834 88.799 170.745 78.819C175.353 74.604 197.367 74.125 198.016 82.809Z" fill="#FF7171"/>
<path d="M200.425 57.3251C212.895 58.7181 226.881 52.6191 234.917 42.8181C236.951 40.3381 236.771 37.0831 234.518 35.2621C226.72 28.9601 218.224 23.1911 207.882 20.6911C197.09 18.0821 176.333 19.0951 174.527 32.5591C172.888 44.7661 188.87 56.0351 200.425 57.3251Z" fill="#FF7171"/>
<path d="M194.193 4.70705C195.076 1.98205 192.578 -0.609904 189.81 0.127096C186.456 1.0191 183.187 2.16507 180.151 3.83407C171.292 8.70607 161.172 34.5811 178.713 32.4191C183.782 31.7941 187.46 24.4931 189.361 20.6071C190.358 18.5691 192.311 10.5151 194.193 4.70705Z" fill="#FF7171"/>
<path d="M35.9065 57.3251C23.4365 58.7181 9.45043 52.6191 1.41543 42.8181C-0.618571 40.3381 -0.438523 37.0831 1.81448 35.2621C9.61248 28.9601 18.1085 23.1911 28.4505 20.6911C39.2425 18.0821 59.9994 19.0951 61.8054 32.5591C63.4424 44.7661 47.4605 56.0351 35.9065 57.3251Z" fill="#FF7171"/>
<path d="M42.1374 4.70705C41.2544 1.98205 43.7524 -0.609904 46.5204 0.127096C49.8744 1.0191 53.1434 2.16507 56.1794 3.83407C65.0394 8.70607 75.1584 34.5811 57.6174 32.4191C52.5484 31.7941 48.8704 24.4931 46.9694 20.6071C45.9724 18.5691 44.0204 10.5151 42.1374 4.70705Z" fill="#FF7171"/>
<path d="M118.165 92.197C89.2714 92.197 64.3694 84.307 52.9214 64.563C53.0074 99.923 82.1834 113.044 118.165 113.044C154.147 113.044 183.322 99.923 183.408 64.563C171.961 84.307 147.06 92.197 118.165 92.197Z" fill="#FFC0C0"/>
<path d="M118.165 92.1971C147.059 92.1971 171.961 84.3071 183.408 64.5631C183.408 64.5111 183.412 64.4611 183.412 64.4091C183.412 55.0611 181.368 46.1891 177.721 38.1771C167.528 15.7801 144.705 3.91211 118.164 3.91211C91.6234 3.91211 68.8004 15.7801 58.6074 38.1771C54.9614 46.1891 52.9164 55.0611 52.9164 64.4091C52.9164 64.4611 52.9204 64.5111 52.9204 64.5631C64.3694 84.3071 89.2714 92.1971 118.165 92.1971Z" fill="#FF7171"/>
<path d="M84.4614 74.615C88.8797 74.615 92.4614 71.0333 92.4614 66.615C92.4614 62.1967 88.8797 58.615 84.4614 58.615C80.0431 58.615 76.4614 62.1967 76.4614 66.615C76.4614 71.0333 80.0431 74.615 84.4614 74.615Z" fill="#35190E"/>
<path d="M79.8305 66.6151C79.8305 66.6151 79.7535 66.4871 79.6505 66.2641C79.5445 66.0631 79.4454 65.6751 79.4324 65.2501C79.3894 64.8121 79.4834 64.3062 79.6644 63.7832C79.7744 63.5332 79.8855 63.2641 80.0545 63.0271C80.2025 62.7741 80.4075 62.5582 80.6035 62.3352C80.8265 62.1392 81.0414 61.9331 81.2944 61.7851C81.5304 61.6141 81.8004 61.5051 82.0504 61.3941C82.3154 61.3101 82.5644 61.2222 82.8164 61.1952C83.0624 61.1512 83.3004 61.1461 83.5184 61.1621C83.7314 61.1571 83.9305 61.2021 84.1005 61.2431C84.2695 61.2721 84.4145 61.3292 84.5305 61.3822C84.7625 61.4852 84.8845 61.5631 84.8845 61.5631C84.8845 61.5631 84.7584 61.6541 84.5574 61.7791C84.3564 61.8971 84.0864 62.0821 83.7974 62.2771C83.2144 62.6861 82.5824 63.1891 82.0184 63.7511C81.4554 64.3131 80.9494 64.9451 80.5424 65.5291C80.3484 65.8241 80.1665 66.0551 80.0465 66.2871C79.9195 66.4951 79.8305 66.6151 79.8305 66.6151Z" fill="white"/>
<path d="M151.87 74.615C156.289 74.615 159.87 71.0333 159.87 66.615C159.87 62.1967 156.289 58.615 151.87 58.615C147.452 58.615 143.87 62.1967 143.87 66.615C143.87 71.0333 147.452 74.615 151.87 74.615Z" fill="#35190E"/>
<path d="M147.238 66.6151C147.238 66.6151 147.161 66.4871 147.058 66.2641C146.952 66.0631 146.853 65.6751 146.84 65.2501C146.797 64.8121 146.891 64.3062 147.072 63.7832C147.182 63.5332 147.293 63.2641 147.462 63.0271C147.61 62.7741 147.815 62.5582 148.011 62.3352C148.234 62.1392 148.449 61.9331 148.702 61.7851C148.938 61.6141 149.208 61.5051 149.458 61.3941C149.723 61.3101 149.972 61.2222 150.224 61.1952C150.47 61.1512 150.708 61.1461 150.926 61.1621C151.139 61.1571 151.338 61.2021 151.508 61.2431C151.677 61.2721 151.822 61.3292 151.938 61.3822C152.17 61.4852 152.292 61.5631 152.292 61.5631C152.292 61.5631 152.166 61.6541 151.965 61.7791C151.764 61.8971 151.494 62.0821 151.205 62.2771C150.622 62.6861 149.99 63.1891 149.427 63.7511C148.864 64.3131 148.358 64.9451 147.951 65.5291C147.757 65.8241 147.575 66.0551 147.455 66.2871C147.328 66.4951 147.238 66.6151 147.238 66.6151Z" fill="white"/>
</svg>
