<svg width="185" height="133" viewBox="0 0 185 133" fill="none" xmlns="http://www.w3.org/2000/svg">
<path d="M21.623 69.433C33.565 69.433 43.246 59.7521 43.246 47.81C43.246 35.8679 33.565 26.187 21.623 26.187C9.68093 26.187 0 35.8679 0 47.81C0 59.7521 9.68093 69.433 21.623 69.433Z" fill="#C96E31"/>
<path d="M24.581 63.2681C31.4846 63.2681 37.081 57.6716 37.081 50.7681C37.081 43.8645 31.4846 38.2681 24.581 38.2681C17.6774 38.2681 12.081 43.8645 12.081 50.7681C12.081 57.6716 17.6774 63.2681 24.581 63.2681Z" fill="#FFC5AE"/>
<path d="M162.459 69.433C174.401 69.433 184.082 59.7521 184.082 47.81C184.082 35.8679 174.401 26.187 162.459 26.187C150.517 26.187 140.836 35.8679 140.836 47.81C140.836 59.7521 150.517 69.433 162.459 69.433Z" fill="#C96E31"/>
<path d="M159.5 63.2681C166.404 63.2681 172 57.6716 172 50.7681C172 43.8645 166.404 38.2681 159.5 38.2681C152.596 38.2681 147 43.8645 147 50.7681C147 57.6716 152.596 63.2681 159.5 63.2681Z" fill="#FFC5AE"/>
<path d="M115.576 34.6561C105.131 36.0991 95.747 43.3621 92.041 52.4561C88.335 43.3611 78.951 36.0991 68.506 34.6561C54.316 32.6961 39.7661 40.2211 31.9131 51.5211C26.0501 59.9571 23.595 70.1181 23.781 80.2571C29.982 112.438 55.527 132.376 92.041 132.376C128.555 132.376 154.101 112.438 160.301 80.2571C160.487 70.1181 158.032 59.9571 152.169 51.5211C144.315 40.2211 129.766 32.6961 115.576 34.6561Z" fill="#FFE4CC"/>
<path d="M159.477 48.516C151.232 15.253 123.707 0 92.041 0C60.375 0 32.851 15.253 24.605 48.516C22.046 58.841 21.774 69.375 23.641 79.573C23.683 79.804 23.736 80.027 23.781 80.257C23.595 70.118 26.05 59.957 31.913 51.521C39.766 40.222 54.316 32.697 68.506 34.656C78.951 36.099 88.335 43.362 92.041 52.456C95.747 43.361 105.131 36.099 115.576 34.656C129.766 32.696 144.316 40.221 152.169 51.521C158.032 59.957 160.487 70.118 160.301 80.257C160.345 80.028 160.398 79.804 160.441 79.573C162.308 69.375 162.036 58.84 159.477 48.516Z" fill="#C96E31"/>
<path d="M58.336 80.3438C62.7543 80.3438 66.336 76.762 66.336 72.3438C66.336 67.9255 62.7543 64.3438 58.336 64.3438C53.9177 64.3438 50.336 67.9255 50.336 72.3438C50.336 76.762 53.9177 80.3438 58.336 80.3438Z" fill="#35190E"/>
<path d="M53.706 72.3437C53.706 72.3437 53.629 72.2156 53.526 71.9926C53.42 71.7916 53.321 71.4037 53.308 70.9787C53.265 70.5407 53.359 70.0347 53.54 69.5117C53.65 69.2617 53.761 68.9926 53.93 68.7556C54.078 68.5026 54.283 68.2867 54.479 68.0637C54.702 67.8677 54.917 67.6616 55.17 67.5136C55.406 67.3426 55.676 67.2336 55.926 67.1226C56.191 67.0386 56.439 66.9507 56.692 66.9237C56.938 66.8797 57.176 66.8747 57.394 66.8907C57.607 66.8857 57.806 66.9306 57.976 66.9716C58.145 67.0006 58.29 67.0577 58.406 67.1107C58.638 67.2137 58.76 67.2917 58.76 67.2917C58.76 67.2917 58.634 67.3827 58.433 67.5077C58.232 67.6257 57.962 67.8116 57.673 68.0056C57.09 68.4146 56.458 68.9176 55.894 69.4796C55.331 70.0416 54.825 70.6737 54.418 71.2577C54.224 71.5527 54.042 71.7837 53.922 72.0157C53.795 72.2237 53.706 72.3437 53.706 72.3437Z" fill="white"/>
<path d="M125.745 80.3438C130.163 80.3438 133.745 76.762 133.745 72.3438C133.745 67.9255 130.163 64.3438 125.745 64.3438C121.327 64.3438 117.745 67.9255 117.745 72.3438C117.745 76.762 121.327 80.3438 125.745 80.3438Z" fill="#35190E"/>
<path d="M121.114 72.3437C121.114 72.3437 121.037 72.2156 120.934 71.9926C120.828 71.7916 120.729 71.4037 120.716 70.9787C120.673 70.5407 120.767 70.0347 120.948 69.5117C121.058 69.2617 121.169 68.9926 121.338 68.7556C121.486 68.5026 121.691 68.2867 121.887 68.0637C122.11 67.8677 122.325 67.6616 122.578 67.5136C122.814 67.3426 123.084 67.2336 123.334 67.1226C123.599 67.0386 123.848 66.9507 124.1 66.9237C124.346 66.8797 124.584 66.8747 124.802 66.8907C125.015 66.8857 125.214 66.9306 125.384 66.9716C125.553 67.0006 125.698 67.0577 125.814 67.1107C126.046 67.2137 126.168 67.2917 126.168 67.2917C126.168 67.2917 126.042 67.3827 125.841 67.5077C125.64 67.6257 125.37 67.8116 125.081 68.0056C124.498 68.4146 123.866 68.9176 123.303 69.4796C122.74 70.0416 122.234 70.6737 121.827 71.2577C121.633 71.5527 121.451 71.7837 121.331 72.0157C121.204 72.2237 121.114 72.3437 121.114 72.3437Z" fill="white"/>
<path d="M91.322 96.8511C91.759 97.7241 91.322 106.761 91.322 106.761C91.322 106.761 88.162 113.874 79.208 110.735" stroke="#998271" stroke-width="3" stroke-miterlimit="10" stroke-linecap="round" stroke-linejoin="round"/>
<path d="M92.76 96.8511C92.323 97.7241 92.76 106.761 92.76 106.761C92.76 106.761 95.92 113.874 104.874 110.735" stroke="#998271" stroke-width="3" stroke-miterlimit="10" stroke-linecap="round" stroke-linejoin="round"/>
<path d="M92.041 99.1001C95.0786 99.1001 97.541 96.6377 97.541 93.6001C97.541 90.5625 95.0786 88.1001 92.041 88.1001C89.0034 88.1001 86.541 90.5625 86.541 93.6001C86.541 96.6377 89.0034 99.1001 92.041 99.1001Z" fill="#998271"/>
</svg>
