<svg width="178" height="140" viewBox="0 0 178 140" fill="none" xmlns="http://www.w3.org/2000/svg">
<path d="M50.0805 30.8999C52.0084 18.0345 43.1417 6.04213 30.2763 4.11427C17.4109 2.18641 5.41856 11.0531 3.4907 23.9185C1.56284 36.7839 10.4295 48.7762 23.2949 50.7041C36.1603 52.6319 48.1527 43.7653 50.0805 30.8999Z" fill="#D7864F"/>
<path d="M34.3059 41.1606C40.1052 38.7782 42.8752 32.1455 40.4927 26.3462C38.1103 20.5469 31.4777 17.777 25.6784 20.1594C19.8791 22.5418 17.1091 29.1744 19.4916 34.9737C21.874 40.7731 28.5066 43.543 34.3059 41.1606Z" fill="#FFC5AE"/>
<path d="M153.866 50.5633C166.664 48.2335 175.15 35.9702 172.82 23.1724C170.49 10.3746 158.227 1.88866 145.429 4.21849C132.631 6.54831 124.145 18.8117 126.475 31.6094C128.805 44.4072 141.068 52.8932 153.866 50.5633Z" fill="#D7864F"/>
<path d="M156.921 34.9282C159.303 29.1289 156.533 22.4963 150.734 20.1138C144.934 17.7314 138.302 20.5014 135.919 26.3007C133.537 32.1 136.307 38.7326 142.106 41.115C147.905 43.4974 154.538 40.7275 156.921 34.9282Z" fill="#FFC5AE"/>
<path d="M87.4987 139.668C126.524 139.668 158.161 109.919 158.161 73.2209C158.161 36.5233 126.524 6.77393 87.4987 6.77393C48.4732 6.77393 16.8367 36.5233 16.8367 73.2209C16.8367 109.919 48.4732 139.668 87.4987 139.668Z" fill="#D7864F"/>
<path d="M86.8917 81.708C66.9777 83.521 59.1367 95.412 59.1367 103.376C59.1367 111.34 65.5927 117.797 73.5577 117.797C80.3147 117.797 85.9707 113.143 87.5347 106.869C89.0987 113.142 94.7537 117.797 101.512 117.797C109.476 117.797 115.933 111.341 115.933 103.376C115.932 95.412 104.044 81.708 86.8917 81.708Z" fill="#FFF9F3"/>
<path d="M52.6607 85.679C57.2325 85.679 60.9388 81.9729 60.9388 77.401C60.9388 72.8292 57.2325 69.123 52.6607 69.123C48.0889 69.123 44.3828 72.8292 44.3828 77.401C44.3828 81.9729 48.0889 85.679 52.6607 85.679Z" fill="#35190E"/>
<path d="M47.8687 77.4011C47.8687 77.4011 47.7917 77.2691 47.6887 77.0391C47.5827 76.8311 47.4857 76.4311 47.4757 75.9941C47.4627 75.7701 47.4677 75.5261 47.5157 75.2731C47.5447 75.0141 47.6357 74.7581 47.7237 74.4861C47.8377 74.2291 47.9527 73.9531 48.1277 73.7091C48.2807 73.4491 48.4917 73.2271 48.6937 72.9981C48.9227 72.7961 49.1437 72.5841 49.4037 72.4311C49.6457 72.2551 49.9237 72.1421 50.1807 72.0261C50.4527 71.9381 50.7087 71.8471 50.9677 71.8171C51.2207 71.7701 51.4647 71.7631 51.6887 71.7781C51.9077 71.7711 52.1127 71.8151 52.2877 71.8551C52.4617 71.8831 52.6107 71.9401 52.7317 71.9921C52.9717 72.0951 53.0977 72.1731 53.0977 72.1731C53.0977 72.1731 52.9667 72.2641 52.7587 72.3891C52.5497 72.5071 52.2697 72.6941 51.9677 72.8911C51.3597 73.3051 50.6957 73.8241 50.1077 74.4111C49.5197 74.9981 48.9987 75.6611 48.5857 76.2701C48.3887 76.5771 48.2047 76.8191 48.0847 77.0581C47.9587 77.2771 47.8687 77.4011 47.8687 77.4011Z" fill="white"/>
<path d="M122.409 85.679C126.981 85.679 130.687 81.9729 130.687 77.401C130.687 72.8292 126.981 69.123 122.409 69.123C117.837 69.123 114.131 72.8292 114.131 77.401C114.131 81.9729 117.837 85.679 122.409 85.679Z" fill="#35190E"/>
<path d="M117.617 77.4011C117.617 77.4011 117.54 77.2691 117.437 77.0391C117.331 76.8311 117.234 76.4311 117.224 75.9941C117.211 75.7701 117.216 75.5261 117.264 75.2731C117.293 75.0141 117.384 74.7581 117.472 74.4861C117.586 74.2291 117.701 73.9531 117.876 73.7091C118.029 73.4491 118.24 73.2271 118.442 72.9981C118.671 72.7961 118.892 72.5841 119.152 72.4311C119.394 72.2551 119.672 72.1421 119.929 72.0261C120.201 71.9381 120.457 71.8471 120.716 71.8171C120.969 71.7701 121.213 71.7631 121.437 71.7781C121.656 71.7711 121.861 71.8151 122.036 71.8551C122.21 71.8831 122.359 71.9401 122.48 71.9921C122.72 72.0951 122.846 72.1731 122.846 72.1731C122.846 72.1731 122.715 72.2641 122.507 72.3891C122.298 72.5071 122.018 72.6941 121.716 72.8911C121.108 73.3051 120.444 73.8241 119.856 74.4111C119.268 74.9981 118.747 75.6611 118.334 76.2701C118.137 76.5771 117.953 76.8191 117.833 77.0581C117.707 77.2771 117.617 77.4011 117.617 77.4011Z" fill="white"/>
<path d="M86.7907 100.875C87.2427 101.779 86.7907 104.917 86.7907 104.917C86.7907 104.917 83.5207 112.277 74.2567 109.029" stroke="#564F4A" stroke-width="3" stroke-miterlimit="10" stroke-linecap="round" stroke-linejoin="round"/>
<path d="M88.2777 100.875C87.8257 101.779 88.2777 104.917 88.2777 104.917C88.2777 104.917 91.5477 112.277 100.812 109.029" stroke="#564F4A" stroke-width="3" stroke-miterlimit="10" stroke-linecap="round" stroke-linejoin="round"/>
<path d="M93.4177 91.8906H81.4847C79.8477 91.8906 78.8397 93.3606 79.6887 94.5126C81.7197 97.2666 85.0427 101.203 87.4517 101.203C89.8607 101.203 93.1837 97.2666 95.2147 94.5126C96.0637 93.3616 95.0547 91.8906 93.4177 91.8906Z" fill="#A57A5D"/>
</svg>
