<svg width="142" height="151" viewBox="0 0 142 151" fill="none" xmlns="http://www.w3.org/2000/svg">
<path d="M124.105 113.661C135.61 98.9201 140.155 73.9201 134.514 55.8481C130.41 42.7011 118.458 29.1891 102.109 30.4501C90.752 31.3261 83.474 39.4101 78.82 48.4421C74.581 56.6681 71.796 76.9491 70.935 86.6201C70.994 87.2861 71.045 87.9071 71.087 88.4701H70.7831C70.8251 87.9071 70.876 87.2861 70.935 86.6201C70.074 76.9481 67.289 56.6681 63.05 48.4421C58.396 39.4101 51.118 31.3261 39.761 30.4501C23.412 29.1891 11.4601 42.7001 7.35606 55.8481C1.71506 73.9201 6.26006 98.9201 17.7651 113.661C24.9351 122.848 35.008 129.287 46.487 133.591C53.903 135.441 62.085 136.377 70.935 136.377C79.785 136.377 87.968 135.442 95.384 133.591C106.862 129.287 116.934 122.848 124.105 113.661Z" fill="white"/>
<path d="M141.84 68.321C141.764 65.725 141.538 63.113 141.146 60.492C137.616 36.912 123.308 14.385 102.346 6.578C92.9191 3.067 82.44 0.177991 71.418 0.0159912V0C71.256 0 71.0951 0.00699561 70.9341 0.00799561C70.7721 0.00699561 70.6121 0 70.4501 0V0.0159912C59.4291 0.177991 48.95 3.067 39.522 6.578C18.56 14.385 4.25203 36.913 0.722031 60.492C0.330031 63.113 0.104061 65.726 0.0280609 68.321C-0.188939 75.733 0.856029 83.008 3.04503 89.944C3.11103 90.153 3.18701 90.354 3.25401 90.562C4.75001 95.149 6.67302 99.325 8.97502 103.107C12.074 108.197 15.899 112.596 20.363 116.32C20.373 116.307 20.384 116.295 20.394 116.282C28.805 114.646 34.015 109.033 35.056 106.807C49.34 76.264 2.19602 71.467 7.83702 53.995C11.941 41.284 23.892 28.221 40.2421 29.44C51.5991 30.287 58.8771 38.103 63.5311 46.835C64.7391 49.102 66.454 52.253 66.805 56.042C67.324 61.657 65.216 67.123 63.284 72.238C61.561 76.801 59.258 81.099 57.94 85.635C56.641 90.105 56.375 94.981 58.571 99.08C60.738 103.123 65.806 106.121 70.67 105.241C70.766 104.673 70.8431 104.099 70.9321 103.529C71.0211 104.099 71.098 104.673 71.194 105.241C76.058 106.121 81.126 103.123 83.293 99.08C85.49 94.981 85.2241 90.105 83.9241 85.635C82.6051 81.098 80.3031 76.8 78.5801 72.238C76.6481 67.123 74.5401 61.657 75.0591 56.042C75.4091 52.253 77.1251 49.101 78.3331 46.835C82.9871 38.103 90.2651 30.287 101.622 29.44C117.971 28.221 129.923 41.284 134.027 53.995C139.668 71.467 92.525 76.264 106.808 106.807C107.849 109.033 113.059 114.646 121.47 116.282C121.48 116.295 121.491 116.307 121.501 116.32C125.965 112.596 129.791 108.197 132.889 103.107C135.191 99.325 137.114 95.149 138.61 90.562C138.678 90.355 138.754 90.153 138.819 89.944C141.011 83.008 142.057 75.734 141.84 68.321Z" fill="#35190E"/>
<path d="M104.048 92.646C120.896 92.646 134.554 78.543 134.554 61.146C134.554 43.749 120.896 29.646 104.048 29.646C87.2 29.646 73.5421 43.749 73.5421 61.146C73.5421 78.543 87.2 92.646 104.048 92.646Z" fill="#FFE388"/>
<path d="M37.8201 92.646C54.6681 92.646 68.326 78.543 68.326 61.146C68.326 43.749 54.6681 29.646 37.8201 29.646C20.9721 29.646 7.31403 43.749 7.31403 61.146C7.31403 78.543 20.9721 92.646 37.8201 92.646Z" fill="#FFE388"/>
<path d="M91.4341 77.5931C91.4341 88.2811 82.2561 106.807 70.9341 106.807C59.6121 106.807 50.4341 88.2821 50.4341 77.5931C50.4341 66.9051 59.6121 56.4851 70.9341 56.4851C82.2551 56.4861 91.4341 66.9051 91.4341 77.5931Z" fill="#35190E"/>
<path d="M70.9341 79.807C54.5361 79.807 44.9621 58.736 47.4011 92.987C48.2211 104.499 48.8501 113.332 56.7971 129.094C58.1341 128.709 59.5701 128.56 61.0121 128.722C66.1221 129.298 69.9451 133.048 71.4211 137.065C72.9111 133.048 76.746 129.298 81.858 128.722C82.969 128.597 84.0741 128.66 85.1351 128.869C91.1881 115.157 93.653 104.424 94.467 92.987C96.905 58.736 87.3321 79.807 70.9341 79.807Z" fill="#FFA81D"/>
<path d="M81.8571 128.723C76.7451 129.299 72.909 133.049 71.42 137.066C69.944 133.049 66.121 129.299 61.011 128.723C59.569 128.56 58.1331 128.709 56.7961 129.095C58.3111 134.185 68.4201 146.773 71.1431 150.122C71.2331 150.232 71.534 150.183 71.644 150.083C74.845 147.166 83.608 134.044 85.134 128.87C84.074 128.661 82.9681 128.598 81.8571 128.723Z" fill="#35190E"/>
<path d="M36.774 87.3479C41.1923 87.3479 44.774 83.7662 44.774 79.3479C44.774 74.9296 41.1923 71.3479 36.774 71.3479C32.3558 71.3479 28.774 74.9296 28.774 79.3479C28.774 83.7662 32.3558 87.3479 36.774 87.3479Z" fill="#35190E"/>
<path d="M32.1431 79.3478C32.1431 79.3478 32.0661 79.2198 31.9631 78.9968C31.8571 78.7958 31.7581 78.4078 31.7451 77.9818C31.7021 77.5438 31.7961 77.0378 31.9771 76.5148C32.0871 76.2648 32.1981 75.9958 32.3671 75.7588C32.5151 75.5058 32.7201 75.2898 32.9161 75.0668C33.1391 74.8708 33.3541 74.6648 33.6071 74.5168C33.8431 74.3458 34.113 74.2368 34.363 74.1258C34.628 74.0418 34.877 73.9538 35.129 73.9268C35.375 73.8828 35.6131 73.8778 35.8311 73.8938C36.0441 73.8888 36.2431 73.9338 36.4131 73.9748C36.5821 74.0038 36.7271 74.0608 36.8431 74.1138C37.0751 74.2168 37.1971 74.2948 37.1971 74.2948C37.1971 74.2948 37.0711 74.3858 36.8701 74.5108C36.6691 74.6288 36.3991 74.8138 36.1101 75.0088C35.5271 75.4168 34.895 75.9208 34.332 76.4818C33.769 77.0438 33.2631 77.6758 32.8561 78.2598C32.6621 78.5538 32.4801 78.7858 32.3601 79.0178C32.2331 79.2278 32.1431 79.3478 32.1431 79.3478Z" fill="white"/>
<path d="M104.183 87.3479C108.601 87.3479 112.183 83.7662 112.183 79.3479C112.183 74.9296 108.601 71.3479 104.183 71.3479C99.7648 71.3479 96.183 74.9296 96.183 79.3479C96.183 83.7662 99.7648 87.3479 104.183 87.3479Z" fill="#35190E"/>
<path d="M99.5521 79.3478C99.5521 79.3478 99.4751 79.2198 99.3721 78.9968C99.2661 78.7958 99.1671 78.4078 99.1541 77.9818C99.1111 77.5438 99.2051 77.0378 99.3861 76.5148C99.4961 76.2648 99.6071 75.9958 99.7761 75.7588C99.9241 75.5058 100.129 75.2898 100.325 75.0668C100.548 74.8708 100.763 74.6648 101.016 74.5168C101.252 74.3458 101.522 74.2368 101.772 74.1258C102.037 74.0418 102.286 73.9538 102.538 73.9268C102.784 73.8828 103.022 73.8778 103.24 73.8938C103.453 73.8888 103.652 73.9338 103.822 73.9748C103.991 74.0038 104.136 74.0608 104.252 74.1138C104.484 74.2168 104.606 74.2948 104.606 74.2948C104.606 74.2948 104.48 74.3858 104.279 74.5108C104.078 74.6288 103.808 74.8138 103.519 75.0088C102.936 75.4168 102.304 75.9208 101.741 76.4818C101.178 77.0438 100.672 77.6758 100.265 78.2598C100.071 78.5538 99.8891 78.7858 99.7691 79.0178C99.6421 79.2278 99.5521 79.3478 99.5521 79.3478Z" fill="white"/>
</svg>
