<svg width="145" height="129" viewBox="0 0 145 129" fill="none" xmlns="http://www.w3.org/2000/svg">
<path d="M144.264 64.53C142.912 28.746 110.954 0.656987 72.5775 0.0239868V0C72.4355 0.001 72.2965 0.00999341 72.1545 0.0119934C72.0125 0.00999341 71.8735 0.001 71.7315 0V0.0239868C33.3545 0.656987 1.39649 28.746 0.0444913 64.53C-1.36051 101.708 30.6835 127.624 71.7025 128.347V128.374C71.8545 128.373 72.0035 128.362 72.1545 128.36C72.3065 128.362 72.4555 128.373 72.6065 128.374V128.347C113.624 127.623 145.668 101.708 144.264 64.53Z" fill="white"/>
<path d="M41.2155 72.7031C51.6155 86.9411 62.6735 106.425 53.5335 116.116C44.3025 125.904 18.2225 121.784 7.8865 107.03C-2.29551 92.4961 -2.50951 63.2271 6.65449 54.0511C15.7305 44.9631 30.9675 58.6731 41.2155 72.7031Z" fill="white"/>
<path d="M103.093 72.7031C92.6925 86.9411 81.6345 106.425 90.7745 116.116C100.005 125.904 126.085 121.784 136.421 107.03C146.603 92.4961 146.817 63.2271 137.653 54.0511C128.577 44.9631 113.341 58.6731 103.093 72.7031Z" fill="white"/>
<path d="M38.4495 80.407C42.8678 80.407 46.4495 76.8253 46.4495 72.407C46.4495 67.9887 42.8678 64.407 38.4495 64.407C34.0312 64.407 30.4495 67.9887 30.4495 72.407C30.4495 76.8253 34.0312 80.407 38.4495 80.407Z" fill="#35190E"/>
<path d="M33.8185 72.4071C33.8185 72.4071 33.7415 72.2791 33.6385 72.0571C33.5325 71.8561 33.4335 71.4681 33.4205 71.0431C33.3775 70.6051 33.4715 70.0991 33.6525 69.5761C33.7625 69.3261 33.8735 69.0571 34.0425 68.8201C34.1905 68.5671 34.3955 68.3511 34.5915 68.1281C34.8145 67.9321 35.0295 67.7261 35.2825 67.5781C35.5185 67.4071 35.7885 67.2981 36.0385 67.1871C36.3035 67.1031 36.5525 67.0151 36.8045 66.9881C37.0505 66.9441 37.2885 66.9391 37.5065 66.9551C37.7195 66.9501 37.9175 66.9951 38.0885 67.0361C38.2575 67.0651 38.4025 67.1221 38.5185 67.1751C38.7505 67.2781 38.8725 67.3561 38.8725 67.3561C38.8725 67.3561 38.7465 67.4471 38.5455 67.5721C38.3445 67.6901 38.0745 67.8751 37.7855 68.0701C37.2025 68.4791 36.5705 68.9821 36.0075 69.5441C35.4445 70.1061 34.9385 70.7381 34.5315 71.3221C34.3375 71.6161 34.1555 71.8481 34.0355 72.0791C33.9085 72.2871 33.8185 72.4071 33.8185 72.4071Z" fill="white"/>
<path d="M105.858 80.407C110.277 80.407 113.858 76.8253 113.858 72.407C113.858 67.9887 110.277 64.407 105.858 64.407C101.44 64.407 97.8585 67.9887 97.8585 72.407C97.8585 76.8253 101.44 80.407 105.858 80.407Z" fill="#35190E"/>
<path d="M101.227 72.4071C101.227 72.4071 101.15 72.2791 101.047 72.0571C100.941 71.8561 100.842 71.4681 100.829 71.0431C100.786 70.6051 100.88 70.0991 101.061 69.5761C101.171 69.3261 101.282 69.0571 101.451 68.8201C101.599 68.5671 101.804 68.3511 102 68.1281C102.223 67.9321 102.438 67.7261 102.691 67.5781C102.927 67.4071 103.197 67.2981 103.447 67.1871C103.712 67.1031 103.961 67.0151 104.213 66.9881C104.459 66.9441 104.697 66.9391 104.915 66.9551C105.128 66.9501 105.326 66.9951 105.497 67.0361C105.666 67.0651 105.811 67.1221 105.927 67.1751C106.159 67.2781 106.281 67.3561 106.281 67.3561C106.281 67.3561 106.155 67.4471 105.954 67.5721C105.752 67.6901 105.483 67.8751 105.194 68.0701C104.611 68.4791 103.979 68.9821 103.416 69.5441C102.853 70.1061 102.347 70.7381 101.94 71.3221C101.746 71.6161 101.564 71.8481 101.444 72.0791C101.316 72.2871 101.227 72.4071 101.227 72.4071Z" fill="white"/>
<path d="M72.1535 119.57C84.2226 119.57 94.0065 110.758 94.0065 99.8871C94.0065 89.0165 84.2226 80.2041 72.1535 80.2041C60.0844 80.2041 50.3005 89.0165 50.3005 99.8871C50.3005 110.758 60.0844 119.57 72.1535 119.57Z" fill="#F4E8E6"/>
<path d="M71.4355 91.8892C71.8725 92.7622 71.4355 95.7951 71.4355 95.7951C71.4355 95.7951 68.2755 102.908 59.3215 99.7691" stroke="black" stroke-width="3" stroke-miterlimit="10" stroke-linecap="round" stroke-linejoin="round"/>
<path d="M72.8725 91.8892C72.4355 92.7622 72.8725 95.7951 72.8725 95.7951C72.8725 95.7951 76.0325 102.908 84.9865 99.7691" stroke="black" stroke-width="3" stroke-miterlimit="10" stroke-linecap="round" stroke-linejoin="round"/>
<path d="M77.8405 83.2061H66.3075C64.7255 83.2061 63.7505 84.6271 64.5715 85.7401C66.5335 88.4021 69.7455 92.2061 72.0735 92.2061C74.4015 92.2061 77.6135 88.4021 79.5755 85.7401C80.3965 84.6261 79.4225 83.2061 77.8405 83.2061Z" fill="black"/>
<path d="M45.8705 43.8811C43.7755 44.1141 41.7275 44.7641 39.8815 45.7821C38.8175 46.3691 38.0015 48.2521 39.2005 48.4511C39.6165 48.5201 40.0055 48.2491 40.3395 47.9921C42.0765 46.6581 43.8145 45.3251 45.5515 43.9911" fill="black"/>
<path d="M45.8705 42.0061C42.7405 42.3991 36.7255 43.5862 36.7375 47.7602C36.7445 49.8682 38.9885 50.8801 40.7435 49.9501C42.7835 48.8681 44.6655 47.0181 46.4975 45.6111C47.3065 44.9901 47.7155 44.0051 47.1705 43.0461C46.7175 42.2501 45.4065 41.7581 44.6055 42.3731C43.5365 43.1941 42.4675 44.0141 41.3985 44.8351C40.8635 45.2451 40.3335 45.6612 39.7945 46.0662C39.5505 46.2612 39.3005 46.4472 39.0415 46.6222C39.8365 48.0912 40.3135 48.5011 40.4735 47.8511C40.5565 47.7961 40.7095 47.5051 40.8285 47.4011C41.2275 47.0511 41.9395 46.8331 42.4285 46.6421C43.5255 46.2131 44.7015 45.9031 45.8715 45.7561C46.8845 45.6291 47.7345 44.9851 47.7465 43.8811C47.7555 42.9651 46.8755 41.8801 45.8705 42.0061Z" fill="black"/>
<path d="M98.4365 43.8811C100.531 44.1141 102.579 44.7641 104.425 45.7821C105.489 46.3691 106.305 48.2521 105.106 48.4511C104.69 48.5201 104.302 48.2491 103.967 47.9921C102.23 46.6581 100.493 45.3251 98.7555 43.9911" fill="black"/>
<path d="M98.4365 45.7561C99.6065 45.9031 100.781 46.2131 101.879 46.6421C102.368 46.8331 103.08 47.0511 103.479 47.4011C103.598 47.5051 103.75 47.7961 103.834 47.8511C103.993 48.5011 104.471 48.0911 105.266 46.6221C105.008 46.4461 104.757 46.2611 104.513 46.0661C103.975 45.6611 103.444 45.2451 102.909 44.8351C101.84 44.0141 100.771 43.1941 99.7025 42.3731C98.8935 41.7521 97.6105 42.2551 97.1375 43.0461C96.5625 44.0061 97.0115 44.9981 97.8105 45.6111C99.6105 46.9931 101.412 48.7221 103.373 49.8601C105.142 50.8871 107.562 49.9971 107.569 47.7601C107.582 43.5871 101.563 42.3991 98.4365 42.0061C97.4235 41.8791 96.5715 42.9591 96.5615 43.8811C96.5505 44.9981 97.4365 45.6301 98.4365 45.7561Z" fill="black"/>
</svg>
