<svg width="153" height="164" viewBox="0 0 153 164" fill="none" xmlns="http://www.w3.org/2000/svg">
<path d="M52.7 51.7071C54 35.4011 44.084 18.7941 29.113 12.2041" stroke="#35190E" stroke-width="6" stroke-miterlimit="10"/>
<path d="M37.015 11.4172C35.719 16.2552 30.747 19.1261 25.909 17.8301C21.071 16.5341 18.2 11.5621 19.496 6.7241C20.792 1.8861 25.764 -0.984862 30.602 0.311138C35.44 1.60614 38.311 6.57916 37.015 11.4172Z" fill="#35190E"/>
<path d="M99.574 51.7071C98.274 35.4011 108.19 18.7941 123.161 12.2041" stroke="#35190E" stroke-width="6" stroke-miterlimit="10"/>
<path d="M115.259 11.4172C116.555 16.2552 121.527 19.1261 126.365 17.8301C131.203 16.5341 134.074 11.5621 132.778 6.7241C131.482 1.8861 126.51 -0.984862 121.672 0.311138C116.834 1.60614 113.963 6.57916 115.259 11.4172Z" fill="#35190E"/>
<path d="M17.314 60.2651C13.442 68.5781 11.267 77.8401 11.267 87.6141C11.267 123.441 40.31 152.484 76.137 152.484C111.964 152.484 141.007 123.441 141.007 87.6141C141.007 77.8401 138.832 68.5771 134.96 60.2651C119.422 71.0581 98.784 77.6362 76.137 77.6362C53.49 77.6362 32.852 71.0591 17.314 60.2651Z" fill="#FFD45C"/>
<path d="M76.137 22.7451C50.085 22.7451 27.633 38.1101 17.314 60.2661C32.852 71.0591 53.49 77.6371 76.137 77.6371C98.784 77.6371 119.422 71.0591 134.96 60.2661C124.641 38.1101 102.189 22.7451 76.137 22.7451Z" fill="#35190E"/>
<path d="M52.439 59.4692C56.8573 59.4692 60.439 55.8875 60.439 51.4692C60.439 47.051 56.8573 43.4692 52.439 43.4692C48.0207 43.4692 44.439 47.051 44.439 51.4692C44.439 55.8875 48.0207 59.4692 52.439 59.4692Z" fill="#35190E" stroke="white" stroke-width="2" stroke-miterlimit="10"/>
<path d="M47.808 51.4692C47.808 51.4692 47.731 51.3411 47.628 51.1181C47.522 50.9171 47.423 50.5291 47.41 50.1041C47.367 49.6661 47.461 49.1601 47.642 48.6371C47.752 48.3871 47.863 48.1181 48.032 47.8811C48.18 47.6281 48.385 47.4121 48.581 47.1891C48.804 46.9931 49.019 46.7871 49.272 46.6391C49.508 46.4681 49.778 46.3592 50.028 46.2482C50.293 46.1642 50.542 46.0761 50.794 46.0491C51.04 46.0051 51.278 46.0002 51.496 46.0162C51.709 46.0112 51.908 46.0562 52.078 46.0972C52.247 46.1262 52.392 46.1831 52.508 46.2361C52.74 46.3391 52.862 46.4172 52.862 46.4172C52.862 46.4172 52.736 46.5082 52.535 46.6332C52.333 46.7512 52.064 46.9371 51.775 47.1311C51.192 47.5401 50.56 48.0431 49.996 48.6051C49.433 49.1671 48.927 49.7992 48.52 50.3832C48.326 50.6772 48.144 50.9092 48.024 51.1412C47.897 51.3492 47.808 51.4692 47.808 51.4692Z" fill="white"/>
<path d="M99.835 59.4692C104.253 59.4692 107.835 55.8875 107.835 51.4692C107.835 47.051 104.253 43.4692 99.835 43.4692C95.4167 43.4692 91.835 47.051 91.835 51.4692C91.835 55.8875 95.4167 59.4692 99.835 59.4692Z" fill="#35190E" stroke="white" stroke-width="2" stroke-miterlimit="10"/>
<path d="M95.204 51.4692C95.204 51.4692 95.127 51.3411 95.024 51.1181C94.918 50.9171 94.819 50.5291 94.806 50.1041C94.763 49.6661 94.857 49.1601 95.038 48.6371C95.148 48.3871 95.259 48.1181 95.428 47.8811C95.576 47.6281 95.781 47.4121 95.977 47.1891C96.2 46.9931 96.415 46.7871 96.668 46.6391C96.904 46.4681 97.174 46.3592 97.424 46.2482C97.689 46.1642 97.938 46.0761 98.19 46.0491C98.436 46.0051 98.674 46.0002 98.892 46.0162C99.105 46.0112 99.304 46.0562 99.474 46.0972C99.643 46.1262 99.788 46.1831 99.904 46.2361C100.136 46.3391 100.258 46.4172 100.258 46.4172C100.258 46.4172 100.132 46.5082 99.931 46.6332C99.729 46.7512 99.46 46.9371 99.171 47.1311C98.588 47.5401 97.956 48.0431 97.393 48.6051C96.83 49.1671 96.324 49.7992 95.917 50.3832C95.723 50.6772 95.541 50.9092 95.421 51.1412C95.294 51.3492 95.204 51.4692 95.204 51.4692Z" fill="white"/>
<mask id="mask0_714_3835" style="mask-type:luminance" maskUnits="userSpaceOnUse" x="11" y="60" width="131" height="93">
<path d="M17.314 60.2651C13.442 68.5781 11.267 77.8401 11.267 87.6141C11.267 123.441 40.31 152.484 76.137 152.484C111.964 152.484 141.007 123.441 141.007 87.6141C141.007 77.8401 138.832 68.5771 134.96 60.2651C119.422 71.0581 98.784 77.6362 76.137 77.6362C53.49 77.6362 32.852 71.0591 17.314 60.2651Z" fill="white"/>
</mask>
<g mask="url(#mask0_714_3835)">
<path d="M-3.303 85.377H160.285" stroke="#35190E" stroke-width="9" stroke-miterlimit="10" stroke-linecap="round"/>
</g>
<mask id="mask1_714_3835" style="mask-type:luminance" maskUnits="userSpaceOnUse" x="11" y="60" width="131" height="93">
<path d="M17.314 60.2651C13.442 68.5781 11.267 77.8401 11.267 87.6141C11.267 123.441 40.31 152.484 76.137 152.484C111.964 152.484 141.007 123.441 141.007 87.6141C141.007 77.8401 138.832 68.5771 134.96 60.2651C119.422 71.0581 98.784 77.6362 76.137 77.6362C53.49 77.6362 32.852 71.0591 17.314 60.2651Z" fill="white"/>
</mask>
<g mask="url(#mask1_714_3835)">
<path d="M6.703 106.39H160.285" stroke="#35190E" stroke-width="9" stroke-miterlimit="10" stroke-linecap="round"/>
</g>
<mask id="mask2_714_3835" style="mask-type:luminance" maskUnits="userSpaceOnUse" x="11" y="60" width="131" height="93">
<path d="M17.314 60.2651C13.442 68.5781 11.267 77.8401 11.267 87.6141C11.267 123.441 40.31 152.484 76.137 152.484C111.964 152.484 141.007 123.441 141.007 87.6141C141.007 77.8401 138.832 68.5771 134.96 60.2651C119.422 71.0581 98.784 77.6362 76.137 77.6362C53.49 77.6362 32.852 71.0591 17.314 60.2651Z" fill="white"/>
</mask>
<g mask="url(#mask2_714_3835)">
<path d="M6.703 125.401H160.285" stroke="#35190E" stroke-width="9" stroke-miterlimit="10" stroke-linecap="round"/>
</g>
<mask id="mask3_714_3835" style="mask-type:luminance" maskUnits="userSpaceOnUse" x="11" y="60" width="131" height="93">
<path d="M17.314 60.2651C13.442 68.5781 11.267 77.8401 11.267 87.6141C11.267 123.441 40.31 152.484 76.137 152.484C111.964 152.484 141.007 123.441 141.007 87.6141C141.007 77.8401 138.832 68.5771 134.96 60.2651C119.422 71.0581 98.784 77.6362 76.137 77.6362C53.49 77.6362 32.852 71.0591 17.314 60.2651Z" fill="white"/>
</mask>
<g mask="url(#mask3_714_3835)">
<path d="M6.703 146.414H160.285" stroke="#35190E" stroke-width="9" stroke-miterlimit="10" stroke-linecap="round"/>
</g>
<path d="M3.842 112.138C12.723 94.5741 60.754 78.5571 60.754 78.5571C60.754 78.5571 76.327 126.734 67.446 144.298C58.565 161.862 37.128 168.901 19.564 160.02C2 151.14 -5.039 129.702 3.842 112.138Z" fill="#73D3DD"/>
<path d="M148.432 112.138C139.551 94.5741 91.52 78.5571 91.52 78.5571C91.52 78.5571 75.947 126.734 84.828 144.298C93.709 161.862 115.146 168.901 132.71 160.02C150.274 151.14 157.313 129.702 148.432 112.138Z" fill="#73D3DD"/>
</svg>
