<svg width="171" height="152" viewBox="0 0 171 152" fill="none" xmlns="http://www.w3.org/2000/svg">
<path d="M145.259 65.7032C134.072 39.0552 111.733 27.9082 85.0119 27.9082C58.2909 27.9082 35.9519 39.0552 24.7649 65.7032C20.9859 74.7042 17.2209 89.2882 17.5379 98.9682C18.6499 132.904 44.2089 151.6 85.0119 151.6C125.815 151.6 151.374 132.904 152.486 98.9682C152.803 89.2882 149.037 74.7042 145.259 65.7032Z" fill="#F9C791"/>
<path d="M51.3079 103.91C55.7262 103.91 59.3079 100.328 59.3079 95.9102C59.3079 91.4919 55.7262 87.9102 51.3079 87.9102C46.8896 87.9102 43.3079 91.4919 43.3079 95.9102C43.3079 100.328 46.8896 103.91 51.3079 103.91Z" fill="#35190E"/>
<path d="M46.6759 95.91C46.6759 95.91 46.5989 95.782 46.4959 95.56C46.3899 95.359 46.2909 94.971 46.2779 94.546C46.2349 94.108 46.3289 93.602 46.5099 93.079C46.6199 92.829 46.7309 92.56 46.8999 92.323C47.0479 92.07 47.2529 91.854 47.4489 91.631C47.6719 91.435 47.8869 91.229 48.1399 91.081C48.3759 90.91 48.6459 90.801 48.8959 90.69C49.1609 90.606 49.4099 90.518 49.6619 90.491C49.9079 90.447 50.1459 90.442 50.3639 90.458C50.5769 90.453 50.7759 90.498 50.9459 90.539C51.1149 90.568 51.2599 90.625 51.3759 90.678C51.6089 90.781 51.7299 90.859 51.7299 90.859C51.7299 90.859 51.6039 90.95 51.4029 91.075C51.2019 91.193 50.9319 91.378 50.6429 91.573C50.0599 91.981 49.4279 92.485 48.8639 93.046C48.3009 93.608 47.7949 94.24 47.3879 94.824C47.1939 95.118 47.0119 95.35 46.8919 95.582C46.7659 95.791 46.6759 95.91 46.6759 95.91Z" fill="white"/>
<path d="M118.716 103.91C123.134 103.91 126.716 100.328 126.716 95.9102C126.716 91.4919 123.134 87.9102 118.716 87.9102C114.298 87.9102 110.716 91.4919 110.716 95.9102C110.716 100.328 114.298 103.91 118.716 103.91Z" fill="#35190E"/>
<path d="M114.085 95.91C114.085 95.91 114.008 95.782 113.905 95.56C113.799 95.359 113.7 94.971 113.687 94.546C113.644 94.108 113.738 93.602 113.919 93.079C114.029 92.829 114.14 92.56 114.309 92.323C114.457 92.07 114.662 91.854 114.858 91.631C115.081 91.435 115.296 91.229 115.549 91.081C115.785 90.91 116.055 90.801 116.305 90.69C116.57 90.606 116.819 90.518 117.071 90.491C117.317 90.447 117.555 90.442 117.773 90.458C117.986 90.453 118.185 90.498 118.355 90.539C118.524 90.568 118.669 90.625 118.785 90.678C119.017 90.781 119.139 90.859 119.139 90.859C119.139 90.859 119.013 90.95 118.812 91.075C118.611 91.193 118.341 91.378 118.052 91.573C117.469 91.981 116.837 92.485 116.274 93.046C115.711 93.608 115.205 94.24 114.798 94.824C114.604 95.118 114.422 95.35 114.302 95.582C114.175 95.791 114.085 95.91 114.085 95.91Z" fill="white"/>
<path d="M15.0839 51.6041C10.6599 48.4141 5.43689 46.3801 0.0378876 45.6221C0.485888 54.0261 5.06789 62.2141 12.2209 66.7091C15.7499 68.9271 22.2299 69.9771 27.4789 68.8641C25.3109 61.9951 20.9309 55.8201 15.0839 51.6041Z" fill="#FFC5AE"/>
<path d="M35.3059 57.8351C33.5939 50.4351 6.21688 34.3121 3.52088 35.2821C1.44988 36.0271 0.582881 38.4661 0.255881 40.6431C0.00788134 42.2941 -0.0491139 43.9621 0.0388861 45.6221C5.43789 46.3801 10.6609 48.4141 15.0849 51.6041C20.9319 55.8201 25.3119 61.9961 27.4809 68.8641C32.7809 67.7391 36.8269 64.4081 35.3059 57.8351Z" fill="#D7864F"/>
<path d="M154.94 51.6041C159.363 48.4141 164.587 46.3801 169.986 45.6221C169.538 54.0261 164.956 62.2141 157.803 66.7091C154.274 68.9271 147.794 69.9771 142.545 68.8641C144.713 61.9951 149.093 55.8201 154.94 51.6041Z" fill="#FFC5AE"/>
<path d="M134.718 57.8351C136.43 50.4351 163.807 34.3121 166.503 35.2821C168.574 36.0271 169.441 38.4661 169.768 40.6431C170.016 42.2941 170.073 43.9621 169.985 45.6221C164.586 46.3801 159.363 48.4141 154.939 51.6041C149.092 55.8201 144.712 61.9961 142.543 68.8641C137.243 67.7391 133.197 64.4081 134.718 57.8351Z" fill="#D7864F"/>
<path d="M145.259 65.7032C134.072 39.0552 111.734 27.9082 85.0119 27.9082C58.2899 27.9082 35.9519 39.0552 24.7649 65.7032C20.9859 74.7042 17.2209 89.2882 17.5379 98.9682C17.5639 99.7632 17.6169 100.541 17.6699 101.319C20.5009 83.9752 31.7259 68.0712 47.3399 59.9182C54.1519 56.3612 62.9189 54.3832 69.2059 58.8022C74.3729 62.4342 76.1639 69.1772 77.2379 75.4012C79.4329 88.1142 80.1789 101.077 79.4579 113.958C79.3629 115.658 78.9759 114.927 78.9839 116.63C81.1769 116.965 83.3339 116.067 85.0119 114.572C86.6899 116.067 88.8469 116.965 91.0399 116.63C91.0479 114.927 90.6609 115.658 90.5659 113.958C89.8449 101.077 90.5909 88.1152 92.7859 75.4012C93.8609 69.1772 95.6509 62.4342 100.818 58.8022C107.105 54.3832 115.872 56.3612 122.684 59.9182C138.298 68.0702 149.524 83.9742 152.354 101.319C152.407 100.541 152.46 99.7632 152.486 98.9682C152.803 89.2882 149.037 74.7042 145.259 65.7032Z" fill="#D7864F"/>
<path d="M85.0119 138.247C95.4457 138.247 103.904 131.64 103.904 123.49C103.904 115.34 95.4457 108.733 85.0119 108.733C74.5781 108.733 66.1199 115.34 66.1199 123.49C66.1199 131.64 74.5781 138.247 85.0119 138.247Z" fill="#FFFAF0"/>
<path d="M84.2929 116.417C84.7299 117.29 84.2929 120.323 84.2929 120.323C84.2929 120.323 81.1329 127.436 72.1789 124.297" stroke="#998271" stroke-width="3" stroke-miterlimit="10" stroke-linecap="round" stroke-linejoin="round"/>
<path d="M85.7309 116.417C85.2939 117.29 85.7309 120.323 85.7309 120.323C85.7309 120.323 88.8909 127.436 97.8449 124.297" stroke="#998271" stroke-width="3" stroke-miterlimit="10" stroke-linecap="round" stroke-linejoin="round"/>
<path d="M90.6979 107.732H79.1649C77.5829 107.732 76.6079 109.153 77.4289 110.266C79.3919 112.928 82.6029 116.732 84.9309 116.732C87.2589 116.732 90.4709 112.928 92.4329 110.266C93.2549 109.153 92.2799 107.732 90.6979 107.732Z" fill="#A57A5D"/>
<path d="M58.6599 31.4962C62.7899 22.8872 62.1299 9.08121 55.8049 4.67621C53.1129 2.80121 48.6829 3.35521 47.3609 6.35821C45.8279 9.84121 48.8389 14.6782 46.1569 17.3772C44.2849 19.2622 40.8479 18.3152 39.2099 16.2232C37.5729 14.1312 37.2049 11.3532 36.7459 8.73721C36.2879 6.12121 35.5639 3.32821 33.5039 1.65021C30.5079 -1.14179 25.2739 -0.165794 22.5499 2.89221C19.8259 5.95121 19.1999 10.3852 19.6199 14.4602C20.7079 24.9942 29.6839 35.4882 40.2689 38.3902C41.0999 39.7232 42.0489 40.9692 43.1999 42.0552C46.5639 45.2282 52.0639 46.6482 55.8679 44.0202C59.4049 41.5762 60.2469 36.4872 58.9799 32.3792C58.8889 32.0772 58.7699 31.7892 58.6599 31.4962Z" fill="#A57A5D"/>
<path d="M111.364 31.4962C107.234 22.8872 107.894 9.08121 114.219 4.67621C116.911 2.80121 121.341 3.35521 122.663 6.35821C124.196 9.84121 121.185 14.6782 123.867 17.3772C125.739 19.2622 129.176 18.3152 130.814 16.2232C132.451 14.1312 132.819 11.3532 133.278 8.73721C133.736 6.12121 134.46 3.32821 136.52 1.65021C139.516 -1.14179 144.75 -0.165794 147.474 2.89221C150.198 5.95121 150.824 10.3852 150.404 14.4602C149.316 24.9942 140.34 35.4882 129.754 38.3902C128.923 39.7232 127.974 40.9692 126.823 42.0552C123.459 45.2282 117.959 46.6482 114.155 44.0202C110.618 41.5762 109.776 36.4872 111.043 32.3792C111.135 32.0772 111.254 31.7892 111.364 31.4962Z" fill="#A57A5D"/>
</svg>
