<svg width="193" height="145" viewBox="0 0 193 145" fill="none" xmlns="http://www.w3.org/2000/svg">
<path d="M58.1151 54.3929C60.0021 74.8599 51.7191 90.02 39.7771 90.02C27.8351 90.02 5.01208 74.8599 0.779076 54.3929C-3.91992 31.6739 13.5791 11.335 28.0121 11.335C42.4451 11.335 56.0201 31.6729 58.1151 54.3929Z" fill="#53B3C9"/>
<path d="M134.258 54.3929C132.371 74.8599 140.654 90.02 152.596 90.02C164.538 90.02 187.361 74.8599 191.594 54.3929C196.293 31.6739 178.794 11.335 164.361 11.335C149.928 11.335 136.352 31.6729 134.258 54.3929Z" fill="#53B3C9"/>
<path d="M95.5311 122C129.7 122 157.399 94.6894 157.399 61C157.399 27.3106 129.7 0 95.5311 0C61.3623 0 33.6631 27.3106 33.6631 61C33.6631 94.6894 61.3623 122 95.5311 122Z" fill="#63C6E0"/>
<path d="M61.8261 76.012C66.2444 76.012 69.8261 72.4302 69.8261 68.012C69.8261 63.5937 66.2444 60.012 61.8261 60.012C57.4078 60.012 53.8261 63.5937 53.8261 68.012C53.8261 72.4302 57.4078 76.012 61.8261 76.012Z" fill="#35190E"/>
<path d="M57.1951 68.0109C57.1951 68.0109 57.1181 67.8829 57.0151 67.6609C56.9091 67.4599 56.8101 67.0719 56.7971 66.6459C56.7541 66.2079 56.8481 65.7019 57.0291 65.1789C57.1391 64.9289 57.2501 64.6599 57.4191 64.4229C57.5671 64.1699 57.7721 63.9539 57.9681 63.7309C58.1911 63.5349 58.4061 63.3289 58.6591 63.1809C58.8951 63.0099 59.1651 62.9009 59.4151 62.7899C59.6801 62.7059 59.9291 62.6179 60.1811 62.5909C60.4271 62.5469 60.6651 62.5419 60.8831 62.5579C61.0961 62.5529 61.2951 62.5979 61.4651 62.6389C61.6341 62.6679 61.7791 62.7249 61.8951 62.7779C62.1271 62.8809 62.2491 62.9589 62.2491 62.9589C62.2491 62.9589 62.1231 63.0499 61.9221 63.1749C61.7211 63.2929 61.4511 63.4779 61.1621 63.6729C60.5791 64.0819 59.9471 64.5849 59.3841 65.1469C58.8211 65.7089 58.3151 66.3409 57.9081 66.9249C57.7141 67.2189 57.5321 67.4509 57.4121 67.6829C57.2851 67.8919 57.1951 68.0109 57.1951 68.0109Z" fill="white"/>
<path d="M129.235 76.012C133.653 76.012 137.235 72.4302 137.235 68.012C137.235 63.5937 133.653 60.012 129.235 60.012C124.817 60.012 121.235 63.5937 121.235 68.012C121.235 72.4302 124.817 76.012 129.235 76.012Z" fill="#35190E"/>
<path d="M124.604 68.0109C124.604 68.0109 124.527 67.8829 124.424 67.6609C124.318 67.4599 124.219 67.0719 124.206 66.6459C124.163 66.2079 124.257 65.7019 124.438 65.1789C124.548 64.9289 124.659 64.6599 124.828 64.4229C124.976 64.1699 125.181 63.9539 125.377 63.7309C125.6 63.5349 125.815 63.3289 126.068 63.1809C126.304 63.0099 126.574 62.9009 126.824 62.7899C127.089 62.7059 127.338 62.6179 127.59 62.5909C127.836 62.5469 128.074 62.5419 128.292 62.5579C128.505 62.5529 128.704 62.5979 128.874 62.6389C129.043 62.6679 129.188 62.7249 129.304 62.7779C129.536 62.8809 129.658 62.9589 129.658 62.9589C129.658 62.9589 129.532 63.0499 129.331 63.1749C129.13 63.2929 128.86 63.4779 128.571 63.6729C127.988 64.0819 127.356 64.5849 126.793 65.1469C126.23 65.7089 125.724 66.3409 125.317 66.9249C125.123 67.2189 124.941 67.4509 124.821 67.6829C124.694 67.8919 124.604 68.0109 124.604 68.0109Z" fill="white"/>
<path d="M119.322 85.005C119.322 72.829 109.451 62.958 97.2751 62.958C85.0991 62.958 75.2281 72.829 75.2281 85.005C75.2281 88.321 75.9651 91.464 77.2771 94.286C78.2181 97.773 79.3141 101.324 79.7281 105.047C79.8951 106.547 79.9781 108.047 79.9881 109.541C79.8701 111.162 79.7191 112.737 79.4271 114.37C77.7281 122.047 70.7271 126.045 69.7271 134.045C69.7271 137.045 71.9661 141.368 75.7691 139.85C75.8091 144.726 81.6531 144.288 83.2421 143.952C94.0591 141.217 119.322 125.939 119.322 85.005Z" fill="#6BDBF9"/>
</svg>
