<svg width="142" height="195" viewBox="0 0 142 195" fill="none" xmlns="http://www.w3.org/2000/svg">
<path d="M125.6 167.595C135.909 151.141 137.784 124.957 130.624 107.262C125.655 94.9843 113.727 82.8543 98.94 83.9663C88.636 84.7413 82.146 91.9853 77.956 100.287C74.04 108.045 71.433 128.022 70.593 138.001C70.652 138.699 70.702 139.352 70.744 139.945H70.442C70.483 139.352 70.534 138.7 70.593 138.001C69.753 128.022 67.146 108.045 63.23 100.287C59.04 91.9863 52.55 84.7413 42.246 83.9663C27.458 82.8543 15.53 94.9843 10.562 107.262C3.40102 124.957 5.27701 151.141 15.586 167.595C22.269 178.262 32.438 185.937 44.438 191.162C52.314 193.432 61.08 194.585 70.594 194.585C80.108 194.585 88.875 193.432 96.75 191.162C108.748 185.937 118.917 178.262 125.6 167.595Z" fill="white"/>
<path d="M139.541 121.698C139.183 119.034 138.683 116.374 138.027 113.728C132.361 90.8712 117.591 70.5152 98.63 63.7722C89.998 60.7022 80.497 58.2083 70.591 58.2083C60.685 58.2083 51.184 60.7022 42.552 63.7722C23.591 70.5152 8.82199 90.8712 3.15599 113.728C2.49999 116.374 1.99999 119.034 1.64199 121.698C0.602987 129.43 0.804005 137.2 2.19201 144.784C2.23401 145.014 2.28799 145.238 2.33199 145.468C3.31899 150.59 4.8 155.322 6.734 159.665C13.782 175.498 26.896 186.107 44.436 191.162C32.436 185.937 22.267 178.262 15.584 167.595C5.275 151.141 3.39999 124.957 10.56 107.262C15.529 94.9842 27.457 82.8542 42.244 83.9662C52.548 84.7412 59.038 91.9853 63.228 100.287C64.334 102.478 65.919 105.551 66.223 109.286C66.68 114.903 64.615 120.466 62.688 125.762C60.943 130.559 58.605 135.144 57.205 140.054C55.806 144.964 55.417 150.403 57.544 155.044C59.671 159.685 64.825 163.168 69.826 162.142C70.107 160.264 70.353 158.385 70.592 156.507C70.831 158.385 71.077 160.263 71.358 162.142C76.359 163.168 81.513 159.685 83.64 155.044C85.767 150.403 85.378 144.964 83.979 140.054C82.58 135.144 80.242 130.559 78.496 125.762C76.569 120.466 74.503 114.902 74.961 109.285C75.265 105.55 76.85 102.478 77.956 100.286C82.146 91.9853 88.636 84.7402 98.94 83.9652C113.728 82.8532 125.656 94.9833 130.624 107.261C137.785 124.956 135.909 151.14 125.6 167.594C118.917 178.261 108.749 185.936 96.748 191.161C114.288 186.105 127.402 175.497 134.45 159.664C136.383 155.321 137.865 150.589 138.851 145.467C138.895 145.238 138.948 145.014 138.991 144.783C140.38 137.2 140.58 129.43 139.541 121.698Z" fill="#82D9DB"/>
<path d="M88.281 144.678C88.281 156.361 80.361 176.611 70.591 176.611C60.821 176.611 52.901 156.361 52.901 144.678C52.901 132.995 60.821 121.606 70.591 121.606C80.361 121.606 88.281 132.995 88.281 144.678Z" fill="#35190E"/>
<path d="M88.281 151.461C88.281 157.922 82.643 167.057 77.733 173.788C74.204 178.625 66.978 178.625 63.449 173.788C58.539 167.057 52.901 157.922 52.901 151.461C52.901 140.017 60.821 134.741 70.591 134.741C80.361 134.741 88.281 140.017 88.281 151.461Z" fill="#FFA81D"/>
<path d="M36.663 145.555C41.0813 145.555 44.663 141.973 44.663 137.555C44.663 133.137 41.0813 129.555 36.663 129.555C32.2447 129.555 28.663 133.137 28.663 137.555C28.663 141.973 32.2447 145.555 36.663 145.555Z" fill="#35190E"/>
<path d="M32.032 137.555C32.032 137.555 31.955 137.427 31.852 137.204C31.746 137.003 31.647 136.615 31.634 136.19C31.591 135.752 31.685 135.246 31.866 134.723C31.976 134.473 32.087 134.204 32.256 133.967C32.404 133.714 32.609 133.498 32.805 133.275C33.028 133.079 33.243 132.873 33.496 132.725C33.732 132.554 34.002 132.445 34.252 132.334C34.517 132.25 34.766 132.162 35.018 132.135C35.264 132.091 35.502 132.086 35.72 132.102C35.933 132.097 36.132 132.142 36.302 132.183C36.471 132.212 36.616 132.269 36.732 132.322C36.965 132.425 37.086 132.503 37.086 132.503C37.086 132.503 36.96 132.594 36.759 132.719C36.558 132.837 36.288 133.022 35.999 133.217C35.416 133.626 34.784 134.129 34.221 134.691C33.658 135.253 33.152 135.885 32.745 136.469C32.551 136.763 32.369 136.995 32.249 137.227C32.122 137.436 32.032 137.555 32.032 137.555Z" fill="white"/>
<path d="M104.072 145.555C108.49 145.555 112.072 141.973 112.072 137.555C112.072 133.137 108.49 129.555 104.072 129.555C99.6537 129.555 96.072 133.137 96.072 137.555C96.072 141.973 99.6537 145.555 104.072 145.555Z" fill="#35190E"/>
<path d="M99.441 137.555C99.441 137.555 99.364 137.427 99.261 137.204C99.155 137.003 99.056 136.615 99.043 136.19C99 135.752 99.094 135.246 99.275 134.723C99.385 134.473 99.496 134.204 99.665 133.967C99.813 133.714 100.018 133.498 100.214 133.275C100.437 133.079 100.652 132.873 100.905 132.725C101.141 132.554 101.411 132.445 101.661 132.334C101.926 132.25 102.175 132.162 102.427 132.135C102.673 132.091 102.911 132.086 103.129 132.102C103.342 132.097 103.541 132.142 103.711 132.183C103.88 132.212 104.025 132.269 104.141 132.322C104.373 132.425 104.495 132.503 104.495 132.503C104.495 132.503 104.369 132.594 104.168 132.719C103.966 132.837 103.697 133.022 103.408 133.217C102.825 133.626 102.193 134.129 101.629 134.691C101.066 135.253 100.56 135.885 100.153 136.469C99.959 136.763 99.777 136.995 99.657 137.227C99.531 137.436 99.441 137.555 99.441 137.555Z" fill="white"/>
<path d="M21.101 152.386C19.685 147.265 18.897 141.858 16.205 137.277C13.513 132.696 8.15799 129.086 3.03299 130.485C1.92099 130.789 0.905 131.32 0 132.007C0.029 136.297 0.420009 140.569 1.19101 144.783C1.23301 145.013 1.28699 145.237 1.33099 145.467C2.31799 150.589 3.799 155.321 5.733 159.664C12.781 175.497 25.895 186.106 43.435 191.161C48.912 192.74 54.83 193.765 61.12 194.251C42.055 187.95 26.458 171.771 21.101 152.386Z" fill="#FFE388"/>
<path d="M120.21 152.386C121.625 147.265 122.414 141.858 125.106 137.277C127.798 132.696 133.153 129.086 138.278 130.485C139.391 130.789 140.406 131.32 141.311 132.007C141.282 136.297 140.891 140.569 140.12 144.783C140.078 145.013 140.025 145.237 139.98 145.467C138.993 150.589 137.512 155.321 135.578 159.664C128.53 175.497 115.416 186.106 97.876 191.161C92.399 192.74 86.481 193.765 80.191 194.251C99.256 187.95 114.852 171.771 120.21 152.386Z" fill="#FFE388"/>
<path d="M60.043 16.6592C58.709 12.2352 57.221 7.08522 59.874 3.30222C62.312 -0.17478 67.502 -0.79878 71.382 0.92722C75.262 2.65322 78.039 6.16822 80.262 9.78522C89.75 25.2212 91.679 45.0712 85.341 62.0452C80.507 74.9892 64.007 87.2122 64.5 65.7992C64.892 48.8242 65.023 33.1692 60.043 16.6592Z" fill="#82D9DB"/>
<path d="M33.66 39.5942C31.222 37.6542 28.42 35.4652 28.22 32.3562C28.023 29.2862 30.702 26.5862 33.692 25.8582C36.681 25.1302 39.833 25.9542 42.677 27.1272C55.721 32.5032 65.104 45.8122 65.784 59.9052C65.963 63.6122 65.539 71.2182 62.299 73.8722C56.59 78.5492 56.823 72.2512 54.469 66.8842C49.816 56.2792 42.738 46.8192 33.66 39.5942Z" fill="#82D9DB"/>
<path d="M22.145 59.0473C19.889 58.8223 16.976 58.2623 16.65 56.0183C16.355 53.9863 18.587 52.5453 20.554 51.9593C27.779 49.8073 36.076 51.7383 41.608 56.8593C45.392 60.3623 48.539 65.9693 48.16 71.1653C39.452 69.6223 32.72 60.1013 22.145 59.0473Z" fill="#82D9DB"/>
</svg>
