<svg width="132" height="146" viewBox="0 0 132 146" fill="none" xmlns="http://www.w3.org/2000/svg">
<path d="M65.925 122C101.752 122 130.795 94.6894 130.795 61C130.795 27.3106 101.752 0 65.925 0C30.0983 0 1.05499 27.3106 1.05499 61C1.05499 94.6894 30.0983 122 65.925 122Z" fill="#73D3DD"/>
<path d="M32.221 76.012C36.6393 76.012 40.221 72.4302 40.221 68.012C40.221 63.5937 36.6393 60.012 32.221 60.012C27.8027 60.012 24.221 63.5937 24.221 68.012C24.221 72.4302 27.8027 76.012 32.221 76.012Z" fill="#35190E"/>
<path d="M27.59 68.0119C27.59 68.0119 27.513 67.8839 27.409 67.6619C27.303 67.4609 27.204 67.0729 27.191 66.6469C27.148 66.2089 27.242 65.7029 27.423 65.1799C27.533 64.9299 27.644 64.6609 27.813 64.4239C27.961 64.1709 28.166 63.9549 28.362 63.7319C28.585 63.5359 28.8 63.3299 29.053 63.1819C29.289 63.0109 29.559 62.9019 29.809 62.7909C30.074 62.7059 30.322 62.6189 30.575 62.5919C30.821 62.5479 31.059 62.5429 31.277 62.5589C31.49 62.5539 31.689 62.5989 31.859 62.6399C32.028 62.6689 32.173 62.7259 32.289 62.7789C32.522 62.8819 32.643 62.9599 32.643 62.9599C32.643 62.9599 32.517 63.0509 32.316 63.1749C32.115 63.2929 31.845 63.4779 31.556 63.6729C30.973 64.0819 30.341 64.5849 29.777 65.1469C29.214 65.7089 28.708 66.3409 28.301 66.9249C28.107 67.2189 27.925 67.4509 27.805 67.6829C27.679 67.8929 27.59 68.0119 27.59 68.0119Z" fill="white"/>
<path d="M99.63 76.012C104.048 76.012 107.63 72.4302 107.63 68.012C107.63 63.5937 104.048 60.012 99.63 60.012C95.2117 60.012 91.63 63.5937 91.63 68.012C91.63 72.4302 95.2117 76.012 99.63 76.012Z" fill="#35190E"/>
<path d="M94.998 68.0119C94.998 68.0119 94.921 67.8839 94.818 67.6619C94.712 67.4609 94.613 67.0729 94.6 66.6469C94.557 66.2089 94.651 65.7029 94.832 65.1799C94.942 64.9299 95.053 64.6609 95.222 64.4239C95.37 64.1709 95.575 63.9549 95.771 63.7319C95.994 63.5359 96.209 63.3299 96.462 63.1819C96.698 63.0109 96.968 62.9019 97.218 62.7909C97.483 62.7059 97.732 62.6189 97.984 62.5919C98.23 62.5479 98.468 62.5429 98.686 62.5589C98.899 62.5539 99.098 62.5989 99.268 62.6399C99.437 62.6689 99.582 62.7259 99.698 62.7789C99.93 62.8819 100.052 62.9599 100.052 62.9599C100.052 62.9599 99.926 63.0509 99.725 63.1749C99.523 63.2929 99.254 63.4779 98.965 63.6729C98.382 64.0819 97.75 64.5849 97.187 65.1469C96.624 65.7089 96.118 66.3409 95.711 66.9249C95.517 67.2189 95.335 67.4509 95.215 67.6829C95.088 67.8929 94.998 68.0119 94.998 68.0119Z" fill="white"/>
<path d="M74.7154 102.5C81.9817 97.1411 83.5283 86.9066 78.1697 79.6402C72.8111 72.3739 62.5766 70.8273 55.3103 76.1859C48.044 81.5445 46.4974 91.779 51.856 99.0453C57.2145 106.312 67.449 107.858 74.7154 102.5Z" fill="#86EFEF"/>
<path d="M71.6949 96.0309C75.3795 92.3463 75.3795 86.3724 71.6949 82.6879C68.0103 79.0033 62.0365 79.0033 58.3519 82.6879C54.6674 86.3724 54.6674 92.3463 58.3519 96.0309C62.0365 99.7154 68.0103 99.7154 71.6949 96.0309Z" fill="#00B2B2"/>
<path d="M3.34799 102.806C1.25099 105.691 0 109.231 0 113.071C0 122.736 7.835 130.571 17.5 130.571C21.867 130.571 25.851 128.961 28.917 126.316C28.951 125.658 29.018 125.01 29.119 124.371C18.883 119.103 10.079 111.698 3.34799 102.806Z" fill="#86EFEF"/>
<path d="M28.917 126.316C28.9 126.642 28.868 126.964 28.868 127.295C28.868 137.628 37.244 146.005 47.578 146.005C55.851 146.005 62.858 140.629 65.327 133.185C52.695 133.094 40.796 130.131 30.317 124.961C29.874 125.436 29.41 125.891 28.917 126.316Z" fill="#86EFEF"/>
<path d="M30.316 124.96C29.917 124.763 29.513 124.574 29.119 124.371C29.019 125.01 28.952 125.658 28.917 126.316C29.41 125.891 29.874 125.436 30.316 124.96Z" fill="#86EFEF"/>
<path d="M102.732 124.371C102.832 125.01 102.899 125.658 102.933 126.316C105.999 128.961 109.983 130.571 114.35 130.571C124.015 130.571 131.85 122.736 131.85 113.071C131.85 109.231 130.599 105.692 128.502 102.806C121.772 111.698 112.967 119.103 102.732 124.371Z" fill="#86EFEF"/>
<path d="M101.534 124.96C91.055 130.13 79.156 133.093 66.524 133.184C68.994 140.628 76 146.004 84.273 146.004C94.606 146.004 102.983 137.628 102.983 127.294C102.983 126.963 102.95 126.641 102.934 126.315C102.441 125.891 101.977 125.436 101.534 124.96Z" fill="#86EFEF"/>
<path d="M101.534 124.96C101.976 125.437 102.44 125.891 102.933 126.316C102.899 125.658 102.832 125.01 102.732 124.371C102.337 124.574 101.933 124.763 101.534 124.96Z" fill="#86EFEF"/>
<path d="M65.326 133.184C65.526 133.185 65.724 133.198 65.925 133.198C66.126 133.198 66.323 133.185 66.524 133.184C66.282 132.455 66.077 131.71 65.925 130.944C65.774 131.71 65.568 132.454 65.326 133.184Z" fill="#86EFEF"/>
<path d="M29.119 124.371C29.793 120.084 31.916 116.289 34.98 113.491C34.983 113.35 35.001 113.213 35.001 113.071C35.001 103.406 27.166 95.571 17.501 95.571C11.676 95.571 6.53 98.429 3.349 102.806C10.079 111.698 18.883 119.103 29.119 124.371Z" fill="#00B2B2"/>
<path d="M65.564 127.294C65.564 126.045 65.692 124.826 65.926 123.645C64.228 115.06 56.662 108.584 47.578 108.584C42.719 108.584 38.306 110.452 34.98 113.49C34.875 117.919 33.126 121.932 30.317 124.959C40.796 130.129 52.696 133.092 65.327 133.183C65.569 132.454 65.774 131.709 65.926 130.943C65.692 129.763 65.564 128.544 65.564 127.294Z" fill="#00B2B2"/>
<path d="M29.119 124.371C29.514 124.574 29.917 124.763 30.316 124.96C33.125 121.934 34.874 117.92 34.979 113.491C31.915 116.289 29.793 120.084 29.119 124.371Z" fill="#00B2B2"/>
<path d="M114.35 95.571C104.685 95.571 96.85 103.406 96.85 113.071C96.85 113.213 96.868 113.35 96.871 113.491C99.935 116.289 102.057 120.084 102.732 124.371C112.967 119.103 121.772 111.698 128.502 102.807C125.321 98.4281 120.175 95.571 114.35 95.571Z" fill="#00B2B2"/>
<path d="M96.871 113.491C93.545 110.453 89.132 108.585 84.273 108.585C75.189 108.585 67.623 115.06 65.925 123.646C66.159 124.827 66.287 126.046 66.287 127.295C66.287 128.544 66.159 129.763 65.925 130.944C66.076 131.71 66.282 132.455 66.524 133.184C79.156 133.093 91.055 130.13 101.534 124.96C98.726 121.933 96.976 117.92 96.871 113.491Z" fill="#00B2B2"/>
<path d="M65.925 130.944C66.159 129.763 66.287 128.544 66.287 127.295C66.287 126.046 66.159 124.827 65.925 123.646C65.692 124.827 65.563 126.046 65.563 127.295C65.564 128.544 65.692 129.763 65.925 130.944Z" fill="#00B2B2"/>
<path d="M96.871 113.491C96.976 117.92 98.725 121.933 101.534 124.96C101.933 124.763 102.337 124.574 102.731 124.371C102.057 120.084 99.935 116.289 96.871 113.491Z" fill="#00B2B2"/>
</svg>
