<svg width="167" height="136" viewBox="0 0 167 136" fill="none" xmlns="http://www.w3.org/2000/svg">
<path d="M22.517 37.3293C21.701 26.6413 21.966 15.3713 26.905 3.72832C28.305 0.429317 32.044 -0.978684 34.883 0.730316C44.926 6.77732 51.579 16.3863 56.515 28.1143L22.517 37.3293Z" fill="#C17474"/>
<path d="M144.363 37.3293C145.179 26.6413 144.914 15.3713 139.975 3.72832C138.575 0.429317 134.836 -0.978684 131.997 0.730316C121.954 6.77732 115.302 16.3863 110.365 28.1143L144.363 37.3293Z" fill="#C17474"/>
<path d="M150.746 50.7264C142.501 17.4634 114.976 2.21045 83.31 2.21045C51.644 2.21045 24.12 17.4634 15.874 50.7264C13.315 61.0514 13.043 71.5854 14.91 81.7834C14.952 82.0144 15.006 82.2374 15.05 82.4674C21.251 114.648 46.796 134.586 83.31 134.586C119.824 134.586 145.37 114.648 151.57 82.4674C151.614 82.2384 151.667 82.0144 151.71 81.7834C153.577 71.5854 153.306 61.0504 150.746 50.7264ZM83.311 128.301C48.572 128.301 19.848 107.104 15.079 79.5374C15.233 74.8164 15.969 70.1274 17.38 65.6474C17.758 64.4464 18.185 63.2594 18.661 62.0914C19.851 59.1714 21.35 56.3664 23.183 53.7304C23.674 53.0244 24.191 52.3324 24.732 51.6574C25.815 50.3064 26.995 49.0204 28.26 47.8104C29.208 46.9024 30.204 46.0374 31.241 45.2194C32.278 44.4014 33.357 43.6304 34.47 42.9124C38.184 40.5164 42.293 38.6994 46.582 37.6334C47.869 37.3134 49.172 37.0614 50.485 36.8824C51.798 36.7024 53.122 36.5954 54.451 36.5654C56.222 36.5254 58.002 36.6224 59.775 36.8664C61.081 37.0464 62.37 37.3184 63.633 37.6724C65.528 38.2044 67.366 38.9224 69.115 39.8024C70.281 40.3884 71.409 41.0464 72.488 41.7684C73.567 42.4894 74.598 43.2754 75.572 44.1164C78.98 47.0604 81.689 50.6884 83.31 54.6674C84.931 50.6884 87.64 47.0604 91.048 44.1164C92.022 43.2754 93.053 42.4904 94.132 41.7684C95.211 41.0464 96.338 40.3894 97.505 39.8024C99.255 38.9224 101.092 38.2044 102.987 37.6724C104.25 37.3184 105.539 37.0464 106.845 36.8664C121.035 34.9064 135.585 42.4314 143.438 53.7314C144.537 55.3134 145.517 56.9554 146.382 58.6474C146.742 59.3524 147.083 60.0654 147.403 60.7864C148.366 62.9494 149.152 65.1814 149.772 67.4604C150.268 69.2834 150.658 71.1364 150.947 73.0084C151.139 74.2564 151.287 75.5124 151.391 76.7724C151.467 77.6914 151.511 78.6144 151.542 79.5374C146.773 107.104 118.049 128.301 83.311 128.301Z" fill="#C17474"/>
<path d="M83.311 135.306C118.049 135.306 146.774 115.11 151.543 87.5425C151.513 86.6195 151.468 77.6925 151.392 76.7725C151.288 75.5115 151.141 74.2555 150.948 73.0085C150.659 71.1365 150.269 69.2835 149.773 67.4605C148.946 64.4215 147.823 61.4655 146.382 58.6465C145.517 56.9555 144.538 55.3125 143.438 53.7305C135.585 42.4315 121.035 34.9055 106.845 36.8655C105.539 37.0455 104.25 37.3175 102.987 37.6715C101.092 38.2035 99.254 38.9215 97.505 39.8015C96.339 40.3875 95.211 41.0455 94.132 41.7675C93.053 42.4895 92.022 43.2745 91.048 44.1155C87.64 47.0595 84.931 50.6875 83.31 54.6665C81.689 50.6875 78.98 47.0595 75.572 44.1155C74.598 43.2745 73.567 42.4895 72.488 41.7675C71.409 41.0465 70.282 40.3885 69.115 39.8015C67.365 38.9215 65.528 38.2035 63.633 37.6715C62.37 37.3175 61.081 37.0455 59.775 36.8655C58.001 36.6205 56.222 36.5235 54.451 36.5645C51.794 36.6245 49.156 36.9935 46.582 37.6335C42.293 38.6995 38.184 40.5175 34.47 42.9125C32.242 44.3495 30.156 45.9955 28.259 47.8105C26.994 49.0205 25.814 50.3075 24.731 51.6575C24.19 52.3325 23.6729 53.0245 23.1819 53.7305C21.3499 56.3665 19.85 59.1715 18.66 62.0915C18.184 63.2595 17.758 64.4455 17.379 65.6475C15.968 70.1275 15.232 82.8215 15.078 87.5425C19.848 115.11 48.572 135.306 83.311 135.306Z" fill="#FFF9F3"/>
<path d="M48.687 96.8853C61.9418 96.8853 72.687 86.1401 72.687 72.8853C72.687 59.6304 61.9418 48.8853 48.687 48.8853C35.4321 48.8853 24.687 59.6304 24.687 72.8853C24.687 86.1401 35.4321 96.8853 48.687 96.8853Z" fill="#F2DAC0"/>
<path d="M117.934 96.8853C131.189 96.8853 141.934 86.1401 141.934 72.8853C141.934 59.6304 131.189 48.8853 117.934 48.8853C104.679 48.8853 93.934 59.6304 93.934 72.8853C93.934 86.1401 104.679 96.8853 117.934 96.8853Z" fill="#F2DAC0"/>
<path d="M49.383 82.5532C53.8013 82.5532 57.383 78.9715 57.383 74.5532C57.383 70.1349 53.8013 66.5532 49.383 66.5532C44.9647 66.5532 41.383 70.1349 41.383 74.5532C41.383 78.9715 44.9647 82.5532 49.383 82.5532Z" fill="#35190E"/>
<path d="M44.752 74.5531C44.752 74.5531 44.675 74.4252 44.572 74.2032C44.466 74.0022 44.367 73.6142 44.354 73.1882C44.311 72.7502 44.405 72.2441 44.586 71.7211C44.696 71.4711 44.807 71.2021 44.976 70.9651C45.124 70.7121 45.329 70.4961 45.525 70.2731C45.748 70.0771 45.963 69.8711 46.216 69.7231C46.452 69.5521 46.722 69.4431 46.972 69.3311C47.237 69.2471 47.486 69.1592 47.738 69.1322C47.984 69.0882 48.222 69.0832 48.44 69.0992C48.653 69.0942 48.852 69.1391 49.022 69.1801C49.191 69.2091 49.336 69.2662 49.452 69.3192C49.684 69.4222 49.806 69.5002 49.806 69.5002C49.806 69.5002 49.68 69.5912 49.479 69.7162C49.278 69.8342 49.008 70.0192 48.719 70.2142C48.136 70.6222 47.504 71.1261 46.94 71.6871C46.377 72.2491 45.871 72.8811 45.464 73.4651C45.27 73.7601 45.088 73.9911 44.968 74.2231C44.842 74.4341 44.752 74.5531 44.752 74.5531Z" fill="white"/>
<path d="M116.792 82.5532C121.21 82.5532 124.792 78.9715 124.792 74.5532C124.792 70.1349 121.21 66.5532 116.792 66.5532C112.374 66.5532 108.792 70.1349 108.792 74.5532C108.792 78.9715 112.374 82.5532 116.792 82.5532Z" fill="#35190E"/>
<path d="M112.161 74.5531C112.161 74.5531 112.084 74.4252 111.981 74.2032C111.875 74.0022 111.776 73.6142 111.763 73.1882C111.72 72.7502 111.814 72.2441 111.995 71.7211C112.105 71.4711 112.216 71.2021 112.385 70.9651C112.533 70.7121 112.738 70.4961 112.934 70.2731C113.157 70.0771 113.372 69.8711 113.625 69.7231C113.861 69.5521 114.131 69.4431 114.381 69.3311C114.646 69.2471 114.895 69.1592 115.147 69.1322C115.393 69.0882 115.631 69.0832 115.849 69.0992C116.062 69.0942 116.261 69.1391 116.431 69.1801C116.6 69.2091 116.745 69.2662 116.861 69.3192C117.093 69.4222 117.215 69.5002 117.215 69.5002C117.215 69.5002 117.089 69.5912 116.888 69.7162C116.687 69.8342 116.417 70.0192 116.128 70.2142C115.545 70.6222 114.913 71.1261 114.35 71.6871C113.787 72.2491 113.281 72.8811 112.874 73.4651C112.68 73.7601 112.498 73.9911 112.378 74.2231C112.251 74.4341 112.161 74.5531 112.161 74.5531Z" fill="white"/>
<path d="M94.735 102.754C94.735 110.145 89.62 120.371 83.31 120.371C77 120.371 71.8849 110.145 71.8849 102.754C71.8849 95.3631 77 89.3711 83.31 89.3711C89.621 89.3711 94.735 95.3631 94.735 102.754Z" fill="#FFD16C"/>
<path d="M83.692 54.8282C70.175 44.9772 51.918 41.9732 35.957 46.9752C29.938 48.8612 24.264 51.8022 18.14 53.3162C12.017 54.8302 5.038 54.7062 0 50.9112C9.607 52.3462 15.959 48.0222 24.309 43.0592C32.659 38.0962 41.116 32.4672 50.782 31.5022C65.355 30.0472 81.263 40.3852 83.692 54.8282Z" fill="#8E4F4F"/>
<path d="M82.93 54.8282C96.447 44.9772 114.704 41.9732 130.665 46.9752C136.684 48.8612 142.358 51.8022 148.482 53.3162C154.605 54.8302 161.584 54.7062 166.623 50.9112C157.016 52.3462 150.664 48.0222 142.314 43.0592C133.963 38.0962 125.507 32.4672 115.841 31.5022C101.267 30.0472 85.359 40.3852 82.93 54.8282Z" fill="#8E4F4F"/>
</svg>
