<svg width="175" height="161" viewBox="0 0 175 161" fill="none" xmlns="http://www.w3.org/2000/svg">
<path d="M36.036 140.061C43.4919 140.061 49.536 134.017 49.536 126.561C49.536 119.105 43.4919 113.061 36.036 113.061C28.5802 113.061 22.536 119.105 22.536 126.561C22.536 134.017 28.5802 140.061 36.036 140.061Z" fill="#DD6E00" stroke="#DD6E00" stroke-width="4" stroke-miterlimit="10"/>
<path d="M52.639 153.415C60.0948 153.415 66.139 147.371 66.139 139.915C66.139 132.459 60.0948 126.415 52.639 126.415C45.1831 126.415 39.139 132.459 39.139 139.915C39.139 147.371 45.1831 153.415 52.639 153.415Z" fill="#DD6E00" stroke="#DD6E00" stroke-width="4" stroke-miterlimit="10"/>
<path d="M82.611 155.118C86.907 150.822 86.907 143.857 82.611 139.562C78.315 135.266 71.35 135.266 67.055 139.562C62.759 143.858 62.759 150.823 67.055 155.118C71.35 159.414 78.315 159.414 82.611 155.118Z" fill="#DD6E00" stroke="#DD6E00" stroke-width="4" stroke-miterlimit="10"/>
<path d="M129.138 117.015C134.41 111.743 142.958 111.743 148.23 117.015C153.502 122.287 153.502 130.835 148.23 136.107C142.958 141.379 134.41 141.379 129.138 136.107C123.866 130.835 123.866 122.287 129.138 117.015Z" fill="#DD6E00" stroke="#DD6E00" stroke-width="4" stroke-miterlimit="10"/>
<path d="M131.627 130.369C136.899 135.641 136.899 144.189 131.627 149.461C126.355 154.733 117.807 154.733 112.535 149.461C107.263 144.189 107.263 135.641 112.535 130.369C117.807 125.097 126.355 125.097 131.627 130.369Z" fill="#DD6E00" stroke="#DD6E00" stroke-width="4" stroke-miterlimit="10"/>
<path d="M99.887 158.34C105.962 158.34 110.887 153.415 110.887 147.34C110.887 141.265 105.962 136.34 99.887 136.34C93.8118 136.34 88.887 141.265 88.887 147.34C88.887 153.415 93.8118 158.34 99.887 158.34Z" fill="#DD6E00" stroke="#DD6E00" stroke-width="4" stroke-miterlimit="10"/>
<path d="M52.964 50.904C63.7335 50.904 72.464 42.1736 72.464 31.404C72.464 20.6345 63.7335 11.9041 52.964 11.9041C42.1944 11.9041 33.464 20.6345 33.464 31.404C33.464 42.1736 42.1944 50.904 52.964 50.904Z" fill="#DD6E00" stroke="#DD6E00" stroke-width="4" stroke-miterlimit="10"/>
<path d="M88.128 49.12C101.14 49.12 111.688 38.5718 111.688 25.56C111.688 12.5482 101.14 2 88.128 2C75.1162 2 64.568 12.5482 64.568 25.56C64.568 38.5718 75.1162 49.12 88.128 49.12Z" fill="#DD6E00" stroke="#DD6E00" stroke-width="4" stroke-miterlimit="10"/>
<path d="M35.6189 63.4566C42.8694 59.192 45.2901 49.8572 41.0256 42.6067C36.761 35.3561 27.4262 32.9355 20.1757 37.2C12.9251 41.4646 10.5045 50.7993 14.769 58.0499C19.0336 65.3004 28.3684 67.7211 35.6189 63.4566Z" fill="#DD6E00" stroke="#DD6E00" stroke-width="4" stroke-miterlimit="10"/>
<path d="M5.954 82.463C0.682 87.735 0.682 96.283 5.954 101.555C11.226 106.827 19.774 106.827 25.046 101.555C30.318 96.283 30.318 87.735 25.046 82.463C19.773 77.191 11.226 77.191 5.954 82.463Z" fill="#DD6E00" stroke="#DD6E00" stroke-width="4" stroke-miterlimit="10"/>
<path d="M6.954 63.1691C1.682 68.4411 1.682 76.9891 6.954 82.2611C12.226 87.5331 20.774 87.5331 26.046 82.2611C31.318 76.9891 31.318 68.4411 26.046 63.1691C20.774 57.8971 12.226 57.8971 6.954 63.1691Z" fill="#DD6E00" stroke="#DD6E00" stroke-width="4" stroke-miterlimit="10"/>
<path d="M33.8606 116.426C36.3865 110.38 33.5331 103.431 27.4873 100.905C21.4415 98.3792 14.4927 101.233 11.9668 107.278C9.44089 113.324 12.2943 120.273 18.3402 122.799C24.386 125.325 31.3347 122.471 33.8606 116.426Z" fill="#DD6E00" stroke="#DD6E00" stroke-width="4" stroke-miterlimit="10"/>
<path d="M121.756 50.904C132.526 50.904 141.256 42.1736 141.256 31.404C141.256 20.6345 132.526 11.9041 121.756 11.9041C110.986 11.9041 102.256 20.6345 102.256 31.404C102.256 42.1736 110.986 50.904 121.756 50.904Z" fill="#DD6E00" stroke="#DD6E00" stroke-width="4" stroke-miterlimit="10"/>
<path d="M150.331 65.1415C158.521 63.2212 163.603 55.0258 161.682 46.8365C159.762 38.6473 151.567 33.5653 143.377 35.4856C135.188 37.4059 130.106 45.6013 132.026 53.7906C133.947 61.9798 142.142 67.0618 150.331 65.1415Z" fill="#DD6E00" stroke="#DD6E00" stroke-width="4" stroke-miterlimit="10"/>
<path d="M159.22 105.509C166.676 105.509 172.72 99.4649 172.72 92.009C172.72 84.5532 166.676 78.509 159.22 78.509C151.764 78.509 145.72 84.5532 145.72 92.009C145.72 99.4649 151.764 105.509 159.22 105.509Z" fill="#DD6E00" stroke="#DD6E00" stroke-width="4" stroke-miterlimit="10"/>
<path d="M158.219 86.2151C165.675 86.2151 171.719 80.1709 171.719 72.7151C171.719 65.2592 165.675 59.2151 158.219 59.2151C150.763 59.2151 144.719 65.2592 144.719 72.7151C144.719 80.1709 150.763 86.2151 158.219 86.2151Z" fill="#DD6E00" stroke="#DD6E00" stroke-width="4" stroke-miterlimit="10"/>
<path d="M156.385 122.751C162.431 120.225 165.285 113.276 162.759 107.23C160.233 101.184 153.284 98.3309 147.238 100.857C141.192 103.383 138.339 110.332 140.865 116.377C143.391 122.423 150.34 125.277 156.385 122.751Z" fill="#DD6E00" stroke="#DD6E00" stroke-width="4" stroke-miterlimit="10"/>
<path d="M53.229 50.7769C53.229 62.0649 43.548 71.2149 31.606 71.2149C19.664 71.2149 9.98297 63.0099 9.98297 51.7229C9.98297 40.4349 19.664 31.2849 31.606 31.2849C43.548 31.2839 53.229 39.4889 53.229 50.7769Z" fill="#FFD45C"/>
<path d="M34.564 63.4239C40.3199 63.4239 44.986 59.0135 44.986 53.5729C44.986 48.1324 40.3199 43.7219 34.564 43.7219C28.8081 43.7219 24.142 48.1324 24.142 53.5729C24.142 59.0135 28.8081 63.4239 34.564 63.4239Z" fill="#FF9F7D"/>
<path d="M144.425 71.2149C156.367 71.2149 166.048 62.0645 166.048 50.7769C166.048 39.4893 156.367 30.3389 144.425 30.3389C132.483 30.3389 122.802 39.4893 122.802 50.7769C122.802 62.0645 132.483 71.2149 144.425 71.2149Z" fill="#FFD45C"/>
<path d="M141.467 63.4239C147.223 63.4239 151.889 59.0135 151.889 53.5729C151.889 48.1324 147.223 43.7219 141.467 43.7219C135.711 43.7219 131.045 48.1324 131.045 53.5729C131.045 59.0135 135.711 63.4239 141.467 63.4239Z" fill="#FF9F7D"/>
<path d="M87.36 152.642C123.187 152.642 152.23 125.331 152.23 91.6421C152.23 57.9527 123.187 30.6421 87.36 30.6421C51.5333 30.6421 22.49 57.9527 22.49 91.6421C22.49 125.331 51.5333 152.642 87.36 152.642Z" fill="#FFE388"/>
<path d="M81.182 123.096H93.538C91.786 93.0359 99.602 62.5209 115.399 36.9029C109.422 33.9289 97.266 30.3389 87.36 30.3389C77.454 30.3389 65.259 33.6569 59.321 36.9029C75.118 62.5209 82.933 93.0359 81.182 123.096Z" fill="#FFD45C"/>
<path d="M86.739 102.816C67.493 104.568 59.914 116.06 59.914 123.757C59.914 131.454 66.154 137.694 73.851 137.694C80.382 137.694 85.848 133.196 87.359 127.133C88.87 133.196 94.336 137.694 100.867 137.694C108.564 137.694 114.804 131.454 114.804 123.757C114.805 116.06 103.316 102.816 86.739 102.816Z" fill="#FFF9F3"/>
<path d="M53.655 106.654C58.0732 106.654 61.655 103.072 61.655 98.6541C61.655 94.2358 58.0732 90.6541 53.655 90.6541C49.2367 90.6541 45.655 94.2358 45.655 98.6541C45.655 103.072 49.2367 106.654 53.655 106.654Z" fill="#35190E"/>
<path d="M49.024 98.654C49.024 98.654 48.947 98.526 48.844 98.304C48.738 98.103 48.639 97.715 48.626 97.289C48.583 96.851 48.677 96.3449 48.858 95.8219C48.968 95.5719 49.079 95.303 49.248 95.066C49.396 94.813 49.601 94.597 49.797 94.374C50.02 94.178 50.235 93.9719 50.488 93.8239C50.724 93.6529 50.994 93.544 51.244 93.433C51.509 93.349 51.758 93.261 52.01 93.234C52.256 93.19 52.494 93.185 52.712 93.201C52.925 93.196 53.124 93.241 53.294 93.282C53.463 93.311 53.608 93.3679 53.724 93.4209C53.956 93.5239 54.078 93.6019 54.078 93.6019C54.078 93.6019 53.952 93.693 53.751 93.818C53.549 93.936 53.28 94.121 52.991 94.316C52.408 94.724 51.776 95.228 51.213 95.789C50.65 96.351 50.144 96.983 49.737 97.567C49.543 97.861 49.361 98.093 49.241 98.325C49.114 98.535 49.024 98.654 49.024 98.654Z" fill="white"/>
<path d="M121.064 106.654C125.482 106.654 129.064 103.072 129.064 98.6541C129.064 94.2358 125.482 90.6541 121.064 90.6541C116.646 90.6541 113.064 94.2358 113.064 98.6541C113.064 103.072 116.646 106.654 121.064 106.654Z" fill="#35190E"/>
<path d="M116.433 98.654C116.433 98.654 116.356 98.526 116.253 98.304C116.147 98.103 116.048 97.715 116.035 97.289C115.992 96.851 116.086 96.3449 116.267 95.8219C116.377 95.5719 116.488 95.303 116.657 95.066C116.805 94.813 117.01 94.597 117.206 94.374C117.429 94.178 117.644 93.9719 117.897 93.8239C118.133 93.6529 118.403 93.544 118.653 93.433C118.918 93.349 119.167 93.261 119.419 93.234C119.665 93.19 119.903 93.185 120.121 93.201C120.334 93.196 120.533 93.241 120.703 93.282C120.872 93.311 121.017 93.3679 121.133 93.4209C121.365 93.5239 121.487 93.6019 121.487 93.6019C121.487 93.6019 121.361 93.693 121.16 93.818C120.959 93.936 120.689 94.121 120.4 94.316C119.817 94.724 119.185 95.228 118.622 95.789C118.059 96.351 117.553 96.983 117.146 97.567C116.952 97.861 116.77 98.093 116.65 98.325C116.523 98.535 116.433 98.654 116.433 98.654Z" fill="white"/>
<path d="M86.641 121.341C87.078 122.214 86.641 125.247 86.641 125.247C86.641 125.247 83.481 132.36 74.527 129.221" stroke="#564F4A" stroke-width="3" stroke-miterlimit="10" stroke-linecap="round" stroke-linejoin="round"/>
<path d="M88.079 121.341C87.642 122.214 88.079 125.247 88.079 125.247C88.079 125.247 91.239 132.36 100.193 129.221" stroke="#564F4A" stroke-width="3" stroke-miterlimit="10" stroke-linecap="round" stroke-linejoin="round"/>
<path d="M93.046 112.658H81.513C79.931 112.658 78.9559 114.079 79.7769 115.192C81.7399 117.854 84.951 121.658 87.279 121.658C89.607 121.658 92.819 117.854 94.781 115.192C95.603 114.079 94.628 112.658 93.046 112.658Z" fill="#A57A5D"/>
</svg>
