<svg width="170" height="130" viewBox="0 0 170 130" fill="none" xmlns="http://www.w3.org/2000/svg">
<path d="M145.174 39.795C133.987 13.147 111.649 2 84.9265 2C58.2055 2 35.8665 13.147 24.6795 39.795C20.9005 48.796 17.1355 63.38 17.4525 73.06C18.5645 106.996 44.1235 125.692 84.9265 125.692C125.73 125.692 151.289 106.996 152.401 73.06C152.719 63.38 148.953 48.796 145.174 39.795Z" fill="#FFBD5C"/>
<path d="M51.2225 78.002C55.6408 78.002 59.2225 74.4202 59.2225 70.002C59.2225 65.5837 55.6408 62.002 51.2225 62.002C46.8042 62.002 43.2225 65.5837 43.2225 70.002C43.2225 74.4202 46.8042 78.002 51.2225 78.002Z" fill="#35190E"/>
<path d="M46.5915 70.0018C46.5915 70.0018 46.5145 69.8739 46.4115 69.6509C46.3055 69.4499 46.2065 69.0618 46.1935 68.6368C46.1505 68.1988 46.2445 67.6928 46.4255 67.1698C46.5355 66.9198 46.6465 66.6509 46.8155 66.4139C46.9635 66.1609 47.1685 65.9448 47.3645 65.7218C47.5875 65.5258 47.8025 65.3198 48.0555 65.1718C48.2915 65.0008 48.5615 64.8919 48.8115 64.7809C49.0765 64.6969 49.3255 64.6089 49.5775 64.5819C49.8235 64.5379 50.0615 64.5329 50.2795 64.5489C50.4925 64.5439 50.6915 64.5889 50.8615 64.6299C51.0305 64.6589 51.1755 64.7159 51.2915 64.7689C51.5235 64.8719 51.6455 64.9499 51.6455 64.9499C51.6455 64.9499 51.5195 65.0408 51.3185 65.1658C51.1165 65.2838 50.8475 65.4699 50.5585 65.6639C49.9755 66.0729 49.3435 66.5758 48.7795 67.1368C48.2165 67.6988 47.7105 68.3309 47.3035 68.9149C47.1095 69.2099 46.9275 69.4409 46.8075 69.6729C46.6815 69.8829 46.5915 70.0018 46.5915 70.0018Z" fill="white"/>
<path d="M118.632 78.002C123.05 78.002 126.632 74.4202 126.632 70.002C126.632 65.5837 123.05 62.002 118.632 62.002C114.213 62.002 110.632 65.5837 110.632 70.002C110.632 74.4202 114.213 78.002 118.632 78.002Z" fill="#35190E"/>
<path d="M114.001 70.0018C114.001 70.0018 113.924 69.8739 113.821 69.6509C113.715 69.4499 113.616 69.0618 113.603 68.6368C113.56 68.1988 113.654 67.6928 113.835 67.1698C113.945 66.9198 114.056 66.6509 114.225 66.4139C114.373 66.1609 114.578 65.9448 114.774 65.7218C114.997 65.5258 115.212 65.3198 115.465 65.1718C115.701 65.0008 115.971 64.8919 116.221 64.7809C116.486 64.6969 116.735 64.6089 116.987 64.5819C117.233 64.5379 117.471 64.5329 117.689 64.5489C117.902 64.5439 118.101 64.5889 118.271 64.6299C118.44 64.6589 118.585 64.7159 118.701 64.7689C118.934 64.8719 119.055 64.9499 119.055 64.9499C119.055 64.9499 118.929 65.0408 118.728 65.1658C118.526 65.2838 118.257 65.4699 117.968 65.6639C117.385 66.0729 116.753 66.5758 116.19 67.1368C115.627 67.6988 115.121 68.3309 114.714 68.9149C114.52 69.2099 114.338 69.4409 114.218 69.6729C114.091 69.8829 114.001 70.0018 114.001 70.0018Z" fill="white"/>
<path d="M16.2435 24.336C11.4805 20.901 5.85551 18.711 0.042511 17.894C0.524511 26.944 5.45853 35.76 13.1615 40.6C16.9615 42.988 23.9395 44.119 29.5915 42.92C27.2555 35.525 22.5395 28.876 16.2435 24.336Z" fill="#FFC5AE"/>
<path d="M38.0185 31.0452C38.3675 4.39618 6.6955 5.71521 3.7915 6.76021C1.5615 7.56221 0.627512 10.1892 0.275512 12.5322C0.00851241 14.3092 -0.0534893 16.1062 0.0425107 17.8942C5.85551 18.7102 11.4805 20.9012 16.2435 24.3362C22.5395 28.8762 27.2555 35.5262 29.5915 42.9212C35.2995 41.7102 37.9235 38.3092 38.0185 31.0452Z" fill="#DD6E00"/>
<path d="M153.611 24.336C158.374 20.901 163.999 18.711 169.812 17.894C169.33 26.944 164.396 35.76 156.693 40.6C152.893 42.988 145.915 44.119 140.263 42.92C142.599 35.525 147.315 28.876 153.611 24.336Z" fill="#FFC5AE"/>
<path d="M131.836 31.0452C131.487 4.39618 163.159 5.71521 166.063 6.76021C168.293 7.56221 169.227 10.1892 169.579 12.5322C169.846 14.3092 169.908 16.1062 169.812 17.8942C163.999 18.7102 158.373 20.9012 153.61 24.3362C147.314 28.8762 142.599 35.5262 140.263 42.9212C134.555 41.7102 131.931 38.3092 131.836 31.0452Z" fill="#DD6E00"/>
<path d="M145.174 39.795C133.987 13.147 111.649 2 84.9265 2C58.2055 2 35.8665 13.147 24.6795 39.795C20.9005 48.796 17.1355 63.38 17.4525 73.06C17.4785 73.855 17.5315 74.633 17.5845 75.411C20.4155 58.067 31.6405 45.164 47.2545 37.012C54.0665 33.455 62.8335 31.477 69.1205 35.896C74.2875 39.528 76.0775 46.271 77.1525 52.495C79.3475 65.208 80.0935 75.169 79.3725 88.05C79.2775 89.75 78.8895 89.02 78.8985 90.722C81.0915 91.057 83.2485 90.159 84.9265 88.664C86.6045 90.159 88.7615 91.057 90.9545 90.722C90.9625 89.019 90.5755 89.75 90.4805 88.05C89.7595 75.169 90.5055 65.208 92.7005 52.495C93.7755 46.271 95.5655 39.528 100.733 35.896C107.02 31.477 115.787 33.455 122.599 37.012C138.213 45.164 149.439 58.066 152.269 75.411C152.322 74.633 152.374 73.855 152.401 73.06C152.719 63.38 148.953 48.796 145.174 39.795Z" fill="#DD6E00" stroke="#DD6E00" stroke-width="4" stroke-miterlimit="10"/>
<path d="M146.108 70.4451C140.842 68.9161 133.906 70.1281 128.181 75.6251C124.201 79.4471 97.4735 110.698 84.9275 110.698C72.3805 110.698 45.7415 79.3541 41.6735 75.6251C36.6135 70.9881 29.0125 69.9161 23.7465 71.4451C18.4805 72.9741 13.9265 78.0171 13.9265 83.8381C13.9265 113.926 65.0385 129.723 86.7355 129.629C107.228 129.54 155.928 114.389 155.928 82.8371C155.928 77.0181 151.375 71.9751 146.108 70.4451Z" fill="#FFFAF0"/>
<path d="M84.9275 112.339C95.3613 112.339 103.82 105.732 103.82 97.5822C103.82 89.4321 95.3613 82.8252 84.9275 82.8252C74.4938 82.8252 66.0355 89.4321 66.0355 97.5822C66.0355 105.732 74.4938 112.339 84.9275 112.339Z" fill="#FFFAF0"/>
<path d="M84.2085 90.5073C84.6455 91.3803 84.2085 94.4133 84.2085 94.4133C84.2085 94.4133 81.0485 101.526 72.0945 98.3873" stroke="#998271" stroke-width="3" stroke-miterlimit="10" stroke-linecap="round" stroke-linejoin="round"/>
<path d="M85.6455 90.5073C85.2085 91.3803 85.6455 94.4133 85.6455 94.4133C85.6455 94.4133 88.8055 101.526 97.7595 98.3873" stroke="#998271" stroke-width="3" stroke-miterlimit="10" stroke-linecap="round" stroke-linejoin="round"/>
<path d="M90.6135 81.8242H79.0805C77.4985 81.8242 76.5235 83.2452 77.3445 84.3582C79.3075 87.0202 82.5185 90.8242 84.8475 90.8242C87.1755 90.8242 90.3875 87.0202 92.3495 84.3582C93.1705 83.2452 92.1955 81.8242 90.6135 81.8242Z" fill="#8C6042"/>
</svg>
