<svg width="140" height="148" viewBox="0 0 140 148" fill="none" xmlns="http://www.w3.org/2000/svg">
<path d="M63.4299 108.824H75.7859C74.0339 78.7644 81.8499 48.2494 97.6469 22.6314C89.0149 19.5614 79.5139 18.0684 69.6079 18.0684C59.7019 18.0684 50.2009 19.5614 41.5689 22.6314C57.3659 48.2494 65.1809 78.7644 63.4299 108.824Z" fill="#FCECDB"/>
<path d="M107.471 93.0714C119.212 89.7474 129.984 83.2293 138.558 74.5543C138.2 71.8903 137.699 69.2304 137.044 66.5844C131.378 43.7274 116.608 29.3743 97.6469 22.6313C81.8499 48.2493 74.0339 78.7643 75.7859 108.824H63.4299C65.1819 78.7643 57.3659 48.2493 41.5689 22.6313C22.6079 29.3743 7.83891 43.7264 2.17291 66.5844C1.51691 69.2304 1.01694 71.8903 0.658936 74.5543C9.23294 83.2293 20.0049 89.7474 31.7459 93.0714C20.9369 93.1704 11.3249 101.927 5.75092 112.521C15.9639 135.463 38.9069 147.441 69.6089 147.441C100.311 147.441 123.254 135.463 133.467 112.521C127.892 101.926 118.28 93.1704 107.471 93.0714Z" fill="white"/>
<path d="M31.7439 93.0712C20.0029 89.7472 9.23089 83.2292 0.656891 74.5542C-0.382109 82.2862 -0.181121 90.0562 1.20688 97.6402C1.24888 97.8712 1.30289 98.0942 1.34689 98.3242C2.33389 103.446 3.81487 108.178 5.74887 112.521C11.3239 101.926 20.9359 93.1702 31.7439 93.0712Z" fill="#FCECDB"/>
<path d="M138.007 97.6402C139.396 90.0562 139.596 82.2862 138.557 74.5542C129.983 83.2292 119.211 89.7472 107.47 93.0712C118.279 93.1702 127.891 101.926 133.465 112.521C135.398 108.178 136.88 103.446 137.867 98.3242C137.912 98.0952 137.965 97.8712 138.007 97.6402Z" fill="#FCECDB"/>
<path d="M35.6799 98.4121C40.0982 98.4121 43.6799 94.8304 43.6799 90.4121C43.6799 85.9938 40.0982 82.4121 35.6799 82.4121C31.2617 82.4121 27.6799 85.9938 27.6799 90.4121C27.6799 94.8304 31.2617 98.4121 35.6799 98.4121Z" fill="#35190E"/>
<path d="M31.0489 90.412C31.0489 90.412 30.9719 90.284 30.8689 90.061C30.7629 89.86 30.6639 89.472 30.6509 89.047C30.6079 88.609 30.7019 88.103 30.8829 87.58C30.9929 87.33 31.1039 87.061 31.2729 86.824C31.4209 86.571 31.6259 86.355 31.8219 86.132C32.0449 85.936 32.2599 85.73 32.5129 85.582C32.7489 85.411 33.0189 85.302 33.2689 85.191C33.5339 85.107 33.7829 85.019 34.0349 84.992C34.2809 84.948 34.5189 84.943 34.7369 84.959C34.9499 84.954 35.1489 84.999 35.3189 85.04C35.4879 85.069 35.6329 85.126 35.7489 85.179C35.9809 85.282 36.1029 85.36 36.1029 85.36C36.1029 85.36 35.9769 85.451 35.7759 85.576C35.5749 85.694 35.3049 85.879 35.0159 86.073C34.4329 86.482 33.8009 86.985 33.2369 87.547C32.6739 88.109 32.1679 88.741 31.7609 89.325C31.5669 89.62 31.3849 89.851 31.2649 90.083C31.1389 90.292 31.0489 90.412 31.0489 90.412Z" fill="white"/>
<path d="M103.089 98.4121C107.507 98.4121 111.089 94.8304 111.089 90.4121C111.089 85.9938 107.507 82.4121 103.089 82.4121C98.6707 82.4121 95.0889 85.9938 95.0889 90.4121C95.0889 94.8304 98.6707 98.4121 103.089 98.4121Z" fill="#35190E"/>
<path d="M98.4579 90.412C98.4579 90.412 98.3809 90.284 98.2779 90.061C98.1719 89.86 98.0729 89.472 98.0599 89.047C98.0169 88.609 98.1109 88.103 98.2919 87.58C98.4019 87.33 98.5129 87.061 98.6819 86.824C98.8299 86.571 99.0349 86.355 99.2309 86.132C99.4539 85.936 99.6689 85.73 99.9219 85.582C100.158 85.411 100.428 85.302 100.678 85.191C100.943 85.107 101.192 85.019 101.444 84.992C101.69 84.948 101.928 84.943 102.146 84.959C102.359 84.954 102.557 84.999 102.728 85.04C102.897 85.069 103.042 85.126 103.158 85.179C103.39 85.282 103.512 85.36 103.512 85.36C103.512 85.36 103.386 85.451 103.185 85.576C102.984 85.694 102.714 85.879 102.425 86.073C101.842 86.482 101.21 86.985 100.647 87.547C100.084 88.109 99.5779 88.741 99.1709 89.325C98.9769 89.62 98.7949 89.851 98.6749 90.083C98.5479 90.292 98.4579 90.412 98.4579 90.412Z" fill="white"/>
<path d="M57.9409 113.526C57.9409 109.621 81.2739 109.621 81.2739 113.526C81.2739 117.431 76.0509 120.597 69.6069 120.597C63.1639 120.597 57.9409 117.431 57.9409 113.526Z" fill="#FFA81D"/>
<path d="M63.0759 18.6943C64.7899 14.6643 66.5029 10.6343 68.2169 6.60532C68.9089 4.97932 69.6259 3.31329 70.8529 2.04129C74.5619 -1.80371 81.9459 0.120316 84.1169 5.00132C86.2889 9.88232 83.6779 16.0243 79.0979 18.7743C74.5179 21.5243 68.5829 21.2763 63.6649 19.1893" fill="#FCECDB"/>
<path d="M93.1079 110.906C93.1079 117.154 46.1079 117.154 46.1079 110.906C46.1079 104.658 56.6289 99.5923 69.6079 99.5923C82.5869 99.5923 93.1079 104.658 93.1079 110.906Z" fill="#FFA81D"/>
</svg>
