<svg width="160" height="141" viewBox="0 0 160 141" fill="none" xmlns="http://www.w3.org/2000/svg">
<path d="M23.123 44.746C35.0651 44.746 44.746 35.065 44.746 23.123C44.746 11.1809 35.0651 1.5 23.123 1.5C11.181 1.5 1.50003 11.1809 1.50003 23.123C1.50003 35.065 11.181 44.746 23.123 44.746Z" fill="black" stroke="black" stroke-width="3" stroke-miterlimit="10"/>
<path d="M36.2256 28.4988C37.5541 22.8983 34.0909 17.2813 28.4904 15.9528C22.8899 14.6244 17.2728 18.0875 15.9444 23.688C14.6159 29.2885 18.0791 34.9056 23.6796 36.234C29.2801 37.5625 34.8972 34.0993 36.2256 28.4988Z" fill="#FFC5AE"/>
<path d="M135.942 44.746C147.884 44.746 157.565 35.065 157.565 23.123C157.565 11.1809 147.884 1.5 135.942 1.5C124 1.5 114.319 11.1809 114.319 23.123C114.319 35.065 124 44.746 135.942 44.746Z" fill="black" stroke="black" stroke-width="3" stroke-miterlimit="10"/>
<path d="M140.789 33.0095C144.604 28.6995 144.203 22.1128 139.893 18.2978C135.583 14.4828 128.996 14.884 125.181 19.1941C121.366 23.5041 121.767 30.0908 126.077 33.9058C130.387 37.7208 136.974 37.3195 140.789 33.0095Z" fill="#FFC5AE"/>
<path d="M23.123 44.746C35.0651 44.746 44.746 35.065 44.746 23.123C44.746 11.1809 35.0651 1.5 23.123 1.5C11.181 1.5 1.50003 11.1809 1.50003 23.123C1.50003 35.065 11.181 44.746 23.123 44.746Z" fill="black" stroke="black" stroke-width="3" stroke-miterlimit="10"/>
<path d="M36.2256 28.4988C37.5541 22.8983 34.0909 17.2813 28.4904 15.9528C22.8899 14.6244 17.2728 18.0875 15.9444 23.688C14.6159 29.2885 18.0791 34.9056 23.6796 36.234C29.2801 37.5625 34.8972 34.0993 36.2256 28.4988Z" fill="#FFC5AE"/>
<path d="M135.942 44.746C147.884 44.746 157.565 35.065 157.565 23.123C157.565 11.1809 147.884 1.5 135.942 1.5C124 1.5 114.319 11.1809 114.319 23.123C114.319 35.065 124 44.746 135.942 44.746Z" fill="black" stroke="black" stroke-width="3" stroke-miterlimit="10"/>
<path d="M140.789 33.0095C144.604 28.6995 144.203 22.1128 139.893 18.2978C135.583 14.4828 128.996 14.884 125.181 19.1941C121.366 23.5041 121.767 30.0908 126.077 33.9058C130.387 37.7208 136.974 37.3195 140.789 33.0095Z" fill="#FFC5AE"/>
<path d="M108.76 11.8807C99.798 8.35074 89.919 6.38379 79.532 6.38379C38.861 6.38379 5.89105 36.3808 5.89105 73.3838C5.89105 110.387 38.861 140.384 79.532 140.384C110.953 140.384 137.762 122.472 148.339 97.2648C151.452 89.8448 153.174 81.7988 153.174 73.3838C153.174 45.8308 134.888 22.1727 108.76 11.8807Z" fill="white"/>
<path d="M67.543 69.212C67.543 83.928 55.698 98.124 40.078 100.157C23.219 102.351 10.328 89.5541 12.39 72.5951C14.309 56.8161 28.496 44.8091 43.237 44.8091C57.016 44.8091 67.543 55.4 67.543 69.212Z" fill="black"/>
<path d="M91.523 69.212C91.523 83.928 103.368 98.124 118.988 100.157C135.846 102.351 148.738 89.5541 146.675 72.5951C144.756 56.8161 130.569 44.8091 115.828 44.8091C102.049 44.8091 91.523 55.4 91.523 69.212Z" fill="black"/>
<path d="M45.828 86.0791C50.2463 86.0791 53.828 82.4974 53.828 78.0791C53.828 73.6608 50.2463 70.0791 45.828 70.0791C41.4098 70.0791 37.828 73.6608 37.828 78.0791C37.828 82.4974 41.4098 86.0791 45.828 86.0791Z" stroke="white" stroke-width="2" stroke-miterlimit="10"/>
<path d="M41.1971 78.079C41.1971 78.079 41.12 77.9511 41.017 77.7281C40.911 77.5271 40.8121 77.139 40.7991 76.714C40.7561 76.276 40.85 75.77 41.031 75.247C41.141 74.997 41.2521 74.7281 41.4211 74.4911C41.5691 74.2381 41.774 74.022 41.97 73.799C42.193 73.603 42.4081 73.3971 42.6611 73.2491C42.8971 73.0781 43.1671 72.9691 43.4171 72.8581C43.6821 72.7741 43.9311 72.686 44.1831 72.659C44.4291 72.615 44.667 72.61 44.885 72.626C45.098 72.621 45.2971 72.6661 45.4671 72.7071C45.6361 72.7361 45.781 72.793 45.897 72.846C46.129 72.949 46.251 73.027 46.251 73.027C46.251 73.027 46.1251 73.118 45.9241 73.243C45.7221 73.361 45.453 73.5471 45.164 73.7411C44.581 74.1501 43.9491 74.6531 43.3851 75.2151C42.8221 75.7771 42.3161 76.409 41.9091 76.993C41.7151 77.287 41.5331 77.519 41.4131 77.751C41.2871 77.959 41.1971 78.079 41.1971 78.079Z" fill="white"/>
<path d="M113.237 86.0791C117.655 86.0791 121.237 82.4974 121.237 78.0791C121.237 73.6608 117.655 70.0791 113.237 70.0791C108.819 70.0791 105.237 73.6608 105.237 78.0791C105.237 82.4974 108.819 86.0791 113.237 86.0791Z" stroke="white" stroke-width="2" stroke-miterlimit="10"/>
<path d="M108.606 78.079C108.606 78.079 108.529 77.9511 108.426 77.7281C108.32 77.5271 108.221 77.139 108.208 76.714C108.165 76.276 108.259 75.77 108.44 75.247C108.55 74.997 108.661 74.7281 108.83 74.4911C108.978 74.2381 109.183 74.022 109.379 73.799C109.602 73.603 109.817 73.3971 110.07 73.2491C110.306 73.0781 110.576 72.9691 110.826 72.8581C111.091 72.7741 111.34 72.686 111.592 72.659C111.838 72.615 112.076 72.61 112.294 72.626C112.507 72.621 112.706 72.6661 112.876 72.7071C113.045 72.7361 113.19 72.793 113.306 72.846C113.539 72.949 113.66 73.027 113.66 73.027C113.66 73.027 113.534 73.118 113.333 73.243C113.131 73.361 112.862 73.5471 112.573 73.7411C111.99 74.1501 111.358 74.6531 110.795 75.2151C110.232 75.7771 109.726 76.409 109.319 76.993C109.125 77.287 108.943 77.519 108.823 77.751C108.696 77.959 108.606 78.079 108.606 78.079Z" fill="white"/>
<path d="M78.8141 98.584C79.2511 99.457 78.8141 102.49 78.8141 102.49C78.8141 102.49 75.654 109.603 66.7 106.464" stroke="black" stroke-width="3" stroke-miterlimit="10" stroke-linecap="round" stroke-linejoin="round"/>
<path d="M80.251 98.584C79.814 99.457 80.251 102.49 80.251 102.49C80.251 102.49 83.4111 109.603 92.3651 106.464" stroke="black" stroke-width="3" stroke-miterlimit="10" stroke-linecap="round" stroke-linejoin="round"/>
<path d="M87.6181 86.0269H71.2871C69.0471 86.0269 67.6661 90.0399 68.8291 91.6169C71.6081 95.3859 76.156 100.773 79.453 100.773C82.749 100.773 87.2981 95.3859 90.0771 91.6169C91.2391 90.0409 89.8581 86.0269 87.6181 86.0269Z" fill="black"/>
</svg>
