<svg width="153" height="147" viewBox="0 0 153 147" fill="none" xmlns="http://www.w3.org/2000/svg">
<path d="M16.795 11.1078L33.234 10.6678C25.962 5.78279 18.193 2.13977 9.82701 0.187774C4.61901 -1.02723 0.638016 3.80476 1.33402 10.3238C2.20102 18.4458 3.81101 25.8948 5.90701 32.7898L9.56902 17.0088C10.354 13.6258 13.324 11.2008 16.795 11.1078Z" fill="#35190E"/>
<path d="M56.971 32.461C49.664 23.898 41.795 16.418 33.234 10.667L16.795 11.107C13.324 11.2 10.354 13.625 9.56902 17.007L5.90701 32.788C9.40201 44.284 14.247 54.244 19.246 63.228L56.971 32.461Z" fill="#FFA81D"/>
<path d="M26.798 64.2086C20.939 53.3556 15.515 40.8356 14.22 25.0916C13.836 20.4266 16.865 16.9897 20.681 17.8517C34.068 20.8787 45.417 29.6337 55.504 41.1837L26.798 64.2086Z" fill="#FFC5AE"/>
<path d="M135.425 11.1078L118.986 10.6678C126.258 5.78279 134.027 2.13977 142.393 0.187774C147.601 -1.02723 151.582 3.80476 150.886 10.3238C150.019 18.4458 148.409 25.8948 146.312 32.7898L142.65 17.0088C141.866 13.6258 138.896 11.2008 135.425 11.1078Z" fill="#35190E"/>
<path d="M95.249 32.461C102.556 23.898 110.425 16.418 118.986 10.667L135.425 11.107C138.896 11.2 141.866 13.625 142.651 17.007L146.313 32.788C142.818 44.284 137.973 54.244 132.974 63.228L95.249 32.461Z" fill="#FFA81D"/>
<path d="M125.422 64.2086C131.281 53.3556 136.705 40.8356 138 25.0916C138.384 20.4266 135.355 16.9897 131.539 17.8517C118.152 20.8787 106.803 29.6337 96.715 41.1837L125.422 64.2086Z" fill="#FFC5AE"/>
<path d="M135.87 59.4966C124.683 32.8486 102.344 21.7017 75.623 21.7017C48.902 21.7017 26.563 32.8486 15.376 59.4966C11.597 68.4976 7.83201 83.0817 8.14901 92.7617C9.26101 126.698 34.82 145.394 75.623 145.394C116.426 145.394 141.985 126.698 143.097 92.7617C143.415 83.0807 139.649 68.4976 135.87 59.4966Z" fill="#FFA81D"/>
<path d="M81.108 110.377C79.313 110.269 77.485 110.209 75.624 110.209C74.1 110.209 72.597 110.249 71.116 110.322C72.3 90.7626 5.47102 90.3646 1.52588e-05 99.6326C2.57902 114.232 13.456 125.007 24.575 131.6C35.496 138.075 47.811 142.651 59.945 145.143C59.959 145.099 59.976 145.054 59.991 145.009C64.805 145.9 70.084 146.394 75.624 146.394C81.517 146.394 87.112 145.833 92.169 144.831C92.203 144.934 92.242 145.039 92.276 145.142C104.41 142.65 116.725 138.074 127.646 131.599C138.765 125.007 149.643 114.232 152.221 99.6315C146.75 90.3645 79.91 90.8005 81.108 110.377Z" fill="#FFFAF0"/>
<path d="M41.919 97.7036C46.3373 97.7036 49.919 94.1219 49.919 89.7036C49.919 85.2853 46.3373 81.7036 41.919 81.7036C37.5007 81.7036 33.919 85.2853 33.919 89.7036C33.919 94.1219 37.5007 97.7036 41.919 97.7036Z" fill="#35190E"/>
<path d="M37.288 89.7035C37.288 89.7035 37.211 89.5755 37.108 89.3525C37.002 89.1515 36.903 88.7635 36.89 88.3385C36.847 87.9005 36.941 87.3945 37.122 86.8715C37.232 86.6215 37.343 86.3525 37.512 86.1155C37.66 85.8625 37.865 85.6465 38.061 85.4235C38.284 85.2275 38.499 85.0215 38.752 84.8735C38.988 84.7025 39.258 84.5935 39.508 84.4825C39.773 84.3985 40.022 84.3105 40.274 84.2835C40.52 84.2395 40.758 84.2345 40.976 84.2505C41.189 84.2455 41.388 84.2905 41.558 84.3315C41.727 84.3605 41.872 84.4175 41.988 84.4705C42.22 84.5735 42.342 84.6515 42.342 84.6515C42.342 84.6515 42.216 84.7425 42.015 84.8675C41.814 84.9855 41.544 85.1705 41.255 85.3655C40.672 85.7735 40.04 86.2775 39.477 86.8385C38.914 87.4005 38.408 88.0325 38.001 88.6165C37.807 88.9105 37.625 89.1425 37.505 89.3745C37.378 89.5835 37.288 89.7035 37.288 89.7035Z" fill="white"/>
<path d="M109.328 97.7036C113.746 97.7036 117.328 94.1219 117.328 89.7036C117.328 85.2853 113.746 81.7036 109.328 81.7036C104.91 81.7036 101.328 85.2853 101.328 89.7036C101.328 94.1219 104.91 97.7036 109.328 97.7036Z" fill="#35190E"/>
<path d="M104.697 89.7035C104.697 89.7035 104.62 89.5755 104.517 89.3525C104.411 89.1515 104.312 88.7635 104.299 88.3385C104.256 87.9005 104.35 87.3945 104.531 86.8715C104.641 86.6215 104.752 86.3525 104.921 86.1155C105.069 85.8625 105.274 85.6465 105.47 85.4235C105.693 85.2275 105.908 85.0215 106.161 84.8735C106.397 84.7025 106.667 84.5935 106.917 84.4825C107.182 84.3985 107.431 84.3105 107.683 84.2835C107.929 84.2395 108.167 84.2345 108.385 84.2505C108.598 84.2455 108.796 84.2905 108.967 84.3315C109.136 84.3605 109.281 84.4175 109.397 84.4705C109.629 84.5735 109.751 84.6515 109.751 84.6515C109.751 84.6515 109.625 84.7425 109.424 84.8675C109.223 84.9855 108.953 85.1705 108.664 85.3655C108.081 85.7735 107.449 86.2775 106.885 86.8385C106.322 87.4005 105.816 88.0325 105.409 88.6165C105.215 88.9105 105.033 89.1425 104.913 89.3745C104.787 89.5835 104.697 89.7035 104.697 89.7035Z" fill="white"/>
<path d="M75.624 132.04C86.0578 132.04 94.516 125.433 94.516 117.283C94.516 109.133 86.0578 102.526 75.624 102.526C65.1903 102.526 56.732 109.133 56.732 117.283C56.732 125.433 65.1903 132.04 75.624 132.04Z" fill="#FFFAF0"/>
<path d="M74.905 110.209C75.342 111.082 74.905 114.115 74.905 114.115C74.905 114.115 71.745 121.228 62.791 118.089" stroke="#998271" stroke-width="3" stroke-miterlimit="10" stroke-linecap="round" stroke-linejoin="round"/>
<path d="M76.342 110.209C75.905 111.082 76.342 114.115 76.342 114.115C76.342 114.115 79.502 121.228 88.456 118.089" stroke="#998271" stroke-width="3" stroke-miterlimit="10" stroke-linecap="round" stroke-linejoin="round"/>
<path d="M81.31 101.526H69.777C68.195 101.526 67.22 102.947 68.041 104.06C70.004 106.722 73.215 110.526 75.543 110.526C77.871 110.526 81.083 106.722 83.046 104.06C83.867 102.947 82.892 101.526 81.31 101.526Z" fill="#35190E"/>
</svg>
