<svg width="138" height="148" viewBox="0 0 138 148" fill="none" xmlns="http://www.w3.org/2000/svg">
<path d="M86.6547 0C88.6547 7.85 83.7147 14.28 72.5247 19.41C70.0517 20.5037 67.6707 21.7946 65.4047 23.27C43.5647 37.89 31.0547 64.89 36.2647 82.48C36.4947 83.27 36.7347 84.07 36.9447 84.87C41.7447 103.74 52.8347 115.56 71.1347 119.34C74.2752 119.983 77.4812 120.248 80.6847 120.13C99.8347 119.42 113.685 109.35 119.835 85.53C125.185 66.85 119.215 52.61 111.115 40.64C110.705 40.03 110.245 39.45 109.785 38.87C105.995 34 105.045 29.62 105.975 25.55C99.9247 27.34 96.4147 31.27 98.2847 39.75C94.5947 35.37 93.5947 29.75 96.1347 22.44C99.3247 13.75 95.8947 3.73 86.6547 0Z" fill="#14B8A6"/>
<path d="M23.7747 62.2001L22.1747 50.7701C22.0902 50.0024 21.8465 49.2608 21.4591 48.5927C21.0716 47.9246 20.549 47.3447 19.9247 46.8901C19.6683 46.6742 19.3695 46.5146 19.0474 46.4218C18.7254 46.3289 18.3875 46.3047 18.0555 46.351C17.7236 46.3972 17.4051 46.5127 17.1207 46.69C16.8363 46.8673 16.5923 47.1024 16.4047 47.3801C15.9501 47.9114 15.612 48.5321 15.4122 49.2021C15.2124 49.8721 15.1553 50.5766 15.2447 51.2701L16.2447 60.5801L12.6047 51.4801C12.3257 50.7367 11.8941 50.0599 11.3378 49.4933C10.7816 48.9267 10.1128 48.4828 9.37469 48.1901C9.07937 48.0341 8.75325 47.9452 8.41962 47.9297C8.086 47.9143 7.75307 47.9726 7.44457 48.1006C7.13608 48.2285 6.85963 48.423 6.63494 48.6701C6.41025 48.9172 6.24284 49.2109 6.14468 49.5301C5.83226 50.2838 5.67899 51.0938 5.69448 51.9095C5.70997 52.7252 5.89389 53.5289 6.23469 54.2701L10.1547 63.3501L5.24468 57.6601C4.90646 57.2453 4.47906 56.9121 3.99429 56.6853C3.50951 56.4585 2.97985 56.344 2.44468 56.3501C1.94483 56.3482 1.45772 56.5078 1.0559 56.8051C0.654078 57.1024 0.359034 57.5216 0.214683 58.0001C-0.000791848 58.6421 -0.0551243 59.3271 0.0564802 59.995C0.168085 60.6629 0.442201 61.2931 0.854683 61.8301L5.85468 68.6101C7.32468 74.9601 10.7447 78.3901 16.0347 79.0401C16.828 80.4801 17.678 81.8701 18.5847 83.2101C21.0084 86.8486 24.1743 89.9333 27.8745 92.2617C31.5748 94.5901 35.7257 96.1095 40.0547 96.7201C40.6247 96.7901 41.2047 96.8601 41.7947 96.9101L36.9747 84.9101C33.1756 81.6717 29.7358 78.0342 26.7147 74.0601C28.3347 73.2001 29.2547 70.7601 29.1447 65.9601L31.2947 63.0401C31.6789 62.5473 31.9363 61.9678 32.0444 61.3523C32.1525 60.7369 32.1079 60.1043 31.9147 59.5101C31.3047 57.8401 29.6047 57.0701 27.5547 57.8301C26.4347 58.2811 25.4982 59.0944 24.8947 60.1401C24.0953 61.4963 23.518 62.9716 23.1847 64.5101C19.2447 65.3301 17.3247 67.8201 18.4147 72.7801" fill="#14B8A6"/>
<path d="M120.515 105.46C125.745 107.29 127.255 109.56 125.775 112.17C124.095 114.65 121.575 116.02 117.855 115.77C115.596 115.624 113.477 114.627 111.925 112.98L111.855 112.91C110.414 111.291 109.525 109.256 109.317 107.099C109.108 104.942 109.591 102.775 110.695 100.91C111.817 99.0842 113.555 97.7189 115.595 97.0601C122.765 93.9501 123.505 92.6201 126.325 89.5801L119.265 85.1501L121.065 74.3101C128.065 77.0801 132.905 80.3101 135.385 84.0501C136.459 85.7588 137.037 87.7325 137.055 89.7509C137.073 91.7692 136.529 93.7527 135.485 95.4801C132.555 100.59 127.175 103.6 120.485 105.48" fill="#14B8A6"/>
<path d="M58.2647 111.83C56.1427 119.892 54.5229 128.078 53.4147 136.34C47.4147 135.41 43.4647 137.06 43.0347 143.26C45.8047 148.04 61.6547 147 63.3847 143.54C64.8247 134.18 66.5247 124.67 68.9247 114.73L58.2647 111.83Z" fill="#14B8A6"/>
<path d="M97.6647 113.89L99.8747 136.19C106.325 137.6 108.175 140.34 107.075 143.94C106.735 148.24 95.9347 149.35 89.9047 144.36C88.1924 134.988 87.2194 125.495 86.9947 115.97L97.6647 113.89Z" fill="#14B8A6"/>
<path d="M58.8247 88.0499C61.8568 88.0499 64.3147 83.3578 64.3147 77.5698C64.3147 71.7819 61.8568 67.0898 58.8247 67.0898C55.7927 67.0898 53.3347 71.7819 53.3347 77.5698C53.3347 83.3578 55.7927 88.0499 58.8247 88.0499Z" fill="#115E59"/>
<path d="M56.8847 77.99C58.155 77.99 59.1847 76.0245 59.1847 73.6C59.1847 71.1754 58.155 69.21 56.8847 69.21C55.6145 69.21 54.5847 71.1754 54.5847 73.6C54.5847 76.0245 55.6145 77.99 56.8847 77.99Z" fill="white"/>
<path d="M84.6247 83.2498C80.8508 87.6 75.6629 90.479 69.9747 91.3798C69.5613 91.438 69.1832 91.6447 68.9108 91.9611C68.6385 92.2776 68.4906 92.6823 68.4947 93.0998C68.5847 95.4198 71.5947 96.9998 75.0847 97.5398C77.7495 97.915 80.4661 97.5338 82.9247 96.4398C87.7747 94.3498 91.0247 90.7998 91.5147 84.6798C91.617 83.7898 91.3893 82.8932 90.8747 82.1598C90.5065 81.6484 89.9739 81.279 89.3659 81.1133C88.7579 80.9477 88.1114 80.9958 87.5347 81.2498C86.402 81.6416 85.3964 82.3327 84.6247 83.2498Z" fill="#115E59" stroke="#115E59" stroke-linecap="round" stroke-linejoin="round"/>
<path d="M78.1347 88.7502C74.3747 91.1002 74.4147 94.6902 76.5147 96.4802C77.0774 96.9265 77.7444 97.2222 78.453 97.3394C79.1616 97.4567 79.8883 97.3915 80.5647 97.1502C86.7547 95.1502 92.0147 91.8602 91.8047 84.2702C91.8076 83.6688 91.6554 83.0768 91.3629 82.5514C91.0703 82.0259 90.6474 81.5847 90.1347 81.2702C88.2047 80.1702 85.9647 81.5702 84.0547 83.7702C83.4355 84.4827 82.7672 85.151 82.0547 85.7702C80.8279 86.8645 79.5173 87.8609 78.1347 88.7502Z" fill="white" stroke="#115E59" stroke-miterlimit="10"/>
<path d="M116.865 109.06C119.045 109.06 120.035 107.49 119.865 105.47C119.862 105.406 119.872 105.342 119.895 105.283C119.919 105.223 119.954 105.169 119.999 105.124C120.044 105.079 120.098 105.044 120.158 105.021C120.217 104.998 120.281 104.987 120.345 104.99C126.815 106.34 129.775 111.22 122.975 114.99C121.507 115.755 119.869 116.135 118.214 116.093C116.559 116.051 114.942 115.589 113.515 114.75C109.455 112.11 107.295 105.68 111.465 102.17C111.615 102.02 111.835 102.25 111.695 102.4C110.538 103.439 109.793 104.858 109.595 106.4C109.514 107.962 109.904 109.512 110.715 110.85C112.835 115.25 118.495 116.62 122.655 114.32C128.705 110.84 125.865 107.03 120.225 105.86C120.225 105.86 120.815 105.38 120.805 105.41C120.805 107.75 119.415 109.7 116.875 109.41C116.828 109.4 116.786 109.374 116.756 109.336C116.727 109.299 116.71 109.253 116.71 109.205C116.71 109.157 116.727 109.111 116.756 109.073C116.786 109.036 116.828 109.01 116.875 109L116.865 109.06Z" fill="#0D9488"/>
<path d="M19.1447 60.8902C15.2147 61.0002 11.1447 62.3202 8.60468 65.4402C8.51468 65.5502 8.33467 65.4402 8.42467 65.3002C9.65953 63.6602 11.2811 62.3512 13.1447 61.4902C15.0203 60.646 17.0253 60.1253 19.0747 59.9502C19.1359 59.9433 19.1979 59.9487 19.257 59.9663C19.3161 59.9838 19.371 60.013 19.4186 60.0522C19.4662 60.0914 19.5054 60.1397 19.5339 60.1943C19.5624 60.2489 19.5797 60.3087 19.5847 60.3702C19.5916 60.4335 19.5855 60.4976 19.5669 60.5585C19.5482 60.6194 19.5174 60.6759 19.4762 60.7245C19.4351 60.7732 19.3845 60.8129 19.3275 60.8414C19.2705 60.8699 19.2083 60.8865 19.1447 60.8902Z" fill="#0D9488"/>
<path d="M18.2447 72.5098C15.8947 68.0198 18.7447 65.1998 22.9147 63.7598L22.6447 63.9898L24.5447 60.1398C25.6447 57.3798 30.9047 55.3798 32.2047 58.8998C32.389 59.6568 32.4049 60.445 32.2511 61.2088C32.0973 61.9726 31.7776 62.6932 31.3147 63.3198L29.6847 66.3898L29.7347 66.1098C29.9947 68.9898 29.5647 72.6098 26.7947 74.1898C26.5647 74.3098 26.3647 73.9598 26.5847 73.8298C29.2147 72.1598 29.0347 68.6598 28.8647 65.9498L30.4947 62.8898C30.8984 62.3732 31.1816 61.7728 31.3234 61.1327C31.4653 60.4925 31.4623 59.8287 31.3147 59.1898C31.2423 58.9187 31.0968 58.6726 30.8939 58.4786C30.6911 58.2846 30.4388 58.1501 30.1647 58.0898C29.2058 57.9154 28.2161 58.0644 27.351 58.5132C26.4859 58.9621 25.7942 59.6854 25.3847 60.5698L23.4847 64.4198C23.4282 64.5288 23.3313 64.6114 23.2147 64.6498C19.2647 65.7898 16.5547 68.0898 18.5147 72.3998C18.5947 72.5698 18.3147 72.6998 18.2447 72.5198V72.5098Z" fill="#0D9488"/>
<path d="M55.8547 138.31C52.5847 136.18 47.3547 134.99 44.7047 138.64C43.9016 139.788 43.3745 141.105 43.1647 142.49C43.1647 142.6 42.9647 142.58 42.9847 142.49C43.8147 135.04 50.7647 134.24 56.3347 137.54C56.3955 137.567 56.4499 137.607 56.4943 137.656C56.5387 137.706 56.572 137.764 56.5921 137.828C56.6121 137.891 56.6185 137.958 56.6107 138.024C56.6029 138.091 56.5812 138.154 56.547 138.211C56.5127 138.268 56.4667 138.318 56.4121 138.356C56.3574 138.394 56.2952 138.419 56.2298 138.432C56.1643 138.444 56.097 138.442 56.0324 138.426C55.9677 138.41 55.9071 138.381 55.8547 138.34V138.31Z" fill="#0D9488"/>
<path d="M94.7747 136.76C99.4747 135.41 107.825 136.4 107.325 142.84L107.135 143.9C107.127 143.938 107.106 143.972 107.074 143.994C107.042 144.017 107.003 144.026 106.965 144.02C106.924 144.011 106.888 143.985 106.866 143.95C106.843 143.914 106.836 143.871 106.845 143.83L106.995 142.83C107.385 138.6 102.635 136.83 99.0747 137.04C97.6994 137.085 96.3354 137.304 95.0147 137.69C94.894 137.722 94.7656 137.704 94.6578 137.642C94.55 137.579 94.4715 137.476 94.4397 137.355C94.4079 137.234 94.4253 137.106 94.4881 136.998C94.5509 136.89 94.654 136.812 94.7747 136.78V136.76Z" fill="#0D9488"/>
<path d="M40.6347 94.8901C49.6347 113.78 71.0047 123.24 91.2347 118.58C91.2695 118.573 91.3054 118.572 91.3404 118.579C91.3753 118.586 91.4086 118.599 91.4384 118.619C91.4681 118.638 91.4937 118.663 91.5136 118.693C91.5336 118.722 91.5476 118.755 91.5547 118.79C91.5619 118.824 91.5622 118.86 91.5555 118.894C91.5488 118.928 91.5352 118.961 91.5156 118.99C91.496 119.019 91.4708 119.043 91.4414 119.062C91.412 119.081 91.3792 119.094 91.3447 119.1C70.8247 123.96 49.1047 114.45 39.7947 95.2901C39.7612 95.1822 39.7677 95.0657 39.813 94.9622C39.8583 94.8587 39.9394 94.7749 40.0415 94.7263C40.1435 94.6777 40.2597 94.6675 40.3686 94.6976C40.4776 94.7277 40.5721 94.796 40.6347 94.8901Z" fill="#0D9488"/>
<path d="M50.5447 58.3499C54.6547 56.6899 59.8447 57.3499 62.5447 61.2199C62.6114 61.3039 62.6605 61.4004 62.6891 61.5038C62.7177 61.6072 62.7253 61.7153 62.7113 61.8217C62.6973 61.928 62.6621 62.0305 62.6077 62.1229C62.5533 62.2154 62.4808 62.296 62.3947 62.3599C62.2342 62.4797 62.0349 62.5358 61.8355 62.5173C61.636 62.4988 61.4505 62.4071 61.3147 62.2599C58.7347 59.3499 54.9547 59.3699 51.6947 61.0699C51.334 61.2197 50.9285 61.2201 50.5675 61.071C50.2065 60.9219 49.9195 60.6356 49.7697 60.2749C49.6198 59.9142 49.6194 59.5087 49.7685 59.1477C49.9176 58.7867 50.204 58.4997 50.5647 58.3499H50.5447Z" fill="#115E59"/>
<path d="M77.6347 64.39C81.1047 60.74 85.0047 56 90.5647 55.77C92.2347 55.77 95.1647 56.67 94.2147 58.88C94.0088 59.316 93.6384 59.6525 93.1847 59.8156C92.731 59.9787 92.231 59.9551 91.7947 59.75C91.3645 59.475 90.8801 59.296 90.3744 59.2253C89.8688 59.1545 89.3538 59.1936 88.8647 59.34C85.1547 60.34 82.1247 63.34 79.2347 65.93C79.0305 66.1422 78.7504 66.2646 78.4559 66.2702C78.1615 66.2758 77.8769 66.1642 77.6647 65.96C77.4525 65.7558 77.3302 65.4757 77.3245 65.1812C77.3189 64.8868 77.4305 64.6022 77.6347 64.39Z" fill="#115E59"/>
<path d="M92.4547 70.8301C87.9576 72.6184 84.13 75.7644 81.5047 79.8301L79.6447 77.8301C83.4447 75.7401 87.8647 73.8301 92.3647 74.3201C93.3647 74.4401 97.7447 75.3201 96.9747 76.6901C96.9303 76.777 96.8691 76.8542 96.7947 76.9174C96.7203 76.9806 96.6342 77.0284 96.5412 77.0581C96.4483 77.0879 96.3504 77.099 96.2532 77.0907C96.1559 77.0825 96.0613 77.0551 95.9747 77.0101C93.5443 75.9727 90.8216 75.8449 88.3047 76.6501C85.7121 77.4804 83.2583 78.6938 81.0247 80.2501C80.7453 80.4306 80.4104 80.505 80.0808 80.4597C79.7512 80.4143 79.4488 80.2523 79.2286 80.0029C79.0083 79.7536 78.8848 79.4336 78.8804 79.1009C78.876 78.7683 78.991 78.4451 79.2047 78.1901C80.8677 76.1567 82.8381 74.3954 85.0447 72.9701C87.2111 71.59 89.57 70.5386 92.0447 69.8501C92.1736 69.8181 92.3098 69.8357 92.4264 69.8993C92.5429 69.963 92.6314 70.0681 92.6741 70.1939C92.7169 70.3196 92.7108 70.4568 92.6572 70.5784C92.6036 70.6999 92.5064 70.7969 92.3847 70.8501L92.4547 70.8301Z" fill="#115E59"/>
<path d="M91.9947 84.12C90.947 85.7285 89.4906 87.0296 87.7747 87.89C87.7216 87.9137 87.6613 87.9155 87.607 87.8948C87.5527 87.8742 87.5087 87.833 87.4847 87.78C87.4665 87.73 87.4655 87.6753 87.4818 87.6246C87.4981 87.574 87.5308 87.5301 87.5747 87.5C89.1203 86.5523 90.3813 85.2049 91.2247 83.6C91.254 83.5411 91.2953 83.4889 91.346 83.4469C91.3967 83.4049 91.4556 83.374 91.519 83.3563C91.5824 83.3385 91.6488 83.3343 91.7139 83.3438C91.7791 83.3534 91.8415 83.3765 91.8971 83.4117C91.9527 83.4469 92.0004 83.4934 92.0369 83.5482C92.0734 83.603 92.098 83.6648 92.1091 83.7297C92.1201 83.7946 92.1175 83.8611 92.1012 83.9249C92.085 83.9887 92.0555 84.0484 92.0147 84.1L91.9947 84.12Z" fill="#115E59"/>
</svg>
