<svg width="150" height="150" viewBox="0 0 150 150" fill="none" xmlns="http://www.w3.org/2000/svg">
<path d="M91.2649 9C93.0481 15.9994 88.6434 21.7326 78.666 26.3068C76.461 27.282 74.338 28.4329 72.3175 29.7485C52.844 42.7843 41.6896 66.8586 46.3351 82.5425C46.5401 83.2469 46.7541 83.9603 46.9414 84.6736C51.2213 101.499 61.1096 112.038 77.4266 115.408C80.2268 115.981 83.0854 116.218 85.9418 116.113C103.017 115.48 115.366 106.501 120.85 85.2621C125.62 68.6062 120.297 55.9092 113.074 45.2363C112.709 44.6924 112.299 44.1752 111.889 43.6581C108.509 39.3158 107.662 35.4104 108.491 31.7814C103.097 33.3775 99.9673 36.8816 101.635 44.4427C98.3445 40.5373 97.4528 35.5263 99.7176 29.0084C102.562 21.2601 99.5036 12.3258 91.2649 9Z" fill="#14B8A6"/>
<path d="M35.1985 64.4602L33.7718 54.2688C33.6966 53.5843 33.4792 52.923 33.1338 52.3273C32.7883 51.7316 32.3224 51.2145 31.7657 50.8092C31.5371 50.6167 31.2706 50.4744 30.9835 50.3916C30.6964 50.3088 30.395 50.2873 30.099 50.3285C29.8031 50.3697 29.5191 50.4726 29.2655 50.6307C29.0119 50.7888 28.7944 50.9985 28.6271 51.2461C28.2218 51.7198 27.9203 52.2732 27.7421 52.8707C27.564 53.4681 27.5131 54.0963 27.5928 54.7146L28.4844 63.0158L25.2389 54.9018C24.9901 54.239 24.6053 53.6355 24.1093 53.1303C23.6133 52.6251 23.017 52.2293 22.3589 51.9683C22.0955 51.8292 21.8048 51.75 21.5073 51.7362C21.2098 51.7224 20.913 51.7744 20.6379 51.8885C20.3628 52.0026 20.1163 52.176 19.916 52.3963C19.7156 52.6167 19.5664 52.8785 19.4788 53.1631C19.2003 53.8351 19.0636 54.5574 19.0774 55.2847C19.0912 56.012 19.2552 56.7286 19.5591 57.3895L23.0543 65.4856L18.6764 60.4122C18.3748 60.0423 17.9937 59.7453 17.5615 59.543C17.1292 59.3408 16.657 59.2386 16.1798 59.2441C15.7341 59.2424 15.2998 59.3847 14.9415 59.6498C14.5832 59.9149 14.3201 60.2886 14.1914 60.7153C13.9993 61.2877 13.9508 61.8986 14.0504 62.4941C14.1499 63.0896 14.3943 63.6515 14.7621 64.1303L19.2203 70.1756C20.531 75.8376 23.5804 78.8959 28.2972 79.4755C29.0045 80.7594 29.7624 81.9988 30.5709 83.1936C32.7319 86.4378 35.5548 89.1883 38.8541 91.2644C42.1534 93.3404 45.8545 94.6952 49.7144 95.2397C50.2226 95.3021 50.7398 95.3645 51.2659 95.4091L46.9681 84.7094C43.5807 81.8219 40.5137 78.5785 37.8199 75.0351C39.2644 74.2683 40.0847 72.0927 39.9866 67.8128L41.9036 65.2092C42.2462 64.7698 42.4757 64.2531 42.5721 63.7043C42.6684 63.1556 42.6287 62.5915 42.4564 62.0617C41.9125 60.5727 40.3967 59.8861 38.5689 60.5638C37.5703 60.9659 36.7352 61.691 36.1971 62.6234C35.4843 63.8326 34.9696 65.1481 34.6724 66.5199C31.1593 67.2511 29.4474 69.4712 30.4193 73.8938" fill="#14B8A6"/>
<path d="M121.456 103.032C126.119 104.664 127.466 106.688 126.146 109.015C124.648 111.227 122.401 112.448 119.084 112.225C117.07 112.095 115.181 111.206 113.797 109.738L113.734 109.675C112.45 108.232 111.657 106.417 111.471 104.494C111.285 102.571 111.716 100.638 112.7 98.9755C113.701 97.3474 115.25 96.1301 117.069 95.5426C123.462 92.7696 124.122 91.5838 126.636 88.8732L120.341 84.9232L121.946 75.2578C128.188 77.7277 132.503 80.6077 134.715 83.9424C135.672 85.466 136.188 87.2259 136.204 89.0255C136.22 90.8251 135.735 92.5937 134.804 94.1339C132.191 98.6901 127.394 101.374 121.429 103.05" fill="#14B8A6"/>
<path d="M65.9512 108.712C64.0591 115.901 62.6148 123.199 61.6267 130.567C56.2769 129.737 52.7549 131.208 52.3715 136.737C54.8413 140.999 68.9738 140.071 70.5164 136.986C71.8003 128.641 73.3161 120.161 75.456 111.298L65.9512 108.712Z" fill="#14B8A6"/>
<path d="M101.082 110.549L103.052 130.433C108.803 131.69 110.453 134.133 109.472 137.343C109.169 141.177 99.5393 142.167 94.1627 137.718C92.6359 129.361 91.7684 120.897 91.568 112.404L101.082 110.549Z" fill="#14B8A6"/>
<path d="M66.4505 87.5086C69.154 87.5086 71.3456 83.325 71.3456 78.1642C71.3456 73.0035 69.154 68.8198 66.4505 68.8198C63.747 68.8198 61.5554 73.0035 61.5554 78.1642C61.5554 83.325 63.747 87.5086 66.4505 87.5086Z" fill="#115E59"/>
<path d="M64.7208 78.5391C65.8534 78.5391 66.7715 76.7866 66.7715 74.6248C66.7715 72.4629 65.8534 70.7104 64.7208 70.7104C63.5881 70.7104 62.67 72.4629 62.67 74.6248C62.67 76.7866 63.5881 78.5391 64.7208 78.5391Z" fill="white"/>
<path d="M89.4549 83.229C86.0899 87.1078 81.4641 89.6748 76.3923 90.478C76.0237 90.53 75.6866 90.7142 75.4438 90.9964C75.2009 91.2786 75.0691 91.6394 75.0727 92.0117C75.153 94.0803 77.8368 95.4891 80.9486 95.9706C83.3246 96.3051 85.7469 95.9652 87.9391 94.9898C92.2635 93.1262 95.1614 89.9609 95.5983 84.5041C95.6895 83.7105 95.4864 82.911 95.0276 82.2571C94.6993 81.8011 94.2244 81.4717 93.6823 81.324C93.1402 81.1763 92.5638 81.2193 92.0496 81.4457C91.0396 81.7951 90.143 82.4113 89.4549 83.229Z" fill="#115E59" stroke="#115E59" stroke-width="0.891641" stroke-linecap="round" stroke-linejoin="round"/>
<path d="M83.6681 88.1335C80.3155 90.2289 80.3512 93.4298 82.2236 95.0259C82.7253 95.4238 83.3201 95.6875 83.9519 95.792C84.5837 95.8965 85.2316 95.8385 85.8348 95.6233C91.354 93.84 96.0441 90.9065 95.8568 84.1389C95.8593 83.6027 95.7237 83.0749 95.4628 82.6063C95.202 82.1378 94.8249 81.7444 94.3678 81.464C92.6469 80.4832 90.6496 81.7315 88.9466 83.6931C88.3945 84.3284 87.7986 84.9243 87.1633 85.4764C86.0695 86.4521 84.9008 87.3405 83.6681 88.1335Z" fill="white" stroke="#115E59" stroke-width="0.891641" stroke-miterlimit="10"/>
<path d="M118.201 106.242C120.145 106.242 121.028 104.842 120.876 103.041C120.874 102.984 120.883 102.927 120.904 102.874C120.924 102.821 120.956 102.773 120.996 102.733C121.036 102.693 121.084 102.661 121.138 102.641C121.191 102.62 121.247 102.611 121.304 102.613C127.073 103.817 129.712 108.168 123.649 111.53C122.341 112.212 120.88 112.551 119.404 112.513C117.929 112.476 116.487 112.064 115.214 111.316C111.594 108.962 109.668 103.228 113.387 100.099C113.52 99.9649 113.716 100.17 113.592 100.304C112.56 101.23 111.896 102.496 111.719 103.87C111.647 105.263 111.995 106.645 112.718 107.838C114.608 111.761 119.655 112.983 123.364 110.932C128.758 107.829 126.226 104.432 121.197 103.389C121.197 103.389 121.723 102.961 121.714 102.988C121.714 105.074 120.475 106.813 118.21 106.554C118.169 106.545 118.132 106.522 118.105 106.489C118.078 106.455 118.064 106.414 118.064 106.371C118.064 106.329 118.078 106.287 118.105 106.254C118.132 106.221 118.169 106.198 118.21 106.189L118.201 106.242Z" fill="#0D9488"/>
<path d="M31.0702 63.2924C27.566 63.3905 23.9371 64.5674 21.6723 67.3494C21.5921 67.4474 21.4316 67.3494 21.5118 67.2245C22.6128 65.7622 24.0587 64.5951 25.7203 63.8274C27.3927 63.0746 29.1805 62.6104 31.0078 62.4542C31.0624 62.4481 31.1177 62.453 31.1703 62.4686C31.223 62.4842 31.272 62.5103 31.3144 62.5452C31.3569 62.5801 31.3918 62.6232 31.4173 62.6719C31.4427 62.7206 31.4581 62.774 31.4625 62.8287C31.4687 62.8852 31.4632 62.9423 31.4466 62.9967C31.43 63.051 31.4025 63.1013 31.3658 63.1447C31.3291 63.1881 31.284 63.2235 31.2332 63.2489C31.1824 63.2743 31.1269 63.2891 31.0702 63.2924Z" fill="#0D9488"/>
<path d="M30.2677 73.6528C28.1724 69.6494 30.7135 67.1349 34.4317 65.851L34.1909 66.0561L35.885 62.6232C36.8659 60.1623 41.5559 58.379 42.715 61.5176C42.8794 62.1926 42.8935 62.8954 42.7564 63.5764C42.6193 64.2574 42.3342 64.8999 41.9214 65.4587L40.4681 68.196L40.5127 67.9463C40.7445 70.5143 40.3611 73.742 37.8912 75.1508C37.6862 75.2578 37.5078 74.9457 37.704 74.8298C40.049 73.3408 39.8885 70.22 39.7369 67.8037L41.1903 65.0753C41.5503 64.6146 41.8028 64.0793 41.9293 63.5085C42.0558 62.9377 42.0531 62.3458 41.9214 61.7762C41.8569 61.5344 41.7272 61.315 41.5463 61.142C41.3655 60.969 41.1405 60.8491 40.8961 60.7954C40.0411 60.6399 39.1586 60.7726 38.3873 61.1729C37.6159 61.5731 36.9992 62.2181 36.634 63.0066L34.9399 66.4395C34.8895 66.5366 34.8031 66.6103 34.6992 66.6445C31.1772 67.661 28.7608 69.7118 30.5085 73.5548C30.5798 73.7063 30.3301 73.8223 30.2677 73.6618V73.6528Z" fill="#0D9488"/>
<path d="M63.8023 132.323C60.8866 130.424 56.2233 129.363 53.8605 132.617C53.1444 133.64 52.6745 134.815 52.4874 136.05C52.4874 136.148 52.309 136.13 52.3269 136.05C53.0669 129.407 59.2638 128.694 64.2303 131.636C64.2845 131.66 64.333 131.696 64.3726 131.74C64.4122 131.784 64.4419 131.836 64.4598 131.893C64.4777 131.95 64.4833 132.009 64.4764 132.068C64.4695 132.127 64.4501 132.184 64.4196 132.235C64.389 132.286 64.348 132.33 64.2993 132.363C64.2505 132.397 64.1951 132.42 64.1368 132.431C64.0784 132.442 64.0184 132.44 63.9607 132.426C63.9031 132.412 63.8491 132.386 63.8023 132.35V132.323Z" fill="#0D9488"/>
<path d="M98.505 130.941C102.696 129.737 110.141 130.62 109.695 136.362L109.526 137.307C109.519 137.341 109.5 137.371 109.471 137.391C109.443 137.411 109.408 137.42 109.374 137.414C109.338 137.406 109.306 137.383 109.286 137.352C109.266 137.32 109.259 137.281 109.267 137.245L109.401 136.353C109.749 132.582 105.513 131.003 102.339 131.191C101.113 131.231 99.8966 131.426 98.719 131.77C98.6114 131.799 98.4969 131.783 98.4008 131.727C98.3046 131.671 98.2347 131.579 98.2063 131.471C98.1779 131.364 98.1935 131.249 98.2495 131.153C98.3055 131.057 98.3974 130.987 98.505 130.959V130.941Z" fill="#0D9488"/>
<path d="M50.2316 93.6081C58.2564 110.451 77.3107 118.886 95.3486 114.731C95.3796 114.725 95.4117 114.724 95.4428 114.73C95.474 114.736 95.5037 114.748 95.5302 114.765C95.5567 114.783 95.5795 114.805 95.5973 114.832C95.6151 114.858 95.6276 114.887 95.6339 114.918C95.6404 114.949 95.6406 114.98 95.6347 115.011C95.6287 115.041 95.6165 115.071 95.5991 115.096C95.5816 115.122 95.5591 115.144 95.5329 115.161C95.5067 115.178 95.4774 115.189 95.4467 115.195C77.1502 119.528 57.7838 111.049 49.4826 93.9648C49.4527 93.8685 49.4585 93.7647 49.4989 93.6724C49.5393 93.5801 49.6116 93.5054 49.7026 93.4621C49.7936 93.4188 49.8972 93.4097 49.9943 93.4365C50.0915 93.4633 50.1757 93.5242 50.2316 93.6081Z" fill="#0D9488"/>
<path d="M59.0677 61.0274C62.7323 59.5472 67.36 60.1357 69.7674 63.5864C69.8269 63.6613 69.8707 63.7474 69.8962 63.8396C69.9217 63.9318 69.9284 64.0281 69.9159 64.123C69.9035 64.2178 69.872 64.3091 69.8235 64.3916C69.7751 64.474 69.7105 64.5459 69.6336 64.6028C69.4905 64.7097 69.3129 64.7597 69.135 64.7432C68.9572 64.7268 68.7917 64.645 68.6707 64.5137C66.3702 61.919 62.9998 61.9368 60.0931 63.4526C59.7715 63.5862 59.4099 63.5866 59.0881 63.4537C58.7662 63.3207 58.5103 63.0654 58.3767 62.7438C58.2431 62.4222 58.2427 62.0606 58.3756 61.7388C58.5086 61.4169 58.7639 61.161 59.0855 61.0274H59.0677Z" fill="#115E59"/>
<path d="M83.2223 66.413C86.3163 63.1585 89.7937 58.9321 94.7512 58.7271C96.2403 58.7271 98.8528 59.5295 98.0057 61.5001C97.8221 61.8888 97.4918 62.1888 97.0873 62.3343C96.6827 62.4797 96.237 62.4587 95.8479 62.2758C95.4644 62.0306 95.0324 61.871 94.5816 61.8079C94.1307 61.7448 93.6716 61.7797 93.2354 61.9102C89.9274 62.8018 87.2258 65.4768 84.6489 67.7861C84.4668 67.9753 84.217 68.0844 83.9545 68.0894C83.692 68.0944 83.4382 67.995 83.249 67.8129C83.0599 67.6308 82.9508 67.381 82.9457 67.1185C82.9407 66.8559 83.0402 66.6022 83.2223 66.413Z" fill="#115E59"/>
<path d="M96.4364 72.1548C92.4266 73.7494 89.0138 76.5545 86.6729 80.1796L85.0145 78.3963C88.4027 76.5328 92.3438 74.8297 96.3561 75.2666C97.2478 75.3736 101.153 76.1583 100.467 77.3798C100.427 77.4573 100.372 77.5262 100.306 77.5825C100.24 77.6388 100.163 77.6815 100.08 77.708C99.9973 77.7345 99.91 77.7444 99.8233 77.737C99.7366 77.7297 99.6522 77.7053 99.575 77.6652C97.4079 76.7402 94.9803 76.6262 92.7361 77.3442C90.4244 78.0845 88.2365 79.1664 86.2449 80.5541C85.9958 80.7151 85.6972 80.7814 85.4033 80.7409C85.1095 80.7005 84.8399 80.556 84.6435 80.3337C84.4471 80.1114 84.3369 79.8261 84.333 79.5295C84.3291 79.2329 84.4317 78.9447 84.6221 78.7173C86.105 76.9042 87.8619 75.3338 89.8293 74.0629C91.761 72.8324 93.8643 71.8949 96.0708 71.281C96.1858 71.2525 96.3072 71.2682 96.4112 71.3249C96.5151 71.3817 96.5939 71.4754 96.6321 71.5875C96.6702 71.6997 96.6648 71.822 96.617 71.9304C96.5692 72.0387 96.4825 72.1252 96.374 72.1726L96.4364 72.1548Z" fill="#115E59"/>
<path d="M96.0262 84.0051C95.0921 85.4393 93.7935 86.5994 92.2635 87.3666C92.2162 87.3877 92.1624 87.3893 92.114 87.3709C92.0655 87.3525 92.0263 87.3157 92.0049 87.2685C91.9887 87.2239 91.9878 87.1752 92.0023 87.13C92.0169 87.0848 92.046 87.0457 92.0852 87.0189C93.4633 86.1738 94.5877 84.9724 95.3397 83.5415C95.3658 83.4889 95.4026 83.4424 95.4478 83.4049C95.493 83.3675 95.5456 83.3399 95.6021 83.3241C95.6586 83.3083 95.7178 83.3045 95.7759 83.313C95.834 83.3215 95.8896 83.3422 95.9392 83.3736C95.9888 83.405 96.0313 83.4464 96.0638 83.4953C96.0964 83.5441 96.1183 83.5992 96.1282 83.6571C96.1381 83.715 96.1357 83.7742 96.1212 83.8311C96.1067 83.888 96.0804 83.9412 96.0441 83.9873L96.0262 84.0051Z" fill="#115E59"/>
</svg>
