<svg width="144" height="151" viewBox="0 0 144 151" fill="none" xmlns="http://www.w3.org/2000/svg">
<path d="M93.7544 146.192C93.5041 147.023 93.0528 147.778 92.4405 148.392C91.8283 149.006 91.0739 149.46 90.2444 149.712C89.7299 149.854 89.1979 149.921 88.6644 149.912C85.305 149.936 81.9527 149.601 78.6644 148.912L78.1344 148.772L77.8144 148.652C75.5044 147.872 74.4644 147.522 74.4944 145.462L70.7544 120.712C64.1674 122.476 57.2263 122.428 50.6644 120.572L46.8844 145.572C46.8844 147.572 45.8844 147.922 43.5744 148.702L43.2344 148.822L42.7244 148.962C39.4359 149.649 36.0838 149.984 32.7244 149.962C32.191 149.97 31.6591 149.903 31.1444 149.762C30.3149 149.51 29.5606 149.056 28.9483 148.442C28.3361 147.828 27.8848 147.073 27.6344 146.242C27.3814 145.44 27.3349 144.587 27.4992 143.762C27.6635 142.937 28.0333 142.167 28.5744 141.522C29.195 140.777 29.8997 140.106 30.6744 139.522C31.5 139.01 32.4312 138.691 33.3977 138.591C34.3643 138.49 35.3411 138.611 36.2544 138.942L39.4444 115.712C37.0102 114.255 34.6932 112.61 32.5144 110.792H88.2944C86.3582 112.592 84.2705 114.221 82.0544 115.662L85.2544 138.942C86.1518 138.61 87.1127 138.485 88.0652 138.577C89.0177 138.669 89.9371 138.975 90.7544 139.472C91.5472 140.049 92.2659 140.721 92.8945 141.472C93.422 142.124 93.7773 142.898 93.9275 143.723C94.0778 144.547 94.0183 145.397 93.7544 146.192Z" fill="#14B8A6"/>
<path d="M141.644 50.5623C141.314 50.0174 140.878 49.5433 140.363 49.1674C139.848 48.7916 139.264 48.5213 138.644 48.3723L121.064 44.0623C120.447 43.9101 119.806 43.8813 119.178 43.9774C118.549 44.0736 117.946 44.2929 117.402 44.6227C116.859 44.9525 116.386 45.3864 116.01 45.8994C115.635 46.4124 115.364 46.9945 115.214 47.6123L108.564 74.7323C108.263 75.9787 108.467 77.2938 109.132 78.3901C109.797 79.4864 110.87 80.2746 112.114 80.5823L116.324 81.5823L116.404 81.6523C116.894 81.3142 117.429 81.0482 117.994 80.8623C117.988 80.8462 117.988 80.8284 117.994 80.8123V80.7323C117.88 80.2405 117.863 79.7308 117.944 79.2323C118.067 78.66 118.328 78.1265 118.705 77.6785C119.081 77.2304 119.562 76.8815 120.104 76.6623H120.194L120.384 76.5823C120.484 76.5321 120.587 76.4919 120.694 76.4623H120.784L121.074 76.3623C122.603 75.8359 124.259 75.8079 125.804 76.2823H125.954C127.751 76.9025 129.321 78.0446 130.465 79.5623C131.609 81.0801 132.274 82.9046 132.374 84.8023C133.156 84.5498 133.86 84.1009 134.418 83.4986C134.977 82.8963 135.372 82.1608 135.564 81.3623L142.214 54.2423C142.367 53.6216 142.395 52.977 142.297 52.3454C142.199 51.7139 141.977 51.1079 141.644 50.5623ZM132.204 84.8323L131.974 84.8923L131.874 84.9423V85.1823H132.034H132.204C132.214 85.0659 132.214 84.9488 132.204 84.8323Z" fill="white"/>
<path d="M116.444 81.6623L116.364 81.5923C116.383 81.5962 116.399 81.6047 116.413 81.617C116.427 81.6292 116.438 81.6448 116.444 81.6623Z" fill="#0D9488"/>
<path d="M132.244 85.5325H132.134H132.054C132.005 85.5473 131.953 85.5473 131.904 85.5325C131.904 85.4325 131.904 85.3125 131.904 85.2025V84.9625L132.004 84.9125L132.234 84.8525C132.244 84.969 132.244 85.0861 132.234 85.2025C132.234 85.3025 132.244 85.4725 132.244 85.5325Z" fill="#0D9488"/>
<path d="M28.7544 109.472C28.654 108.613 28.456 107.767 28.1644 106.952C27.1602 104.04 25.121 101.599 22.4344 100.092L22.3244 100.032C19.0944 98.2423 15.3244 97.3123 12.3244 94.5823C12.0572 94.3374 11.8422 94.041 11.6924 93.7109C11.5425 93.3808 11.461 93.0239 11.4526 92.6615C11.4442 92.2991 11.5091 91.9387 11.6434 91.6021C11.7778 91.2654 11.9788 90.9593 12.2344 90.7023C13.6899 89.3077 15.4106 88.2196 17.2944 87.5023V87.0823L16.2944 78.1623L17.2344 76.3423C10.2344 79.1823 4.23441 83.0223 1.59441 87.0823C0.564123 88.6685 0.0107921 90.5171 0.000156262 92.4085C-0.0104796 94.2999 0.522029 96.1546 1.53441 97.7523C4.85441 103.092 10.1544 106.542 16.6344 108.902C15.4471 109.436 14.3478 110.148 13.3744 111.012C12.736 111.629 12.3474 112.46 12.2828 113.345C12.2183 114.231 12.4823 115.109 13.0244 115.812C15.6344 119.212 19.3744 119.892 24.2944 117.692C27.1144 115.772 29.2644 113.472 28.7544 109.472Z" fill="#14B8A6"/>
<path d="M114.754 87.9224C114.51 88.4336 114.336 88.975 114.234 89.5324C114.319 88.971 114.495 88.4272 114.754 87.9224Z" fill="#14B8A6"/>
<path d="M114.444 91.2125H114.364C114.194 90.6727 114.156 90.0999 114.254 89.5425C114.188 90.1064 114.253 90.6778 114.444 91.2125Z" fill="#14B8A6"/>
<path d="M126.914 97.2224L127.214 96.9424L127.004 97.4124L126.844 97.5324C125.633 98.4605 124.25 99.1402 122.774 99.5324C124.308 99.0782 125.722 98.2892 126.914 97.2224Z" fill="#14B8A6"/>
<path d="M127.214 96.9423L131.894 86.5923V86.6823C131.894 86.8423 131.894 87.0023 131.894 87.1723C131.793 88.3066 131.568 89.4266 131.224 90.5123C131.164 90.7023 131.104 90.8723 131.034 91.0523C130.985 91.2193 130.925 91.383 130.854 91.5423C130.674 92.0023 130.464 92.4623 130.244 92.9023L130.054 93.2723L129.824 93.6623C129.734 93.8323 129.634 93.9923 129.534 94.1523L129.274 94.5423L129.094 94.8123L128.774 95.2323L128.534 95.5523L128.174 95.9823C127.908 96.2823 127.628 96.5723 127.334 96.8523L127.214 96.9423Z" fill="#14B8A6"/>
<path d="M120.104 76.6724C119.562 76.8915 119.081 77.2404 118.705 77.6885C118.328 78.1365 118.067 78.6701 117.944 79.2424C118.032 78.6564 118.28 78.1061 118.662 77.6525C119.043 77.1989 119.542 76.8596 120.104 76.6724Z" fill="#14B8A6"/>
<path d="M132.244 85.8123L131.894 86.5623L118.894 81.0823H119.164H119.434C121.784 80.9323 124.064 82.4223 125.814 83.9123C125.894 83.9823 125.994 83.9123 125.924 83.7923C123.984 82.0423 121.454 80.3123 118.714 80.7923C118.254 78.8923 119.134 77.7923 120.914 77.1423C122.488 76.4859 124.245 76.4184 125.864 76.9523C127.557 77.5488 129.033 78.6378 130.102 80.0794C131.171 81.5209 131.785 83.2493 131.864 85.0423L131.964 84.9923L132.194 84.9323C132.204 85.0488 132.204 85.1658 132.194 85.2823C132.194 85.4023 132.194 85.5223 132.194 85.6323L132.244 85.8123Z" fill="#14B8A6"/>
<path d="M115.684 82.2925L115.464 83.4025L114.994 85.6925L114.764 86.8425C114.5 86.4148 114.351 85.9252 114.334 85.4225C114.329 85.3559 114.329 85.289 114.334 85.2225C114.325 85.0826 114.325 84.9423 114.334 84.8025C114.348 84.6676 114.371 84.5339 114.404 84.4025C114.428 84.304 114.459 84.2072 114.494 84.1125L114.544 83.9625C114.582 83.8567 114.625 83.7532 114.674 83.6525L114.884 83.2525L115.054 83.0025L115.164 82.8525C115.323 82.6525 115.497 82.4653 115.684 82.2925Z" fill="#14B8A6"/>
<path d="M119.484 93.0724C118.499 93.316 117.47 93.316 116.484 93.0724C115.204 93.0724 115.284 96.4624 116.374 96.8124C116.42 96.8217 116.459 96.8485 116.484 96.887C116.51 96.9254 116.519 96.9724 116.509 97.0174C116.5 97.0625 116.473 97.1021 116.435 97.1274C116.396 97.1527 116.35 97.1617 116.304 97.1524C115.004 96.8024 114.814 93.5824 115.994 92.8824C114.274 92.1224 113.734 90.2324 114.834 87.8824L114.954 87.6524C115.027 87.5082 115.107 87.368 115.194 87.2324C115.28 87.3136 115.378 87.3811 115.484 87.4324C115.528 87.4544 115.576 87.4658 115.624 87.4658C115.673 87.4658 115.721 87.4544 115.764 87.4324H115.864C113.444 90.9624 115.334 93.5124 119.494 92.8124C119.584 92.8024 119.624 93.0424 119.484 93.0724Z" fill="#14B8A6"/>
<path d="M131.904 85.5223C131.904 85.8623 131.904 86.2123 131.904 86.5223V86.6423C131.904 86.8023 131.904 86.9623 131.904 87.1323C131.803 88.2666 131.578 89.3865 131.234 90.4723C131.174 90.6623 131.114 90.8323 131.044 91.0123C130.995 91.1793 130.935 91.3429 130.864 91.5023C130.684 91.9623 130.474 92.4223 130.254 92.8623L130.064 93.2323L129.834 93.6223L116.834 81.9823C117.325 81.6152 117.877 81.3376 118.464 81.1623L118.864 81.0623H118.914H119.184H119.454C121.804 80.9123 124.084 82.4023 125.834 83.8923C125.914 83.9623 126.014 83.8923 125.944 83.7723C124.004 82.0223 121.474 80.2923 118.734 80.7723C118.274 78.8723 119.154 77.7723 120.934 77.1223C122.508 76.4658 124.265 76.3984 125.884 76.9323C127.577 77.5288 129.053 78.6178 130.122 80.0594C131.191 81.5009 131.805 83.2292 131.884 85.0223V85.2623C131.894 85.3023 131.904 85.4723 131.904 85.5223Z" fill="#14B8A6"/>
<path d="M16.7545 108.843C16.5389 109.759 16.6413 110.721 17.0447 111.572C17.4481 112.422 18.1285 113.11 18.9745 113.523C19.0495 113.56 19.1083 113.623 19.1396 113.7C19.171 113.778 19.1727 113.864 19.1445 113.943C19.0611 114.289 18.8529 114.593 18.5596 114.796C18.2662 114.999 17.9084 115.087 17.5545 115.043C17.4431 115.031 17.341 114.975 17.2706 114.888C17.2003 114.801 17.1675 114.689 17.1795 114.578C17.1914 114.466 17.2471 114.364 17.3343 114.294C17.4215 114.224 17.5331 114.191 17.6445 114.203C18.0845 114.303 18.3245 114.133 18.5045 113.713C18.5648 113.85 18.6182 113.99 18.6645 114.133C17.7544 113.617 17.0445 112.809 16.649 111.84C16.2536 110.872 16.1956 109.798 16.4845 108.793C16.4965 108.763 16.5185 108.738 16.5469 108.722C16.5752 108.706 16.6081 108.701 16.64 108.707C16.6718 108.713 16.7006 108.73 16.7215 108.754C16.7424 108.779 16.754 108.81 16.7545 108.843Z" fill="#0D9488"/>
<path d="M13.0144 115.713C15.8444 119.353 20.3444 119.253 24.1544 117.343C26.2444 116.063 28.4344 113.863 28.5544 111.133C28.8944 106.523 25.9144 102.263 22.1844 99.9126C24.2838 100.942 26.0473 102.547 27.269 104.541C28.4907 106.535 29.1203 108.835 29.0844 111.173C28.6244 118.513 16.9844 122.173 13.0144 115.713Z" fill="#0D9488"/>
<path d="M36.1444 138.973C34.7195 138.52 33.1831 138.566 31.7875 139.102C30.392 139.638 29.2201 140.633 28.4644 141.923C28.0588 142.52 27.7927 143.2 27.686 143.914C27.5792 144.628 27.6345 145.357 27.8477 146.047C28.061 146.736 28.4266 147.369 28.9177 147.898C29.4088 148.427 30.0126 148.839 30.6844 149.103C32.0444 149.633 33.5944 149.423 35.0444 149.473C38.0444 149.353 46.8144 149.533 46.8544 145.473C47.5244 149.543 37.8544 149.813 35.0544 149.953C33.5144 149.953 31.9344 150.233 30.4644 149.623C29.734 149.32 29.0809 148.857 28.5534 148.268C28.0259 147.679 27.6374 146.979 27.4166 146.219C27.1959 145.46 27.1485 144.661 27.2779 143.881C27.4073 143.101 27.7103 142.36 28.1644 141.713C28.9789 140.403 30.213 139.407 31.6656 138.887C33.1183 138.368 34.7039 138.356 36.1644 138.853C36.1777 138.853 36.1904 138.858 36.1998 138.867C36.2092 138.877 36.2144 138.889 36.2144 138.903C36.2144 138.916 36.2092 138.929 36.1998 138.938C36.1904 138.947 36.1777 138.953 36.1644 138.953L36.1444 138.973Z" fill="#0D9488"/>
<path d="M85.1445 138.873C86.605 138.376 88.1906 138.388 89.6432 138.907C91.0959 139.427 92.33 140.423 93.1445 141.733C93.6008 142.379 93.9058 143.119 94.0369 143.899C94.1681 144.679 94.1219 145.479 93.902 146.238C93.682 146.998 93.2939 147.699 92.7663 148.288C92.2388 148.877 91.5853 149.34 90.8545 149.643C89.3745 150.253 87.8045 149.973 86.2645 149.973C83.4945 149.833 73.8045 149.573 74.4645 145.493C74.4645 149.493 83.3144 149.353 86.2744 149.493C87.7144 149.443 89.2745 149.653 90.6345 149.123C91.305 148.857 91.9075 148.445 92.3975 147.915C92.8874 147.386 93.2524 146.754 93.4654 146.065C93.6785 145.376 93.7342 144.648 93.6284 143.934C93.5227 143.221 93.2582 142.54 92.8545 141.943C92.0974 140.654 90.9255 139.661 89.5303 139.125C88.1352 138.589 86.5995 138.542 85.1745 138.993C85.1045 138.993 85.0645 138.913 85.1745 138.893L85.1445 138.873Z" fill="#0D9488"/>
<path d="M131.904 85.5224C131.904 85.8624 131.904 86.2124 131.904 86.5224V86.6424C131.904 86.8024 131.904 86.9624 131.904 87.1324C131.803 88.2668 131.578 89.3867 131.234 90.4724C131.174 90.6624 131.114 90.8324 131.044 91.0124C130.995 91.1794 130.935 91.3431 130.864 91.5024C130.684 91.9624 130.474 92.4224 130.254 92.8624L130.064 93.2324L129.834 93.6224C129.744 93.7924 129.644 93.9524 129.544 94.1124L129.284 94.5024L129.104 94.7724L128.784 95.1924L128.544 95.5124L128.184 95.9424C127.918 96.2424 127.638 96.5324 127.344 96.8124L127.244 96.9024L126.944 97.1824C125.736 98.2485 124.304 99.031 122.754 99.4724C122.534 99.5324 122.304 99.5724 122.084 99.6224L121.794 99.6824H121.504H121.394H121.174H120.944H121.274H120.984C116.414 102.682 112.114 104.242 107.984 104.242C103.847 104.169 99.8567 102.696 96.6645 100.062C94.5108 103.563 91.9826 106.819 89.1245 109.772L88.2245 110.622C86.2882 112.422 84.2005 114.051 81.9845 115.492L81.3545 115.892C78.248 117.85 74.8817 119.362 71.3545 120.382C71.1445 120.452 70.9245 120.512 70.7045 120.562C64.1174 122.326 57.1763 122.277 50.6145 120.422L49.9545 120.232C46.461 119.196 43.1039 117.745 39.9545 115.912L39.3245 115.542C36.8902 114.085 34.5732 112.44 32.3945 110.622C30.9545 109.429 29.5411 108.146 28.1544 106.772C27.1502 103.861 25.111 101.419 22.4245 99.9124L22.3145 99.8524C19.8677 95.8727 18.1539 91.4867 17.2545 86.9024C16.6511 83.9656 16.3164 80.9799 16.2545 77.9824C15.8245 61.8524 22.3745 43.0724 37.0245 28.2124C40.1022 25.1357 43.5056 22.403 47.1745 20.0624C56.6645 13.8824 62.0845 7.35243 58.6245 0.0624323C64.2745 -0.497568 68.3745 2.71244 70.9545 9.58244C72.4922 13.9205 72.9487 18.5681 72.2845 23.1224C71.6345 28.0424 73.0945 32.3224 75.4545 36.3324C74.5645 28.6824 76.3645 23.3324 82.2645 21.5024C82.2595 21.5389 82.2595 21.5759 82.2645 21.6124C82.4151 25.6819 84.0309 29.56 86.8145 32.5324C89.4632 35.4305 91.843 38.5634 93.9245 41.8924C99.391 50.3722 102.7 60.0604 103.564 70.1124C104.118 76.685 103.398 83.3026 101.444 89.6024L101.564 89.6624C101.615 89.6803 101.66 89.7113 101.694 89.7524C104.924 93.9924 108.974 94.4924 114.064 91.2824L114.334 91.1724C114.459 91.5483 114.664 91.8925 114.935 92.1809C115.206 92.4693 115.537 92.6951 115.904 92.8424C114.724 93.5424 114.904 96.7624 116.214 97.1124C116.237 97.117 116.26 97.1172 116.282 97.1129C116.305 97.1086 116.326 97.0999 116.345 97.0874C116.364 97.0749 116.38 97.0587 116.393 97.0398C116.406 97.021 116.415 96.9998 116.419 96.9774C116.424 96.9551 116.424 96.9321 116.42 96.9097C116.416 96.8873 116.407 96.866 116.394 96.847C116.382 96.8279 116.366 96.8115 116.347 96.7988C116.328 96.786 116.307 96.777 116.284 96.7724C115.194 96.4224 115.114 93.0724 116.394 93.0324C117.38 93.276 118.409 93.276 119.394 93.0324C119.534 93.0324 119.494 92.7624 119.344 92.7924C115.184 93.4924 113.294 90.9424 115.714 87.4124C116.87 86.8975 118.131 86.6611 119.394 86.7224C120.038 86.7862 120.662 86.9795 121.229 87.2905C121.796 87.6015 122.295 88.024 122.694 88.5324C122.721 88.5583 122.756 88.5736 122.793 88.5751C122.83 88.5767 122.866 88.5645 122.895 88.5409C122.923 88.5173 122.942 88.484 122.948 88.4473C122.953 88.4107 122.945 88.3733 122.924 88.3424C122.503 87.7914 121.988 87.3177 121.404 86.9424C119.644 85.8424 117.404 86.1124 115.524 86.7624C115.319 86.5887 115.153 86.373 115.037 86.1298C114.922 85.8867 114.859 85.6216 114.854 85.3524C114.839 84.7374 114.973 84.1277 115.245 83.5757C115.516 83.0236 115.918 82.5456 116.414 82.1824L116.654 82.0124C117.145 81.6453 117.697 81.3678 118.284 81.1924L118.684 81.0924H118.734H119.004H119.274C121.624 80.9424 123.904 82.4324 125.654 83.9224C125.734 83.9924 125.834 83.9224 125.764 83.8024C123.824 82.0524 121.294 80.3224 118.554 80.8024C118.094 78.9024 118.974 77.8024 120.754 77.1524C122.328 76.496 124.085 76.4286 125.704 76.9624C127.397 77.5589 128.873 78.6479 129.942 80.0895C131.011 81.5311 131.625 83.2594 131.704 85.0524V85.2924C131.894 85.3024 131.904 85.4724 131.904 85.5224Z" fill="#14B8A6"/>
<path d="M28.2144 106.822C37.5044 115.822 50.1444 122.572 63.3644 121.482C67.7049 121.115 71.9413 119.955 75.8644 118.062C75.9434 118.036 76.0294 118.039 76.1062 118.071C76.183 118.104 76.2451 118.163 76.2809 118.238C76.3167 118.314 76.3236 118.399 76.3003 118.479C76.277 118.559 76.2251 118.628 76.1544 118.672C63.8044 124.672 49.6444 122.412 38.3544 115.172C34.6298 112.834 31.1725 110.094 28.0444 107.002C27.9444 106.892 28.1044 106.712 28.2144 106.822Z" fill="#0D9488"/>
<path d="M132.244 85.8126C132.236 88.006 131.765 90.1729 130.862 92.1718C129.959 94.1706 128.645 95.9565 127.004 97.4126L126.844 97.5326C125.28 98.8522 123.336 99.6402 121.294 99.7826H121.234H120.904H121.134H121.354H121.464H121.754L122.044 99.7226C122.264 99.6726 122.494 99.6326 122.714 99.5726C124.246 99.1273 125.66 98.3487 126.854 97.2926L127.154 97.0126L127.254 96.9227C127.548 96.6427 127.828 96.3526 128.094 96.0526L128.454 95.6226L128.694 95.3026L129.014 94.8826L129.194 94.6127L129.454 94.2226L129.744 93.7327L129.974 93.3426L130.164 92.9726C130.384 92.5326 130.594 92.0727 130.774 91.6127C130.845 91.4533 130.905 91.2896 130.954 91.1226C131.024 90.9426 131.084 90.7726 131.144 90.5826C131.488 89.4969 131.713 88.377 131.814 87.2426C131.814 87.0726 131.814 86.9126 131.814 86.7526V86.6326C131.814 86.2826 131.814 85.9326 131.814 85.6326C131.814 85.5326 131.814 85.4126 131.814 85.3026V85.0626L131.914 85.0126L132.144 84.9526C132.154 85.0691 132.154 85.1862 132.144 85.3026C132.144 85.4226 132.144 85.5426 132.144 85.6526L132.244 85.8126Z" fill="#0D9488"/>
<path d="M142.864 54.3825L136.224 81.4725C135.999 82.4193 135.525 83.2889 134.852 83.9919C134.179 84.6949 133.331 85.2059 132.394 85.4725L132.244 85.5225C132.244 85.4125 132.244 85.2925 132.244 85.1725C132.254 85.056 132.254 84.9389 132.244 84.8225L132.414 84.7725C133.196 84.5199 133.9 84.071 134.458 83.4688C135.017 82.8665 135.411 82.1309 135.604 81.3325L142.254 54.2125C142.556 52.9648 142.351 51.6484 141.683 50.5518C141.016 49.4553 139.941 48.668 138.694 48.3625L121.114 44.0525C120.497 43.9003 119.856 43.8714 119.228 43.9676C118.599 44.0637 117.996 44.283 117.452 44.6128C116.909 44.9426 116.436 45.3765 116.06 45.8895C115.685 46.4026 115.414 46.9847 115.264 47.6025L108.614 74.7225C108.313 75.9688 108.517 77.284 109.182 78.3803C109.847 79.4766 110.92 80.2648 112.164 80.5725L116.374 81.5725L116.454 81.6425C116.944 81.3043 117.479 81.0383 118.044 80.8525C118.038 80.8364 118.038 80.8186 118.044 80.8025V80.7225C117.93 80.2306 117.913 79.7209 117.994 79.2225C118.117 78.6502 118.378 78.1166 118.754 77.6686C119.131 77.2205 119.612 76.8716 120.154 76.6525H120.244L120.434 76.5725C120.533 76.5222 120.637 76.482 120.744 76.4525H120.834C122.53 75.8981 124.359 75.8981 126.054 76.4525C127.824 77.074 129.363 78.217 130.47 79.7308C131.577 81.2445 132.199 83.0581 132.254 84.9325L132.024 84.9925L131.924 85.0425C131.845 83.2495 131.231 81.5211 130.162 80.0795C129.093 78.638 127.617 77.549 125.924 76.9525C124.305 76.4186 122.548 76.486 120.974 77.1425C119.194 77.7725 118.314 78.8925 118.774 80.7925C121.514 80.3425 124.044 82.0725 125.984 83.7925C126.054 83.8625 125.984 83.9825 125.874 83.9125C124.124 82.4225 121.874 80.9125 119.494 81.0825H119.224H118.954H118.904L118.504 81.1825C117.917 81.3578 117.365 81.6354 116.874 82.0025L116.634 82.1725C116.24 82.5098 115.902 82.9082 115.634 83.3525C115.245 83.9436 115.063 84.6467 115.114 85.3525C115.116 85.4577 115.132 85.5622 115.164 85.6625C115.221 86.0929 115.443 86.4842 115.784 86.7525C117.654 86.1025 119.904 85.8325 121.664 86.9325C122.248 87.3077 122.763 87.7814 123.184 88.3325C123.205 88.3634 123.213 88.4007 123.208 88.4374C123.202 88.474 123.183 88.5073 123.155 88.5309C123.126 88.5545 123.09 88.5667 123.053 88.5652C123.016 88.5636 122.981 88.5484 122.954 88.5225C122.555 88.014 122.056 87.5916 121.489 87.2805C120.922 86.9695 120.298 86.7763 119.654 86.7125C118.391 86.6512 117.13 86.8875 115.974 87.4025H115.874C115.831 87.4244 115.783 87.4359 115.734 87.4359C115.686 87.4359 115.638 87.4244 115.594 87.4025C115.488 87.3511 115.39 87.2836 115.304 87.2025C115.224 87.1404 115.15 87.07 115.084 86.9925C115.029 86.9301 114.979 86.8632 114.934 86.7925C114.67 86.3648 114.521 85.8752 114.504 85.3725C114.499 85.3059 114.499 85.239 114.504 85.1725C114.495 85.0326 114.495 84.8923 114.504 84.7525C114.518 84.6176 114.541 84.4839 114.574 84.3525C114.598 84.2541 114.628 84.1572 114.664 84.0625L114.714 83.9125C114.752 83.8067 114.795 83.7032 114.844 83.6025L115.054 83.2025L115.224 82.9525L115.334 82.8025C115.481 82.6109 115.641 82.4304 115.814 82.2625L115.934 82.1525H115.844L112.094 81.2325C110.685 80.8689 109.476 79.9655 108.727 78.7174C107.979 77.4693 107.751 75.9768 108.094 74.5625L114.564 47.4725C114.928 46.0633 115.831 44.8538 117.08 44.1053C118.328 43.3568 119.82 43.1295 121.234 43.4725L138.814 47.7825C140.233 48.1352 141.454 49.0341 142.213 50.2834C142.972 51.5328 143.206 53.0313 142.864 54.4525V54.3825Z" fill="#0D9488"/>
<path d="M119.474 93.0725C118.456 93.3194 117.393 93.3194 116.374 93.0725C116.189 93.0291 116.009 92.9689 115.834 92.8925C114.064 92.1325 113.514 90.2425 114.634 87.8925L114.764 87.6625C114.844 87.5225 114.914 87.3825 115.004 87.2425L115.174 86.9625C115.203 86.9148 115.242 86.8745 115.289 86.8449C115.336 86.8154 115.389 86.7974 115.444 86.7925H115.564C115.618 86.8048 115.668 86.8303 115.709 86.8667C115.75 86.9031 115.782 86.9492 115.801 87.0009C115.82 87.0525 115.825 87.1081 115.817 87.1626C115.809 87.217 115.788 87.2685 115.754 87.3125L115.684 87.4025C113.204 90.9325 115.144 93.4825 119.414 92.7825C119.453 92.7745 119.493 92.7822 119.526 92.8037C119.559 92.8253 119.581 92.859 119.589 92.8975C119.597 92.9359 119.59 92.976 119.568 93.0088C119.547 93.0416 119.513 93.0645 119.474 93.0725Z" fill="#0D9488"/>
<path d="M116.464 93.0724C115.184 93.0724 115.264 96.4624 116.354 96.8124C116.377 96.817 116.398 96.826 116.417 96.8388C116.436 96.8516 116.452 96.868 116.464 96.887C116.477 96.906 116.486 96.9273 116.49 96.9497C116.494 96.9721 116.494 96.9951 116.489 97.0175C116.485 97.0398 116.476 97.061 116.463 97.0798C116.45 97.0987 116.434 97.1149 116.415 97.1274C116.396 97.1399 116.375 97.1486 116.352 97.1529C116.33 97.1572 116.307 97.157 116.284 97.1524C114.984 96.8024 114.794 93.5824 115.974 92.8824C116.131 92.7973 116.306 92.7526 116.484 92.7524C116.527 92.7551 116.566 92.7745 116.595 92.8064C116.623 92.8382 116.637 92.88 116.634 92.9225C116.632 92.9649 116.612 93.0045 116.581 93.0327C116.549 93.0608 116.507 93.0751 116.464 93.0724Z" fill="#0D9488"/>
<path d="M41.8544 83.9825C44.8865 83.9825 47.3444 79.2904 47.3444 73.5025C47.3444 67.7145 44.8865 63.0225 41.8544 63.0225C38.8224 63.0225 36.3644 67.7145 36.3644 73.5025C36.3644 79.2904 38.8224 83.9825 41.8544 83.9825Z" fill="#115E59"/>
<path d="M39.9244 73.9226C41.1947 73.9226 42.2245 71.9571 42.2245 69.5326C42.2245 67.108 41.1947 65.1426 39.9244 65.1426C38.6542 65.1426 37.6245 67.108 37.6245 69.5326C37.6245 71.9571 38.6542 73.9226 39.9244 73.9226Z" fill="white"/>
<path d="M67.6644 79.1824C63.8905 83.5326 58.7026 86.4116 53.0144 87.3124C52.601 87.3707 52.2229 87.5773 51.9506 87.8937C51.6783 88.2102 51.5304 88.6149 51.5344 89.0324C51.6144 91.3524 54.6344 92.9324 58.1244 93.4724C60.7892 93.846 63.5054 93.4649 65.9645 92.3724C70.8145 90.2824 74.0644 86.7224 74.5444 80.6124C74.645 79.7239 74.4213 78.8291 73.9144 78.0924C73.5463 77.581 73.0136 77.2116 72.4056 77.0459C71.7976 76.8803 71.1512 76.9285 70.5745 77.1824C69.4404 77.5715 68.4341 78.2631 67.6644 79.1824Z" fill="#115E59" stroke="#115E59" stroke-linecap="round" stroke-linejoin="round"/>
<path d="M61.1744 84.6824C57.4144 87.0324 57.4545 90.6224 59.5545 92.4124C60.1108 92.8518 60.7692 93.1436 61.4685 93.2608C62.1677 93.3779 62.8852 93.3165 63.5545 93.0823C69.7545 91.0823 75.0145 87.7924 74.8045 80.2024C74.8073 79.601 74.6551 79.009 74.3626 78.4835C74.0701 77.958 73.6471 77.5168 73.1345 77.2024C71.1945 76.1023 68.9645 77.5024 67.0545 79.7024C66.4352 80.4148 65.7669 81.0831 65.0545 81.7024C63.8386 82.7927 62.5415 83.7889 61.1744 84.6824Z" fill="white" stroke="#115E59" stroke-miterlimit="10"/>
<path d="M33.5745 54.2825C37.6945 52.6225 42.8845 53.2825 45.5745 57.1525C45.6645 57.319 45.6934 57.5117 45.6561 57.6973C45.6189 57.8829 45.5178 58.0495 45.3705 58.1683C45.2231 58.2871 45.0388 58.3506 44.8496 58.3477C44.6603 58.3448 44.4781 58.2757 44.3345 58.1525C41.7645 55.2425 37.9745 55.2625 34.7245 56.9625C34.5428 57.0575 34.3435 57.1138 34.139 57.1278C33.9344 57.1417 33.7293 57.1131 33.5364 57.0436C33.3436 56.9741 33.1673 56.8653 33.0187 56.7241C32.8701 56.5829 32.7524 56.4124 32.6732 56.2233C32.594 56.0343 32.5549 55.8308 32.5584 55.6258C32.5619 55.4209 32.608 55.2189 32.6936 55.0327C32.7793 54.8465 32.9027 54.6801 33.0561 54.544C33.2094 54.408 33.3893 54.3053 33.5845 54.2425L33.5745 54.2825Z" fill="#115E59"/>
<path d="M60.6645 60.3226C64.1345 56.6726 68.0444 51.9326 73.5944 51.7026C75.2744 51.7026 78.2045 52.6026 77.2545 54.8126C77.0466 55.2493 76.6743 55.586 76.2189 55.749C75.7636 55.912 75.2623 55.8882 74.8245 55.6826C74.3972 55.4053 73.9143 55.2249 73.4099 55.1541C72.9054 55.0833 72.3916 55.1237 71.9044 55.2726C68.1944 56.2726 65.1545 59.2226 62.2745 61.8626C62.0633 62.0419 61.7933 62.1365 61.5164 62.1283C61.2396 62.12 60.9757 62.0095 60.7755 61.8181C60.5754 61.6267 60.4533 61.3679 60.4328 61.0917C60.4123 60.8155 60.4948 60.5415 60.6645 60.3226Z" fill="#115E59"/>
<path d="M75.4945 66.7627C70.9772 68.5392 67.1303 71.6867 64.4945 75.7627L62.6345 73.7627C66.4345 71.6727 70.8444 69.7627 75.3444 70.2527C76.3444 70.3727 80.7344 71.2527 79.9644 72.6227C79.8728 72.7963 79.7167 72.9271 79.5298 72.9869C79.3428 73.0467 79.1399 73.0309 78.9645 72.9427C76.5311 71.9029 73.8044 71.775 71.2844 72.5827C68.6926 73.415 66.2391 74.6283 64.0045 76.1827C63.7261 76.3761 63.3864 76.4603 63.05 76.4193C62.7135 76.3783 62.404 76.2149 62.1803 75.9603C61.9566 75.7057 61.8344 75.3777 61.837 75.0388C61.8396 74.6999 61.9669 74.3738 62.1945 74.1227C63.8564 72.0919 65.823 70.331 68.0245 68.9027C70.1916 67.5239 72.5503 66.4726 75.0245 65.7827C75.0914 65.7628 75.1617 65.7563 75.2312 65.7637C75.3006 65.771 75.368 65.792 75.4293 65.8255C75.4907 65.8589 75.5448 65.9042 75.5886 65.9586C75.6324 66.0131 75.6649 66.0756 75.6844 66.1427C75.7169 66.2688 75.7036 66.4024 75.6468 66.5196C75.59 66.6368 75.4935 66.73 75.3744 66.7827L75.4945 66.7627Z" fill="#115E59"/>
<path d="M75.0345 80.0527C73.9814 81.669 72.5183 82.9768 70.7945 83.8427C70.7414 83.8664 70.6811 83.8681 70.6268 83.8475C70.5724 83.8269 70.5285 83.7856 70.5045 83.7327C70.4798 83.6835 70.4754 83.6266 70.4922 83.5743C70.5091 83.5219 70.5458 83.4783 70.5945 83.4527C72.1378 82.5023 73.3982 81.1555 74.2445 79.5527C74.2737 79.4937 74.315 79.4415 74.3657 79.3995C74.4164 79.3575 74.4754 79.3267 74.5388 79.3089C74.6022 79.2912 74.6686 79.2869 74.7337 79.2965C74.7988 79.306 74.8612 79.3292 74.9169 79.3644C74.9725 79.3996 75.0201 79.4461 75.0566 79.5009C75.0931 79.5556 75.1177 79.6175 75.1288 79.6824C75.1399 79.7473 75.1372 79.8138 75.121 79.8775C75.1047 79.9413 75.0752 80.001 75.0345 80.0527Z" fill="#115E59"/>
<path d="M127.414 55.6323C127.484 56.6323 126.714 57.3623 125.184 57.7523C124.842 57.8281 124.507 57.9352 124.184 58.0723C121.094 59.4023 118.884 62.5123 119.134 64.8523V65.1723C119.128 66.2843 119.46 67.3719 120.087 68.2902C120.714 69.2085 121.606 69.9139 122.644 70.3123C123.023 70.4676 123.419 70.5751 123.824 70.6323C126.254 70.9923 128.244 70.0423 129.564 67.1823C130.016 66.2699 130.246 65.2642 130.237 64.2464C130.229 63.2285 129.981 62.227 129.514 61.3223C129.514 61.2423 129.434 61.1523 129.384 61.0723C129.222 60.8104 129.121 60.5143 129.092 60.2072C129.062 59.9002 129.104 59.5905 129.214 59.3023C128.414 59.3823 127.884 59.8023 127.914 60.9123C127.727 60.5648 127.64 60.1715 127.665 59.7773C127.69 59.383 127.825 59.0037 128.054 58.6823C128.37 58.1918 128.479 57.5969 128.36 57.0262C128.24 56.4554 127.9 55.9548 127.414 55.6323Z" fill="#0D9488"/>
</svg>
