<svg width="150" height="150" viewBox="0 0 150 150" fill="none" xmlns="http://www.w3.org/2000/svg">
<path d="M95.8648 136.14C95.6356 136.85 95.2222 137.497 94.6615 138.023C94.1007 138.548 93.4099 138.936 92.6502 139.153C92.179 139.274 91.6918 139.331 91.2032 139.324C88.1265 139.344 85.0562 139.057 82.0447 138.468L81.5593 138.348L81.2662 138.245C79.1506 137.578 78.1981 137.278 78.2256 135.515L74.8003 114.329C68.7676 115.838 62.4106 115.797 56.401 114.209L52.9391 135.609C52.9391 137.321 52.0232 137.621 49.9076 138.288L49.5962 138.391L49.1291 138.511C46.1174 139.098 43.0473 139.385 39.9707 139.367C39.4821 139.374 38.9949 139.316 38.5236 139.196C37.7639 138.979 37.0731 138.591 36.5123 138.065C35.9516 137.54 35.5382 136.893 35.309 136.182C35.0772 135.496 35.0346 134.765 35.1851 134.059C35.3356 133.353 35.6743 132.694 36.1699 132.142C36.7382 131.504 37.3836 130.93 38.0932 130.43C38.8492 129.991 39.702 129.719 40.5873 129.633C41.4725 129.547 42.3671 129.65 43.2036 129.934L46.1251 110.049C43.8958 108.801 41.7737 107.393 39.7783 105.837H90.8643C89.091 107.378 87.179 108.773 85.1494 110.006L88.0801 129.934C88.9019 129.649 89.782 129.542 90.6544 129.621C91.5267 129.699 92.3687 129.961 93.1173 130.387C93.8433 130.881 94.5016 131.456 95.0772 132.099C95.5604 132.657 95.8857 133.319 96.0234 134.025C96.161 134.731 96.1065 135.458 95.8648 136.14Z" fill="#14B8A6"/>
<path d="M139.725 54.2809C139.422 53.8144 139.023 53.4086 138.552 53.0869C138.08 52.7651 137.545 52.5338 136.977 52.4062L120.877 48.7169C120.311 48.5866 119.724 48.5619 119.149 48.6442C118.573 48.7266 118.02 48.9143 117.523 49.1966C117.025 49.4789 116.592 49.8503 116.248 50.2894C115.904 50.7286 115.656 51.2269 115.519 51.7557L109.429 74.9703C109.152 76.0371 109.339 77.1629 109.948 78.1013C110.558 79.0398 111.54 79.7145 112.68 79.9779L116.536 80.8339L116.609 80.8938C117.057 80.6043 117.547 80.3766 118.065 80.2175C118.059 80.2038 118.059 80.1885 118.065 80.1747V80.1062C117.96 79.6852 117.944 79.2489 118.019 78.8223C118.131 78.3324 118.37 77.8757 118.715 77.4921C119.06 77.1086 119.5 76.81 119.997 76.6224H120.08L120.254 76.5539C120.345 76.5108 120.44 76.4764 120.538 76.4512H120.62L120.886 76.3656C122.286 75.9149 123.802 75.891 125.218 76.2971H125.355C127 76.8279 128.439 77.8055 129.486 79.1047C130.534 80.4039 131.142 81.9657 131.235 83.5902C131.951 83.374 132.595 82.9897 133.107 82.4742C133.618 81.9586 133.98 81.329 134.156 80.6455L140.247 57.4309C140.386 56.8996 140.412 56.3478 140.322 55.8072C140.233 55.2666 140.03 54.7479 139.725 54.2809ZM131.079 83.6158L130.869 83.6672L130.777 83.71V83.9154H130.923H131.079C131.088 83.8158 131.088 83.7155 131.079 83.6158Z" fill="white"/>
<path d="M116.645 80.9022L116.572 80.8423C116.589 80.8457 116.604 80.853 116.617 80.8634C116.629 80.8739 116.639 80.8873 116.645 80.9022Z" fill="#0D9488"/>
<path d="M131.116 84.2154H131.015H130.942C130.897 84.228 130.849 84.228 130.804 84.2154C130.804 84.1298 130.804 84.0271 130.804 83.9329V83.7275L130.896 83.6847L131.107 83.6333C131.116 83.733 131.116 83.8332 131.107 83.9329C131.107 84.0185 131.116 84.164 131.116 84.2154Z" fill="#0D9488"/>
<path d="M36.3347 104.708C36.2427 103.972 36.0614 103.248 35.7943 102.551C34.8746 100.058 33.007 97.9682 30.5465 96.6785L30.4458 96.6272C27.4876 95.0949 24.0348 94.2988 21.2873 91.962C21.0425 91.7523 20.8456 91.4986 20.7084 91.2161C20.5712 90.9335 20.4965 90.628 20.4888 90.3178C20.4811 90.0076 20.5406 89.6991 20.6636 89.4109C20.7867 89.1227 20.9708 88.8608 21.2049 88.6407C22.5379 87.447 24.1137 86.5155 25.839 85.9015V85.542L24.9232 77.9066L25.7841 76.3486C19.3732 78.7797 13.8781 82.0667 11.4602 85.542C10.5167 86.8998 10.0099 88.4822 10.0001 90.1012C9.9904 91.7203 10.4781 93.3079 11.4053 94.6755C14.4459 99.2465 19.2999 102.2 25.2346 104.22C24.1472 104.677 23.1404 105.286 22.2489 106.026C21.6643 106.554 21.3083 107.265 21.2492 108.023C21.1901 108.781 21.4319 109.533 21.9284 110.135C24.3187 113.045 27.744 113.627 32.25 111.744C34.8327 110.101 36.8017 108.132 36.3347 104.708Z" fill="#14B8A6"/>
<path d="M115.098 86.2607C114.874 86.6983 114.714 87.1618 114.621 87.6389C114.699 87.1584 114.86 86.6929 115.098 86.2607Z" fill="#14B8A6"/>
<path d="M114.814 89.0774H114.74C114.584 88.6154 114.55 88.1251 114.64 87.6479C114.579 88.1306 114.639 88.6198 114.814 89.0774Z" fill="#14B8A6"/>
<path d="M126.234 94.2216L126.509 93.9819L126.317 94.3843L126.17 94.487C125.06 95.2815 123.794 95.8633 122.443 96.199C123.848 95.8102 125.143 95.1348 126.234 94.2216Z" fill="#14B8A6"/>
<path d="M126.509 93.9821L130.795 85.1226V85.1996C130.795 85.3366 130.795 85.4735 130.795 85.619C130.702 86.59 130.496 87.5487 130.182 88.4781C130.127 88.6407 130.072 88.7862 130.008 88.9403C129.962 89.0832 129.907 89.2234 129.843 89.3597C129.678 89.7535 129.486 90.1472 129.284 90.5239L129.11 90.8406L128.899 91.1745C128.817 91.32 128.725 91.4569 128.634 91.5939L128.396 91.9277L128.231 92.1588L127.938 92.5184L127.718 92.7923L127.388 93.1604C127.144 93.4172 126.888 93.6654 126.619 93.9051L126.509 93.9821Z" fill="#14B8A6"/>
<path d="M119.997 76.6309C119.5 76.8185 119.06 77.1171 118.715 77.5006C118.37 77.8842 118.131 78.3409 118.019 78.8308C118.099 78.3292 118.327 77.8581 118.676 77.4698C119.025 77.0816 119.482 76.7912 119.997 76.6309Z" fill="#14B8A6"/>
<path d="M131.116 84.4548L130.795 85.0968L118.889 80.4059H119.137H119.384C121.536 80.2775 123.624 81.553 125.227 82.8284C125.3 82.8883 125.392 82.8284 125.328 82.7257C123.551 81.2277 121.234 79.7468 118.724 80.1577C118.303 78.5313 119.109 77.5897 120.739 77.0333C122.18 76.4714 123.79 76.4137 125.273 76.8707C126.823 77.3813 128.175 78.3134 129.154 79.5474C130.133 80.7814 130.695 82.2609 130.768 83.7957L130.859 83.7529L131.07 83.7015C131.079 83.8012 131.079 83.9014 131.07 84.0011C131.07 84.1038 131.07 84.2066 131.07 84.3007L131.116 84.4548Z" fill="#14B8A6"/>
<path d="M115.949 81.4419L115.748 82.392L115.317 84.3523L115.107 85.3367C114.864 84.9706 114.728 84.5515 114.713 84.1212C114.708 84.0642 114.708 84.0069 114.713 83.95C114.704 83.8303 114.704 83.7101 114.713 83.5904C114.725 83.475 114.747 83.3606 114.777 83.248C114.799 83.1638 114.827 83.0809 114.859 82.9998L114.905 82.8714C114.939 82.7809 114.979 82.6922 115.024 82.606L115.217 82.2636L115.372 82.0496L115.473 81.9212C115.618 81.7501 115.777 81.5898 115.949 81.4419Z" fill="#14B8A6"/>
<path d="M119.43 90.6694C118.527 90.8779 117.584 90.8779 116.682 90.6694C115.51 90.6694 115.583 93.5712 116.581 93.8708C116.623 93.8788 116.659 93.9018 116.682 93.9347C116.705 93.9676 116.713 94.0077 116.705 94.0463C116.696 94.0849 116.672 94.1188 116.637 94.1405C116.601 94.1621 116.558 94.1698 116.517 94.1619C115.327 93.8623 115.153 91.106 116.233 90.5068C114.658 89.8562 114.163 88.2384 115.171 86.2268L115.281 86.0299C115.347 85.9065 115.42 85.7865 115.501 85.6704C115.579 85.7399 115.669 85.7976 115.766 85.8416C115.806 85.8604 115.85 85.8702 115.894 85.8702C115.939 85.8702 115.983 85.8604 116.023 85.8416H116.114C113.898 88.8633 115.629 91.0461 119.439 90.4469C119.521 90.4383 119.558 90.6438 119.43 90.6694Z" fill="#14B8A6"/>
<path d="M130.804 84.2066C130.804 84.4976 130.804 84.7972 130.804 85.0626V85.1653C130.804 85.3022 130.804 85.4392 130.804 85.5847C130.711 86.5557 130.506 87.5144 130.191 88.4438C130.136 88.6064 130.081 88.7519 130.017 88.906C129.971 89.0489 129.916 89.189 129.852 89.3254C129.687 89.7192 129.495 90.113 129.293 90.4896L129.119 90.8063L128.909 91.1401L117.003 81.1763C117.452 80.8621 117.957 80.6245 118.495 80.4744L118.862 80.3888H118.908H119.155H119.402C121.554 80.2604 123.642 81.5359 125.245 82.8113C125.318 82.8712 125.41 82.8113 125.346 82.7086C123.569 81.2106 121.252 79.7297 118.743 80.1406C118.321 78.5142 119.127 77.5726 120.758 77.0162C122.199 76.4543 123.808 76.3966 125.291 76.8536C126.841 77.3642 128.193 78.2964 129.172 79.5303C130.151 80.7643 130.713 82.2438 130.786 83.7786V83.984C130.795 84.0183 130.804 84.1638 130.804 84.2066Z" fill="#14B8A6"/>
<path d="M25.3445 104.168C25.1472 104.953 25.2409 105.776 25.6103 106.504C25.9798 107.232 26.603 107.821 27.3777 108.175C27.4464 108.206 27.5003 108.26 27.529 108.327C27.5577 108.393 27.5593 108.467 27.5334 108.534C27.4571 108.831 27.2664 109.091 26.9977 109.265C26.7291 109.438 26.4014 109.514 26.0772 109.476C25.9752 109.465 25.8817 109.418 25.8173 109.343C25.7529 109.268 25.7229 109.173 25.7338 109.078C25.7447 108.982 25.7957 108.895 25.8756 108.835C25.9555 108.774 26.0576 108.746 26.1596 108.757C26.5626 108.842 26.7824 108.697 26.9473 108.337C27.0026 108.455 27.0515 108.575 27.0938 108.697C26.2603 108.255 25.6101 107.564 25.248 106.735C24.8858 105.905 24.8327 104.986 25.0973 104.126C25.1083 104.1 25.1285 104.079 25.1544 104.065C25.1804 104.052 25.2105 104.047 25.2397 104.052C25.2688 104.057 25.2952 104.072 25.3143 104.093C25.3335 104.114 25.3441 104.141 25.3445 104.168Z" fill="#0D9488"/>
<path d="M21.9192 110.049C24.511 113.165 28.6324 113.079 32.1217 111.444C34.0359 110.349 36.0416 108.466 36.1515 106.129C36.4629 102.183 33.7336 98.536 30.3175 96.5244C32.2403 97.4056 33.8553 98.7797 34.9742 100.486C36.0931 102.193 36.6697 104.162 36.6369 106.163C36.2156 112.446 25.5551 115.579 21.9192 110.049Z" fill="#0D9488"/>
<path d="M43.1028 129.96C41.7978 129.572 40.3907 129.611 39.1126 130.07C37.8344 130.529 36.7612 131.381 36.0691 132.485C35.6976 132.996 35.4539 133.579 35.3562 134.19C35.2584 134.801 35.309 135.425 35.5043 136.015C35.6996 136.605 36.0345 137.147 36.4842 137.6C36.934 138.052 37.487 138.405 38.1023 138.631C39.3478 139.085 40.7674 138.905 42.0954 138.948C44.8429 138.845 52.8749 138.999 52.9115 135.524C53.5252 139.007 44.6689 139.239 42.1045 139.358C40.6941 139.358 39.2471 139.598 37.9008 139.076C37.2318 138.817 36.6337 138.42 36.1506 137.916C35.6675 137.412 35.3117 136.813 35.1095 136.163C34.9073 135.513 34.8639 134.829 34.9824 134.161C35.1009 133.493 35.3784 132.859 35.7943 132.305C36.5403 131.184 37.6705 130.331 39.0009 129.887C40.3313 129.442 41.7835 129.432 43.1211 129.857C43.1333 129.857 43.1449 129.861 43.1535 129.869C43.1621 129.877 43.1669 129.888 43.1669 129.9C43.1669 129.911 43.1621 129.922 43.1535 129.93C43.1449 129.938 43.1333 129.942 43.1211 129.942L43.1028 129.96Z" fill="#0D9488"/>
<path d="M87.9793 129.874C89.3169 129.449 90.7691 129.459 92.0995 129.904C93.4299 130.348 94.5602 131.201 95.3061 132.322C95.724 132.875 96.0034 133.509 96.1235 134.177C96.2436 134.844 96.2013 135.529 95.9999 136.179C95.7984 136.829 95.443 137.429 94.9598 137.933C94.4766 138.438 93.8782 138.834 93.2088 139.093C91.8534 139.615 90.4155 139.376 89.0051 139.376C86.4682 139.256 77.5936 139.033 78.1981 135.541C78.1981 138.965 86.3033 138.845 89.0142 138.965C90.333 138.922 91.7618 139.102 93.0073 138.648C93.6215 138.421 94.1733 138.068 94.622 137.615C95.0707 137.162 95.405 136.62 95.6001 136.03C95.7952 135.441 95.8462 134.817 95.7493 134.207C95.6525 133.596 95.4103 133.013 95.0405 132.502C94.3472 131.399 93.2739 130.548 91.9961 130.09C90.7184 129.631 89.3119 129.591 88.0068 129.977C87.9427 129.977 87.9061 129.908 88.0068 129.891L87.9793 129.874Z" fill="#0D9488"/>
<path d="M130.804 84.2068C130.804 84.4978 130.804 84.7974 130.804 85.0628V85.1655C130.804 85.3025 130.804 85.4394 130.804 85.5849C130.711 86.5559 130.506 87.5146 130.191 88.444C130.136 88.6066 130.081 88.7521 130.017 88.9062C129.971 89.0492 129.916 89.1893 129.852 89.3256C129.687 89.7194 129.495 90.1132 129.293 90.4898L129.119 90.8065L128.909 91.1403C128.826 91.2859 128.735 91.4228 128.643 91.5598L128.405 91.8936L128.24 92.1247L127.947 92.4843L127.727 92.7582L127.397 93.1263C127.153 93.3831 126.897 93.6313 126.628 93.871L126.536 93.948L126.262 94.1877C125.155 95.1003 123.844 95.77 122.424 96.1479C122.223 96.1993 122.012 96.2335 121.811 96.2763L121.545 96.3277H121.28H121.179H120.977H120.767H121.069H120.803C116.618 98.8957 112.68 100.231 108.897 100.231C105.108 100.168 101.453 98.9069 98.5299 96.653C96.5575 99.6495 94.242 102.436 91.6244 104.965L90.8001 105.692C89.0269 107.233 87.1148 108.627 85.0853 109.861L84.5083 110.203C81.6632 111.879 78.5802 113.173 75.3498 114.047C75.1575 114.107 74.956 114.158 74.7545 114.201C68.7217 115.71 62.3648 115.669 56.3551 114.081L55.7506 113.918C52.5512 113.031 49.4766 111.79 46.5922 110.22L46.0152 109.904C43.7858 108.656 41.6638 107.248 39.6684 105.692C38.3495 104.671 37.0551 103.572 35.7852 102.397C34.8655 99.9041 32.9978 97.8143 30.5374 96.5246L30.4366 96.4732C28.1957 93.0666 26.6262 89.3122 25.8024 85.3881C25.2499 82.8741 24.9433 80.3184 24.8866 77.7526C24.4928 63.9454 30.4916 47.8698 43.9087 35.1497C46.7275 32.5161 49.8444 30.1768 53.2046 28.1733C61.896 22.8833 66.8599 17.2936 63.691 11.0534C68.8656 10.5741 72.6206 13.3218 74.9834 19.2025C76.3918 22.9159 76.8099 26.8942 76.2015 30.7927C75.6062 35.0042 76.9434 38.6678 79.1048 42.1004C78.2896 35.552 79.9382 30.9725 85.3417 29.406C85.3372 29.4372 85.3372 29.4689 85.3417 29.5001C85.4796 32.9836 86.9595 36.3032 89.5088 38.8476C91.9346 41.3284 94.1142 44.0101 96.0205 46.8597C101.027 54.1184 104.058 62.4114 104.849 71.0159C105.356 76.642 104.697 82.3066 102.908 87.6993L103.018 87.7506C103.064 87.7659 103.105 87.7925 103.137 87.8277C106.095 91.4571 109.804 91.8851 114.466 89.1373L114.713 89.0432C114.827 89.3649 115.015 89.6595 115.263 89.9064C115.511 90.1533 115.814 90.3466 116.151 90.4727C115.07 91.0719 115.235 93.8282 116.435 94.1278C116.455 94.1317 116.476 94.1318 116.497 94.1282C116.517 94.1245 116.537 94.1171 116.554 94.1063C116.572 94.0956 116.587 94.0818 116.598 94.0656C116.61 94.0495 116.618 94.0313 116.622 94.0122C116.627 93.9931 116.627 93.9734 116.623 93.9543C116.619 93.9351 116.611 93.9168 116.6 93.9005C116.588 93.8843 116.573 93.8702 116.556 93.8593C116.539 93.8483 116.519 93.8407 116.499 93.8367C115.501 93.5371 115.427 90.6696 116.6 90.6353C117.502 90.8438 118.445 90.8438 119.347 90.6353C119.475 90.6353 119.439 90.4042 119.301 90.4299C115.491 91.0291 113.76 88.8463 115.977 85.8246C117.035 85.3838 118.19 85.1815 119.347 85.234C119.937 85.2886 120.508 85.454 121.027 85.7202C121.547 85.9865 122.003 86.3481 122.369 86.7833C122.394 86.8055 122.426 86.8185 122.46 86.8199C122.494 86.8212 122.527 86.8108 122.553 86.7906C122.579 86.7704 122.596 86.7419 122.601 86.7105C122.606 86.6791 122.599 86.6471 122.58 86.6207C122.194 86.149 121.723 85.7435 121.188 85.4223C119.576 84.4807 117.525 84.7118 115.803 85.2682C115.614 85.1195 115.462 84.9349 115.356 84.7267C115.251 84.5186 115.194 84.2917 115.189 84.0613C115.175 83.5348 115.298 83.0129 115.547 82.5404C115.795 82.0678 116.163 81.6586 116.618 81.3478L116.838 81.2022C117.287 80.888 117.793 80.6504 118.331 80.5003L118.697 80.4147H118.743H118.99H119.237C121.389 80.2863 123.478 81.5618 125.08 82.8372C125.154 82.8971 125.245 82.8372 125.181 82.7345C123.404 81.2365 121.087 79.7556 118.578 80.1665C118.156 78.5401 118.962 77.5985 120.593 77.0421C122.034 76.4802 123.643 76.4225 125.126 76.8795C126.676 77.3901 128.028 78.3223 129.007 79.5562C129.986 80.7902 130.548 82.2697 130.621 83.8045V84.0099C130.795 84.0185 130.804 84.164 130.804 84.2068Z" fill="#14B8A6"/>
<path d="M35.8401 102.439C44.3483 110.143 55.9247 115.921 68.0322 114.988C72.0073 114.673 75.8873 113.681 79.4803 112.06C79.5525 112.037 79.6313 112.04 79.7016 112.068C79.772 112.096 79.8289 112.147 79.8617 112.211C79.8945 112.275 79.9008 112.349 79.8794 112.417C79.8581 112.486 79.8105 112.545 79.7458 112.583C68.4351 117.719 55.4667 115.784 45.1268 109.587C41.7156 107.585 38.5493 105.239 35.6844 102.593C35.5928 102.499 35.7394 102.345 35.8401 102.439Z" fill="#0D9488"/>
<path d="M131.116 84.4549C131.108 86.3324 130.677 88.1873 129.85 89.8983C129.023 91.6093 127.819 93.138 126.317 94.3845L126.17 94.4872C124.737 95.6167 122.957 96.2912 121.087 96.4132H121.032H120.73H120.941H121.142H121.243H121.508L121.774 96.3618C121.976 96.319 122.186 96.2848 122.388 96.2334C123.79 95.8522 125.085 95.1857 126.179 94.2817L126.454 94.0421L126.546 93.965C126.814 93.7253 127.071 93.4771 127.315 93.2203L127.645 92.8522L127.864 92.5783L128.158 92.2188L128.322 91.9877L128.56 91.6538L128.826 91.2344L129.037 90.9005L129.211 90.5838C129.412 90.2072 129.605 89.8135 129.769 89.4197C129.834 89.2833 129.889 89.1432 129.934 89.0002C129.998 88.8462 130.053 88.7006 130.108 88.538C130.423 87.6086 130.629 86.65 130.722 85.679C130.722 85.5335 130.722 85.3965 130.722 85.2595V85.1568C130.722 84.8572 130.722 84.5576 130.722 84.3008C130.722 84.2152 130.722 84.1125 130.722 84.0184V83.8129L130.813 83.7701L131.024 83.7188C131.033 83.8184 131.033 83.9187 131.024 84.0184C131.024 84.1211 131.024 84.2238 131.024 84.3179L131.116 84.4549Z" fill="#0D9488"/>
<path d="M140.842 57.5511L134.761 80.74C134.554 81.5505 134.12 82.2949 133.504 82.8966C132.887 83.4984 132.11 83.9358 131.253 84.164L131.116 84.2068C131.116 84.1126 131.116 84.0099 131.116 83.9072C131.125 83.8075 131.125 83.7073 131.116 83.6076L131.271 83.5648C131.987 83.3486 132.632 82.9644 133.143 82.4488C133.655 81.9333 134.016 81.3036 134.193 80.6202L140.283 57.4056C140.56 56.3376 140.371 55.2107 139.76 54.2721C139.149 53.3334 138.165 52.6595 137.023 52.398L120.922 48.7087C120.357 48.5784 119.77 48.5537 119.194 48.636C118.619 48.7183 118.066 48.906 117.568 49.1883C117.071 49.4707 116.637 49.8421 116.294 50.2812C115.95 50.7204 115.702 51.2186 115.565 51.7475L109.474 74.9621C109.198 76.0289 109.385 77.1547 109.994 78.0931C110.603 79.0315 111.585 79.7062 112.726 79.9696L116.581 80.8256L116.655 80.8855C117.103 80.5961 117.593 80.3684 118.111 80.2093C118.105 80.1955 118.105 80.1803 118.111 80.1665V80.098C118.005 79.677 117.99 79.2407 118.065 78.814C118.177 78.3241 118.416 77.8674 118.761 77.4839C119.106 77.1004 119.546 76.8017 120.043 76.6141H120.126L120.3 76.5457C120.39 76.5026 120.485 76.4682 120.584 76.4429H120.666C122.219 75.9684 123.894 75.9684 125.447 76.4429C127.067 76.975 128.477 77.9533 129.49 79.2491C130.504 80.5449 131.074 82.0973 131.125 83.7018L130.914 83.7531L130.823 83.7959C130.75 82.2611 130.188 80.7817 129.209 79.5477C128.229 78.3137 126.878 77.3815 125.328 76.8709C123.845 76.4139 122.235 76.4717 120.794 77.0336C119.164 77.5728 118.358 78.5316 118.779 80.158C121.289 79.7728 123.606 81.2536 125.383 82.7259C125.447 82.7859 125.383 82.8886 125.282 82.8287C123.679 81.5532 121.618 80.2607 119.439 80.4062H119.191H118.944H118.898L118.532 80.4918C117.994 80.6419 117.489 80.8795 117.039 81.1937L116.819 81.3392C116.458 81.6279 116.149 81.969 115.904 82.3493C115.547 82.8553 115.38 83.4572 115.427 84.0613C115.428 84.1514 115.444 84.2408 115.473 84.3266C115.525 84.6951 115.728 85.03 116.041 85.2597C117.754 84.7033 119.814 84.4722 121.426 85.4138C121.961 85.735 122.432 86.1404 122.818 86.6122C122.837 86.6386 122.845 86.6706 122.84 86.7019C122.835 86.7333 122.817 86.7618 122.791 86.782C122.765 86.8022 122.732 86.8127 122.698 86.8113C122.664 86.81 122.632 86.797 122.608 86.7748C122.241 86.3395 121.785 85.9779 121.266 85.7117C120.746 85.4454 120.175 85.2801 119.585 85.2254C118.428 85.173 117.273 85.3753 116.215 85.8161H116.123C116.084 85.8349 116.04 85.8447 115.995 85.8447C115.951 85.8447 115.907 85.8349 115.867 85.8161C115.769 85.7721 115.68 85.7143 115.601 85.6449C115.528 85.5917 115.46 85.5315 115.4 85.4651C115.349 85.4118 115.303 85.3545 115.262 85.2939C115.02 84.9279 114.884 84.5088 114.869 84.0784C114.864 84.0214 114.864 83.9642 114.869 83.9072C114.86 83.7875 114.86 83.6674 114.869 83.5477C114.881 83.4322 114.902 83.3178 114.933 83.2053C114.955 83.121 114.982 83.0381 115.015 82.957L115.061 82.8287C115.095 82.7381 115.135 82.6495 115.18 82.5633L115.372 82.2209L115.528 82.0069L115.629 81.8785C115.763 81.7145 115.91 81.56 116.068 81.4163L116.178 81.3221H116.096L112.661 80.5346C111.371 80.2234 110.263 79.45 109.578 78.3817C108.892 77.3133 108.684 76.0358 108.998 74.8251L114.924 51.6362C115.257 50.4299 116.084 49.3946 117.227 48.7539C118.37 48.1132 119.737 47.9186 121.032 48.2122L137.133 51.9015C138.432 52.2034 139.551 52.9729 140.245 54.0424C140.94 55.1118 141.155 56.3945 140.842 57.611V57.5511Z" fill="#0D9488"/>
<path d="M119.42 90.6696C118.487 90.8809 117.514 90.8809 116.581 90.6696C116.412 90.6325 116.246 90.5809 116.087 90.5155C114.466 89.865 113.962 88.2471 114.988 86.2355L115.107 86.0387C115.18 85.9188 115.244 85.799 115.327 85.6791L115.482 85.4395C115.508 85.3986 115.544 85.3641 115.587 85.3388C115.63 85.3135 115.679 85.2981 115.73 85.2939H115.839C115.889 85.3045 115.934 85.3263 115.972 85.3575C116.01 85.3886 116.038 85.4281 116.056 85.4723C116.073 85.5166 116.078 85.5641 116.071 85.6107C116.063 85.6573 116.044 85.7014 116.013 85.7391L115.949 85.8161C113.678 88.8378 115.455 91.0205 119.365 90.4213C119.401 90.4145 119.437 90.4211 119.467 90.4396C119.497 90.458 119.518 90.4869 119.526 90.5198C119.533 90.5527 119.526 90.587 119.506 90.6151C119.486 90.6432 119.456 90.6628 119.42 90.6696Z" fill="#0D9488"/>
<path d="M116.664 90.6694C115.491 90.6694 115.565 93.5712 116.563 93.8708C116.583 93.8748 116.603 93.8824 116.62 93.8934C116.637 93.9043 116.652 93.9184 116.664 93.9347C116.675 93.951 116.683 93.9692 116.687 93.9883C116.691 94.0075 116.691 94.0272 116.687 94.0463C116.682 94.0654 116.674 94.0836 116.662 94.0997C116.651 94.1159 116.636 94.1297 116.618 94.1405C116.601 94.1512 116.581 94.1586 116.561 94.1623C116.54 94.166 116.519 94.1658 116.499 94.1619C115.308 93.8623 115.134 91.106 116.215 90.5068C116.358 90.4339 116.519 90.3957 116.682 90.3955C116.721 90.3978 116.757 90.4144 116.783 90.4417C116.809 90.469 116.822 90.5047 116.819 90.541C116.817 90.5774 116.799 90.6113 116.77 90.6354C116.741 90.6594 116.702 90.6717 116.664 90.6694Z" fill="#0D9488"/>
<path d="M48.3323 82.8884C51.1092 82.8884 53.3603 78.8721 53.3603 73.9176C53.3603 68.9632 51.1092 64.9468 48.3323 64.9468C45.5554 64.9468 43.3043 68.9632 43.3043 73.9176C43.3043 78.8721 45.5554 82.8884 48.3323 82.8884Z" fill="#115E59"/>
<path d="M46.5647 74.2774C47.7281 74.2774 48.6712 72.5949 48.6712 70.5195C48.6712 68.4442 47.7281 66.7617 46.5647 66.7617C45.4013 66.7617 44.4583 68.4442 44.4583 70.5195C44.4583 72.5949 45.4013 74.2774 46.5647 74.2774Z" fill="white"/>
<path d="M71.9703 78.7798C68.514 82.5035 63.7626 84.9679 58.5532 85.739C58.1745 85.7889 57.8282 85.9657 57.5788 86.2366C57.3294 86.5075 57.194 86.854 57.1977 87.2113C57.271 89.1972 60.0368 90.5497 63.2331 91.0119C65.6737 91.3317 68.1612 91.0055 70.4134 90.0703C74.8553 88.2813 77.8317 85.234 78.2714 80.0038C78.3634 79.2433 78.1585 78.4773 77.6944 77.8467C77.3572 77.409 76.8693 77.0927 76.3125 76.951C75.7557 76.8092 75.1636 76.8504 74.6355 77.0678C73.5968 77.4008 72.6752 77.9928 71.9703 78.7798Z" fill="#115E59" stroke="#115E59" stroke-width="0.855995" stroke-linecap="round" stroke-linejoin="round"/>
<path d="M66.0265 83.4875C62.5829 85.4991 62.6195 88.5721 64.5428 90.1043C65.0524 90.4805 65.6553 90.7303 66.2957 90.8306C66.9362 90.9308 67.5933 90.8783 68.2062 90.6778C73.8845 88.9658 78.7018 86.1496 78.5095 79.6526C78.5121 79.1378 78.3727 78.6311 78.1048 78.1813C77.8369 77.7315 77.4495 77.3538 76.98 77.0846C75.2033 76.143 73.1609 77.3414 71.4117 79.2246C70.8445 79.8345 70.2325 80.4065 69.58 80.9366C68.4664 81.8699 67.2785 82.7227 66.0265 83.4875Z" fill="white" stroke="#115E59" stroke-width="0.855995" stroke-miterlimit="10"/>
<path d="M40.7491 57.4652C44.5224 56.0442 49.2756 56.6092 51.7392 59.9219C51.8217 60.0644 51.8482 60.2294 51.814 60.3883C51.7799 60.5471 51.6874 60.6898 51.5524 60.7915C51.4175 60.8932 51.2487 60.9475 51.0754 60.945C50.9021 60.9425 50.7351 60.8834 50.6036 60.7779C48.2499 58.2869 44.7788 58.3041 41.8023 59.7593C41.636 59.8406 41.4534 59.8888 41.2661 59.9008C41.0788 59.9127 40.8909 59.8882 40.7142 59.8287C40.5376 59.7692 40.3761 59.6761 40.2401 59.5552C40.104 59.4343 39.9962 59.2884 39.9237 59.1265C39.8511 58.9647 39.8153 58.7906 39.8185 58.6151C39.8217 58.4397 39.8639 58.2668 39.9424 58.1074C40.0208 57.948 40.1339 57.8055 40.2743 57.6891C40.4147 57.5726 40.5795 57.4847 40.7582 57.431L40.7491 57.4652Z" fill="#115E59"/>
<path d="M65.5594 62.6355C68.7374 59.5111 72.3184 55.4537 77.4013 55.2568C78.94 55.2568 81.6234 56.0272 80.7533 57.919C80.563 58.2928 80.222 58.581 79.805 58.7205C79.388 58.86 78.9288 58.8396 78.5278 58.6637C78.1365 58.4263 77.6943 58.2719 77.2323 58.2113C76.7703 58.1507 76.2997 58.1853 75.8536 58.3127C72.4558 59.1687 69.6716 61.6939 67.0339 63.9537C66.8406 64.1072 66.5932 64.1882 66.3397 64.1811C66.0862 64.1741 65.8444 64.0795 65.6612 63.9156C65.4779 63.7518 65.366 63.5302 65.3472 63.2938C65.3285 63.0574 65.4041 62.8229 65.5594 62.6355Z" fill="#115E59"/>
<path d="M79.1414 68.1482C75.0043 69.6689 71.4811 72.3631 69.0671 75.8522L67.3636 74.1402C70.8438 72.3512 74.8827 70.7162 79.004 71.1356C79.9199 71.2384 83.9404 71.9916 83.2352 73.1644C83.1513 73.3129 83.0084 73.4249 82.8372 73.4761C82.6659 73.5273 82.48 73.5137 82.3194 73.4383C80.0908 72.5482 77.5936 72.4387 75.2857 73.1301C72.912 73.8425 70.6649 74.8811 68.6183 76.2117C68.3634 76.3772 68.0523 76.4493 67.7442 76.4142C67.436 76.3791 67.1525 76.2393 66.9477 76.0213C66.7428 75.8034 66.6309 75.5226 66.6333 75.2325C66.6357 74.9424 66.7522 74.6633 66.9606 74.4483C68.4827 72.71 70.2839 71.2026 72.3 69.98C74.2848 68.7998 76.445 67.8999 78.711 67.3093C78.7723 67.2923 78.8366 67.2868 78.9003 67.293C78.9639 67.2993 79.0256 67.3173 79.0818 67.3459C79.1379 67.3746 79.1875 67.4133 79.2276 67.4599C79.2677 67.5065 79.2975 67.5601 79.3154 67.6175C79.3451 67.7255 79.3329 67.8398 79.2809 67.9401C79.2289 68.0404 79.1406 68.1202 79.0315 68.1653L79.1414 68.1482Z" fill="#115E59"/>
<path d="M78.7202 79.5246C77.7557 80.9081 76.4157 82.0276 74.837 82.7688C74.7884 82.7891 74.7332 82.7906 74.6834 82.7729C74.6336 82.7553 74.5934 82.72 74.5714 82.6747C74.5488 82.6326 74.5448 82.5839 74.5602 82.5391C74.5756 82.4943 74.6092 82.4569 74.6538 82.435C76.0673 81.6214 77.2216 80.4687 77.9966 79.0966C78.0234 79.0461 78.0613 79.0015 78.1077 78.9655C78.1541 78.9296 78.2081 78.9032 78.2662 78.888C78.3242 78.8728 78.3851 78.8691 78.4447 78.8773C78.5044 78.8855 78.5615 78.9053 78.6125 78.9354C78.6634 78.9655 78.707 79.0054 78.7405 79.0522C78.7739 79.0991 78.7964 79.1521 78.8066 79.2076C78.8167 79.2632 78.8143 79.3201 78.7994 79.3747C78.7845 79.4293 78.7575 79.4804 78.7202 79.5246Z" fill="#115E59"/>
<path d="M126.692 58.6206C126.756 59.4766 126.051 60.1015 124.65 60.4353C124.336 60.5002 124.03 60.5919 123.734 60.7092C120.904 61.8477 118.88 64.5099 119.109 66.5129V66.7868C119.103 67.7386 119.407 68.6696 119.981 69.4557C120.556 70.2418 121.373 70.8456 122.324 71.1866C122.67 71.3196 123.033 71.4116 123.404 71.4605C125.63 71.7687 127.452 70.9555 128.661 68.5074C129.074 67.7263 129.285 66.8654 129.277 65.9942C129.27 65.1229 129.043 64.2656 128.615 63.4912C128.615 63.4227 128.542 63.3457 128.496 63.2772C128.347 63.053 128.255 62.7996 128.228 62.5367C128.201 62.2739 128.24 62.0088 128.341 61.7621C127.608 61.8306 127.123 62.1901 127.15 63.1403C126.978 62.8428 126.899 62.5061 126.922 62.1687C126.944 61.8312 127.068 61.5065 127.278 61.2314C127.567 60.8115 127.667 60.3022 127.558 59.8137C127.448 59.3252 127.137 58.8966 126.692 58.6206Z" fill="#0D9488"/>
</svg>
