<svg width="150" height="150" viewBox="0 0 150 150" fill="none" xmlns="http://www.w3.org/2000/svg">
<path d="M40.9918 91.0811C38.4802 89.9053 36.1454 88.3839 34.0555 86.561C27.11 80.6905 23.5362 70.3733 22.939 62.1967C22.9717 62.1994 23.0042 62.1895 23.0298 62.169C23.0554 62.1485 23.0723 62.119 23.0768 62.0865C23.0811 62.0763 23.0833 62.0654 23.0833 62.0543C23.0833 62.0433 23.0811 62.0324 23.0768 62.0222C21.0239 59.5263 19.7295 56.4942 19.3468 53.2852C19.1355 50.1707 20.8627 46.5418 24.2987 46.3765C26.6323 47.8097 28.6167 50.1983 27.7715 53.0371C27.3029 55.0032 24.5835 56.0138 23.4903 53.9559C23.158 53.3491 22.943 52.6853 22.8563 51.999C22.2041 51.2824 22.8563 53.9926 23.0585 54.1947C23.2299 54.5603 23.4814 54.8827 23.7944 55.1379C24.1073 55.3931 24.4737 55.5746 24.8663 55.669C25.2589 55.7634 25.6677 55.7683 26.0625 55.6832C26.4572 55.5982 26.8278 55.4254 27.1467 55.1777C27.4491 54.9552 27.7102 54.6816 27.9185 54.3693C28.3328 54.5881 28.8032 54.6777 29.269 54.6265C29.7084 54.5729 30.1297 54.4189 30.5001 54.1763C30.6108 54.5389 30.7918 54.876 31.0329 55.1685C29.1955 55.5912 28.4513 57.8604 28.3962 59.606C28.3962 59.6791 28.4252 59.7492 28.4769 59.8008C28.5286 59.8525 28.5987 59.8816 28.6718 59.8816C28.7449 59.8816 28.815 59.8525 28.8667 59.8008C28.9184 59.7492 28.9474 59.6791 28.9474 59.606C29.0301 57.9339 29.5721 55.7841 31.4923 55.6095C31.9259 55.9346 32.4403 56.1347 32.9796 56.1882C33.5189 56.2416 34.0626 56.1464 34.5516 55.9127C34.6027 55.8945 34.6446 55.8566 34.6678 55.8075C34.6911 55.7584 34.6939 55.7021 34.6756 55.6509C34.6573 55.5997 34.6195 55.5579 34.5704 55.5347C34.5213 55.5114 34.4649 55.5086 34.4138 55.5269C33.9164 55.7289 33.3751 55.7985 32.8428 55.729C32.4583 55.6451 32.0955 55.4824 31.7771 55.2513C31.7642 55.2064 31.7379 55.1666 31.7018 55.137C31.6657 55.1075 31.6214 55.0896 31.5749 55.0859C31.2054 54.7469 30.9677 54.2879 30.9043 53.7905C30.9275 53.7283 30.9275 53.6598 30.9043 53.5976C30.8969 53.2094 30.9674 52.8236 31.1118 52.4632C31.2561 52.1028 31.4712 51.7749 31.7445 51.4991C32.0177 51.2233 32.3435 51.0051 32.7026 50.8574C33.0617 50.7097 33.4467 50.6355 33.835 50.6393C37.8222 50.4096 39.6505 53.2668 38.2081 56.8957C38.1693 57.0147 38.1169 57.1288 38.0519 57.2357C37.8485 57.6732 37.5824 58.0787 37.2618 58.4392C36.4407 59.7231 35.3419 60.8062 34.0463 61.6087C34.0313 61.6173 34.0185 61.6292 34.0089 61.6435C33.9993 61.6579 33.9932 61.6743 33.9912 61.6914C33.9872 61.709 33.9869 61.7272 33.9904 61.7449C33.9939 61.7626 34.0011 61.7793 34.0115 61.7941C34.0219 61.8088 34.0353 61.8212 34.0508 61.8304C34.0663 61.8396 34.0835 61.8455 34.1014 61.8476C34.6262 65.831 35.7505 69.7121 37.4363 73.3591C37.4363 73.8644 37.4363 74.3697 37.4363 74.8658C37.4363 75.0955 37.4363 75.316 37.4363 75.5365C37.4801 77.9588 37.8415 80.3649 38.5112 82.6933C38.6766 83.2353 38.842 83.7865 38.989 84.3286C39.0441 84.5123 39.09 84.7052 39.136 84.889C39.577 86.6223 40.0761 88.2882 40.6335 89.8868L40.9918 91.0811Z" fill="#14B8A6"/>
<path d="M32.613 50.3727C31.8285 50.6482 31.1739 51.2046 30.7756 51.9345C30.4973 52.4358 30.3697 53.0069 30.4081 53.579C30.1135 53.8463 29.7501 54.0258 29.3588 54.0972C28.9675 54.1686 28.564 54.1292 28.194 53.9833C28.6083 53.177 28.805 52.2767 28.7647 51.3712C28.7244 50.4657 28.4485 49.5863 27.9643 48.8201C27.1524 47.6438 26.0252 46.7203 24.7121 46.1558C25.9248 44.3184 28.341 44.2541 30.3071 44.9064C31.8781 46.1926 32.365 48.4067 32.613 50.3727Z" fill="#14B8A6"/>
<path d="M36.6738 50.5293C35.4505 50.0488 34.107 49.9653 32.8336 50.2904C32.7785 48.3243 32.4937 46.2021 31.1707 44.6403C34.9374 42.6375 37.6385 46.9003 36.6738 50.5293Z" fill="#14B8A6"/>
<path d="M115.242 85.5501C110.722 103.098 101.618 112.533 89.1048 115.868C89.057 115.853 89.0057 115.853 88.9578 115.868C70.3814 120.158 50.7761 111.467 42.4801 94.0942C42.4492 94.0271 42.4001 93.97 42.3384 93.9294C42.2766 93.8888 42.2048 93.8663 42.1309 93.8645C41.7267 92.9458 41.35 92.0271 40.9917 91.0624L40.5783 89.914C40.021 88.3155 39.5218 86.6495 39.0808 84.9162C38.8971 84.1812 38.6766 83.4463 38.4561 82.7205C37.7275 80.1755 37.3625 77.5402 37.372 74.893C37.372 74.3969 37.372 73.8916 37.372 73.3863C37.9875 58.0714 48.6906 39.3388 65.1999 28.3693C67.2804 27.0144 69.4646 25.8256 71.7319 24.8139C82.0124 20.1101 86.5324 14.2119 84.7134 7C93.2023 10.4176 96.3535 19.6231 93.432 27.6068C91.0893 34.3134 92.0172 39.495 95.398 43.5006C93.68 35.7099 96.9139 32.1085 102.463 30.464C101.618 34.2032 102.463 38.2271 105.972 42.6921C106.395 43.2341 106.808 43.767 107.194 44.3366C114.663 55.2877 120.157 68.3793 115.242 85.5501Z" fill="#14B8A6"/>
<path d="M89.1049 115.905C85.8895 116.748 82.5882 117.219 79.2654 117.31C76.3225 117.414 73.3777 117.17 70.4917 116.585C69.0677 116.291 67.7356 115.941 66.3667 115.546H66.2748C60.7686 113.958 55.6993 111.13 51.4559 107.278L51.0976 106.947C47.2681 103.248 44.2192 98.818 42.131 93.9199C42.2048 93.9217 42.2767 93.9442 42.3384 93.9848C42.4001 94.0254 42.4492 94.0825 42.4801 94.1496C50.7485 111.522 70.3815 120.214 88.9579 115.923C89.0039 115.902 89.0552 115.896 89.1049 115.905Z" fill="#14B8A6"/>
<path d="M115.858 103.851C120.672 105.532 122.059 107.618 120.69 110.016C119.147 112.294 116.841 113.553 113.423 113.323C111.347 113.195 109.397 112.278 107.975 110.76L107.911 110.695C106.586 109.209 105.768 107.34 105.575 105.359C105.381 103.377 105.823 101.385 106.836 99.6708C107.864 97.9849 109.466 96.7259 111.347 96.1246C117.925 93.2766 118.614 92.0455 121.205 89.2526L114.709 85.1552L116.372 75.1963C122.803 77.7411 127.241 80.7086 129.519 84.1538C130.51 85.7204 131.044 87.5327 131.06 89.3865C131.077 91.2403 130.575 93.0617 129.611 94.6455C126.919 99.3401 121.986 102.105 115.83 103.833" fill="#14B8A6"/>
<path d="M58.6679 109.703C56.7255 117.111 55.2405 124.631 54.2213 132.221C48.709 131.366 45.0341 132.882 44.6758 138.578C47.2207 142.97 61.7915 142.014 63.3809 138.836C64.7038 130.236 66.2656 121.499 68.4706 112.377L58.6679 109.703Z" fill="#14B8A6"/>
<path d="M94.8652 111.605L96.9047 132.092C102.821 133.388 104.521 135.905 103.519 139.222C103.198 143.163 93.2758 144.183 87.7451 139.598C86.1624 130.989 85.2684 122.267 85.0717 113.516L94.8652 111.605Z" fill="#14B8A6"/>
<path d="M59.1823 87.8564C61.9679 87.8564 64.226 83.5457 64.226 78.2282C64.226 72.9108 61.9679 68.6001 59.1823 68.6001C56.3967 68.6001 54.1385 72.9108 54.1385 78.2282C54.1385 83.5457 56.3967 87.8564 59.1823 87.8564Z" fill="#115E59"/>
<path d="M57.4092 78.6142C58.5762 78.6142 59.5222 76.8085 59.5222 74.581C59.5222 72.3536 58.5762 70.5479 57.4092 70.5479C56.2422 70.5479 55.2961 72.3536 55.2961 74.581C55.2961 76.8085 56.2422 78.6142 57.4092 78.6142Z" fill="white"/>
<path d="M82.8851 83.4466C79.419 87.4444 74.6523 90.0896 69.426 90.9157C69.0478 90.9713 68.7026 91.162 68.4543 91.4525C68.206 91.7431 68.0714 92.1137 68.0755 92.4959C68.149 94.6273 70.9235 96.0789 74.1298 96.575C76.578 96.9232 79.0747 96.5729 81.3325 95.5644C85.7883 93.6535 88.7741 90.3829 89.2151 84.7604C89.3075 83.9441 89.1019 83.1219 88.6363 82.4452C88.2943 81.9773 87.8033 81.6397 87.244 81.4877C86.6847 81.3358 86.0904 81.3787 85.5586 81.6092C84.518 81.9691 83.5941 82.6041 82.8851 83.4466Z" fill="#115E59" stroke="#115E59" stroke-width="0.918715" stroke-linecap="round" stroke-linejoin="round"/>
<path d="M76.9319 88.4992C73.4775 90.6582 73.5051 93.9564 75.4436 95.6009C75.9547 96.0046 76.5596 96.2727 77.202 96.3803C77.8444 96.4879 78.5036 96.4316 79.1184 96.2164C84.8053 94.379 89.6469 91.3564 89.454 84.3834C89.4548 83.8312 89.3143 83.288 89.0457 82.8055C88.7771 82.3231 88.3895 81.9174 87.9197 81.6272C86.1374 80.6166 84.0887 81.9028 82.3339 83.924C81.7626 84.5763 81.1488 85.1901 80.4965 85.7614C79.3795 86.7631 78.1878 87.6784 76.9319 88.4992Z" fill="white" stroke="#115E59" stroke-width="0.918715" stroke-miterlimit="10"/>
<path d="M112.514 107.204C114.516 107.25 115.426 105.762 115.27 103.906C115.266 103.848 115.274 103.79 115.294 103.735C115.315 103.68 115.346 103.63 115.387 103.589C115.428 103.547 115.477 103.515 115.531 103.493C115.585 103.472 115.643 103.462 115.702 103.465C121.646 104.705 124.374 109.189 118.118 112.652C116.771 113.356 115.267 113.704 113.748 113.666C112.229 113.627 110.745 113.203 109.436 112.432C105.697 110.006 103.712 104.099 107.543 100.874C107.571 100.846 107.609 100.831 107.649 100.831C107.689 100.831 107.727 100.846 107.755 100.874C107.783 100.902 107.799 100.94 107.799 100.98C107.799 101.02 107.783 101.058 107.755 101.086C106.685 102.052 106.003 103.375 105.835 104.806C105.754 106.238 106.109 107.66 106.854 108.885C108.802 112.928 114.011 114.186 117.824 112.073C123.382 108.885 120.773 105.376 115.591 104.301C115.591 104.301 116.133 103.86 116.124 103.888C116.124 106.038 114.847 107.829 112.514 107.563C112.471 107.553 112.432 107.529 112.405 107.495C112.378 107.461 112.363 107.418 112.363 107.374C112.363 107.33 112.378 107.288 112.405 107.253C112.432 107.219 112.471 107.195 112.514 107.186V107.204Z" fill="#0D9488"/>
<path d="M56.4537 134.031C53.4495 132.074 48.6446 130.981 46.21 134.334C45.4728 135.388 44.9915 136.599 44.8044 137.872C44.8044 137.982 44.6207 137.954 44.639 137.872C45.3924 131.018 51.7775 130.283 56.8947 133.278C56.9506 133.303 57.0006 133.339 57.0413 133.385C57.0821 133.43 57.1127 133.484 57.1312 133.542C57.1496 133.601 57.1554 133.662 57.1483 133.723C57.1411 133.784 57.1212 133.842 57.0897 133.895C57.0583 133.947 57.016 133.992 56.9658 134.027C56.9155 134.062 56.8585 134.086 56.7983 134.097C56.7382 134.108 56.6764 134.107 56.617 134.092C56.5576 134.077 56.5019 134.051 56.4537 134.013V134.031Z" fill="#0D9488"/>
<path d="M92.2193 132.616C96.5464 131.367 104.208 132.276 103.758 138.193L103.575 139.167C103.568 139.202 103.548 139.233 103.519 139.253C103.49 139.274 103.454 139.282 103.418 139.277C103.4 139.273 103.383 139.265 103.367 139.253C103.352 139.242 103.339 139.228 103.33 139.212C103.32 139.195 103.314 139.177 103.312 139.158C103.31 139.139 103.312 139.12 103.317 139.102L103.446 138.184C103.804 134.297 99.4404 132.625 96.1697 132.864C94.9063 132.907 93.6532 133.107 92.4398 133.461C92.3361 133.475 92.2313 133.45 92.1446 133.391C92.0579 133.333 91.9954 133.245 91.9684 133.144C91.9415 133.043 91.9521 132.936 91.9982 132.842C92.0443 132.749 92.1229 132.675 92.2193 132.635V132.616Z" fill="#0D9488"/>
<path d="M51.5753 60.5705C55.3604 59.0454 60.1286 59.6518 62.5999 63.2072C62.6826 63.3602 62.7092 63.5373 62.6749 63.7078C62.6407 63.8782 62.5478 64.0313 62.4125 64.1405C62.2771 64.2497 62.1078 64.308 61.934 64.3053C61.7601 64.3026 61.5927 64.2392 61.4607 64.1259C59.0996 61.4525 55.6177 61.4708 52.6227 63.0418C52.4559 63.123 52.2743 63.1691 52.089 63.1775C51.9037 63.1858 51.7187 63.1561 51.5453 63.0903C51.372 63.0245 51.2139 62.9239 51.0808 62.7947C50.9477 62.6655 50.8425 62.5105 50.7716 62.3392C50.7006 62.1678 50.6655 61.9837 50.6684 61.7983C50.6712 61.6129 50.712 61.43 50.7881 61.2609C50.8642 61.0918 50.9742 60.94 51.1111 60.815C51.2481 60.6899 51.4092 60.5942 51.5845 60.5338L51.5753 60.5705Z" fill="#115E59"/>
<path d="M76.4634 66.1195C79.6513 62.7662 83.2435 58.4115 88.3423 58.2002C89.8766 58.2002 92.5684 59.027 91.7048 61.0574C91.5139 61.4586 91.1718 61.7679 90.7535 61.9176C90.3352 62.0674 89.8746 62.0455 89.4724 61.8567C89.0774 61.6035 88.6323 61.4387 88.1677 61.3736C87.703 61.3086 87.2298 61.3449 86.7805 61.48C83.3813 62.3987 80.5884 65.1089 77.9425 67.5343C77.7485 67.699 77.5004 67.7859 77.2461 67.7784C76.9918 67.7708 76.7493 67.6693 76.5654 67.4934C76.3815 67.3176 76.2694 67.0798 76.2505 66.8261C76.2317 66.5723 76.3075 66.3206 76.4634 66.1195Z" fill="#115E59"/>
<path d="M90.0879 72.0358C85.9385 73.669 82.4045 76.5604 79.982 80.3042L78.2824 78.4668C81.7735 76.5467 85.8251 74.7919 89.9593 75.2421C90.878 75.3523 94.9112 76.1608 94.1946 77.4194C94.1538 77.4993 94.0976 77.5702 94.0292 77.6283C93.9609 77.6863 93.8818 77.7303 93.7964 77.7576C93.711 77.7849 93.621 77.7951 93.5317 77.7875C93.4424 77.7799 93.3554 77.7547 93.2758 77.7134C91.043 76.7603 88.5416 76.643 86.2293 77.3827C83.8475 78.1455 81.5931 79.2603 79.5411 80.6901C79.2851 80.8502 78.9808 80.9145 78.6819 80.8715C78.3831 80.8285 78.1092 80.6811 77.9088 80.4553C77.7084 80.2295 77.5944 79.9401 77.5871 79.6383C77.5798 79.3365 77.6797 79.0419 77.869 78.8067C79.4011 76.94 81.2106 75.3195 83.2343 74.0018C85.2246 72.7339 87.3918 71.768 89.6653 71.1354C89.7268 71.1171 89.7914 71.1112 89.8552 71.1179C89.919 71.1247 89.9809 71.1439 90.0373 71.1747C90.0936 71.2054 90.1433 71.247 90.1836 71.297C90.2238 71.3471 90.2537 71.4045 90.2717 71.4662C90.3034 71.5821 90.2921 71.7055 90.2397 71.8137C90.1873 71.9218 90.0975 72.0072 89.9869 72.0541L90.0879 72.0358Z" fill="#115E59"/>
<path d="M89.6652 84.2365C88.7054 85.7235 87.3674 86.9284 85.7883 87.7276C85.7648 87.7382 85.7394 87.744 85.7137 87.7447C85.6879 87.7453 85.6623 87.7408 85.6383 87.7314C85.6143 87.722 85.5925 87.7078 85.5741 87.6898C85.5556 87.6718 85.541 87.6503 85.531 87.6266C85.5084 87.5814 85.5044 87.5292 85.5198 87.4811C85.5353 87.433 85.569 87.3928 85.6137 87.3693C87.0293 86.4934 88.1867 85.2568 88.967 83.7864C88.9939 83.7322 89.0319 83.6842 89.0784 83.6456C89.125 83.6071 89.1792 83.5787 89.2374 83.5624C89.2956 83.5461 89.3567 83.5422 89.4165 83.551C89.4763 83.5597 89.5337 83.581 89.5848 83.6133C89.6359 83.6457 89.6796 83.6884 89.7132 83.7387C89.7467 83.789 89.7693 83.8459 89.7795 83.9055C89.7897 83.9651 89.7872 84.0262 89.7723 84.0848C89.7574 84.1434 89.7303 84.1982 89.6928 84.2457L89.6652 84.2365Z" fill="#115E59"/>
<path d="M37.4639 50.8965C37.7494 49.7609 37.7963 48.5785 37.6017 47.4238C37.1148 45.274 35.3784 43.2069 33.0081 43.2436C32.0813 43.3102 31.1837 43.5968 30.3898 44.0797C29.2891 43.7871 28.1367 43.7462 27.0181 43.9602C26.4309 44.0957 25.8802 44.3573 25.4043 44.727C24.9283 45.0966 24.5385 45.5654 24.262 46.1008C23.442 46.1503 22.645 46.3913 21.935 46.8046C21.225 47.2178 20.6217 47.7917 20.1737 48.4803C17.7575 52.6513 19.1815 58.1819 22.3786 61.5996C22.4261 61.641 22.4692 61.6872 22.5072 61.7374L22.9115 62.16H22.9666C22.9993 62.1626 23.0318 62.1527 23.0574 62.1322C23.083 62.1117 23.0998 62.0822 23.1044 62.0497C23.1087 62.0396 23.1109 62.0286 23.1109 62.0176C23.1109 62.0065 23.1087 61.9956 23.1044 61.9854C21.0515 59.4895 19.757 56.4574 19.3744 53.2484C19.1631 50.134 20.8903 46.5051 24.3263 46.3397C26.6598 47.7729 28.6442 50.1616 27.799 53.0004C27.3305 54.9664 24.6111 55.977 23.5178 53.9191C23.1856 53.3124 22.9705 52.6485 22.8839 51.9622C22.2316 51.2456 22.8839 53.9559 23.086 54.158C23.2575 54.5236 23.509 54.8459 23.8219 55.1011C24.1349 55.3563 24.5012 55.5379 24.8938 55.6323C25.2865 55.7267 25.6953 55.7315 26.09 55.6465C26.4848 55.5615 26.8554 55.3887 27.1743 55.141C27.4766 54.9185 27.7378 54.6449 27.946 54.3325C28.3603 54.5514 28.8308 54.641 29.2965 54.5898C29.736 54.5362 30.1572 54.3821 30.5276 54.1396C30.6383 54.5021 30.8194 54.8393 31.0605 55.1318C29.223 55.5544 28.4789 57.8236 28.4237 59.5692C28.4237 59.6423 28.4528 59.7124 28.5045 59.7641C28.5562 59.8158 28.6263 59.8448 28.6994 59.8448C28.7725 59.8448 28.8426 59.8158 28.8942 59.7641C28.9459 59.7124 28.975 59.6423 28.975 59.5692C29.0577 57.8971 29.5997 55.7473 31.5198 55.5728C31.9534 55.8979 32.4678 56.098 33.0072 56.1514C33.5465 56.2049 34.0901 56.1096 34.5791 55.876C34.6303 55.8577 34.6721 55.8199 34.6954 55.7708C34.7186 55.7217 34.7214 55.6653 34.7032 55.6141C34.6849 55.563 34.647 55.5212 34.5979 55.4979C34.5488 55.4746 34.4925 55.4718 34.4413 55.4901C33.9439 55.6921 33.4027 55.7618 32.8703 55.6922C32.4859 55.6083 32.123 55.4457 31.8046 55.2145C31.7917 55.1697 31.7654 55.1298 31.7293 55.1003C31.6932 55.0707 31.649 55.0529 31.6025 55.0491C31.2329 54.7101 30.9953 54.2512 30.9318 53.7537C30.9551 53.6915 30.9551 53.623 30.9318 53.5608C30.9244 53.1726 30.995 52.7869 31.1393 52.4264C31.2836 52.066 31.4988 51.7382 31.772 51.4623C32.0453 51.1865 32.3711 50.9683 32.7302 50.8206C33.0892 50.6729 33.4743 50.5988 33.8625 50.6026C37.8498 50.3729 39.678 53.2301 38.2356 56.859C38.1969 56.978 38.1445 57.092 38.0794 57.1989C37.8761 57.6364 37.6099 58.0419 37.2894 58.4024C36.4683 59.6863 35.3694 60.7695 34.0739 61.572C34.0588 61.5805 34.046 61.5924 34.0364 61.6068C34.0269 61.6211 34.0208 61.6376 34.0187 61.6547C34.0147 61.6723 34.0145 61.6905 34.018 61.7082C34.0215 61.7258 34.0287 61.7426 34.0391 61.7573C34.0495 61.772 34.0628 61.7844 34.0783 61.7937C34.0938 61.8029 34.1111 61.8087 34.129 61.8109L35.0017 61.2229C35.6846 60.8439 36.3278 60.3976 36.9219 59.8908H36.9678C37.842 59.1517 38.5152 58.2036 38.9247 57.1346C39.7239 55.0951 39.5678 52.1827 37.4639 50.8965ZM30.7481 51.9347C30.4698 52.436 30.3422 53.0071 30.3806 53.5792C30.086 53.8464 29.7225 54.0259 29.3313 54.0974C28.94 54.1688 28.5365 54.1293 28.1665 53.9834C28.5807 53.1772 28.7774 52.2768 28.7372 51.3713C28.6969 50.4658 28.421 49.5865 27.9368 48.8203C27.1249 47.6439 25.9977 46.7205 24.6846 46.156C25.8973 44.3185 28.3135 44.2542 30.2796 44.9065C31.8781 46.1927 32.365 48.3976 32.6131 50.3729C31.8183 50.6425 31.1531 51.1996 30.7481 51.9347ZM36.6738 50.529C35.4505 50.0486 34.107 49.9651 32.8336 50.2902C32.7785 48.3241 32.4937 46.2019 31.1707 44.6401C34.9374 42.6373 37.6385 46.9001 36.6738 50.529Z" fill="#0D9488"/>
<path d="M85.1268 117.117C71.3001 119.579 56.417 114.223 47.634 103.208C44.6796 99.6057 42.4237 95.4835 40.9825 91.0532C44.0848 99.8262 50.2305 107.196 58.3037 111.823C66.3768 116.45 75.8419 118.029 84.9798 116.272C85.0856 116.266 85.1899 116.299 85.2729 116.365C85.3559 116.431 85.4118 116.525 85.43 116.629C85.4481 116.733 85.4273 116.841 85.3714 116.931C85.3155 117.021 85.2284 117.087 85.1268 117.117Z" fill="#0D9488"/>
</svg>
