<svg width="123" height="148" viewBox="0 0 123 148" fill="none" xmlns="http://www.w3.org/2000/svg">
<path d="M23.9819 91.5204C21.2481 90.2405 18.7068 88.5845 16.4319 86.6003C8.87193 80.2103 4.98192 68.9804 4.33192 60.0804C4.36751 60.0833 4.40287 60.0724 4.43075 60.0501C4.45864 60.0278 4.47695 59.9957 4.48193 59.9604C4.48661 59.9493 4.48901 59.9374 4.48901 59.9254C4.48901 59.9133 4.48661 59.9014 4.48193 59.8904C2.24737 57.1736 0.838384 53.8733 0.42192 50.3803C0.19192 46.9903 2.07193 43.0404 5.81193 42.8604C8.35193 44.4204 10.5119 47.0204 9.59193 50.1104C9.08193 52.2504 6.12193 53.3504 4.93193 51.1104C4.57032 50.4499 4.33624 49.7274 4.24193 48.9803C3.53193 48.2003 4.24193 51.1503 4.46193 51.3703C4.64855 51.7683 4.92232 52.1192 5.26295 52.3969C5.60358 52.6747 6.00234 52.8723 6.4297 52.9751C6.85706 53.0779 7.30207 53.0831 7.73175 52.9906C8.16143 52.898 8.56478 52.7099 8.91193 52.4403C9.24101 52.1981 9.52528 51.9003 9.75192 51.5603C10.2029 51.7986 10.7149 51.8961 11.2219 51.8403C11.7003 51.782 12.1588 51.6143 12.5619 51.3503C12.6824 51.745 12.8795 52.1119 13.1419 52.4303C11.1419 52.8903 10.3319 55.3603 10.2719 57.2603C10.2719 57.3399 10.3035 57.4162 10.3598 57.4725C10.4161 57.5287 10.4924 57.5603 10.5719 57.5603C10.6515 57.5603 10.7278 57.5287 10.7841 57.4725C10.8403 57.4162 10.8719 57.3399 10.8719 57.2603C10.9619 55.4403 11.5519 53.1003 13.6419 52.9103C14.1139 53.2642 14.6738 53.482 15.2609 53.5402C15.8479 53.5984 16.4397 53.4947 16.9719 53.2404C17.0276 53.2205 17.0731 53.1792 17.0984 53.1258C17.1238 53.0723 17.1268 53.011 17.1069 52.9554C17.087 52.8997 17.0458 52.8541 16.9924 52.8288C16.9389 52.8035 16.8776 52.8005 16.8219 52.8203C16.2805 53.0403 15.6914 53.1161 15.1119 53.0403C14.6935 52.949 14.2985 52.772 13.9519 52.5204C13.9379 52.4716 13.9093 52.4282 13.87 52.396C13.8307 52.3639 13.7825 52.3444 13.7319 52.3403C13.3296 51.9713 13.071 51.4718 13.0019 50.9303C13.0272 50.8626 13.0272 50.7881 13.0019 50.7203C12.9939 50.2978 13.0707 49.878 13.2278 49.4856C13.3849 49.0933 13.619 48.7364 13.9165 48.4362C14.2139 48.136 14.5685 47.8985 14.9594 47.7377C15.3502 47.577 15.7693 47.4962 16.1919 47.5003C20.5319 47.2503 22.5219 50.3603 20.9519 54.3103C20.9098 54.4398 20.8527 54.564 20.7819 54.6803C20.5606 55.1566 20.2709 55.5979 19.9219 55.9904C19.0282 57.3879 17.8321 58.5668 16.4219 59.4403C16.4056 59.4496 16.3916 59.4626 16.3812 59.4782C16.3708 59.4938 16.3642 59.5117 16.3619 59.5303C16.3576 59.5495 16.3573 59.5693 16.3611 59.5886C16.3649 59.6078 16.3728 59.626 16.3841 59.6421C16.3954 59.6581 16.4099 59.6716 16.4268 59.6816C16.4437 59.6917 16.4625 59.698 16.4819 59.7003C17.0531 64.0362 18.277 68.2606 20.1119 72.2303C20.1119 72.7803 20.1119 73.3303 20.1119 73.8703C20.1119 74.1203 20.1119 74.3603 20.1119 74.6003C20.1596 77.237 20.5529 79.856 21.2819 82.3904C21.4619 82.9804 21.6419 83.5803 21.8019 84.1703C21.8619 84.3703 21.9119 84.5803 21.9619 84.7803C22.4419 86.667 22.9853 88.4803 23.5919 90.2203L23.9819 91.5204Z" fill="#14B8A6"/>
<path d="M14.8619 47.21C14.008 47.5099 13.2954 48.1155 12.8619 48.91C12.5589 49.4557 12.42 50.0772 12.4619 50.7C12.1413 50.9909 11.7456 51.1863 11.3197 51.264C10.8938 51.3418 10.4546 51.2988 10.0519 51.14C10.5028 50.2624 10.7169 49.2824 10.673 48.2968C10.6292 47.3112 10.3289 46.354 9.8019 45.52C8.91816 44.2396 7.69119 43.2344 6.2619 42.62C7.5819 40.62 10.2119 40.55 12.3519 41.26C14.0619 42.66 14.5919 45.07 14.8619 47.21Z" fill="#14B8A6"/>
<path d="M19.2819 47.3803C17.9503 46.8574 16.488 46.7665 15.1019 47.1203C15.0419 44.9803 14.7319 42.6703 13.2919 40.9703C17.3919 38.7903 20.3319 43.4303 19.2819 47.3803Z" fill="#14B8A6"/>
<path d="M104.802 85.5C99.8819 104.6 89.9719 114.87 76.3519 118.5C76.2998 118.484 76.244 118.484 76.1919 118.5C55.9719 123.17 34.6319 113.71 25.6019 94.8C25.5683 94.727 25.5149 94.6648 25.4477 94.6206C25.3805 94.5764 25.3023 94.552 25.2219 94.55C24.7819 93.55 24.3719 92.55 23.9819 91.5L23.5319 90.25C22.9253 88.51 22.3819 86.6967 21.9019 84.81C21.7019 84.01 21.4619 83.21 21.2219 82.42C20.4289 79.6498 20.0316 76.7814 20.0419 73.9C20.0419 73.36 20.0419 72.81 20.0419 72.26C20.7119 55.59 32.3619 35.2 50.3319 23.26C52.5966 21.7852 54.9739 20.4912 57.4419 19.39C68.6319 14.27 73.5519 7.85 71.5719 0C80.8119 3.72 84.2419 13.74 81.0619 22.43C78.5119 29.73 79.5219 35.37 83.2019 39.73C81.3319 31.25 84.8519 27.33 90.8919 25.54C89.9719 29.61 90.8919 33.99 94.7119 38.85C95.1719 39.44 95.6219 40.02 96.0419 40.64C104.172 52.56 110.152 66.81 104.802 85.5Z" fill="#14B8A6"/>
<path d="M76.3519 118.54C72.8521 119.458 69.2586 119.971 65.6419 120.07C62.4386 120.183 59.2332 119.918 56.0919 119.28C54.5419 118.96 53.0919 118.58 51.6019 118.15H51.5019C45.5085 116.422 39.9907 113.343 35.3719 109.15L34.9819 108.79C30.8136 104.763 27.4949 99.9418 25.2219 94.6104C25.3023 94.6123 25.3805 94.6368 25.4477 94.681C25.5149 94.7252 25.5683 94.7873 25.6019 94.8604C34.6019 113.77 55.9719 123.23 76.1919 118.56C76.242 118.538 76.2978 118.531 76.3519 118.54Z" fill="#14B8A6"/>
<path d="M105.472 105.42C110.712 107.25 112.222 109.52 110.732 112.13C109.052 114.61 106.542 115.98 102.822 115.73C100.562 115.591 98.4399 114.593 96.8919 112.94L96.8219 112.87C95.3797 111.252 94.4891 109.218 94.2788 107.061C94.0685 104.904 94.5494 102.736 95.6519 100.87C96.7713 99.0348 98.5144 97.6645 100.562 97.01C107.722 93.91 108.472 92.57 111.292 89.53L104.222 85.07L106.032 74.23C113.032 77 117.862 80.23 120.342 83.98C121.421 85.6852 122.002 87.6579 122.02 89.6757C122.037 91.6935 121.491 93.6761 120.442 95.4C117.512 100.51 112.142 103.52 105.442 105.4" fill="#14B8A6"/>
<path d="M43.2219 111.79C41.1077 119.853 39.4913 128.039 38.3819 136.3C32.3819 135.37 28.3819 137.02 27.9919 143.22C30.7619 148 46.6219 146.96 48.3519 143.5C49.7919 134.14 51.4919 124.63 53.8919 114.7L43.2219 111.79Z" fill="#14B8A6"/>
<path d="M82.6219 113.86L84.8419 136.16C91.2819 137.57 93.1319 140.31 92.0419 143.92C91.6919 148.21 80.8919 149.32 74.8719 144.33C73.1492 134.959 72.1761 125.466 71.9619 115.94L82.6219 113.86Z" fill="#14B8A6"/>
<path d="M43.7819 88.0103C46.814 88.0103 49.2719 83.3182 49.2719 77.5303C49.2719 71.7424 46.814 67.0503 43.7819 67.0503C40.7499 67.0503 38.2919 71.7424 38.2919 77.5303C38.2919 83.3182 40.7499 88.0103 43.7819 88.0103Z" fill="#115E59"/>
<path d="M41.8519 77.9504C43.1222 77.9504 44.1519 75.985 44.1519 73.5604C44.1519 71.1359 43.1222 69.1704 41.8519 69.1704C40.5817 69.1704 39.5519 71.1359 39.5519 73.5604C39.5519 75.985 40.5817 77.9504 41.8519 77.9504Z" fill="white"/>
<path d="M69.5819 83.2103C65.8091 87.5618 60.6207 90.4411 54.932 91.3403C54.5204 91.4008 54.1446 91.6084 53.8743 91.9246C53.604 92.2409 53.4575 92.6443 53.4619 93.0603C53.5419 95.3803 56.5619 96.9603 60.0519 97.5003C62.7167 97.8793 65.4344 97.498 67.8919 96.4003C72.7419 94.3203 75.9919 90.7603 76.4719 84.6403C76.5725 83.7519 76.3488 82.8569 75.842 82.1203C75.4697 81.611 74.9352 81.2435 74.3264 81.0782C73.7177 80.9128 73.0707 80.9594 72.4919 81.2103C71.3592 81.6021 70.3537 82.2933 69.5819 83.2103Z" fill="#115E59" stroke="#115E59" stroke-linecap="round" stroke-linejoin="round"/>
<path d="M63.1019 88.7102C59.3419 91.0602 59.3719 94.6502 61.4819 96.4402C62.0383 96.8796 62.6967 97.1715 63.3959 97.2886C64.0952 97.4057 64.8127 97.3444 65.4819 97.1102C71.6719 95.1102 76.9419 91.8202 76.7319 84.2302C76.7328 83.6292 76.5798 83.0379 76.2875 82.5127C75.9952 81.9876 75.5732 81.5461 75.0619 81.2302C73.1219 80.1302 70.8919 81.5302 68.9819 83.7302C68.36 84.4401 67.6919 85.1083 66.9819 85.7302C65.7661 86.8205 64.469 87.8167 63.1019 88.7102Z" fill="white" stroke="#115E59" stroke-miterlimit="10"/>
<path d="M101.832 109.07C104.012 109.12 105.002 107.5 104.832 105.48C104.828 105.417 104.837 105.353 104.859 105.294C104.881 105.234 104.915 105.18 104.959 105.135C105.004 105.089 105.057 105.054 105.116 105.031C105.175 105.007 105.239 104.997 105.302 105C111.772 106.35 114.742 111.23 107.932 115C106.466 115.766 104.829 116.145 103.176 116.103C101.523 116.061 99.9071 115.599 98.4819 114.76C94.4119 112.12 92.2519 105.69 96.4219 102.18C96.4524 102.149 96.4938 102.132 96.5369 102.132C96.5801 102.132 96.6214 102.149 96.6519 102.18C96.6824 102.21 96.6996 102.252 96.6996 102.295C96.6996 102.338 96.6824 102.379 96.6519 102.41C95.4878 103.462 94.7452 104.901 94.5619 106.46C94.474 108.018 94.861 109.566 95.6719 110.9C97.7919 115.3 103.462 116.67 107.612 114.37C113.662 110.9 110.822 107.08 105.182 105.91C105.182 105.91 105.772 105.43 105.762 105.46C105.762 107.8 104.372 109.75 101.832 109.46C101.785 109.45 101.744 109.424 101.714 109.386C101.684 109.349 101.667 109.303 101.667 109.255C101.667 109.207 101.684 109.161 101.714 109.124C101.744 109.086 101.785 109.06 101.832 109.05V109.07Z" fill="#0D9488"/>
<path d="M40.8119 138.27C37.5419 136.14 32.3119 134.95 29.6619 138.6C28.8594 139.747 28.3356 141.066 28.1319 142.45C28.1319 142.57 27.9319 142.54 27.9519 142.45C28.7719 134.99 35.7219 134.19 41.2919 137.45C41.3527 137.477 41.4072 137.517 41.4515 137.567C41.4959 137.616 41.5292 137.675 41.5493 137.738C41.5694 137.802 41.5757 137.869 41.5679 137.935C41.5602 138.001 41.5384 138.065 41.5042 138.122C41.4699 138.179 41.4239 138.228 41.3693 138.266C41.3146 138.304 41.2525 138.33 41.187 138.342C41.1216 138.354 41.0543 138.352 40.9896 138.336C40.9249 138.321 40.8644 138.291 40.8119 138.25V138.27Z" fill="#0D9488"/>
<path d="M79.7419 136.73C84.4519 135.37 92.7919 136.36 92.3019 142.8L92.1019 143.86C92.0946 143.898 92.0728 143.932 92.0411 143.954C92.0094 143.977 91.9703 143.986 91.9319 143.98C91.9118 143.976 91.8929 143.967 91.8763 143.955C91.8598 143.942 91.8459 143.927 91.8356 143.909C91.8252 143.891 91.8187 143.872 91.8163 143.851C91.814 143.831 91.8159 143.81 91.8219 143.79L91.9619 142.79C92.3519 138.56 87.6019 136.74 84.0419 137C82.6667 137.046 81.3027 137.265 79.9819 137.65C79.8691 137.664 79.755 137.637 79.6606 137.574C79.5663 137.51 79.4982 137.415 79.4689 137.305C79.4396 137.195 79.4511 137.078 79.5013 136.976C79.5515 136.874 79.637 136.794 79.7419 136.75V136.73Z" fill="#0D9488"/>
<path d="M35.5019 58.3103C39.6219 56.6503 44.8119 57.3103 47.5019 61.1803C47.5919 61.3468 47.6208 61.5396 47.5836 61.7251C47.5463 61.9107 47.4452 62.0774 47.2979 62.1962C47.1506 62.315 46.9663 62.3784 46.777 62.3756C46.5878 62.3727 46.4055 62.3036 46.2619 62.1803C43.6919 59.2703 39.9019 59.2903 36.6419 61.0003C36.4604 61.0886 36.2627 61.1389 36.061 61.1479C35.8594 61.157 35.658 61.1247 35.4693 61.0531C35.2805 60.9814 35.1085 60.8719 34.9636 60.7313C34.8188 60.5907 34.7042 60.422 34.627 60.2354C34.5498 60.0489 34.5116 59.8486 34.5147 59.6467C34.5178 59.4449 34.5621 59.2458 34.645 59.0618C34.7279 58.8777 34.8476 58.7125 34.9966 58.5764C35.1457 58.4403 35.3211 58.3362 35.5119 58.2703L35.5019 58.3103Z" fill="#115E59"/>
<path d="M62.5919 64.35C66.0619 60.7 69.9719 55.96 75.5219 55.73C77.1919 55.73 80.1219 56.63 79.1819 58.84C78.9741 59.2767 78.6018 59.6133 78.1464 59.7763C77.6911 59.9394 77.1897 59.9155 76.7519 59.71C76.322 59.4344 75.8376 59.255 75.3318 59.1842C74.8261 59.1134 74.311 59.1529 73.8219 59.3C70.1219 60.3 67.0819 63.25 64.2019 65.89C63.9908 66.0692 63.7207 66.1638 63.4439 66.1556C63.1671 66.1474 62.9031 66.0369 62.703 65.8455C62.5029 65.654 62.3808 65.3952 62.3603 65.119C62.3397 64.8429 62.4223 64.5689 62.5919 64.35Z" fill="#115E59"/>
<path d="M77.4219 70.7901C72.9054 72.5678 69.0588 75.715 66.4219 79.7901L64.5719 77.7901C68.3719 75.7001 72.7819 73.7901 77.2819 74.2801C78.2819 74.4001 82.6719 75.2801 81.8919 76.6501C81.8475 76.737 81.7864 76.8142 81.712 76.8774C81.6376 76.9405 81.5515 76.9884 81.4585 77.0181C81.3656 77.0479 81.2677 77.0589 81.1704 77.0507C81.0732 77.0424 80.9785 77.015 80.8919 76.9701C78.4615 75.9327 75.7388 75.8049 73.2219 76.6101C70.6293 77.4404 68.1755 78.6538 65.9419 80.2101C65.6634 80.3844 65.3321 80.4543 65.0068 80.4075C64.6816 80.3608 64.3834 80.2003 64.1652 79.9545C63.9471 79.7088 63.823 79.3937 63.8151 79.0652C63.8072 78.7367 63.9159 78.416 64.1219 78.1601C65.7896 76.1282 67.7592 74.3644 69.9619 72.9301C72.1283 71.55 74.4873 70.4986 76.9619 69.8101C77.0289 69.7901 77.0992 69.7837 77.1686 69.791C77.2381 69.7983 77.3055 69.8193 77.3668 69.8528C77.4282 69.8862 77.4823 69.9315 77.5261 69.986C77.5698 70.0404 77.6024 70.103 77.6219 70.1701C77.6565 70.2962 77.6442 70.4306 77.5872 70.5483C77.5301 70.666 77.4324 70.759 77.3119 70.8101L77.4219 70.7901Z" fill="#115E59"/>
<path d="M76.9619 84.07C75.9172 85.6886 74.4607 87.0001 72.7419 87.87C72.7164 87.8816 72.6888 87.8879 72.6607 87.8886C72.6327 87.8893 72.6048 87.8844 72.5787 87.8741C72.5526 87.8639 72.5288 87.8485 72.5088 87.8289C72.4887 87.8093 72.4728 87.7859 72.4619 87.76C72.4373 87.7109 72.4329 87.654 72.4497 87.6017C72.4665 87.5493 72.5032 87.5056 72.5519 87.48C74.0928 86.5266 75.3525 85.1806 76.2019 83.58C76.2312 83.5211 76.2725 83.4689 76.3232 83.4269C76.3739 83.3849 76.4328 83.354 76.4962 83.3363C76.5596 83.3185 76.626 83.3143 76.6912 83.3238C76.7563 83.3334 76.8187 83.3565 76.8743 83.3917C76.93 83.4269 76.9776 83.4734 77.0141 83.5282C77.0506 83.583 77.0752 83.6448 77.0863 83.7097C77.0973 83.7746 77.0947 83.8411 77.0784 83.9049C77.0622 83.9687 77.0327 84.0284 76.9919 84.08L76.9619 84.07Z" fill="#115E59"/>
<path d="M20.1419 47.7802C20.4526 46.5441 20.5037 45.257 20.2919 44.0002C19.7619 41.6602 17.8719 39.4102 15.2919 39.4502C14.2831 39.5226 13.306 39.8346 12.4419 40.3602C11.2439 40.0417 9.98947 39.9973 8.77191 40.2302C8.13274 40.3777 7.53333 40.6624 7.01527 41.0648C6.49722 41.4672 6.07294 41.9774 5.77191 42.5602C4.87934 42.6141 4.01183 42.8764 3.23901 43.3262C2.46619 43.776 1.80959 44.4007 1.32191 45.1502C-1.30809 49.6902 0.241906 55.7102 3.72191 59.4302C3.77359 59.4753 3.82051 59.5256 3.86191 59.5802L4.30191 60.0402H4.36191C4.3975 60.0431 4.43285 60.0323 4.46074 60.01C4.48862 59.9877 4.50693 59.9556 4.51191 59.9202C4.51659 59.9092 4.51899 59.8973 4.51899 59.8852C4.51899 59.8732 4.51659 59.8613 4.51191 59.8502C2.27736 57.1335 0.868381 53.8331 0.451917 50.3402C0.221917 46.9502 2.10192 43.0002 5.84192 42.8202C8.38192 44.3802 10.5419 46.9802 9.62191 50.0702C9.11191 52.2102 6.15191 53.3102 4.96191 51.0702C4.6003 50.4098 4.36623 49.6872 4.27191 48.9402C3.56191 48.1602 4.27191 51.1102 4.49191 51.3302C4.67854 51.7282 4.9523 52.079 5.29294 52.3568C5.63357 52.6346 6.03232 52.8322 6.45968 52.935C6.88704 53.0377 7.33205 53.043 7.76173 52.9504C8.19141 52.8579 8.59477 52.6698 8.94191 52.4002C9.27099 52.158 9.55526 51.8602 9.7819 51.5202C10.2329 51.7585 10.7449 51.856 11.2519 51.8002C11.7303 51.7419 12.1888 51.5742 12.5919 51.3102C12.7124 51.7048 12.9095 52.0718 13.1719 52.3902C11.1719 52.8502 10.3619 55.3202 10.3019 57.2202C10.3019 57.2998 10.3335 57.3761 10.3898 57.4324C10.446 57.4886 10.5223 57.5202 10.6019 57.5202C10.6815 57.5202 10.7578 57.4886 10.814 57.4324C10.8703 57.3761 10.9019 57.2998 10.9019 57.2202C10.9919 55.4002 11.5819 53.0602 13.6719 52.8702C14.1439 53.2241 14.7038 53.4419 15.2908 53.5001C15.8779 53.5582 16.4696 53.4546 17.0019 53.2002C17.0576 53.1803 17.1031 53.1391 17.1284 53.0857C17.1537 53.0323 17.1568 52.9709 17.1369 52.9152C17.117 52.8595 17.0758 52.814 17.0224 52.7887C16.9689 52.7634 16.9076 52.7603 16.8519 52.7802C16.3105 53.0001 15.7213 53.0759 15.1419 53.0002C14.7235 52.9089 14.3285 52.7318 13.9819 52.4802C13.9679 52.4314 13.9393 52.3881 13.9 52.3559C13.8607 52.3237 13.8125 52.3043 13.7619 52.3002C13.3596 51.9313 13.101 51.4317 13.0319 50.8902C13.0572 50.8225 13.0572 50.7479 13.0319 50.6802C13.0239 50.2577 13.1007 49.8378 13.2577 49.4455C13.4148 49.0532 13.649 48.6963 13.9465 48.3961C14.2439 48.0959 14.5985 47.8584 14.9893 47.6976C15.3802 47.5369 15.7993 47.4562 16.2219 47.4602C20.5619 47.2102 22.5519 50.3202 20.9819 54.2702C20.9398 54.3997 20.8827 54.5239 20.8119 54.6402C20.5906 55.1165 20.3009 55.5578 19.9519 55.9502C19.0582 57.3477 17.8621 58.5267 16.4519 59.4002C16.4356 59.4095 16.4216 59.4225 16.4112 59.4381C16.4008 59.4537 16.3942 59.4716 16.3919 59.4902C16.3876 59.5094 16.3873 59.5292 16.3911 59.5484C16.3949 59.5677 16.4027 59.5859 16.4141 59.6019C16.4254 59.618 16.4399 59.6314 16.4568 59.6415C16.4737 59.6515 16.4924 59.6579 16.5119 59.6602L17.4619 59.0202C18.2051 58.6077 18.9053 58.122 19.5519 57.5702H19.6019C20.5535 56.7658 21.2862 55.7338 21.7319 54.5702C22.6019 52.3502 22.4319 49.1802 20.1419 47.7802ZM12.8319 48.9102C12.5289 49.4559 12.3901 50.0775 12.4319 50.7002C12.1113 50.9911 11.7156 51.1865 11.2897 51.2643C10.8638 51.342 10.4247 51.2991 10.0219 51.1402C10.4728 50.2627 10.6869 49.2827 10.643 48.297C10.5992 47.3114 10.2989 46.3543 9.77191 45.5202C8.88818 44.2398 7.6612 43.2347 6.23192 42.6202C7.55192 40.6202 10.1819 40.5502 12.3219 41.2602C14.0619 42.6602 14.5919 45.0602 14.8619 47.2102C13.9968 47.5037 13.2727 48.1101 12.8319 48.9102ZM19.2819 47.3802C17.9503 46.8573 16.488 46.7663 15.1019 47.1202C15.0419 44.9802 14.7319 42.6702 13.2919 40.9702C17.3919 38.7902 20.3319 43.4302 19.2819 47.3802Z" fill="#0D9488"/>
<path d="M72.0219 119.86C56.9719 122.54 40.7719 116.71 31.2119 104.72C27.9961 100.799 25.5406 96.3125 23.9719 91.4902C27.3486 101.039 34.0382 109.061 42.8256 114.098C51.613 119.135 61.9155 120.853 71.8619 118.94C71.9771 118.934 72.0906 118.97 72.181 119.041C72.2713 119.113 72.3322 119.215 72.3519 119.329C72.3717 119.443 72.349 119.559 72.2881 119.657C72.2273 119.755 72.1325 119.828 72.0219 119.86Z" fill="#0D9488"/>
</svg>
