<svg width="69" height="76" viewBox="0 0 69 76" fill="none" xmlns="http://www.w3.org/2000/svg">
<path d="M66.2228 68.8266C65.7328 71.2766 65.1428 72.8866 64.4728 73.3066H64.4028C63.8043 73.6078 63.1637 73.8168 62.5028 73.9266H62.3728C58.6328 74.7066 51.2028 75.0366 43.3728 74.9266H42.8828C35.8882 74.9298 28.9018 74.452 21.9728 73.4966C19.4328 73.0666 17.6528 72.4966 16.9728 71.9266C16.7873 71.7275 16.6444 71.4927 16.5528 71.2366C13.3128 64.1266 11.8128 14.9566 14.8628 12.1166C17.6828 9.49657 29.0428 8.31657 40.4328 8.17657H41.3328C53.4428 8.08657 65.3328 9.17659 66.7628 10.8866C69.2228 13.8866 69.0728 54.8966 66.2228 68.8266Z" fill="#FFBF7E"/>
<path d="M62.383 70.1962C61.953 71.8762 61.473 72.9662 60.943 73.3062C60.2373 73.6634 59.4768 73.9 58.693 74.0062C53.6219 74.7543 48.4983 75.0887 43.373 75.0062H42.883C32.253 75.0662 20.053 74.3462 15.283 72.8862C14.6236 72.7312 14.006 72.4343 13.473 72.0162C10.993 69.6062 9.38299 42.4062 9.75299 25.4862C9.91299 18.3762 10.423 13.0862 11.363 12.2162C14.473 9.31624 27.993 8.21624 40.473 8.27624H41.373C52.173 8.40624 61.973 9.4262 63.263 10.9862C65.773 14.0062 65.523 57.8562 62.383 70.1962Z" fill="#C7692C"/>
<path d="M16.123 10.2162C16.123 10.2162 40.1231 5.8162 63.2831 10.9962H66.8231C66.8231 10.9962 64.9631 8.79618 52.7131 7.91618C40.4686 7.01769 28.1587 7.79152 16.123 10.2162Z" fill="#FFF9E2"/>
<path d="M64.473 73.3065H64.403C63.7909 73.5731 63.1546 73.7807 62.503 73.9265H62.373C59.443 74.6365 52.953 75.6465 39.893 75.4065C20.573 75.0665 15.613 72.9864 15.313 72.8564C15.313 72.8564 17.903 73.1865 22.003 73.5565C29.6941 74.2863 37.4176 74.6201 45.143 74.5565L47.143 74.5065C50.573 74.4365 53.393 74.3165 55.673 74.1865C56.793 74.1065 57.773 74.0465 58.673 73.9665C60.6184 73.8703 62.5557 73.6498 64.473 73.3065Z" fill="#C9672F"/>
<g opacity="0.3" style="mix-blend-mode:multiply">
<path d="M14.2627 13.8363C10.6627 15.8363 13.1627 47.4063 19.6827 57.3463C26.2027 67.2863 58.2427 46.0563 62.3027 36.3463C66.3627 26.6363 60.6927 13.9063 55.4427 11.0063C50.1927 8.10627 18.1727 11.6263 14.2627 13.8363Z" fill="#F9D0B5"/>
</g>
<g opacity="0.3" style="mix-blend-mode:overlay">
<path d="M32.6927 74.2063C23.5327 71.5663 58.5527 52.0163 61.5727 50.8663C64.5927 49.7163 63.2227 70.2563 61.0227 72.8663C58.8227 75.4763 32.6927 74.2063 32.6927 74.2063Z" fill="white"/>
</g>
<g opacity="0.8" style="mix-blend-mode:multiply">
<path d="M64.9631 11.0063C64.0731 11.0063 65.5031 26.6863 64.9631 45.1763C64.4231 63.6663 63.5631 67.3764 64.4731 68.0764C65.3831 68.7764 68.7631 49.6363 68.4731 35.2563C68.1831 20.8763 67.2731 11.8863 66.8031 11.6263C66.2089 11.3665 65.5933 11.1591 64.9631 11.0063Z" fill="#E3B99A"/>
</g>
<g opacity="0.8" style="mix-blend-mode:multiply">
<path d="M66.2228 68.8265C65.7328 71.2765 65.1428 72.8865 64.4728 73.3065H64.4028C63.8043 73.6077 63.1637 73.8167 62.5028 73.9265H62.3727C59.4427 74.6365 52.9528 75.6466 39.8928 75.4066C20.5728 75.0666 15.6127 72.9865 15.3127 72.8565C14.6534 72.7015 14.0357 72.4046 13.5028 71.9865C11.0228 69.5765 9.41278 42.3765 9.78278 25.4565C9.99278 32.8265 10.9528 62.4565 13.2728 68.3265C13.9666 69.7167 15.1648 70.7897 16.6227 71.3265C20.2127 73.0265 26.1328 73.8565 32.5228 74.1365C35.4528 74.2565 38.5228 74.2665 41.4528 74.1865C48.4477 73.8365 55.3618 72.5311 62.0028 70.3065L62.3928 70.1765C64.6928 69.4465 66.0928 68.8765 66.2228 68.8265Z" fill="#F2C19A"/>
</g>
<path d="M47.2129 9.22658C42.0629 9.58658 46.2829 15.6566 50.6829 17.9466C55.0829 20.2366 59.0429 12.3166 59.6829 10.9466C60.3229 9.57662 50.3329 9.00658 47.2129 9.22658Z" fill="white"/>
<path d="M61.9929 68.8266C61.5029 71.2766 60.9129 72.8866 60.2529 73.3066H60.1729C59.5744 73.6078 58.9339 73.8168 58.2729 73.9266H58.1429C54.4129 74.7066 46.9729 75.0366 39.1429 74.9266H38.6929C31.695 74.9294 24.7053 74.4516 17.7729 73.4966C15.2329 73.0666 13.4529 72.4966 12.7729 71.9266C12.5862 71.7266 12.4402 71.4923 12.3429 71.2366C9.10291 64.1266 7.61286 14.9566 10.6629 12.1166C13.4729 9.49657 24.8329 8.31657 36.2229 8.17657H37.1229C49.2429 8.08657 61.1229 9.17659 62.5629 10.8866C65.0029 13.8866 64.8429 54.8966 61.9929 68.8266Z" fill="#FFBF7E"/>
<path d="M58.1528 70.1965C57.7328 71.8765 57.2428 72.9665 56.7128 73.3065C56.0165 73.6586 55.2661 73.8918 54.4928 73.9965C49.4217 74.7445 44.2981 75.079 39.1728 74.9965H38.6928C28.0528 75.0565 15.8528 74.3365 11.0928 72.8765C10.4297 72.7234 9.80835 72.4264 9.27283 72.0065C6.79283 69.5965 5.1828 42.3964 5.5528 25.4764C5.7128 18.3664 6.22278 13.0765 7.16278 12.2065C10.2728 9.30648 23.7928 8.20648 36.2728 8.26648H37.1728C47.9728 8.39648 57.7728 9.41644 59.0728 10.9764C61.5428 14.0064 61.3028 57.8565 58.1528 70.1965Z" fill="#FFD897"/>
<path d="M11.8931 10.2162C11.8931 10.2162 35.893 5.8162 59.063 10.9962H62.603C62.603 10.9962 60.733 8.79618 48.483 7.91618C36.2385 7.01769 23.9287 7.79152 11.8931 10.2162Z" fill="#FFF9E2"/>
<path d="M60.2527 73.3065H60.1727C59.5613 73.5749 58.9249 73.7826 58.2728 73.9265H58.1428C55.2228 74.6365 48.7227 75.6465 35.6727 75.4065C16.3427 75.0665 11.3828 72.9864 11.0928 72.8564C11.0928 72.8564 13.6728 73.1865 17.7728 73.5565C25.4639 74.2861 33.1873 74.6198 40.9127 74.5565L42.9127 74.5065C46.3427 74.4365 49.1627 74.3165 51.4427 74.1865H51.4927C52.6027 74.1065 53.5927 74.0465 54.4927 73.9665C56.4247 73.8674 58.3485 73.6469 60.2527 73.3065Z" fill="#C9672F"/>
<g opacity="0.3" style="mix-blend-mode:multiply">
<path d="M10.0327 13.8363C6.43268 15.8363 8.94266 47.4063 15.4527 57.3463C21.9627 67.2863 54.0227 46.0563 58.0727 36.3463C62.1227 26.6363 56.5027 13.9263 51.2127 11.0163C45.9227 8.10629 13.9427 11.6263 10.0327 13.8363Z" fill="#F9D0B5"/>
</g>
<g opacity="0.3" style="mix-blend-mode:overlay">
<path d="M28.4329 74.2063C19.2729 71.5663 54.2929 52.0163 57.3229 50.8663C60.3529 49.7163 58.9629 70.2563 56.7629 72.8663C54.5629 75.4763 28.4329 74.2063 28.4329 74.2063Z" fill="white"/>
</g>
<g opacity="0.8" style="mix-blend-mode:multiply">
<path d="M60.6928 11.0063C59.8028 11.0063 61.2328 26.6863 60.6928 45.1763C60.1528 63.6663 59.2928 67.3764 60.2128 68.0764C61.1328 68.7764 64.4928 49.6363 64.2128 35.2563C63.9328 20.8763 63.0028 11.8863 62.5428 11.6263C61.9448 11.3675 61.326 11.1601 60.6928 11.0063Z" fill="#E3B99A"/>
</g>
<g opacity="0.8" style="mix-blend-mode:multiply">
<path d="M61.9928 68.8265C61.5028 71.2765 60.9128 72.8865 60.2528 73.3065H60.1728C59.5743 73.6077 58.9338 73.8167 58.2728 73.9265H58.1428C55.2228 74.6365 48.7228 75.6466 35.6728 75.4066C16.3428 75.0666 11.3828 72.9865 11.0928 72.8565C10.4297 72.7035 9.80835 72.4065 9.27283 71.9865C6.79283 69.5765 5.1828 42.3765 5.5528 25.4565C5.7628 32.8265 6.73279 62.4565 9.04279 68.3265C9.7423 69.7124 10.9385 70.7836 12.3928 71.3265C15.9928 73.0265 21.9028 73.8565 28.2928 74.1365C31.2228 74.2565 34.2928 74.2665 37.2228 74.1865C44.218 73.8385 51.1324 72.533 57.7728 70.3065L58.1628 70.1765C60.4428 69.4465 61.8628 68.8765 61.9928 68.8265Z" fill="#F2C19A"/>
</g>
<path d="M42.9929 9.22658C37.8429 9.58658 42.0529 15.6566 46.4629 17.9466C50.8729 20.2366 54.8229 12.3166 55.4629 10.9466C56.1029 9.57662 46.1029 9.00658 42.9929 9.22658Z" fill="white"/>
<g opacity="0.78" style="mix-blend-mode:multiply">
<path d="M7.633 66.4062C7.633 66.4062 26.143 70.9462 41.473 70.5862C58.153 70.1962 58.473 66.5862 59.473 58.7662C60.133 53.6362 60.473 20.6962 60.113 15.8462C59.753 10.9962 58.013 10.5562 58.013 10.5562L7.31299 64.4861L7.633 66.4062Z" fill="#CD722F"/>
</g>
<path d="M56.4927 61.2764C55.9927 63.7264 55.4127 65.3363 54.7427 65.7563H54.6626C54.0671 66.0562 53.4301 66.2651 52.7727 66.3763H52.6427C48.9027 67.1663 41.4627 67.4963 33.6427 67.4363H33.1626C26.1648 67.4392 19.175 66.9614 12.2427 66.0063C9.71265 65.5763 7.92264 65.0563 7.29264 64.4363C7.10593 64.2364 6.95989 64.002 6.86265 63.7463C3.63265 56.6363 2.13265 7.46633 5.18265 4.62633C8.00265 2.00633 19.3627 0.826332 30.7427 0.686332H31.6927C43.8027 0.596332 55.6927 1.68635 57.1227 3.39635C59.4927 6.33635 59.3327 47.3464 56.4927 61.2764Z" fill="#FFBF7E"/>
<path d="M52.6931 62.6465C52.2631 64.3165 51.7831 65.4165 51.2531 65.7565C50.5531 66.1084 49.7995 66.3416 49.0231 66.4465C43.952 67.195 38.8284 67.5294 33.7031 67.4465H33.2231C22.5931 67.5065 10.3931 66.7865 5.62306 65.3265C4.9629 65.1736 4.34478 64.8765 3.81306 64.4565C1.32306 62.0365 -0.27691 34.8465 0.09309 17.9265C0.25309 10.8265 0.763075 5.53644 1.70308 4.66644C4.80308 1.76644 18.3331 0.666438 30.8031 0.726438H31.6931C42.4931 0.856438 52.2931 1.87646 53.5831 3.43646C56.0331 6.43646 55.7931 50.3065 52.6931 62.6465Z" fill="url(#paint0_linear_728_2256)"/>
<path d="M6.38281 2.66617C6.38281 2.66617 30.3828 -1.7338 53.5528 3.4462H57.0928C57.0928 3.4462 55.2328 1.24617 42.9728 0.356173C30.7278 -0.532828 18.4188 0.244263 6.38281 2.66617Z" fill="#FFF9E2"/>
<path d="M54.743 65.7564H54.663C54.0546 66.0239 53.4216 66.2316 52.773 66.3764H52.643C49.713 67.0964 43.213 68.0964 30.163 67.8664C10.833 67.5264 5.88301 65.4464 5.58301 65.3164C5.58301 65.3164 8.163 65.6464 12.263 66.0164C19.9541 66.746 27.6776 67.0798 35.403 67.0164H37.403C40.833 66.9464 43.643 66.8264 45.923 66.6964H45.973C47.083 66.6164 48.073 66.5564 48.973 66.4764C50.9096 66.3578 52.8367 66.1174 54.743 65.7564Z" fill="#C9672F"/>
<g opacity="0.3" style="mix-blend-mode:multiply">
<path d="M4.5231 6.28649C0.923099 8.28649 3.43309 39.8564 9.95309 49.7964C16.4731 59.7364 48.5131 38.5064 52.5731 28.7964C56.6331 19.0864 50.9931 6.37649 45.7031 3.46649C40.4131 0.556486 8.4431 4.07649 4.5231 6.28649Z" fill="#F9D0B5"/>
</g>
<g opacity="0.3" style="mix-blend-mode:overlay">
<path d="M22.9226 66.6566C13.7626 64.0166 48.7826 44.4665 51.8126 43.3065C54.8426 42.1465 53.4526 62.7065 51.2526 65.3565C49.0526 68.0065 22.9226 66.6566 22.9226 66.6566Z" fill="white"/>
</g>
<g opacity="0.5" style="mix-blend-mode:multiply">
<path d="M55.2327 3.44629C54.3427 3.44629 55.7727 19.1263 55.2327 37.6163C54.6927 56.1063 53.8227 59.8163 54.7427 60.5163C55.6627 61.2163 59.0227 42.0663 58.7427 27.6963C58.4627 13.3263 57.5327 4.32628 57.0727 4.06628C56.4786 3.80646 55.8629 3.59901 55.2327 3.44629Z" fill="#E3B99A"/>
</g>
<g opacity="0.8" style="mix-blend-mode:multiply">
<path d="M56.4931 61.2766C55.9931 63.7266 55.4131 65.3365 54.7431 65.7565H54.663C54.0675 66.0564 53.4305 66.2653 52.7731 66.3765H52.6431C49.7131 67.0965 43.213 68.0965 30.163 67.8665C10.833 67.5265 5.88308 65.4465 5.58308 65.3165C4.92292 65.1637 4.3048 64.8666 3.77308 64.4465C1.28308 62.0265 -0.316951 34.8365 0.0530493 17.9165C0.253049 25.2865 1.22309 54.9166 3.53309 60.7866C4.2326 62.1724 5.42876 63.2436 6.88307 63.7866C10.4831 65.4866 16.393 66.3166 22.793 66.5966C25.723 66.7166 28.7931 66.7266 31.7131 66.5966C38.7108 66.2425 45.6276 64.9371 52.2731 62.7166L52.663 62.5865C54.933 61.8965 56.3631 61.3266 56.4931 61.2766Z" fill="#F2C19A"/>
</g>
<path d="M37.4829 1.67648C32.3329 2.03648 36.553 8.10651 40.953 10.3965C45.353 12.6865 49.313 4.7665 49.953 3.4465C50.593 2.1265 40.6029 1.44648 37.4829 1.67648Z" fill="white"/>
<defs>
<linearGradient id="paint0_linear_728_2256" x1="27.6131" y1="67.4865" x2="27.6131" y2="0.726437" gradientUnits="userSpaceOnUse">
<stop stop-color="#FFDABD"/>
<stop offset="1" stop-color="#FFF9D3"/>
</linearGradient>
</defs>
</svg>
