<svg width="69" height="76" viewBox="0 0 69 76" fill="none" xmlns="http://www.w3.org/2000/svg">
<path d="M66.2428 68.8229C65.7528 71.2729 65.1628 72.8829 64.4928 73.3029H64.4228C63.8218 73.5959 63.182 73.8013 62.5228 73.9128H62.3928C58.6528 74.6928 51.2228 75.0228 43.3928 74.9128H42.9028C35.9087 74.9138 28.9225 74.4394 21.9928 73.4929C19.4528 73.0529 17.6728 72.4928 16.9928 71.9128C16.8084 71.7168 16.6656 71.4855 16.5728 71.2329C13.3328 64.1129 11.8328 14.9529 14.8828 12.1029C17.7028 9.48285 29.0628 8.30285 40.4528 8.16285H41.3528C53.4628 8.08285 65.3528 9.16287 66.7828 10.8729C69.2428 13.8829 69.0928 54.8929 66.2428 68.8229Z" fill="#442C22"/>
<path d="M62.4028 70.1926C61.9728 71.8726 61.4928 72.9626 60.9628 73.3026C60.2649 73.6529 59.5154 73.8892 58.7428 74.0026C53.6716 74.7497 48.5481 75.0842 43.4228 75.0026H42.9328C32.3028 75.0626 20.1028 74.3426 15.3328 72.8826C14.6734 72.7276 14.0557 72.4307 13.5228 72.0126C11.0428 69.6026 9.4328 42.4026 9.8028 25.4926C9.9628 18.3826 10.4728 13.0926 11.4128 12.2226C14.5228 9.32259 28.0428 8.22259 40.5228 8.28259H41.4228C52.2228 8.41259 62.0228 9.43261 63.3128 10.9926C65.7828 13.9926 65.5428 57.8526 62.4028 70.1926Z" fill="#0C0305"/>
<path d="M16.1426 10.2128C16.1426 10.2128 40.1426 5.81279 63.3026 10.9928H66.8426C66.8426 10.9928 64.9826 8.79277 52.7326 7.91277C40.4881 7.01428 28.1782 7.78805 16.1426 10.2128Z" fill="#44413C"/>
<path d="M64.493 73.3028H64.423C63.8077 73.5585 63.1722 73.7626 62.523 73.9128H62.393C59.463 74.6228 52.973 75.6328 39.913 75.3928C20.593 75.0528 15.633 72.9728 15.333 72.8428C15.333 72.8428 17.923 73.1728 22.023 73.5528C29.7141 74.282 37.4377 74.6158 45.163 74.5528L47.163 74.5028C50.593 74.4328 53.413 74.3128 55.693 74.1828L58.693 73.9728C60.6385 73.8713 62.5756 73.6475 64.493 73.3028Z" fill="#0E0307"/>
<g opacity="0.3" style="mix-blend-mode:multiply">
<path d="M14.2827 13.8329C10.6827 15.8329 13.1827 47.4128 19.7027 57.3428C26.2227 67.2728 58.2627 46.0628 62.3227 36.3428C66.3827 26.6228 60.7427 13.9229 55.4627 11.0129C50.1827 8.10287 18.1927 11.6229 14.2827 13.8329Z" fill="#3E302D"/>
</g>
<g opacity="0.3" style="mix-blend-mode:overlay">
<path d="M32.6526 74.2029C23.4926 71.5629 58.5126 52.0129 61.5326 50.8629C64.5526 49.7129 63.1826 70.2529 60.9826 72.8629C58.7826 75.4729 32.6526 74.2029 32.6526 74.2029Z" fill="white"/>
</g>
<g opacity="0.8" style="mix-blend-mode:multiply">
<path d="M64.9826 10.9927C64.0926 10.9927 65.5226 26.6727 64.9826 45.1727C64.4426 63.6727 63.5826 67.3627 64.4926 68.0627C65.4026 68.7627 68.7826 49.6227 68.4926 35.2527C68.2026 20.8827 67.2927 11.8727 66.8227 11.6127C66.2268 11.3574 65.6115 11.15 64.9826 10.9927Z" fill="#281B1E"/>
</g>
<g opacity="0.8" style="mix-blend-mode:multiply">
<path d="M66.2428 68.8226C65.7528 71.2726 65.1628 72.8826 64.4928 73.3026H64.4228C63.8218 73.5956 63.182 73.801 62.5228 73.9126H62.3928C59.4628 74.6226 52.9728 75.6326 39.9128 75.3926C20.5928 75.0526 15.6328 72.9726 15.3328 72.8426C14.6734 72.6876 14.0557 72.3907 13.5228 71.9726C11.0428 69.5626 9.4328 42.3626 9.8028 25.4526C10.0128 32.8126 10.9728 62.4526 13.2928 68.3126C13.9875 69.7021 15.1854 70.7749 16.6428 71.3126C20.2328 73.0026 26.1528 73.8326 32.5428 74.1126C35.4728 74.2326 38.5428 74.2426 41.4728 74.1626C48.4677 73.8126 55.3818 72.5071 62.0228 70.2826L62.4128 70.1526C64.6528 69.4426 66.1128 68.8726 66.2428 68.8226Z" fill="#372823"/>
</g>
<path d="M47.2329 9.22268C42.0829 9.59268 46.3029 15.6527 50.7029 17.9427C55.1029 20.2327 59.0629 12.3127 59.7029 10.9427C60.3429 9.57271 50.3529 9.00268 47.2329 9.22268Z" fill="white"/>
<path d="M62.0129 68.8229C61.5229 71.2729 60.9329 72.8829 60.2729 73.3029H60.1929C59.592 73.5959 58.9521 73.8013 58.2929 73.9128H58.1629C54.4329 74.6928 46.9929 75.0228 39.1629 74.9128H38.6829C31.6855 74.9138 24.696 74.4394 17.7629 73.4929C15.2229 73.0529 13.4429 72.4928 12.8129 71.9128C12.6283 71.7151 12.4824 71.4845 12.3829 71.2329C9.14293 64.1129 7.65291 14.9529 10.7029 12.1029C13.5129 9.48285 24.8729 8.30285 36.2629 8.16285H37.1629C49.2829 8.08285 61.1629 9.16287 62.6029 10.8729C65.0229 13.8829 64.8629 54.8929 62.0129 68.8229Z" fill="#442C22"/>
<path d="M58.1728 70.1926C57.7528 71.8726 57.2628 72.9626 56.7328 73.3026C56.0355 73.6545 55.2858 73.8909 54.5128 74.0026C49.4416 74.7497 44.3181 75.0842 39.1928 75.0026H38.7128C28.0728 75.0626 15.8728 74.3426 11.1128 72.8826C10.4497 72.7296 9.82834 72.4326 9.29282 72.0126C6.81282 69.6026 5.20282 42.4026 5.57282 25.4926C5.73282 18.3826 6.2428 13.0926 7.1828 12.2226C10.2928 9.32259 23.8128 8.22259 36.2928 8.28259H37.1928C47.9928 8.41259 57.7928 9.43261 59.0928 10.9926C61.5628 13.9926 61.3228 57.8526 58.1728 70.1926Z" fill="#443428"/>
<path d="M11.9126 10.2129C11.9126 10.2129 35.9126 5.81294 59.0826 10.9929H62.6526C62.6526 10.9929 60.7826 8.79292 48.5326 7.91292C36.2781 7.01169 23.958 7.78547 11.9126 10.2129Z" fill="#44413C"/>
<path d="M60.2728 73.3028H60.1928C59.5783 73.5606 58.9426 73.7646 58.2928 73.9128H58.1628C55.2428 74.6228 48.7428 75.6328 35.6928 75.3928C16.3628 75.0528 11.4028 72.9728 11.1128 72.8428C11.1128 72.8428 13.6928 73.1728 17.7928 73.5528C25.484 74.2818 33.2074 74.6155 40.9328 74.5528L42.9328 74.5028C46.3628 74.4328 49.1828 74.3128 51.4628 74.1828L54.4628 73.9728C56.4115 73.8705 58.3519 73.6467 60.2728 73.3028Z" fill="#0E0307"/>
<g opacity="0.3" style="mix-blend-mode:multiply">
<path d="M10.0527 13.8329C6.45269 15.8329 8.96271 47.4128 15.4727 57.3428C21.9827 67.2728 54.0427 46.0628 58.0927 36.3428C62.1427 26.6228 56.5227 13.9229 51.2327 11.0129C45.9427 8.10287 13.9627 11.6229 10.0527 13.8329Z" fill="#3E302D"/>
</g>
<g opacity="0.3" style="mix-blend-mode:overlay">
<path d="M28.4529 74.2029C19.2929 71.5629 54.3129 52.0129 57.3429 50.8629C60.3729 49.7129 58.9829 70.2529 56.7829 72.8629C54.5829 75.4729 28.4529 74.2029 28.4529 74.2029Z" fill="white"/>
</g>
<g opacity="0.8" style="mix-blend-mode:multiply">
<path d="M60.7529 10.9927C59.8629 10.9927 61.2929 26.6727 60.7529 45.1727C60.2129 63.6727 59.3529 67.3627 60.2729 68.0627C61.1929 68.7627 64.5529 49.6227 64.2729 35.2527C63.9929 20.8827 63.0629 11.8727 62.6029 11.6127C62.0032 11.3584 61.3847 11.1511 60.7529 10.9927Z" fill="#281B1E"/>
</g>
<g opacity="0.8" style="mix-blend-mode:multiply">
<path d="M62.0128 68.8226C61.5228 71.2726 60.9328 72.8826 60.2728 73.3026H60.1928C59.5919 73.5956 58.952 73.801 58.2928 73.9126H58.1628C55.2428 74.6226 48.7428 75.6326 35.6928 75.3926C16.3628 75.0526 11.4028 72.9726 11.1128 72.8426C10.4497 72.6896 9.82834 72.3926 9.29282 71.9726C6.81282 69.5626 5.20282 42.3626 5.57282 25.4526C5.78282 32.8126 6.75281 62.4526 9.06281 68.3126C9.76311 69.6978 10.959 70.7688 12.4128 71.3126C16.0128 73.0026 21.9228 73.8326 28.3128 74.1126C31.2428 74.2326 34.3128 74.2426 37.2428 74.1626C44.2379 73.8146 51.1523 72.5091 57.7928 70.2826L58.1828 70.1526C60.4628 69.4426 61.8828 68.8726 62.0128 68.8226Z" fill="#372823"/>
</g>
<path d="M43.0129 9.22268C37.8629 9.59268 42.0729 15.6527 46.4829 17.9427C50.8929 20.2327 54.8429 12.3127 55.4829 10.9427C56.1229 9.57271 46.1229 9.00268 43.0129 9.22268Z" fill="white"/>
<g opacity="0.78" style="mix-blend-mode:multiply">
<path d="M7.65302 66.4027C7.65302 66.4027 26.153 70.9428 41.493 70.5828C58.173 70.1928 58.493 66.5828 59.493 58.7728C60.153 53.6328 60.493 20.6927 60.133 15.8427C59.773 10.9927 58.033 10.5527 58.033 10.5527L7.33301 64.4827L7.65302 66.4027Z" fill="#120407"/>
</g>
<path d="M56.5127 61.2729C56.0127 63.7229 55.4327 65.3329 54.7627 65.7529H54.6827C54.0871 66.0527 53.4501 66.2617 52.7927 66.3729H52.6627C48.9227 67.1529 41.4827 67.4829 33.6627 67.3729H33.1827C26.1848 67.3757 19.195 66.8979 12.2627 65.9429C9.73266 65.5129 7.94268 64.9929 7.31268 64.3729C7.12802 64.1751 6.98217 63.9445 6.88269 63.6929C3.65269 56.5729 2.15266 7.40286 5.20266 4.56286C8.02266 1.94286 19.3827 0.762855 30.7627 0.622855H31.6527C43.7627 0.532855 55.6527 1.62288 57.0827 3.33288C59.5127 6.33288 59.3527 47.3429 56.5127 61.2729Z" fill="#442C22"/>
<path d="M52.6531 62.6428C52.2231 64.3228 51.7431 65.4128 51.2131 65.7528C50.5131 66.1048 49.7595 66.338 48.983 66.4428C43.9125 67.1964 38.7885 67.5309 33.6631 67.4428H33.1831C22.5431 67.5028 10.353 66.7828 5.58305 65.3228C4.92289 65.17 4.30477 64.8729 3.77305 64.4528C1.28305 62.0428 -0.31695 34.8428 0.0530501 17.9228C0.21305 10.8128 0.723066 5.52277 1.66307 4.65277C4.76307 1.75277 18.293 0.652766 30.763 0.712766H31.6531C42.4531 0.842766 52.2531 1.86279 53.5431 3.42279C56.0531 6.44279 55.8131 50.3028 52.6531 62.6428Z" fill="url(#paint0_linear_728_2259)"/>
<path d="M6.40283 2.66247C6.40283 2.66247 30.4028 -1.7375 53.5728 3.4425H57.1128C57.1128 3.4425 55.2528 1.24248 42.9928 0.362481C30.7483 -0.536015 18.4385 0.237754 6.40283 2.66247Z" fill="#44413C"/>
<path d="M54.763 65.7425H54.683C54.0746 66.01 53.4417 66.2176 52.793 66.3625H52.663C49.733 67.0725 43.233 68.0825 30.183 67.8425C10.853 67.5025 5.90303 65.4225 5.60303 65.2925C5.60303 65.2925 8.18302 65.6225 12.283 65.9925C19.9741 66.7221 27.6976 67.0559 35.423 66.9925H37.473C40.903 66.9225 43.713 66.8025 45.993 66.6725H46.043C47.153 66.5925 48.143 66.5325 49.043 66.4525C50.9626 66.3352 52.873 66.098 54.763 65.7425Z" fill="#0E0307"/>
<g opacity="0.3" style="mix-blend-mode:multiply">
<path d="M4.54263 6.28259C0.94263 8.28259 3.45262 39.8626 9.97262 49.7926C16.4926 59.7226 48.5326 38.5026 52.5926 28.7926C56.6526 19.0826 51.0126 6.37258 45.7226 3.46258C40.4326 0.55258 8.46263 4.07259 4.54263 6.28259Z" fill="#3E302D"/>
</g>
<g opacity="0.3" style="mix-blend-mode:overlay">
<path d="M22.9426 66.6526C13.7826 64.0126 48.8026 44.4626 51.8326 43.3126C54.8626 42.1626 53.4726 62.7026 51.2726 65.3126C49.0726 67.9226 22.9426 66.6526 22.9426 66.6526Z" fill="white"/>
</g>
<g opacity="0.5" style="mix-blend-mode:multiply">
<path d="M55.2527 3.44287C54.3627 3.44287 55.7927 19.1229 55.2527 37.6129C54.7127 56.1029 53.8427 59.8129 54.7627 60.5129C55.6827 61.2129 59.0427 42.0729 58.7627 27.6929C58.4827 13.3129 57.5527 4.32287 57.0927 4.06287C56.4986 3.80304 55.8829 3.59559 55.2527 3.44287Z" fill="#281B1E"/>
</g>
<g opacity="0.8" style="mix-blend-mode:multiply">
<path d="M56.513 61.2729C56.013 63.7229 55.433 65.3329 54.763 65.7529H54.6831C54.0875 66.0527 53.4505 66.2617 52.7931 66.3729H52.6631C49.7331 67.0829 43.2331 68.0928 30.1831 67.8528C10.8531 67.5128 5.90307 65.4329 5.60307 65.3029C4.94291 65.15 4.32479 64.8529 3.79307 64.4329C1.30307 62.0229 -0.29693 34.8228 0.0730696 17.9028C0.27307 25.2728 1.24305 54.9029 3.55305 60.7729C4.25335 62.1581 5.44927 63.2291 6.90306 63.7729C10.5031 65.4629 16.4131 66.2929 22.8131 66.5729C25.7431 66.6929 28.813 66.7029 31.733 66.5729C38.7256 66.239 45.6397 64.9504 52.2831 62.7429L52.673 62.6129C54.953 61.8929 56.383 61.3229 56.513 61.2729Z" fill="#372823"/>
</g>
<path d="M37.5027 1.6726C32.3527 2.0326 36.5627 8.10263 40.9727 10.3926C45.3827 12.6826 49.3327 4.76262 49.9727 3.44262C50.6127 2.12262 40.6527 1.4526 37.5027 1.6726Z" fill="white"/>
<defs>
<linearGradient id="paint0_linear_728_2259" x1="27.6331" y1="67.4828" x2="27.6331" y2="0.722769" gradientUnits="userSpaceOnUse">
<stop stop-color="#443733"/>
<stop offset="1" stop-color="#444138"/>
</linearGradient>
</defs>
</svg>
