<svg width="69" height="76" viewBox="0 0 69 76" fill="none" xmlns="http://www.w3.org/2000/svg">
<path d="M66.2231 68.8225C65.7331 71.2725 65.1431 72.8825 64.4731 73.3025H64.4031C63.8038 73.5996 63.1634 73.8053 62.5031 73.9125H62.3731C58.6331 74.6925 51.2031 75.0325 43.3731 74.9125H42.8831C35.9016 74.9568 28.9252 74.5225 22.0031 73.6125C19.4631 73.1725 17.6731 72.6125 17.0031 72.0425C16.8185 71.8409 16.6727 71.607 16.5731 71.3525C13.3431 64.2425 11.8431 15.0725 14.8931 12.2225C17.7131 9.60248 29.0731 8.42248 40.4631 8.28248H41.3631C53.4731 8.20248 65.3631 9.28248 66.7931 11.0025C69.2231 13.8925 69.0631 54.8925 66.2231 68.8225Z" fill="#7EAFFF"/>
<path d="M62.3828 70.2426C61.9528 71.9126 61.4728 73.0126 60.9428 73.3426C60.2449 73.6929 59.4954 73.9292 58.7228 74.0426C53.6516 74.7897 48.5281 75.1242 43.4028 75.0426H42.9128C32.2828 75.1126 20.0828 74.3826 15.3128 72.9226C14.6559 72.7659 14.0392 72.473 13.5028 72.0626C11.0228 69.6426 9.41278 42.4527 9.78278 25.5327C9.94278 18.4327 10.4528 13.1426 11.3928 12.2626C14.5028 9.36263 28.0228 8.26263 40.5028 8.32263H41.4028C52.2028 8.45263 62.0028 9.47263 63.2928 11.0426C65.7628 13.9926 65.5228 57.8526 62.3828 70.2426Z" fill="#2C93C7"/>
<path d="M16.123 10.2425C16.123 10.2425 40.1231 5.84256 63.2831 11.0326H66.8231C66.8231 11.0326 64.963 8.82256 52.713 7.94256C40.4685 7.04406 28.1587 7.81783 16.123 10.2425Z" fill="#E9E2FF"/>
<path d="M64.473 73.3028H64.403C63.7877 73.5585 63.1522 73.7626 62.503 73.9128H62.373C59.443 74.6328 52.943 75.6328 39.893 75.4028C20.573 75.0528 15.613 72.9728 15.313 72.8428C15.313 72.8428 17.903 73.1828 22.003 73.5528C29.6941 74.282 37.4176 74.6158 45.143 74.5528H47.143C50.573 74.4728 53.393 74.3528 55.673 74.2228L58.673 74.0128C60.6193 73.8981 62.5565 73.661 64.473 73.3028Z" fill="#2FA2C9"/>
<g opacity="0.3" style="mix-blend-mode:multiply">
<path d="M14.2627 13.8329C10.6627 15.8329 13.1627 47.4129 19.6827 57.3429C26.2027 67.2729 58.2427 46.0629 62.3027 36.3429C66.3627 26.6229 60.7227 13.9229 55.4427 11.0229C50.1627 8.12291 18.1727 11.6329 14.2627 13.8329Z" fill="#B5E2F9"/>
</g>
<g opacity="0.3" style="mix-blend-mode:overlay">
<path d="M32.6629 74.2424C23.5029 71.6024 58.5229 52.0525 61.5429 50.9025C64.5629 49.7525 63.1929 70.2924 60.9929 72.9024C58.7929 75.5124 32.6629 74.2424 32.6629 74.2424Z" fill="white"/>
</g>
<g opacity="0.8" style="mix-blend-mode:multiply">
<path d="M65.0031 11.0029C64.1131 11.0029 65.5431 26.6729 65.0031 45.1729C64.4631 63.6729 63.6031 67.3629 64.5131 68.0729C65.4231 68.7829 68.8031 49.6229 68.5131 35.2529C68.2231 20.8829 67.3131 11.8829 66.8431 11.6129C66.2475 11.3597 65.6321 11.1557 65.0031 11.0029Z" fill="#9AC3E3"/>
</g>
<g opacity="0.8" style="mix-blend-mode:multiply">
<path d="M66.2228 68.8226C65.7328 71.2726 65.1428 72.8826 64.4728 73.3026H64.4028C63.8035 73.5998 63.163 73.8054 62.5028 73.9126H62.3728C59.4428 74.6326 52.9428 75.6326 39.8928 75.4026C20.5728 75.0526 15.6128 72.9726 15.3128 72.8426C14.6559 72.6859 14.0392 72.3929 13.5028 71.9826C11.0228 69.5626 9.41278 42.3726 9.78278 25.4526C9.99278 32.8126 10.9528 62.4527 13.2728 68.3127C13.9659 69.6996 15.1596 70.7719 16.6128 71.3127C20.2128 73.0027 26.1328 73.8427 32.5228 74.1227C35.4528 74.2427 38.5228 74.2527 41.4528 74.1227C48.4429 73.7963 55.3561 72.5213 62.0028 70.3327L62.3928 70.2027C64.6728 69.4427 66.0928 68.8826 66.2228 68.8226Z" fill="#9AC8F2"/>
</g>
<path d="M47.2129 9.24249C42.0629 9.61249 46.2829 15.6725 50.6829 17.9625C55.0829 20.2525 59.0429 12.3325 59.6829 11.0225C60.3229 9.71249 50.3329 9.00249 47.2129 9.24249Z" fill="white"/>
<path d="M62.0031 68.8228C61.5131 71.2728 60.9231 72.8828 60.2531 73.3028H60.1831C59.5838 73.6 58.9434 73.8056 58.2831 73.9128H58.1531C54.4231 74.6928 46.9831 75.0328 39.1531 74.9128H38.6731C31.6755 74.9188 24.6857 74.4443 17.7531 73.4928C15.2131 73.0528 13.4331 72.4928 12.8031 71.9228C12.6185 71.7213 12.4727 71.4873 12.3731 71.2328C9.13309 64.1228 7.64309 14.9528 10.6831 12.1028C13.5031 9.48282 24.8631 8.30285 36.2531 8.16285H37.1531C49.2731 8.08285 61.1531 9.16285 62.5931 10.8829C65.0031 13.8929 64.8431 54.8928 62.0031 68.8228Z" fill="#7EAFFF"/>
<path d="M58.1528 70.2426C57.7328 71.9126 57.2428 73.0126 56.7128 73.3426C56.0155 73.6945 55.2658 73.9309 54.4928 74.0426C49.4216 74.7897 44.2981 75.1242 39.1728 75.0426H38.6928C28.0528 75.1126 15.8528 74.3826 11.0928 72.9226C10.4322 72.7678 9.81186 72.4747 9.2728 72.0626C6.7928 69.6426 5.1828 42.4527 5.5528 25.5327C5.7128 18.4327 6.22281 13.1426 7.16281 12.2626C10.2728 9.36263 23.7928 8.26263 36.2728 8.32263H37.1728C47.9728 8.45263 57.7728 9.47263 59.0628 11.0426C61.5428 13.9926 61.3028 57.8526 58.1528 70.2426Z" fill="#97A4FF"/>
<path d="M11.8931 10.2425C11.8931 10.2425 35.893 5.84256 59.063 11.0326H62.6031C62.6031 11.0326 60.7331 8.82256 48.4831 7.94256C36.2385 7.04406 23.9287 7.81783 11.8931 10.2425Z" fill="#E9E2FF"/>
<path d="M60.2428 73.3028H60.1728C59.5582 73.5606 58.9225 73.7646 58.2728 73.9128H58.1428C55.2228 74.6328 48.7228 75.6328 35.6728 75.4028C16.3428 75.0528 11.3828 72.9728 11.0928 72.8428C11.0928 72.8428 13.6728 73.1828 17.7728 73.5528C25.4639 74.2818 33.1874 74.6155 40.9128 74.5528H42.9128C46.3428 74.4728 49.1628 74.3528 51.4428 74.2228L54.4428 74.0128C56.3891 73.8981 58.3263 73.661 60.2428 73.3028Z" fill="#2FA2C9"/>
<g opacity="0.3" style="mix-blend-mode:multiply">
<path d="M10.0029 13.8329C6.40289 15.8329 8.9129 47.4129 15.4229 57.3429C21.9329 67.2729 53.9929 46.0629 58.0429 36.3429C62.0929 26.6229 56.4629 13.9229 51.1829 11.0229C45.9029 8.12291 13.9429 11.6329 10.0029 13.8329Z" fill="#B5E2F9"/>
</g>
<g opacity="0.3" style="mix-blend-mode:overlay">
<path d="M28.4329 74.2424C19.2729 71.6024 54.2929 52.0525 57.3229 50.9025C60.3529 49.7525 58.9629 70.2924 56.7629 72.9024C54.5629 75.5124 28.4329 74.2424 28.4329 74.2424Z" fill="white"/>
</g>
<g opacity="0.8" style="mix-blend-mode:multiply">
<path d="M60.7329 11.0029C59.8429 11.0029 61.2729 26.6729 60.7329 45.1729C60.1929 63.6729 59.3329 67.3629 60.2529 68.0729C61.1729 68.7829 64.5329 49.6229 64.2529 35.2529C63.9729 20.8829 63.0428 11.8829 62.5828 11.6129C61.9834 11.3607 61.3648 11.1567 60.7329 11.0029Z" fill="#9AC3E3"/>
</g>
<g opacity="0.8" style="mix-blend-mode:multiply">
<path d="M62.0031 68.8226C61.5131 71.2726 60.9231 72.8826 60.2531 73.3026H60.183C59.5838 73.5998 58.9433 73.8054 58.2831 73.9126H58.153C55.233 74.6326 48.733 75.6326 35.683 75.4026C16.353 75.0526 11.3931 72.9726 11.1031 72.8426C10.4424 72.6878 9.82212 72.3947 9.28305 71.9826C6.80305 69.5626 5.19305 42.3726 5.56305 25.4526C5.77305 32.8126 6.74304 62.4527 9.05304 68.3127C9.75015 69.7003 10.9472 70.7723 12.403 71.3127C16.003 73.0027 21.913 73.8427 28.303 74.1227C31.233 74.2427 34.3031 74.2527 37.2331 74.1227C44.2271 73.7724 51.1407 72.4704 57.7831 70.2527L58.1731 70.1227C60.4431 69.4427 61.8631 68.8826 62.0031 68.8226Z" fill="#9AC8F2"/>
</g>
<path d="M43.003 9.24249C37.853 9.61249 42.063 15.6725 46.463 17.9625C50.863 20.2525 54.823 12.3325 55.463 11.0225C56.103 9.71249 46.103 9.00249 43.003 9.24249Z" fill="white"/>
<g opacity="0.78" style="mix-blend-mode:multiply">
<path d="M7.633 66.4025C7.633 66.4025 26.133 70.9525 41.473 70.5925C58.153 70.2025 58.473 66.5925 59.473 58.7725C60.133 53.6325 60.473 20.6925 60.113 15.8425C59.753 10.9925 58.013 10.5625 58.013 10.5625L7.31299 64.4925L7.633 66.4025Z" fill="#2F8DCD"/>
</g>
<path d="M56.4931 61.2426C55.9931 63.6926 55.4131 65.3026 54.7431 65.7226H54.6632C54.065 66.0139 53.4287 66.2193 52.7731 66.3326H52.6432C48.9032 67.1126 41.4632 67.4426 33.6432 67.3826H33.1632C26.1656 67.3882 19.1758 66.9137 12.2431 65.9626C9.71314 65.5226 7.92316 64.9626 7.29316 64.3926C7.10857 64.191 6.96277 63.9571 6.86314 63.7026C3.63314 56.5926 2.13314 7.42255 5.18314 4.57255C7.99314 1.95255 19.3631 0.772578 30.7431 0.632578H31.6531C43.7631 0.552578 55.6531 1.63255 57.0831 3.35255C59.4931 6.34255 59.3331 47.3426 56.4931 61.2426Z" fill="#7EAFFF"/>
<path d="M52.653 62.6428C52.223 64.3228 51.743 65.4228 51.213 65.7528C50.5121 66.1044 49.7592 66.3407 48.9831 66.4528C43.9119 67.2003 38.7884 67.5347 33.6631 67.4528H33.183C22.543 67.5128 10.353 66.7928 5.58303 65.3328C4.92458 65.1805 4.30705 64.8871 3.77305 64.4728C1.28305 62.0528 -0.31695 34.8628 0.0530501 17.9428C0.21305 10.8428 0.723051 5.55279 1.66305 4.67279C4.76305 1.77279 18.2931 0.672785 30.7631 0.732785H31.6731C42.4731 0.862785 52.273 1.88279 53.563 3.45279C56.003 6.44279 55.793 50.3028 52.653 62.6428Z" fill="url(#paint0_linear_728_2249)"/>
<path d="M6.38281 2.66249C6.38281 2.66249 30.3828 -1.73751 53.5528 3.44249H57.0928C57.0928 3.44249 55.2328 1.24248 42.9728 0.362476C30.7283 -0.53602 18.4184 0.237779 6.38281 2.66249Z" fill="#E9E2FF"/>
<path d="M54.743 65.7525H54.663C54.0516 66.0093 53.4192 66.2134 52.773 66.3625H52.643C49.713 67.0725 43.213 68.0825 30.163 67.8525C10.833 67.5025 5.88301 65.4225 5.58301 65.2925C5.58301 65.2925 8.16303 65.6225 12.263 66.0025C19.9542 66.7315 27.6777 67.0652 35.403 67.0025H37.453C40.883 66.9225 43.693 66.8025 45.973 66.6725L48.973 66.4625C50.9092 66.3453 52.8362 66.1082 54.743 65.7525Z" fill="#2FA2C9"/>
<g opacity="0.3" style="mix-blend-mode:multiply">
<path d="M4.5231 6.24256C0.923095 8.24256 3.4331 39.8226 9.9531 49.7526C16.4731 59.6826 48.5131 38.4726 52.5731 28.7526C56.6331 19.0326 51.0031 6.35257 45.7031 3.44257C40.4031 0.532568 8.4431 4.08256 4.5231 6.24256Z" fill="#B5E2F9"/>
</g>
<g opacity="0.3" style="mix-blend-mode:overlay">
<path d="M22.9231 66.6526C13.7631 64.0126 48.7831 44.4626 51.8131 43.3126C54.8431 42.1626 53.4531 62.7026 51.2531 65.3126C49.0531 67.9226 22.9231 66.6526 22.9231 66.6526Z" fill="white"/>
</g>
<g opacity="0.5" style="mix-blend-mode:multiply">
<path d="M55.2327 3.44287C54.3427 3.44287 55.7727 19.1229 55.2327 37.6229C54.6927 56.1229 53.8227 59.8129 54.7427 60.5229C55.6627 61.2329 59.0227 42.0729 58.7427 27.7029C58.4627 13.3329 57.5327 4.33287 57.0727 4.06287C56.4763 3.80903 55.8611 3.60175 55.2327 3.44287Z" fill="#9AC3E3"/>
</g>
<g opacity="0.8" style="mix-blend-mode:multiply">
<path d="M56.493 61.2426C55.993 63.6926 55.413 65.3026 54.743 65.7226H54.6631C54.0649 66.0139 53.4286 66.2193 52.773 66.3326H52.6431C49.7131 67.0426 43.2131 68.0525 30.1631 67.8225C10.8331 67.4725 5.88303 65.3925 5.58303 65.2625C4.92458 65.1102 4.30705 64.8168 3.77305 64.4026C1.28305 61.9826 -0.31695 34.7926 0.0530501 17.8726C0.25305 25.2326 1.22305 54.8725 3.53305 60.7325C4.23335 62.1178 5.42927 63.1887 6.88305 63.7325C10.4831 65.4225 16.3931 66.2625 22.7931 66.5425C25.7231 66.6625 28.793 66.6725 31.713 66.5425C38.7102 66.1912 45.627 64.8893 52.273 62.6725L52.6631 62.5326C54.9331 61.8926 56.363 61.3226 56.493 61.2426Z" fill="#9AC8F2"/>
</g>
<path d="M37.4832 1.6726C32.3332 2.0426 36.5432 8.1026 40.9532 10.3926C45.3632 12.6826 49.3132 4.76262 49.9532 3.44262C50.5932 2.12262 40.6032 1.4526 37.4832 1.6726Z" fill="white"/>
<defs>
<linearGradient id="paint0_linear_728_2249" x1="27.613" y1="67.4928" x2="27.613" y2="0.732785" gradientUnits="userSpaceOnUse">
<stop stop-color="#BDE1FF"/>
<stop offset="1" stop-color="#E4D3FF"/>
</linearGradient>
</defs>
</svg>
