<svg width="69" height="76" viewBox="0 0 69 76" fill="none" xmlns="http://www.w3.org/2000/svg">
<path d="M66.2428 68.8228C65.7528 71.2728 65.1628 72.8828 64.4928 73.3028H64.4228C63.8235 73.6 63.183 73.8056 62.5228 73.9128H62.3928C58.6528 74.6928 51.2228 75.0328 43.3928 74.9128H42.9028C35.9085 74.9188 28.922 74.4444 21.9928 73.4928C19.4528 73.0528 17.6728 72.4928 16.9928 71.9228C16.8084 71.723 16.6656 71.4884 16.5728 71.2328C13.3328 64.1228 11.8328 14.9528 14.8828 12.1028C17.7028 9.48282 29.0628 8.30285 40.4528 8.16285H41.3528C53.4628 8.08285 65.3528 9.16285 66.7828 10.8829C69.2428 13.8929 69.0928 54.8928 66.2428 68.8228Z" fill="#FF7EEF"/>
<path d="M62.4028 70.2426C61.9728 71.9126 61.4928 73.0126 60.9628 73.3426C60.2649 73.6929 59.5154 73.9292 58.7428 74.0426C53.6716 74.7897 48.5481 75.1242 43.4228 75.0426H42.9328C32.3028 75.1126 20.1028 74.3826 15.3328 72.9226C14.6759 72.7659 14.0592 72.473 13.5228 72.0626C11.0428 69.6426 9.4328 42.4527 9.8028 25.5327C9.9628 18.4327 10.4728 13.1426 11.4128 12.2626C14.5228 9.36263 28.0428 8.26263 40.5228 8.32263H41.4228C52.2228 8.45263 62.0228 9.47263 63.3128 11.0426C65.7828 13.9926 65.5428 57.8526 62.4028 70.2426Z" fill="#B02CC7"/>
<path d="M16.1426 10.2425C16.1426 10.2425 40.1426 5.84256 63.3026 11.0326H66.8426C66.8426 11.0326 64.9826 8.82256 52.7326 7.94256C40.4881 7.04406 28.1782 7.81783 16.1426 10.2425Z" fill="#FFE3E2"/>
<path d="M64.493 73.3028H64.423C63.8077 73.5585 63.1722 73.7626 62.523 73.9128H62.393C59.463 74.6328 52.973 75.6328 39.913 75.4028C20.593 75.0528 15.633 72.9728 15.333 72.8428C15.333 72.8428 17.923 73.1828 22.023 73.5528C29.7141 74.282 37.4377 74.6158 45.163 74.5528H47.163C50.593 74.4728 53.413 74.3528 55.693 74.2228L58.693 74.0128C60.6393 73.8981 62.5765 73.661 64.493 73.3028Z" fill="#A72FC9"/>
<g opacity="0.3" style="mix-blend-mode:multiply">
<path d="M14.2827 13.8329C10.6827 15.8329 13.1827 47.4129 19.7027 57.3429C26.2227 67.2729 58.2627 46.0629 62.3227 36.3429C66.3827 26.6229 60.7427 13.9229 55.4627 11.0229C50.1827 8.12291 18.1927 11.6329 14.2827 13.8329Z" fill="#F0B5F9"/>
</g>
<g opacity="0.3" style="mix-blend-mode:overlay">
<path d="M32.6526 74.2424C23.4926 71.6024 58.5126 52.0525 61.5326 50.9025C64.5526 49.7525 63.1826 70.2924 60.9826 72.9024C58.7826 75.5124 32.6526 74.2424 32.6526 74.2424Z" fill="white"/>
</g>
<g opacity="0.8" style="mix-blend-mode:multiply">
<path d="M64.9826 11.0029C64.0926 11.0029 65.5226 26.6729 64.9826 45.1729C64.4426 63.6729 63.5826 67.3629 64.4926 68.0729C65.4026 68.7829 68.7826 49.6229 68.4926 35.2529C68.2026 20.8829 67.2927 11.8829 66.8227 11.6129C66.227 11.3597 65.6116 11.1557 64.9826 11.0029Z" fill="#DF9AE3"/>
</g>
<g opacity="0.8" style="mix-blend-mode:multiply">
<path d="M66.2428 68.8226C65.7528 71.2726 65.1628 72.8826 64.4928 73.3026H64.4228C63.8235 73.5998 63.1831 73.8054 62.5228 73.9126H62.3928C59.4628 74.6326 52.9728 75.6326 39.9128 75.4026C20.5928 75.0526 15.6328 72.9726 15.3328 72.8426C14.6759 72.6859 14.0592 72.3929 13.5228 71.9826C11.0428 69.5626 9.4328 42.3726 9.8028 25.4526C10.0128 32.8126 10.9728 62.4527 13.2928 68.3127C13.9875 69.7022 15.1854 70.7749 16.6428 71.3127C20.2328 73.0027 26.1528 73.8427 32.5428 74.1227C35.4728 74.2427 38.5428 74.2527 41.4728 74.1227C48.4666 73.7704 55.38 72.4685 62.0228 70.2527L62.4128 70.1227C64.6528 69.4427 66.1128 68.8826 66.2428 68.8226Z" fill="#F19AF2"/>
</g>
<path d="M47.2329 9.24249C42.0829 9.61249 46.3029 15.6725 50.7029 17.9625C55.1029 20.2525 59.0629 12.3325 59.7029 11.0225C60.3429 9.71249 50.3529 9.00249 47.2329 9.24249Z" fill="white"/>
<path d="M62.013 68.8225C61.523 71.2725 60.933 72.8825 60.273 73.3025H60.193C59.5938 73.5997 58.9533 73.8053 58.293 73.9125H58.163C54.433 74.6925 46.993 75.0325 39.163 74.9125H38.683C31.6854 74.9184 24.6956 74.444 17.763 73.4925C15.223 73.0525 13.443 72.4925 12.813 71.9225C12.6284 71.7209 12.4827 71.487 12.383 71.2325C9.16304 64.2425 7.65303 15.0725 10.723 12.2425C13.533 9.6225 24.893 8.4425 36.283 8.3025H37.183C49.303 8.2225 61.183 9.3025 62.623 11.0225C65.023 13.8925 64.863 54.8925 62.013 68.8225Z" fill="#FF7EEF"/>
<path d="M58.1728 70.2426C57.7528 71.9126 57.2628 73.0126 56.7328 73.3426C56.0355 73.6945 55.2858 73.9309 54.5128 74.0426C49.4416 74.7897 44.3181 75.1242 39.1928 75.0426H38.7128C28.0728 75.1126 15.8728 74.3826 11.1128 72.9226C10.4522 72.7678 9.83188 72.4747 9.29282 72.0626C6.81282 69.6426 5.20282 42.4527 5.57282 25.5327C5.73282 18.4327 6.2428 13.1426 7.1828 12.2626C10.2928 9.36263 23.8128 8.26263 36.2928 8.32263H37.1928C47.9928 8.45263 57.7928 9.47263 59.0928 11.0426C61.5628 13.9926 61.3228 57.8526 58.1728 70.2426Z" fill="#FF97D0"/>
<path d="M11.9126 10.2427C11.9126 10.2427 35.9126 5.84271 59.0826 11.0327H62.6526C62.6526 11.0327 60.7826 8.82271 48.5326 7.94271C36.2781 7.04147 23.958 7.81526 11.9126 10.2427Z" fill="#FFE3E2"/>
<path d="M60.2728 73.3028H60.1928C59.5783 73.5606 58.9426 73.7646 58.2928 73.9128H58.1628C55.2428 74.6328 48.7428 75.6328 35.6928 75.4028C16.3628 75.0528 11.4028 72.9728 11.1128 72.8428C11.1128 72.8428 13.6928 73.1828 17.7928 73.5528C25.484 74.2818 33.2074 74.6155 40.9328 74.5528H42.9328C46.3628 74.4728 49.1828 74.3528 51.4628 74.2228L54.4628 74.0128C56.4124 73.8973 58.3528 73.6601 60.2728 73.3028Z" fill="#A72FC9"/>
<g opacity="0.3" style="mix-blend-mode:multiply">
<path d="M10.0527 13.8329C6.45269 15.8329 8.96271 47.4129 15.4727 57.3429C21.9827 67.2729 54.0427 46.0629 58.0927 36.3429C62.1427 26.6229 56.5227 13.9229 51.2327 11.0229C45.9427 8.12291 13.9627 11.6329 10.0527 13.8329Z" fill="#F0B5F9"/>
</g>
<g opacity="0.3" style="mix-blend-mode:overlay">
<path d="M28.4529 74.2424C19.2929 71.6024 54.3129 52.0525 57.3429 50.9025C60.3729 49.7525 58.9829 70.2924 56.7829 72.9024C54.5829 75.5124 28.4529 74.2424 28.4529 74.2424Z" fill="white"/>
</g>
<g opacity="0.8" style="mix-blend-mode:multiply">
<path d="M60.7529 11.0029C59.8629 11.0029 61.2929 26.6729 60.7529 45.1729C60.2129 63.6729 59.3529 67.3629 60.2729 68.0729C61.1929 68.7829 64.5529 49.6229 64.2729 35.2529C63.9929 20.8829 63.0629 11.8829 62.6029 11.6129C62.0034 11.3607 61.3848 11.1567 60.7529 11.0029Z" fill="#DF9AE3"/>
</g>
<g opacity="0.8" style="mix-blend-mode:multiply">
<path d="M62.0128 68.8226C61.5228 71.2726 60.9328 72.8826 60.2728 73.3026H60.1928C59.5935 73.5998 58.9531 73.8054 58.2928 73.9126H58.1628C55.2428 74.6326 48.7428 75.6326 35.6928 75.4026C16.3628 75.0526 11.4028 72.9726 11.1128 72.8426C10.4522 72.6878 9.83188 72.3947 9.29282 71.9826C6.81282 69.5626 5.20282 42.3726 5.57282 25.4526C5.78282 32.8126 6.75281 62.4527 9.06281 68.3127C9.76311 69.6979 10.959 70.7688 12.4128 71.3127C16.0128 73.0027 21.9228 73.8427 28.3128 74.1227C31.2428 74.2427 34.3128 74.2527 37.2428 74.1227C44.2368 73.7724 51.1505 72.4704 57.7928 70.2527L58.1828 70.1227C60.4628 69.4427 61.8828 68.8826 62.0128 68.8226Z" fill="#F19AF2"/>
</g>
<path d="M43.0129 9.24249C37.8629 9.61249 42.0729 15.6725 46.4829 17.9625C50.8929 20.2525 54.8429 12.3325 55.4829 11.0225C56.1229 9.71249 46.1229 9.00249 43.0129 9.24249Z" fill="white"/>
<g opacity="0.78" style="mix-blend-mode:multiply">
<path d="M7.65302 66.4025C7.65302 66.4025 26.153 70.9525 41.493 70.5925C58.173 70.2025 58.493 66.5925 59.493 58.7725C60.153 53.6325 60.493 20.6925 60.133 15.8425C59.773 10.9925 58.033 10.5625 58.033 10.5625L7.33301 64.4925L7.65302 66.4025Z" fill="#C02FCD"/>
</g>
<path d="M56.5127 61.2426C56.0127 63.6926 55.4327 65.3026 54.7627 65.7226H54.6827C54.0846 66.0139 53.4483 66.2193 52.7927 66.3326H52.6627C48.9227 67.1126 41.4827 67.4426 33.6627 67.3826H33.1827C26.1851 67.3882 19.1953 66.9137 12.2627 65.9626C9.73266 65.5226 7.94268 64.9626 7.31268 64.3926C7.12809 64.191 6.98232 63.9571 6.88269 63.7026C3.65269 56.5926 2.15266 7.42255 5.20266 4.57255C8.02266 1.95255 19.3827 0.772578 30.7627 0.632578H31.6527C43.7627 0.552578 55.6527 1.63255 57.0827 3.35255C59.5127 6.34255 59.3527 47.3426 56.5127 61.2426Z" fill="#FF7EEF"/>
<path d="M52.6531 62.6428C52.2231 64.3228 51.7431 65.4228 51.2131 65.7528C50.5121 66.1044 49.7591 66.3407 48.983 66.4528C43.9119 67.2003 38.7884 67.5347 33.6631 67.4528H33.1831C22.5431 67.5128 10.353 66.7928 5.58305 65.3328C4.92532 65.1784 4.3082 64.8852 3.77305 64.4728C1.28305 62.0528 -0.31695 34.8628 0.0530501 17.9428C0.21305 10.8428 0.723066 5.55279 1.66307 4.67279C4.76307 1.77279 18.293 0.672785 30.763 0.732785H31.6531C42.4531 0.862785 52.2531 1.88279 53.5431 3.45279C56.0531 6.44279 55.8131 50.3028 52.6531 62.6428Z" fill="url(#paint0_linear_728_2251)"/>
<path d="M6.40283 2.66249C6.40283 2.66249 30.4028 -1.73751 53.5728 3.44249H57.1128C57.1128 3.44249 55.2528 1.24248 42.9928 0.362476C30.7483 -0.53602 18.4385 0.237779 6.40283 2.66249Z" fill="#FFE3E2"/>
<path d="M54.763 65.7525H54.683C54.0715 66.0093 53.4393 66.2134 52.793 66.3625H52.663C49.733 67.0725 43.233 68.0825 30.183 67.8525C10.853 67.5025 5.90303 65.4225 5.60303 65.2925C5.60303 65.2925 8.18302 65.6225 12.283 66.0025C19.9742 66.7315 27.6976 67.0652 35.423 67.0025H37.473C40.903 66.9225 43.713 66.8025 45.993 66.6725H46.043L49.043 66.4625C50.9624 66.3433 52.8727 66.1062 54.763 65.7525Z" fill="#A72FC9"/>
<g opacity="0.3" style="mix-blend-mode:multiply">
<path d="M4.54263 6.2429C0.94263 8.2429 3.45262 39.8229 9.97262 49.7529C16.4926 59.6829 48.5326 38.4729 52.5926 28.7529C56.6526 19.0329 51.0126 6.33289 45.7226 3.42289C40.4326 0.512892 8.46263 4.0829 4.54263 6.2429Z" fill="#F0B5F9"/>
</g>
<g opacity="0.3" style="mix-blend-mode:overlay">
<path d="M22.9426 66.6526C13.7826 64.0126 48.8026 44.4626 51.8326 43.3126C54.8626 42.1626 53.4726 62.7026 51.2726 65.3126C49.0726 67.9226 22.9426 66.6526 22.9426 66.6526Z" fill="white"/>
</g>
<g opacity="0.5" style="mix-blend-mode:multiply">
<path d="M55.2527 3.44287C54.3627 3.44287 55.7927 19.1229 55.2527 37.6229C54.7127 56.1229 53.8427 59.8129 54.7627 60.5229C55.6827 61.2329 59.0427 42.0729 58.7627 27.7029C58.4827 13.3329 57.5527 4.33287 57.0927 4.06287C56.4968 3.80756 55.8816 3.60024 55.2527 3.44287Z" fill="#DF9AE3"/>
</g>
<g opacity="0.8" style="mix-blend-mode:multiply">
<path d="M56.513 61.2426C56.013 63.6926 55.433 65.3026 54.763 65.7226H54.6831C54.0849 66.0139 53.4487 66.2193 52.7931 66.3326H52.6631C49.7331 67.0426 43.2331 68.0525 30.1831 67.8225C10.8531 67.4725 5.90307 65.3925 5.60307 65.2625C4.94534 65.1081 4.32822 64.8149 3.79307 64.4026C1.30307 61.9826 -0.29693 34.7926 0.0730696 17.8726C0.27307 25.2326 1.24305 54.8725 3.55305 60.7325C4.25335 62.1178 5.44927 63.1887 6.90306 63.7325C10.5031 65.4225 16.4131 66.2625 22.8131 66.5425C25.7431 66.6625 28.813 66.6725 31.733 66.5425C38.7302 66.1912 45.647 64.8893 52.2931 62.6725L52.6831 62.5326C54.9531 61.8926 56.383 61.3226 56.513 61.2426Z" fill="#F19AF2"/>
</g>
<path d="M37.5027 1.6726C32.3527 2.0426 36.5627 8.1026 40.9727 10.3926C45.3827 12.6826 49.3327 4.76262 49.9727 3.44262C50.6127 2.12262 40.6527 1.4526 37.5027 1.6726Z" fill="white"/>
<defs>
<linearGradient id="paint0_linear_728_2251" x1="27.6331" y1="67.4928" x2="27.6331" y2="0.732785" gradientUnits="userSpaceOnUse">
<stop stop-color="#FDBDFF"/>
<stop offset="1" stop-color="#FFD9D3"/>
</linearGradient>
</defs>
</svg>
