<svg width="69" height="76" viewBox="0 0 69 76" fill="none" xmlns="http://www.w3.org/2000/svg">
<path d="M66.2326 68.8229C65.7326 71.2729 65.1526 72.8829 64.4826 73.3029H64.4026C63.8045 73.5942 63.1682 73.7996 62.5126 73.9128H62.3826C58.6426 74.6928 51.2026 75.0228 43.3826 74.9128H42.9026C35.9052 74.9134 28.9158 74.439 21.9826 73.4929C19.4426 73.0529 17.6626 72.4928 17.0326 71.9128C16.848 71.7151 16.7021 71.4845 16.6026 71.2329C13.3626 64.1129 11.8726 14.9529 14.9226 12.1029C17.7326 9.48285 29.0926 8.30285 40.4826 8.16285H41.3826C53.5026 8.08285 65.3826 9.16287 66.8226 10.8729C69.2326 13.8829 69.0726 54.8929 66.2326 68.8229Z" fill="#7E8BFF"/>
<path d="M62.3928 70.1926C61.9628 71.8726 61.4728 72.9626 60.9428 73.3026C60.2461 73.656 59.4961 73.8925 58.7228 74.0026C53.6516 74.7501 48.5281 75.0846 43.4028 75.0026H42.9228C32.2828 75.0626 20.0928 74.3426 15.3228 72.8826C14.6619 72.732 14.0433 72.4347 13.5128 72.0126C11.0228 69.6026 9.4228 42.4026 9.7928 25.4926C9.9528 18.3826 10.4628 13.0926 11.4028 12.2226C14.5028 9.32259 28.0328 8.22259 40.5028 8.28259H41.4028C52.2128 8.41259 62.0128 9.43261 63.3028 10.9926C65.8228 13.9926 65.5328 57.8526 62.3928 70.1926Z" fill="#2C55C7"/>
<path d="M16.1226 10.2127C16.1226 10.2127 40.1226 5.81274 63.2926 10.9927H66.8226C66.8226 10.9927 64.9626 8.79272 52.7026 7.91272C40.4614 7.01514 28.1549 7.78891 16.1226 10.2127Z" fill="#EFE2FF"/>
<path d="M64.4828 73.3028H64.4027C63.7913 73.5596 63.159 73.7637 62.5128 73.9128H62.3828C59.4528 74.6228 52.9527 75.6328 39.9027 75.3928C20.5727 75.0528 15.6228 72.9728 15.3228 72.8428C15.3228 72.8428 17.9027 73.1728 22.0027 73.5528C29.6939 74.2818 37.4174 74.6155 45.1428 74.5528L47.1927 74.5028C50.6227 74.4328 53.4328 74.3128 55.7128 74.1828H55.7628L58.7628 73.9728C60.6813 73.8668 62.5916 73.643 64.4828 73.3028Z" fill="#2F64C9"/>
<g opacity="0.3" style="mix-blend-mode:multiply">
<path d="M14.2628 13.8329C10.6628 15.8329 13.1728 47.4128 19.6928 57.3428C26.2128 67.2728 58.2528 46.0628 62.3128 36.3428C66.3728 26.6228 60.7328 13.9229 55.4428 11.0129C50.1528 8.10287 18.1828 11.6229 14.2628 13.8329Z" fill="#B5C6F9"/>
</g>
<g opacity="0.3" style="mix-blend-mode:overlay">
<path d="M32.6629 74.2029C23.5029 71.5629 58.5229 52.0129 61.5529 50.8629C64.5829 49.7129 63.1929 70.2529 60.9929 72.8629C58.7929 75.4729 32.6629 74.2029 32.6629 74.2029Z" fill="white"/>
</g>
<g opacity="0.8" style="mix-blend-mode:multiply">
<path d="M64.9728 10.9927C64.0728 10.9927 65.5028 26.6727 64.9728 45.1727C64.4428 63.6727 63.5628 67.3627 64.4828 68.0627C65.4028 68.7627 68.7628 49.6227 68.4828 35.2527C68.2028 20.8827 67.2728 11.8727 66.8128 11.6127C66.2164 11.3588 65.6012 11.1516 64.9728 10.9927Z" fill="#9AA9E3"/>
</g>
<g opacity="0.8" style="mix-blend-mode:multiply">
<path d="M66.2328 68.8226C65.7328 71.2726 65.1528 72.8826 64.4828 73.3026H64.4028C63.8047 73.594 63.1684 73.7993 62.5128 73.9126H62.3828C59.4528 74.6226 52.9528 75.6326 39.9028 75.3926C20.5728 75.0526 15.6228 72.9726 15.3228 72.8426C14.6619 72.692 14.0433 72.3947 13.5128 71.9726C11.0228 69.5626 9.4228 42.3626 9.7928 25.4526C9.9928 32.8126 10.9628 62.4526 13.2728 68.3126C13.9731 69.6978 15.169 70.7688 16.6228 71.3126C20.2228 73.0026 26.1328 73.8326 32.5328 74.1126C35.4528 74.2326 38.5328 74.2426 41.4528 74.1626C48.4511 73.8135 55.3686 72.508 62.0128 70.2826L62.4028 70.1526C64.6728 69.4426 66.1028 68.8726 66.2328 68.8226Z" fill="#9AAAF2"/>
</g>
<path d="M47.2229 9.22268C42.0729 9.59268 46.2829 15.6527 50.6929 17.9427C55.1029 20.2327 59.0529 12.3127 59.6929 10.9427C60.3329 9.57271 50.3429 9.00268 47.2229 9.22268Z" fill="white"/>
<path d="M62.0029 68.8225C61.5129 71.2725 60.9229 72.8825 60.2529 73.3025H60.1829C59.5819 73.5955 58.9421 73.8009 58.2829 73.9125H58.1529C54.4129 74.6925 46.9729 75.0225 39.1529 74.9125H38.6729C31.7016 74.9496 24.7357 74.5153 17.8229 73.6125C15.2829 73.1725 13.4929 72.6125 12.8229 72.0325C12.6383 71.8347 12.4924 71.6041 12.3929 71.3525C9.16292 64.2325 7.66293 15.0725 10.7129 12.2225C13.5329 9.60248 24.8929 8.42248 36.2829 8.28248H37.1829C49.2929 8.20248 61.1829 9.2825 62.6129 10.9925C65.0029 13.8825 64.8229 54.8925 62.0029 68.8225Z" fill="#7E8BFF"/>
<path d="M58.1626 70.1926C57.7326 71.8726 57.2526 72.9626 56.7226 73.3026C56.0246 73.6529 55.2752 73.8892 54.5026 74.0026C49.428 74.7497 44.3012 75.0841 39.1726 75.0026H38.6926C28.0626 75.0626 15.8626 74.3426 11.0926 72.8826C10.4324 72.7298 9.81428 72.4327 9.28257 72.0126C6.80257 69.6026 5.19256 42.4026 5.56256 25.4926C5.72256 18.3826 6.23258 13.0926 7.17258 12.2226C10.2726 9.32259 23.8026 8.22259 36.2826 8.28259H37.1826C47.9826 8.41259 57.7826 9.43261 59.0726 10.9926C61.5426 13.9926 61.3026 57.8526 58.1626 70.1926Z" fill="#A197FF"/>
<path d="M11.9028 10.2126C11.9028 10.2126 35.9028 5.8126 59.0628 10.9926H62.6028C62.6028 10.9926 60.7429 8.79258 48.4929 7.91258C36.2483 7.01358 23.9384 7.78736 11.9028 10.2126Z" fill="#EFE2FF"/>
<path d="M60.2528 73.3028H60.1828C59.5669 73.557 58.9315 73.7609 58.2828 73.9128H58.1528C55.2228 74.6228 48.7228 75.6328 35.6728 75.3928C16.3428 75.0528 11.3928 72.9728 11.0928 72.8428C11.0928 72.8428 13.6828 73.1728 17.7828 73.5528C25.4739 74.2818 33.1974 74.6155 40.9228 74.5528L42.9728 74.5028C46.4028 74.4328 49.2228 74.3128 51.4928 74.1828L54.4928 73.9728C56.4248 73.8685 58.3484 73.6448 60.2528 73.3028Z" fill="#2F64C9"/>
<g opacity="0.3" style="mix-blend-mode:multiply">
<path d="M10.0425 13.8329C6.43253 15.8329 8.94254 47.4128 15.4625 57.3428C21.9825 67.2728 54.0225 46.0628 58.0825 36.3428C62.1425 26.6228 56.5025 13.9229 51.2225 11.0129C45.9425 8.10287 13.9525 11.6229 10.0425 13.8329Z" fill="#B5C6F9"/>
</g>
<g opacity="0.3" style="mix-blend-mode:overlay">
<path d="M28.4326 74.2029C19.2826 71.5629 54.2926 52.0129 57.3226 50.8629C60.3526 49.7129 58.9726 70.2529 56.7626 72.8629C54.5526 75.4729 28.4326 74.2029 28.4326 74.2029Z" fill="white"/>
</g>
<g opacity="0.8" style="mix-blend-mode:multiply">
<path d="M60.7429 10.9927C59.8529 10.9927 61.2829 26.6727 60.7429 45.1727C60.2029 63.6727 59.3429 67.3627 60.2529 68.0627C61.1629 68.7627 64.5329 49.6227 64.2529 35.2527C63.9729 20.8827 63.0429 11.8727 62.5829 11.6127C61.987 11.3574 61.3718 11.15 60.7429 10.9927Z" fill="#9AA9E3"/>
</g>
<g opacity="0.8" style="mix-blend-mode:multiply">
<path d="M62.0026 68.8226C61.5126 71.2726 60.9226 72.8826 60.2526 73.3026H60.1826C59.5816 73.5956 58.9418 73.801 58.2826 73.9126H58.1526C55.2226 74.6226 48.7226 75.6326 35.6726 75.3926C16.3426 75.0526 11.3926 72.9726 11.0926 72.8426C10.4324 72.6897 9.81428 72.3926 9.28257 71.9726C6.80257 69.5626 5.19256 42.3626 5.56256 25.4526C5.76256 32.8126 6.73259 62.4526 9.05259 68.3126C9.74569 69.6996 10.9394 70.7718 12.3926 71.3126C15.9926 73.0026 21.9026 73.8326 28.3026 74.1126C31.2326 74.2326 34.3026 74.2426 37.2226 74.1626C44.2325 73.83 51.1637 72.538 57.8226 70.3226L58.2126 70.1926C60.4526 69.4426 61.8726 68.8726 62.0026 68.8226Z" fill="#9AAAF2"/>
</g>
<path d="M42.9927 9.22268C37.8427 9.59268 42.0627 15.6527 46.4627 17.9427C50.8627 20.2327 54.8227 12.3127 55.4627 10.9427C56.1027 9.57271 46.1127 9.00268 42.9927 9.22268Z" fill="white"/>
<g opacity="0.78" style="mix-blend-mode:multiply">
<path d="M7.63275 66.4027C7.63275 66.4027 26.1428 70.9428 41.4828 70.5828C58.1628 70.1928 58.4828 66.5828 59.4828 58.7728C60.1528 53.6328 60.4827 20.6927 60.1227 15.8427C59.7627 10.9927 58.0228 10.5527 58.0228 10.5527L7.32275 64.4827L7.63275 66.4027Z" fill="#2F51CD"/>
</g>
<path d="M56.4928 61.2729C56.0028 63.7229 55.4128 65.3329 54.7428 65.7529H54.6728C54.0743 66.0541 53.4338 66.2631 52.7728 66.3729H52.6428C48.9128 67.1529 41.4728 67.4829 33.6428 67.3729H33.1528C26.1582 67.3761 19.1718 66.8983 12.2428 65.9429C9.7028 65.5129 7.9228 64.9929 7.2428 64.3729C7.06172 64.1743 6.91927 63.9437 6.82279 63.6929C3.58279 56.5729 2.08279 7.40286 5.13279 4.56286C7.95279 1.94286 19.3128 0.762855 30.7028 0.622855H31.6028C43.7128 0.532855 55.6028 1.62288 57.0428 3.33288C59.4928 6.33288 59.3428 47.3429 56.4928 61.2729Z" fill="#7E8BFF"/>
<path d="M52.6528 62.6428C52.2228 64.3228 51.7428 65.4128 51.2128 65.7528C50.5158 66.1034 49.7657 66.3365 48.9928 66.4428C43.9222 67.1959 38.7982 67.5304 33.6728 67.4428H33.1828C22.5528 67.5028 10.3528 66.7828 5.5828 65.3228C4.9234 65.1678 4.30573 64.8709 3.7728 64.4528C1.2928 62.0428 -0.317201 34.8428 0.052799 17.9228C0.212799 10.8128 0.722784 5.52277 1.66278 4.65277C4.77278 1.75277 18.2928 0.652766 30.7728 0.712766H31.6728C42.4728 0.842766 52.2728 1.86279 53.5628 3.42279C56.0428 6.44279 55.8228 50.3028 52.6528 62.6428Z" fill="url(#paint0_linear_728_2258)"/>
<path d="M6.39258 2.66247C6.39258 2.66247 30.3926 -1.7375 53.5626 3.4425H57.0926C57.0926 3.4425 55.2326 1.24248 42.9826 0.362481C30.7381 -0.536015 18.4282 0.237754 6.39258 2.66247Z" fill="#EFE2FF"/>
<path d="M54.7425 65.7425H54.6725C54.0604 66.0092 53.4241 66.2168 52.7725 66.3625H52.6425C49.7125 67.0725 43.2225 68.0825 30.1625 67.8425C10.8425 67.5025 5.88252 65.4225 5.58252 65.2925C5.58252 65.2925 8.17252 65.6225 12.2725 65.9925C19.9636 66.7223 27.6871 67.0561 35.4125 66.9925H37.4125C40.8425 66.9225 43.6625 66.8025 45.9425 66.6725C47.0625 66.5925 48.0425 66.5325 48.9425 66.4525C50.889 66.3398 52.8263 66.1026 54.7425 65.7425Z" fill="#2F64C9"/>
<g opacity="0.3" style="mix-blend-mode:multiply">
<path d="M4.53272 6.28259C0.932724 8.28259 3.43274 39.8626 9.95274 49.7926C16.4727 59.7226 48.5127 38.5026 52.5727 28.7926C56.6327 19.0826 50.9927 6.37258 45.7127 3.46258C40.4327 0.55258 8.44272 4.07259 4.53272 6.28259Z" fill="#B5C6F9"/>
</g>
<g opacity="0.3" style="mix-blend-mode:overlay">
<path d="M22.9325 66.6526C13.8225 64.0126 48.8225 44.4626 51.8225 43.3126C54.8225 42.1626 53.4625 62.7026 51.2625 65.3126C49.0625 67.9226 22.9325 66.6526 22.9325 66.6526Z" fill="white"/>
</g>
<g opacity="0.5" style="mix-blend-mode:multiply">
<path d="M55.2329 3.44287C54.3429 3.44287 55.7729 19.1229 55.2329 37.6129C54.6929 56.1029 53.8329 59.8129 54.7529 60.5129C55.6729 61.2129 59.0329 42.0729 58.7529 27.6929C58.4729 13.3129 57.5529 4.32287 57.0829 4.06287C56.4855 3.80249 55.8665 3.59503 55.2329 3.44287Z" fill="#9AA9E3"/>
</g>
<g opacity="0.8" style="mix-blend-mode:multiply">
<path d="M56.4928 61.2729C56.0028 63.7229 55.4128 65.3329 54.7428 65.7529H54.6728C54.0743 66.0541 53.4338 66.2631 52.7728 66.3729H52.6428C49.7128 67.0829 43.2228 68.0928 30.1628 67.8528C10.8428 67.5128 5.8828 65.4329 5.5828 65.3029C4.9234 65.1479 4.30573 64.851 3.7728 64.4329C1.2928 62.0229 -0.317201 34.8228 0.052799 17.9028C0.262799 25.2728 1.22279 54.9029 3.54279 60.7729C4.23747 62.1624 5.43535 63.2351 6.8928 63.7729C10.4828 65.4629 16.4028 66.2929 22.7928 66.5729C25.7228 66.6929 28.7928 66.7029 31.7228 66.5729C38.7121 66.2391 45.6229 64.9505 52.2628 62.7429L52.6528 62.6129C54.9428 61.8929 56.3628 61.3229 56.4928 61.2729Z" fill="#9AAAF2"/>
</g>
<path d="M37.4829 1.6726C32.3429 2.0326 36.5529 8.10263 40.9529 10.3926C45.3529 12.6826 49.3129 4.76262 49.9529 3.44262C50.5929 2.12262 40.6029 1.4526 37.4829 1.6726Z" fill="white"/>
<defs>
<linearGradient id="paint0_linear_728_2258" x1="27.6128" y1="67.4828" x2="27.6128" y2="0.722769" gradientUnits="userSpaceOnUse">
<stop stop-color="#BDCAFF"/>
<stop offset="1" stop-color="#EED3FF"/>
</linearGradient>
</defs>
</svg>
