<svg width="69" height="76" viewBox="0 0 69 76" fill="none" xmlns="http://www.w3.org/2000/svg">
<path d="M66.2326 68.8266C65.7326 71.2766 65.1526 72.8866 64.4826 73.3066H64.4026C63.8071 73.6064 63.1701 73.8154 62.5126 73.9266H62.3826C58.6426 74.7066 51.2026 75.0366 43.3826 74.9266H42.9026C35.9048 74.9294 28.915 74.4516 21.9826 73.4966C19.4426 73.0666 17.6626 72.4966 17.0326 71.9266C16.8459 71.7266 16.6999 71.4923 16.6026 71.2366C13.3626 64.1266 11.8726 14.9566 14.9226 12.1166C17.7326 9.49657 29.0926 8.31657 40.4826 8.17657H41.3826C53.5026 8.08657 65.3826 9.17659 66.8226 10.8866C69.2326 13.8866 69.0726 54.8966 66.2326 68.8266Z" fill="#7EFF82"/>
<path d="M62.3928 70.1965C61.9628 71.8765 61.4728 72.9665 60.9428 73.3065C60.2471 73.6602 59.4964 73.8935 58.7228 73.9965C53.6517 74.745 48.5281 75.0794 43.4028 74.9965H42.9228C32.2828 75.0565 20.0928 74.3365 15.3228 72.8765C14.6619 72.7259 14.0433 72.4285 13.5128 72.0065C11.0228 69.5965 9.4228 42.3964 9.7928 25.4764C9.9528 18.3664 10.4628 13.0765 11.4028 12.2065C14.5028 9.30648 28.0328 8.20648 40.5028 8.26648H41.4028C52.2128 8.39648 62.0128 9.41644 63.3028 10.9764C65.8228 14.0064 65.5328 57.8565 62.3928 70.1965Z" fill="#4CC72C"/>
<path d="M16.1226 10.2162C16.1226 10.2162 40.1226 5.81615 63.2926 10.9961H66.8226C66.8226 10.9961 64.9626 8.79613 52.7026 7.91613C40.4614 7.01855 28.1549 7.79237 16.1226 10.2162Z" fill="#E2FFFF"/>
<path d="M64.4828 73.3065H64.4027C63.7944 73.574 63.1614 73.7816 62.5128 73.9265H62.3828C59.4528 74.6365 52.9527 75.6465 39.9027 75.4065C20.5727 75.0665 15.6228 72.9864 15.3228 72.8564C15.3228 72.8564 17.9027 73.1865 22.0027 73.5565C29.6939 74.2861 37.4174 74.6198 45.1428 74.5565L47.1927 74.5065C50.6227 74.4365 53.4328 74.3165 55.7128 74.1865H55.7628C56.8728 74.1065 57.8628 74.0465 58.7628 73.9665C60.6813 73.8657 62.5917 73.6452 64.4828 73.3065Z" fill="#59C92F"/>
<g opacity="0.3" style="mix-blend-mode:multiply">
<path d="M14.2628 13.8363C10.6628 15.8363 13.1728 47.4063 19.6928 57.3463C26.2128 67.2863 58.2528 46.0563 62.3128 36.3463C66.3728 26.6363 60.7328 13.9263 55.4428 11.0163C50.1528 8.10629 18.1828 11.6263 14.2628 13.8363Z" fill="#C2F9B5"/>
</g>
<g opacity="0.3" style="mix-blend-mode:overlay">
<path d="M32.6629 74.2063C23.5029 71.5663 58.5229 52.0163 61.5529 50.8663C64.5829 49.7163 63.1929 70.2563 60.9929 72.8663C58.7929 75.4763 32.6629 74.2063 32.6629 74.2063Z" fill="white"/>
</g>
<g opacity="0.8" style="mix-blend-mode:multiply">
<path d="M64.9728 11.0063C64.0728 11.0063 65.5028 26.6863 64.9728 45.1763C64.4428 63.6663 63.5628 67.3764 64.4828 68.0764C65.4028 68.7764 68.7628 49.6363 68.4828 35.2563C68.2028 20.8763 67.2728 11.8863 66.8128 11.6263C66.2181 11.368 65.6026 11.1605 64.9728 11.0063Z" fill="#A3E39A"/>
</g>
<g opacity="0.8" style="mix-blend-mode:multiply">
<path d="M66.2328 68.8265C65.7328 71.2765 65.1528 72.8865 64.4828 73.3065H64.4028C63.8073 73.6063 63.1702 73.8153 62.5128 73.9265H62.3828C59.4528 74.6365 52.9528 75.6466 39.9028 75.4066C20.5728 75.0666 15.6228 72.9865 15.3228 72.8565C14.6619 72.7059 14.0433 72.4086 13.5128 71.9865C11.0228 69.5765 9.4228 42.3765 9.7928 25.4565C9.9928 32.8265 10.9628 62.4565 13.2728 68.3265C13.9723 69.7124 15.1685 70.7836 16.6228 71.3265C20.2228 73.0265 26.1328 73.8565 32.5328 74.1365C35.4528 74.2565 38.5328 74.2665 41.4528 74.1865C48.4511 73.8374 55.3686 72.5319 62.0128 70.3065L62.4028 70.1765C64.6728 69.4465 66.1028 68.8765 66.2328 68.8265Z" fill="#A2F29A"/>
</g>
<path d="M47.2229 9.22658C42.0729 9.58658 46.2829 15.6566 50.6929 17.9466C55.1029 20.2366 59.0529 12.3166 59.6929 10.9466C60.3329 9.57662 50.3429 9.00658 47.2229 9.22658Z" fill="white"/>
<path d="M62.0029 68.8264C61.5129 71.2764 60.9229 72.8864 60.2529 73.3064H60.1829C59.5844 73.6076 58.9439 73.8166 58.2829 73.9264H58.1529C54.4129 74.7064 46.9729 75.0364 39.1529 74.9264H38.6729C31.7009 74.9625 24.7347 74.5214 17.8229 73.6064C15.2829 73.1764 13.4929 72.6064 12.8229 72.0364C12.6362 71.8365 12.4902 71.6021 12.3929 71.3464C9.16292 64.2364 7.66293 15.0664 10.7129 12.2264C13.5329 9.60637 24.8929 8.42643 36.2829 8.28643H37.1829C49.2929 8.19643 61.1829 9.28639 62.6129 10.9964C65.0029 13.8864 64.8229 54.8964 62.0029 68.8264Z" fill="#7EFF82"/>
<path d="M58.1626 70.1965C57.7326 71.8765 57.2526 72.9665 56.7226 73.3065C56.0256 73.657 55.2755 73.8902 54.5026 73.9965C49.4281 74.7445 44.3012 75.0789 39.1726 74.9965H38.6926C28.0626 75.0565 15.8626 74.3365 11.0926 72.8765C10.4324 72.7236 9.81428 72.4265 9.28257 72.0065C6.80257 69.5965 5.19256 42.3964 5.56256 25.4764C5.72256 18.3664 6.23258 13.0765 7.17258 12.2065C10.2726 9.30648 23.8026 8.20648 36.2826 8.26648H37.1826C47.9826 8.39648 57.7826 9.41644 59.0726 10.9764C61.5426 14.0064 61.3026 57.8565 58.1626 70.1965Z" fill="#97FFBA"/>
<path d="M11.9028 10.2165C11.9028 10.2165 35.9028 5.81649 59.0628 10.9965H62.6028C62.6028 10.9965 60.7429 8.79647 48.4929 7.91647C36.2483 7.01748 23.9384 7.79131 11.9028 10.2165Z" fill="#E2FFFF"/>
<path d="M60.2528 73.3065H60.1828C59.5699 73.5713 58.9339 73.7788 58.2828 73.9265H58.1528C55.2228 74.6365 48.7228 75.6465 35.6728 75.4065C16.3428 75.0665 11.3928 72.9864 11.0928 72.8564C11.0928 72.8564 13.6828 73.1865 17.7828 73.5565C25.4739 74.2861 33.1974 74.6198 40.9228 74.5565L42.9728 74.5065C46.4028 74.4365 49.2228 74.3165 51.4928 74.1865C52.6128 74.1065 53.5928 74.0465 54.4928 73.9665C56.4247 73.8675 58.3485 73.647 60.2528 73.3065Z" fill="#59C92F"/>
<g opacity="0.3" style="mix-blend-mode:multiply">
<path d="M10.0425 13.8363C6.43253 15.8363 8.94254 47.4063 15.4625 57.3463C21.9825 67.2863 54.0225 46.0563 58.0825 36.3463C62.1425 26.6363 56.5025 13.9063 51.2225 11.0063C45.9425 8.10627 13.9525 11.6263 10.0425 13.8363Z" fill="#C2F9B5"/>
</g>
<g opacity="0.3" style="mix-blend-mode:overlay">
<path d="M28.4326 74.2063C19.2826 71.5663 54.2926 52.0163 57.3226 50.8663C60.3526 49.7163 58.9726 70.2563 56.7626 72.8663C54.5526 75.4763 28.4326 74.2063 28.4326 74.2063Z" fill="white"/>
</g>
<g opacity="0.8" style="mix-blend-mode:multiply">
<path d="M60.7429 11.0063C59.8529 11.0063 61.2829 26.6863 60.7429 45.1763C60.2029 63.6663 59.3429 67.3764 60.2529 68.0764C61.1629 68.7764 64.5329 49.6363 64.2529 35.2563C63.9729 20.8763 63.0429 11.8863 62.5829 11.6263C61.9888 11.3665 61.3731 11.1591 60.7429 11.0063Z" fill="#A3E39A"/>
</g>
<g opacity="0.8" style="mix-blend-mode:multiply">
<path d="M62.0026 68.8265C61.5126 71.2765 60.9226 72.8865 60.2526 73.3065H60.1826C59.5841 73.6077 58.9435 73.8167 58.2826 73.9265H58.1526C55.2226 74.6365 48.7226 75.6466 35.6726 75.4066C16.3426 75.0666 11.3926 72.9865 11.0926 72.8565C10.4324 72.7037 9.81428 72.4066 9.28257 71.9865C6.80257 69.5765 5.19256 42.3765 5.56256 25.4565C5.76256 32.8265 6.73259 62.4565 9.05259 68.3265C9.74488 69.7142 10.9389 70.7866 12.3926 71.3265C15.9926 73.0265 21.9026 73.8565 28.3026 74.1365C31.2326 74.2565 34.3026 74.2665 37.2226 74.1865C44.2334 73.8475 51.1646 72.5488 57.8226 70.3265L58.2126 70.1965C60.4526 69.4465 61.8726 68.8765 62.0026 68.8265Z" fill="#A2F29A"/>
</g>
<path d="M42.9927 9.22658C37.8427 9.58658 42.0627 15.6566 46.4627 17.9466C50.8627 20.2366 54.8227 12.3166 55.4627 10.9466C56.1027 9.57662 46.1127 9.00658 42.9927 9.22658Z" fill="white"/>
<g opacity="0.78" style="mix-blend-mode:multiply">
<path d="M7.63275 66.4062C7.63275 66.4062 26.1428 70.9462 41.4828 70.5862C58.1628 70.1962 58.4828 66.5862 59.4828 58.7662C60.1528 53.6362 60.4827 20.6962 60.1227 15.8462C59.7627 10.9962 58.0228 10.5562 58.0228 10.5562L7.32275 64.4861L7.63275 66.4062Z" fill="#46CD2F"/>
</g>
<path d="M56.4928 61.2764C56.0028 63.7264 55.4128 65.3363 54.7428 65.7563H54.6728C54.0743 66.0575 53.4338 66.2666 52.7728 66.3763H52.6428C48.9128 67.1663 41.4728 67.4963 33.6428 67.4363H33.1528C26.1582 67.4396 19.1718 66.9618 12.2428 66.0063C9.7028 65.5763 7.9228 65.0563 7.2428 64.4363C7.05967 64.2355 6.91705 64.0012 6.82279 63.7463C3.58279 56.6363 2.08279 7.46633 5.13279 4.62633C7.95279 2.00633 19.3128 0.826332 30.7028 0.686332H31.6028C43.7128 0.596332 55.6028 1.68635 57.0428 3.39635C59.4928 6.33635 59.3428 47.3464 56.4928 61.2764Z" fill="#7EFF82"/>
<path d="M52.6528 62.6465C52.2228 64.3165 51.7428 65.4165 51.2128 65.7565C50.5158 66.107 49.7657 66.3402 48.9928 66.4465C43.9217 67.1945 38.7981 67.529 33.6728 67.4465H33.1828C22.5528 67.5065 10.3528 66.7865 5.5828 65.3265C4.9234 65.1715 4.30573 64.8746 3.7728 64.4565C1.2928 62.0365 -0.317201 34.8465 0.052799 17.9265C0.212799 10.8265 0.722784 5.53644 1.66278 4.66644C4.77278 1.76644 18.2928 0.666438 30.7728 0.726438H31.6728C42.4728 0.856438 52.2728 1.87646 53.5628 3.43646C56.0428 6.43646 55.8228 50.3065 52.6528 62.6465Z" fill="url(#paint0_linear_728_2254)"/>
<path d="M6.39258 2.66617C6.39258 2.66617 30.3926 -1.7338 53.5626 3.4462H57.0926C57.0926 3.4462 55.2326 1.24617 42.9826 0.356173C30.7376 -0.532828 18.4286 0.244263 6.39258 2.66617Z" fill="#E2FFFF"/>
<path d="M54.7425 65.7564H54.6725C54.0604 66.0231 53.4241 66.2307 52.7725 66.3764H52.6425C49.7125 67.0964 43.2225 68.0964 30.1625 67.8664C10.8425 67.5264 5.88252 65.4464 5.58252 65.3164C5.58252 65.3164 8.17252 65.6464 12.2725 66.0164C19.9636 66.7463 27.6871 67.08 35.4125 67.0164H37.4125C40.8425 66.9464 43.6625 66.8264 45.9425 66.6964C47.0625 66.6164 48.0425 66.5564 48.9425 66.4764C50.8892 66.3603 52.8265 66.1199 54.7425 65.7564Z" fill="#59C92F"/>
<g opacity="0.3" style="mix-blend-mode:multiply">
<path d="M4.53272 6.28649C0.932724 8.28649 3.43274 39.8564 9.95274 49.7964C16.4727 59.7364 48.5127 38.5064 52.5727 28.7964C56.6327 19.0864 50.9927 6.37649 45.7127 3.46649C40.4327 0.556486 8.44272 4.07649 4.53272 6.28649Z" fill="#C2F9B5"/>
</g>
<g opacity="0.3" style="mix-blend-mode:overlay">
<path d="M22.9325 66.6566C13.8225 64.0066 48.8225 44.4665 51.8225 43.3065C54.8225 42.1465 53.4625 62.7065 51.2625 65.3565C49.0625 68.0065 22.9325 66.6566 22.9325 66.6566Z" fill="white"/>
</g>
<g opacity="0.5" style="mix-blend-mode:multiply">
<path d="M55.2329 3.44629C54.3429 3.44629 55.7729 19.1263 55.2329 37.6163C54.6929 56.1063 53.8329 59.8163 54.7529 60.5163C55.6729 61.2163 59.0329 42.0663 58.7529 27.6963C58.4729 13.3263 57.5529 4.32628 57.0829 4.06628C56.4855 3.80591 55.8665 3.59845 55.2329 3.44629Z" fill="#A3E39A"/>
</g>
<g opacity="0.8" style="mix-blend-mode:multiply">
<path d="M56.4928 61.2766C56.0028 63.7266 55.4128 65.3365 54.7428 65.7565H54.6728C54.0743 66.0577 53.4338 66.2668 52.7728 66.3765H52.6428C49.7128 67.0965 43.2228 68.0965 30.1628 67.8665C10.8428 67.5265 5.8828 65.4465 5.5828 65.3165C4.9234 65.1615 4.30573 64.8646 3.7728 64.4465C1.2928 62.0265 -0.317201 34.8365 0.052799 17.9165C0.262799 25.2865 1.22279 54.9166 3.54279 60.7866C4.23665 62.1767 5.43482 63.2497 6.8928 63.7866C10.4828 65.4866 16.4028 66.3166 22.7928 66.5966C25.7228 66.7166 28.7928 66.7266 31.7228 66.5966C38.7172 66.2427 45.6308 64.9373 52.2728 62.7166L52.6628 62.5865C54.9428 61.8965 56.3628 61.3266 56.4928 61.2766Z" fill="#A2F29A"/>
</g>
<path d="M37.4829 1.67648C32.3429 2.03648 36.5529 8.10651 40.9529 10.3965C45.3529 12.6865 49.3129 4.7665 49.9529 3.4465C50.5929 2.1265 40.6029 1.44648 37.4829 1.67648Z" fill="white"/>
<defs>
<linearGradient id="paint0_linear_728_2254" x1="27.6128" y1="67.4865" x2="27.6128" y2="0.726437" gradientUnits="userSpaceOnUse">
<stop stop-color="#C4FFBD"/>
<stop offset="1" stop-color="#D3F4FF"/>
</linearGradient>
</defs>
</svg>
