<svg width="69" height="76" viewBox="0 0 69 76" fill="none" xmlns="http://www.w3.org/2000/svg">
<path d="M66.2233 68.8224C65.7333 71.2724 65.1433 72.8824 64.4733 73.3024H64.4033C63.8023 73.5954 63.1625 73.8008 62.5033 73.9124H62.3733C58.6333 74.6924 51.2033 75.0224 43.3733 74.9124H42.8833C35.8892 74.9133 28.9031 74.4389 21.9733 73.4924C19.4333 73.0524 17.6533 72.4924 16.9733 71.9124C16.789 71.7163 16.6461 71.485 16.5533 71.2324C13.3133 64.1124 11.8133 14.9524 14.8633 12.1024C17.6833 9.48237 29.0433 8.30236 40.4333 8.16236H41.3333C53.4433 8.08236 65.3333 9.16238 66.7633 10.8724C69.2233 13.8824 69.0733 54.8924 66.2233 68.8224Z" fill="#FF9FE2"/>
<path d="M62.3832 70.1926C61.9532 71.8726 61.4732 72.9626 60.9432 73.3026C60.2453 73.6529 59.4959 73.8892 58.7233 74.0026C53.6521 74.7497 48.5286 75.0842 43.4033 75.0026H42.9132C32.2832 75.0626 20.0832 74.3426 15.3132 72.8826C14.6538 72.7276 14.0362 72.4307 13.5032 72.0126C11.0232 69.6026 9.41327 42.4026 9.78327 25.4926C9.94327 18.3826 10.4533 13.0926 11.3933 12.2226C14.5033 9.32259 28.0232 8.22259 40.5032 8.28259H41.4033C52.2033 8.41259 62.0032 9.43261 63.2932 10.9926C65.7732 13.9926 65.5232 57.8526 62.3832 70.1926Z" fill="#E44D50"/>
<path d="M16.123 10.2123C16.123 10.2123 40.1231 5.8123 63.2831 10.9923H66.8231C66.8231 10.9923 64.9631 8.79229 52.7131 7.91229C40.4686 7.01379 28.1587 7.78756 16.123 10.2123Z" fill="#FFF6F8"/>
<path d="M64.473 73.3023H64.403C63.7877 73.558 63.1522 73.7621 62.503 73.9123H62.373C59.443 74.6223 52.953 75.6323 39.893 75.3923C20.573 75.0523 15.613 72.9723 15.313 72.8423C15.313 72.8423 17.903 73.1723 22.003 73.5523C29.6941 74.2815 37.4176 74.6153 45.143 74.5523L47.143 74.5023C50.573 74.4323 53.393 74.3123 55.673 74.1823L58.673 73.9723C60.6184 73.8708 62.5557 73.647 64.473 73.3023Z" fill="#DD44AD"/>
<g opacity="0.3" style="mix-blend-mode:multiply">
<path d="M14.2632 13.8324C10.6632 15.8324 13.1632 47.4123 19.6832 57.3423C26.2032 67.2723 58.2432 46.0623 62.3032 36.3423C66.3632 26.6223 60.7232 13.9224 55.4432 11.0124C50.1632 8.10238 18.1732 11.6224 14.2632 13.8324Z" fill="#FFADFF"/>
</g>
<g opacity="0.3" style="mix-blend-mode:overlay">
<path d="M32.6931 74.2024C23.5331 71.5624 58.5531 52.0124 61.5731 50.8624C64.5931 49.7124 63.2232 70.2524 61.0232 72.8624C58.8232 75.4724 32.6931 74.2024 32.6931 74.2024Z" fill="white"/>
</g>
<g opacity="0.8" style="mix-blend-mode:multiply">
<path d="M64.9631 10.9927C64.0731 10.9927 65.5031 26.6727 64.9631 45.1727C64.4231 63.6727 63.5631 67.3627 64.4731 68.0627C65.3831 68.7627 68.7631 49.6227 68.4731 35.2527C68.1831 20.8827 67.2731 11.8727 66.8031 11.6127C66.2072 11.3574 65.5919 11.15 64.9631 10.9927Z" fill="#FF96E7"/>
</g>
<g opacity="0.8" style="mix-blend-mode:multiply">
<path d="M66.2233 68.8226C65.7333 71.2726 65.1433 72.8826 64.4733 73.3026H64.4033C63.8023 73.5956 63.1625 73.801 62.5032 73.9126H62.3732C59.4432 74.6226 52.9533 75.6326 39.8933 75.3926C20.5733 75.0526 15.6132 72.9726 15.3132 72.8426C14.6538 72.6876 14.0362 72.3907 13.5032 71.9726C11.0232 69.5626 9.41327 42.3626 9.78327 25.4526C9.99327 32.8126 10.9533 62.4526 13.2733 68.3126C13.9679 69.7021 15.1658 70.7749 16.6232 71.3126C20.2132 73.0026 26.1333 73.8326 32.5233 74.1126C35.4533 74.2326 38.5233 74.2426 41.4533 74.1626C48.4482 73.8126 55.3623 72.5071 62.0032 70.2826L62.3933 70.1526C64.6933 69.4426 66.0933 68.8726 66.2233 68.8226Z" fill="#FF9FFF"/>
</g>
<path d="M47.2129 9.22268C42.0629 9.59268 46.2829 15.6527 50.6829 17.9427C55.0829 20.2327 59.0429 12.3127 59.6829 10.9427C60.3229 9.57271 50.3329 9.00268 47.2129 9.22268Z" fill="white"/>
<path d="M61.9929 68.8224C61.5029 71.2724 60.9129 72.8824 60.2529 73.3024H60.1729C59.5719 73.5954 58.9321 73.8008 58.2729 73.9124H58.1429C54.4129 74.6924 46.9729 75.0224 39.1429 74.9124H38.6929C31.6955 74.9129 24.7061 74.4385 17.7729 73.4924C15.2329 73.0524 13.4529 72.4924 12.7729 71.9124C12.5883 71.7146 12.4424 71.484 12.3429 71.2324C9.10291 64.1124 7.61286 14.9524 10.6629 12.1024C13.4729 9.48237 24.8329 8.30236 36.2229 8.16236H37.1229C49.2429 8.08236 61.1229 9.16238 62.5629 10.8724C65.0029 13.8824 64.8429 54.8924 61.9929 68.8224Z" fill="#FF9FE2"/>
<path d="M58.1528 70.1926C57.7328 71.8726 57.2428 72.9626 56.7128 73.3026C56.0156 73.6545 55.2658 73.8909 54.4928 74.0026C49.4216 74.7497 44.2981 75.0842 39.1728 75.0026H38.6928C28.0528 75.0626 15.8528 74.3426 11.0928 72.8826C10.4297 72.7296 9.80835 72.4326 9.27283 72.0126C6.79283 69.6026 5.1828 42.4026 5.5528 25.4926C5.7128 18.3826 6.22278 13.0926 7.16278 12.2226C10.2728 9.32259 23.7928 8.22259 36.2728 8.28259H37.1728C47.9728 8.41259 57.7728 9.43261 59.0728 10.9926C61.5428 13.9926 61.3028 57.8526 58.1528 70.1926Z" fill="#FFB2FF"/>
<path d="M11.8931 10.2123C11.8931 10.2123 35.893 5.8123 59.063 10.9923H62.603C62.603 10.9923 60.733 8.79229 48.483 7.91229C36.2385 7.01379 23.9287 7.78756 11.8931 10.2123Z" fill="#FFF6F8"/>
<path d="M60.2533 73.3026H60.1733C59.5587 73.5604 58.9231 73.7645 58.2733 73.9126H58.1433C55.2233 74.7426 48.6933 75.7426 35.6933 75.4626C16.3633 75.1226 11.4033 73.0426 11.1133 72.9126C11.1133 72.9126 13.6933 73.2426 17.7933 73.6226C25.4844 74.3516 33.2079 74.6854 40.9333 74.6226L42.9333 74.5726C46.3633 74.5026 49.1833 74.3826 51.4633 74.2526H51.5133L54.5133 74.0426C56.44 73.9143 58.357 73.6672 60.2533 73.3026Z" fill="#DD44AD"/>
<g opacity="0.3" style="mix-blend-mode:multiply">
<path d="M10.0332 13.8324C6.43317 15.8324 8.94315 47.4123 15.4532 57.3423C21.9632 67.2723 54.0231 46.0623 58.0731 36.3423C62.1231 26.6223 56.5032 13.9224 51.2132 11.0124C45.9232 8.10238 13.9432 11.6224 10.0332 13.8324Z" fill="#FFADFF"/>
</g>
<g opacity="0.3" style="mix-blend-mode:overlay">
<path d="M28.4329 74.2024C19.2729 71.5624 54.2929 52.0124 57.3229 50.8624C60.3529 49.7124 58.9629 70.2524 56.7629 72.8624C54.5629 75.4724 28.4329 74.2024 28.4329 74.2024Z" fill="white"/>
</g>
<g opacity="0.8" style="mix-blend-mode:multiply">
<path d="M60.6928 10.9927C59.8028 10.9927 61.2328 26.6727 60.6928 45.1727C60.1528 63.6727 59.2928 67.3627 60.2128 68.0627C61.1328 68.7627 64.4928 49.6227 64.2128 35.2527C63.9328 20.8827 63.0028 11.8727 62.5428 11.6127C61.9431 11.3584 61.3246 11.1511 60.6928 10.9927Z" fill="#FF96E7"/>
</g>
<g opacity="0.8" style="mix-blend-mode:multiply">
<path d="M61.9933 68.8224C61.5033 71.2724 60.9133 72.8824 60.2533 73.3024H60.1733C59.5723 73.5955 58.9325 73.8009 58.2733 73.9124H58.1433C55.2233 74.7424 48.6933 75.7424 35.6933 75.4624C16.3633 75.1224 11.4033 73.0424 11.1133 72.9124C10.4502 72.7594 9.8288 72.4624 9.29328 72.0424C6.81328 69.6324 5.20331 42.4325 5.57331 25.5225C5.78331 32.8825 6.7533 62.5224 9.0633 68.3824C9.7636 69.7677 10.9595 70.8386 12.4133 71.3824C16.0133 73.0724 21.9233 73.9024 28.3133 74.1824C31.2433 74.3024 34.3133 74.3124 37.2433 74.2324C44.2384 73.8844 51.1528 72.5789 57.7933 70.3524L58.1833 70.2224C60.4433 69.4424 61.8633 68.8724 61.9933 68.8224Z" fill="#FF9FFF"/>
</g>
<path d="M42.9929 9.22268C37.8429 9.59268 42.0529 15.6527 46.4629 17.9427C50.8729 20.2327 54.8229 12.3127 55.4629 10.9427C56.1029 9.57271 46.1029 9.00268 42.9929 9.22268Z" fill="white"/>
<g opacity="0.78" style="mix-blend-mode:multiply">
<path d="M7.633 66.4022C7.633 66.4022 26.143 70.9423 41.473 70.5823C58.153 70.1923 58.473 66.5823 59.473 58.7723C60.133 53.6323 60.473 20.6922 60.113 15.8422C59.753 10.9922 58.013 10.5522 58.013 10.5522L7.31299 64.4822L7.633 66.4022Z" fill="#EB5356"/>
</g>
<path d="M56.4931 61.2724C55.9931 63.7224 55.4131 65.3324 54.7431 65.7524H54.6631C54.0676 66.0522 53.4306 66.2612 52.7732 66.3724H52.6432C48.9032 67.1524 41.4632 67.4824 33.6432 67.3724H33.1631C26.1653 67.3752 19.1755 66.8974 12.2431 65.9424C9.71314 65.5124 7.92313 64.9924 7.29313 64.3724C7.10847 64.1746 6.96262 63.944 6.86314 63.6924C3.63314 56.5724 2.13314 7.40237 5.18314 4.56237C8.00314 1.94237 19.3631 0.762367 30.7431 0.622367H31.6932C43.8032 0.532367 55.6931 1.62239 57.1231 3.33239C59.4931 6.33239 59.3331 47.3424 56.4931 61.2724Z" fill="#FF9FE2"/>
<path d="M52.6931 62.6423C52.2631 64.3223 51.7831 65.4123 51.2531 65.7523C50.5531 66.1043 49.7995 66.3375 49.0231 66.4423C43.9526 67.1959 38.8285 67.5304 33.7031 67.4423H33.2231C22.5931 67.5023 10.3931 66.7823 5.62306 65.3223C4.9629 65.1695 4.34478 64.8724 3.81306 64.4523C1.32306 62.0423 -0.27691 34.8423 0.09309 17.9223C0.25309 10.8123 0.763075 5.52228 1.70308 4.65228C4.80308 1.75228 18.3331 0.652278 30.8031 0.712278H31.6931C42.4931 0.842278 52.2931 1.8623 53.5831 3.4223C56.0331 6.4423 55.7931 50.3023 52.6931 62.6423Z" fill="url(#paint0_linear_728_2321)"/>
<path d="M6.38281 2.66247C6.38281 2.66247 30.3828 -1.7375 53.5528 3.4425H57.0928C57.0928 3.4425 55.2328 1.24248 42.9728 0.362481C30.7283 -0.536015 18.4184 0.237754 6.38281 2.66247Z" fill="#FFF6F8"/>
<path d="M54.743 65.7425H54.663C54.0546 66.01 53.4216 66.2176 52.773 66.3625H52.643C49.713 67.0725 43.213 68.0825 30.163 67.8425C10.833 67.5025 5.88301 65.4225 5.58301 65.2925C5.58301 65.2925 8.163 65.6225 12.263 65.9925C19.9541 66.7221 27.6776 67.0559 35.403 66.9925H37.403C40.833 66.9225 43.643 66.8025 45.923 66.6725H45.973C47.083 66.5925 48.073 66.5325 48.973 66.4525C50.9094 66.3373 52.8365 66.1001 54.743 65.7425Z" fill="#DD44AD"/>
<g opacity="0.3" style="mix-blend-mode:multiply">
<path d="M4.5231 6.28237C0.923099 8.28237 3.43309 39.8624 9.95309 49.7924C16.4731 59.7224 48.5131 38.5024 52.5731 28.7924C56.6331 19.0824 50.9931 6.3524 45.6931 3.4424C40.3931 0.532404 8.4431 4.07237 4.5231 6.28237Z" fill="#FFADFF"/>
</g>
<g opacity="0.3" style="mix-blend-mode:overlay">
<path d="M22.9231 66.6526C13.7631 64.0126 48.7831 44.4626 51.8131 43.3126C54.8431 42.1626 53.4531 62.7026 51.2531 65.3126C49.0531 67.9226 22.9231 66.6526 22.9231 66.6526Z" fill="white"/>
</g>
<g opacity="0.5" style="mix-blend-mode:multiply">
<path d="M55.2332 3.44238C54.3432 3.44238 55.7732 19.1224 55.2332 37.6124C54.6932 56.1024 53.8232 59.8124 54.7432 60.5124C55.6632 61.2124 59.0232 42.0724 58.7432 27.6924C58.4632 13.3124 57.5332 4.32238 57.0732 4.06238C56.4791 3.80255 55.8634 3.5951 55.2332 3.44238Z" fill="#FF96E7"/>
</g>
<g opacity="0.8" style="mix-blend-mode:multiply">
<path d="M56.4931 61.2724C55.9931 63.7224 55.4131 65.3324 54.7431 65.7524H54.663C54.0675 66.0522 53.4305 66.2612 52.7731 66.3724H52.6431C49.7131 67.0824 43.213 68.0924 30.163 67.8524C10.833 67.5124 5.88308 65.4324 5.58308 65.3024C4.92292 65.1495 4.3048 64.8524 3.77308 64.4324C1.28308 62.0224 -0.316951 34.8223 0.0530493 17.9023C0.253049 25.2723 1.22309 54.9024 3.53309 60.7724C4.23339 62.1576 5.42928 63.2286 6.88307 63.7724C10.4831 65.4624 16.393 66.2924 22.793 66.5724C25.723 66.6924 28.7931 66.7024 31.7131 66.5724C38.7057 66.2385 45.6197 64.9499 52.2631 62.7424L52.6531 62.6124C54.9331 61.8924 56.3631 61.3224 56.4931 61.2724Z" fill="#FF9FFF"/>
</g>
<path d="M37.4829 1.6726C32.3329 2.0326 36.553 8.10263 40.953 10.3926C45.353 12.6826 49.313 4.76262 49.953 3.44262C50.593 2.12262 40.6029 1.4526 37.4829 1.6726Z" fill="white"/>
<defs>
<linearGradient id="paint0_linear_728_2321" x1="27.6131" y1="67.4823" x2="27.6131" y2="0.722281" gradientUnits="userSpaceOnUse">
<stop stop-color="#FFB5FF"/>
<stop offset="1" stop-color="#FFE8FE"/>
</linearGradient>
</defs>
</svg>
