<svg width="69" height="76" viewBox="0 0 69 76" fill="none" xmlns="http://www.w3.org/2000/svg">
<path d="M66.2228 68.8228C65.7328 71.2728 65.1428 72.8828 64.4728 73.3028H64.4028C63.8035 73.6 63.163 73.8056 62.5028 73.9128H62.3728C58.6328 74.6928 51.2028 75.0328 43.3728 74.9128H42.8828C35.8885 74.9188 28.9021 74.4444 21.9728 73.4928C19.4328 73.0528 17.6528 72.4928 16.9728 71.9228C16.7884 71.723 16.6456 71.4884 16.5528 71.2328C13.3128 64.1228 11.8128 14.9528 14.8628 12.1028C17.6828 9.48282 29.0428 8.30285 40.4328 8.16285H41.3328C53.4428 8.08285 65.3328 9.16285 66.7628 10.8829C69.2228 13.8929 69.0728 54.8928 66.2228 68.8228Z" fill="#C27EFF"/>
<path d="M62.3828 70.2426C61.9528 71.9126 61.4728 73.0126 60.9428 73.3426C60.2448 73.6929 59.4954 73.9292 58.7228 74.0426C53.6516 74.7897 48.5281 75.1242 43.4028 75.0426H42.9127C32.2827 75.1126 20.0827 74.3826 15.3127 72.9226C14.6558 72.7659 14.0392 72.473 13.5028 72.0626C11.0228 69.6426 9.41278 42.4527 9.78278 25.5327C9.94278 18.4327 10.4528 13.1426 11.3928 12.2626C14.5028 9.36263 28.0228 8.26263 40.5028 8.32263H41.4028C52.2028 8.45263 62.0027 9.47263 63.2927 11.0426C65.7727 13.9926 65.5228 57.8526 62.3828 70.2426Z" fill="#642CC7"/>
<path d="M16.123 10.2425C16.123 10.2425 40.1231 5.84256 63.2831 11.0326H66.8231C66.8231 11.0326 64.9631 8.82256 52.7131 7.94256C40.4686 7.04406 28.1587 7.81783 16.123 10.2425Z" fill="#FFE2F2"/>
<path d="M64.473 73.3028H64.403C63.7877 73.5585 63.1522 73.7626 62.503 73.9128H62.373C59.443 74.6328 52.953 75.6328 39.893 75.4028C20.573 75.0528 15.613 72.9728 15.313 72.8428C15.313 72.8428 17.903 73.1828 22.003 73.5528C29.6941 74.282 37.4176 74.6158 45.143 74.5528H47.143C50.573 74.4728 53.393 74.3528 55.673 74.2228L58.673 74.0128C60.6193 73.8981 62.5565 73.661 64.473 73.3028Z" fill="#602FC9"/>
<g opacity="0.3" style="mix-blend-mode:multiply">
<path d="M14.2627 13.8329C10.6627 15.8329 13.1627 47.4129 19.6827 57.3429C26.2027 67.2729 58.2427 46.0629 62.3027 36.3429C66.3627 26.6229 60.7227 13.9229 55.4427 11.0229C50.1627 8.12291 18.1727 11.6329 14.2627 13.8329Z" fill="#CEB5F9"/>
</g>
<g opacity="0.3" style="mix-blend-mode:overlay">
<path d="M32.6927 74.2424C23.5327 71.6024 58.5527 52.0525 61.5727 50.9025C64.5927 49.7525 63.2227 70.2924 61.0227 72.9024C58.8227 75.5124 32.6927 74.2424 32.6927 74.2424Z" fill="white"/>
</g>
<g opacity="0.8" style="mix-blend-mode:multiply">
<path d="M64.9631 11.0029C64.0731 11.0029 65.5031 26.6729 64.9631 45.1729C64.4231 63.6729 63.5631 67.3629 64.4731 68.0729C65.3831 68.7829 68.7631 49.6229 68.4731 35.2529C68.1831 20.8829 67.2731 11.8829 66.8031 11.6129C66.2074 11.3597 65.5921 11.1557 64.9631 11.0029Z" fill="#B99AE3"/>
</g>
<g opacity="0.8" style="mix-blend-mode:multiply">
<path d="M66.2228 68.8226C65.7328 71.2726 65.1428 72.8826 64.4728 73.3026H64.4028C63.8035 73.5998 63.163 73.8054 62.5028 73.9126H62.3727C59.4427 74.6326 52.9528 75.6326 39.8928 75.4026C20.5728 75.0526 15.6127 72.9726 15.3127 72.8426C14.6558 72.6859 14.0392 72.3929 13.5028 71.9826C11.0228 69.5626 9.41278 42.3726 9.78278 25.4526C9.99278 32.8126 10.9528 62.4527 13.2728 68.3127C13.9675 69.7022 15.1653 70.7749 16.6227 71.3127C20.2127 73.0027 26.1328 73.8427 32.5228 74.1227C35.4528 74.2427 38.5228 74.2527 41.4528 74.1227C48.4466 73.7704 55.3599 72.4685 62.0028 70.2527L62.3928 70.1227C64.6928 69.4427 66.0928 68.8826 66.2228 68.8226Z" fill="#C19AF2"/>
</g>
<path d="M47.2129 9.24249C42.0629 9.61249 46.2829 15.6725 50.6829 17.9625C55.0829 20.2525 59.0429 12.3325 59.6829 11.0225C60.3229 9.71249 50.3329 9.00249 47.2129 9.24249Z" fill="white"/>
<path d="M61.9927 68.8225C61.5027 71.2725 60.9127 72.8825 60.2527 73.3025H60.1726C59.5734 73.5997 58.933 73.8053 58.2727 73.9125H58.1427C54.4127 74.6925 46.9727 75.0325 39.1427 74.9125H38.6927C31.6951 74.9181 24.7053 74.4437 17.7727 73.4925C15.2327 73.0525 13.4527 72.4925 12.7727 71.9225C12.5881 71.7209 12.4423 71.487 12.3427 71.2325C9.14269 64.2425 7.69267 15.0725 10.6927 12.2425C13.5027 9.6225 24.8627 8.4425 36.2527 8.3025H37.1527C49.2727 8.2225 61.1527 9.3025 62.5927 11.0225C65.0027 13.8925 64.8427 54.8925 61.9927 68.8225Z" fill="#C27EFF"/>
<path d="M58.1528 70.2426C57.7328 71.9126 57.2428 73.0126 56.7128 73.3426C56.0156 73.6945 55.2658 73.9309 54.4928 74.0426C49.4216 74.7897 44.2981 75.1242 39.1728 75.0426H38.6928C28.0528 75.1126 15.8528 74.3826 11.0928 72.9226C10.4322 72.7678 9.81189 72.4747 9.27283 72.0626C6.79283 69.6426 5.1828 42.4527 5.5528 25.5327C5.7128 18.4327 6.22278 13.1426 7.16278 12.2626C10.2728 9.36263 23.7928 8.26263 36.2728 8.32263H37.1728C47.9728 8.45263 57.7728 9.47263 59.0728 11.0426C61.5428 13.9926 61.3028 57.8526 58.1528 70.2426Z" fill="#EB97FF"/>
<path d="M11.8931 10.2425C11.8931 10.2425 35.893 5.84256 59.063 11.0326H62.603C62.603 11.0326 60.733 8.82256 48.483 7.94256C36.2385 7.04406 23.9287 7.81783 11.8931 10.2425Z" fill="#FFE2F2"/>
<path d="M60.2527 73.3028H60.1727C59.5582 73.5606 58.9225 73.7646 58.2728 73.9128H58.1428C55.2228 74.6328 48.7227 75.6328 35.6727 75.4028C16.3427 75.0528 11.3828 72.9728 11.0928 72.8428C11.0928 72.8428 13.6728 73.1828 17.7728 73.5528C25.4639 74.2818 33.1874 74.6155 40.9127 74.5528H42.9127C46.3427 74.4728 49.1627 74.3528 51.4427 74.2228H51.4927L54.4927 74.0128C56.4255 73.8952 58.3492 73.6581 60.2527 73.3028Z" fill="#602FC9"/>
<g opacity="0.3" style="mix-blend-mode:multiply">
<path d="M10.0327 13.8329C6.43268 15.8329 8.94266 47.4129 15.4527 57.3429C21.9627 67.2729 54.0227 46.0629 58.0727 36.3429C62.1227 26.6229 56.5027 13.9229 51.2127 11.0229C45.9227 8.12291 13.9427 11.6329 10.0327 13.8329Z" fill="#CEB5F9"/>
</g>
<g opacity="0.3" style="mix-blend-mode:overlay">
<path d="M28.4329 74.2424C19.2729 71.6024 54.2929 52.0525 57.3229 50.9025C60.3529 49.7525 58.9629 70.2924 56.7629 72.9024C54.5629 75.5124 28.4329 74.2424 28.4329 74.2424Z" fill="white"/>
</g>
<g opacity="0.8" style="mix-blend-mode:multiply">
<path d="M60.6928 11.0029C59.8028 11.0029 61.2328 26.6729 60.6928 45.1729C60.1528 63.6729 59.2928 67.3629 60.2128 68.0729C61.1328 68.7829 64.4928 49.6229 64.2128 35.2529C63.9328 20.8829 63.0028 11.8829 62.5428 11.6129C61.9433 11.3607 61.3247 11.1567 60.6928 11.0029Z" fill="#B99AE3"/>
</g>
<g opacity="0.8" style="mix-blend-mode:multiply">
<path d="M61.9928 68.8226C61.5028 71.2726 60.9128 72.8826 60.2528 73.3026H60.1728C59.5735 73.5998 58.9331 73.8054 58.2728 73.9126H58.1428C55.2228 74.6326 48.7228 75.6326 35.6728 75.4026C16.3428 75.0526 11.3828 72.9726 11.0928 72.8426C10.4322 72.6878 9.81189 72.3947 9.27283 71.9826C6.79283 69.5626 5.1828 42.3726 5.5528 25.4526C5.7628 32.8126 6.73279 62.4527 9.04279 68.3127C9.74309 69.6979 10.939 70.7688 12.3928 71.3127C15.9928 73.0027 21.9028 73.8427 28.2928 74.1227C31.2228 74.2427 34.2928 74.2527 37.2228 74.1227C44.2169 73.7724 51.1305 72.4704 57.7728 70.2527L58.1628 70.1227C60.4428 69.4427 61.8628 68.8826 61.9928 68.8226Z" fill="#C19AF2"/>
</g>
<path d="M42.9929 9.24249C37.8429 9.61249 42.0529 15.6725 46.4629 17.9625C50.8729 20.2525 54.8229 12.3325 55.4629 11.0225C56.1029 9.71249 46.1029 9.00249 42.9929 9.24249Z" fill="white"/>
<g opacity="0.78" style="mix-blend-mode:multiply">
<path d="M7.633 66.4025C7.633 66.4025 26.143 70.9525 41.473 70.5925C58.153 70.2025 58.473 66.5925 59.473 58.7725C60.133 53.6325 60.473 20.6925 60.113 15.8425C59.753 10.9925 58.013 10.5625 58.013 10.5625L7.31299 64.4925L7.633 66.4025Z" fill="#6F2FCD"/>
</g>
<path d="M56.4927 61.2426C55.9927 63.6926 55.4127 65.3026 54.7427 65.7226H54.6626C54.0645 66.0139 53.4283 66.2193 52.7727 66.3326H52.6427C48.9027 67.1126 41.4627 67.4426 33.6427 67.3826H33.1626C26.165 67.3882 19.1753 66.9137 12.2427 65.9626C9.71265 65.5226 7.92264 64.9626 7.29264 64.3926C7.10805 64.191 6.96228 63.9571 6.86265 63.7026C3.63265 56.5926 2.13265 7.42255 5.18265 4.57255C8.00265 1.95255 19.3627 0.772578 30.7427 0.632578H31.6927C43.8027 0.552578 55.6927 1.63255 57.1227 3.35255C59.4927 6.34255 59.3327 47.3426 56.4927 61.2426Z" fill="#C27EFF"/>
<path d="M52.6931 62.6428C52.2631 64.3228 51.7831 65.4228 51.2531 65.7528C50.5522 66.1044 49.7992 66.3407 49.0231 66.4528C43.9519 67.2003 38.8284 67.5347 33.7031 67.4528H33.2231C22.5931 67.5128 10.3931 66.7928 5.62306 65.3328C4.96533 65.1784 4.34821 64.8852 3.81306 64.4728C1.32306 62.0528 -0.27691 34.8628 0.09309 17.9428C0.25309 10.8428 0.763075 5.55279 1.70308 4.67279C4.80308 1.77279 18.3331 0.672785 30.8031 0.732785H31.6931C42.4931 0.862785 52.2931 1.88279 53.5831 3.45279C56.0331 6.44279 55.7931 50.3028 52.6931 62.6428Z" fill="url(#paint0_linear_728_2252)"/>
<path d="M6.38281 2.66249C6.38281 2.66249 30.3828 -1.73751 53.5528 3.44249H57.0928C57.0928 3.44249 55.2328 1.24248 42.9728 0.362476C30.7283 -0.53602 18.4184 0.237779 6.38281 2.66249Z" fill="#FFE2F2"/>
<path d="M54.743 65.7525H54.663C54.0515 66.0093 53.4192 66.2134 52.773 66.3625H52.643C49.713 67.0725 43.213 68.0825 30.163 67.8525C10.833 67.5025 5.88301 65.4225 5.58301 65.2925C5.58301 65.2925 8.163 65.6225 12.263 66.0025C19.9541 66.7315 27.6777 67.0652 35.403 67.0025H37.403C40.833 66.9225 43.643 66.8025 45.923 66.6725H45.973L48.973 66.4625C50.9092 66.3453 52.8362 66.1082 54.743 65.7525Z" fill="#602FC9"/>
<g opacity="0.3" style="mix-blend-mode:multiply">
<path d="M4.5231 6.24256C0.923099 8.24256 3.43309 39.8226 9.95309 49.7526C16.4731 59.6826 48.5131 38.4726 52.5731 28.7526C56.6331 19.0326 50.9931 6.35257 45.6931 3.44257C40.3931 0.532568 8.4431 4.08256 4.5231 6.24256Z" fill="#CEB5F9"/>
</g>
<g opacity="0.3" style="mix-blend-mode:overlay">
<path d="M22.9226 66.6526C13.7626 64.0126 48.7826 44.4626 51.8126 43.3126C54.8426 42.1626 53.4526 62.7026 51.2526 65.3126C49.0526 67.9226 22.9226 66.6526 22.9226 66.6526Z" fill="white"/>
</g>
<g opacity="0.5" style="mix-blend-mode:multiply">
<path d="M55.2327 3.44287C54.3427 3.44287 55.7727 19.1229 55.2327 37.6229C54.6927 56.1229 53.8227 59.8129 54.7427 60.5229C55.6627 61.2329 59.0227 42.0729 58.7427 27.7029C58.4627 13.3329 57.5327 4.33287 57.0727 4.06287C56.4768 3.80756 55.8615 3.60024 55.2327 3.44287Z" fill="#B99AE3"/>
</g>
<g opacity="0.8" style="mix-blend-mode:multiply">
<path d="M56.4931 61.2426C55.9931 63.6926 55.4131 65.3026 54.7431 65.7226H54.663C54.0649 66.0139 53.4287 66.2193 52.7731 66.3326H52.6431C49.7131 67.0426 43.213 68.0525 30.163 67.8225C10.833 67.4725 5.88308 65.3925 5.58308 65.2625C4.92535 65.1081 4.30823 64.8149 3.77308 64.4026C1.28308 61.9826 -0.316951 34.7926 0.0530493 17.8726C0.253049 25.2326 1.22309 54.8725 3.53309 60.7325C4.23339 62.1178 5.42928 63.1887 6.88307 63.7325C10.4831 65.4225 16.393 66.2625 22.793 66.5425C25.723 66.6625 28.7931 66.6725 31.7131 66.5425C38.7102 66.1912 45.627 64.8893 52.2731 62.6725L52.663 62.5326C54.933 61.8926 56.3631 61.3226 56.4931 61.2426Z" fill="#C19AF2"/>
</g>
<path d="M37.4829 1.6726C32.3329 2.0426 36.553 8.1026 40.953 10.3926C45.353 12.6826 49.313 4.76262 49.953 3.44262C50.593 2.12262 40.6029 1.4526 37.4829 1.6726Z" fill="white"/>
<defs>
<linearGradient id="paint0_linear_728_2252" x1="27.6131" y1="67.4928" x2="27.6131" y2="0.732785" gradientUnits="userSpaceOnUse">
<stop stop-color="#DABDFF"/>
<stop offset="1" stop-color="#FFD3E1"/>
</linearGradient>
</defs>
</svg>
