<svg width="69" height="76" viewBox="0 0 69 76" fill="none" xmlns="http://www.w3.org/2000/svg">
<path d="M66.2428 68.8266C65.7528 71.2766 65.1628 72.8866 64.4928 73.3066H64.4228C63.8243 73.6078 63.1837 73.8168 62.5228 73.9266H62.3928C58.6528 74.7066 51.2228 75.0366 43.3928 74.9266H42.9028C35.9082 74.9298 28.9217 74.452 21.9928 73.4966C19.4528 73.0666 17.6728 72.4966 16.9928 71.9266C16.8073 71.7275 16.6644 71.4927 16.5728 71.2366C13.3328 64.1266 11.8328 14.9566 14.8828 12.1166C17.7028 9.49657 29.0628 8.31657 40.4528 8.17657H41.3528C53.4628 8.08657 65.3528 9.17659 66.7828 10.8866C69.2428 13.8866 69.0928 54.8966 66.2428 68.8266Z" fill="#FF7E7F"/>
<path d="M62.4028 70.1965C61.9728 71.8765 61.4928 72.9665 60.9628 73.3065C60.2658 73.657 59.5157 73.8902 58.7428 73.9965C53.6717 74.7445 48.5481 75.079 43.4228 74.9965H42.9328C32.3028 75.0565 20.1028 74.3365 15.3328 72.8765C14.6734 72.7215 14.0557 72.4246 13.5228 72.0065C11.0428 69.5965 9.4328 42.3964 9.8028 25.4764C9.9628 18.3664 10.4728 13.0765 11.4128 12.2065C14.5228 9.30648 28.0428 8.20648 40.5228 8.26648H41.4228C52.2228 8.39648 62.0228 9.41644 63.3128 10.9764C65.7828 14.0064 65.5428 57.8565 62.4028 70.1965Z" fill="#C72C57"/>
<path d="M16.1426 10.2162C16.1426 10.2162 40.1426 5.8162 63.3026 10.9962H66.8426C66.8426 10.9962 64.9826 8.79618 52.7326 7.91618C40.4881 7.01769 28.1782 7.79152 16.1426 10.2162Z" fill="#FFEDE2"/>
<path d="M64.493 73.3065H64.423C63.8108 73.5731 63.1746 73.7807 62.523 73.9265H62.393C59.463 74.6365 52.973 75.6465 39.913 75.4065C20.593 75.0665 15.633 72.9864 15.333 72.8564C15.333 72.8564 17.923 73.1865 22.023 73.5565C29.7141 74.2863 37.4376 74.6201 45.163 74.5565L47.163 74.5065C50.593 74.4365 53.413 74.3165 55.693 74.1865C56.813 74.1065 57.793 74.0465 58.693 73.9665C60.6384 73.8703 62.5757 73.6498 64.493 73.3065Z" fill="#C92F66"/>
<g opacity="0.3" style="mix-blend-mode:multiply">
<path d="M14.2827 13.8363C10.6827 15.8363 13.1827 47.4063 19.7027 57.3463C26.2227 67.2863 58.2627 46.0563 62.3227 36.3463C66.3827 26.6363 60.7427 13.9263 55.4627 11.0163C50.1827 8.10629 18.1927 11.6263 14.2827 13.8363Z" fill="#F9B5C7"/>
</g>
<g opacity="0.3" style="mix-blend-mode:overlay">
<path d="M32.6526 74.2063C23.4926 71.5663 58.5126 52.0163 61.5326 50.8663C64.5526 49.7163 63.1826 70.2563 60.9826 72.8663C58.7826 75.4763 32.6526 74.2063 32.6526 74.2063Z" fill="white"/>
</g>
<g opacity="0.8" style="mix-blend-mode:multiply">
<path d="M64.9826 11.0063C64.0926 11.0063 65.5226 26.6863 64.9826 45.1763C64.4426 63.6663 63.5826 67.3764 64.4926 68.0764C65.4026 68.7764 68.7826 49.6363 68.4926 35.2563C68.2026 20.8763 67.2927 11.8863 66.8227 11.6263C66.2285 11.3665 65.6128 11.1591 64.9826 11.0063Z" fill="#E39AA8"/>
</g>
<g opacity="0.8" style="mix-blend-mode:multiply">
<path d="M66.2428 68.8265C65.7528 71.2765 65.1628 72.8865 64.4928 73.3065H64.4228C63.8243 73.6077 63.1838 73.8167 62.5228 73.9265H62.3928C59.4628 74.6365 52.9728 75.6466 39.9128 75.4066C20.5928 75.0666 15.6328 72.9865 15.3328 72.8565C14.6734 72.7015 14.0557 72.4046 13.5228 71.9865C11.0428 69.5765 9.4328 42.3765 9.8028 25.4565C10.0128 32.8265 10.9728 62.4565 13.2928 68.3265C13.9867 69.7167 15.1848 70.7897 16.6428 71.3265C20.2328 73.0265 26.1528 73.8565 32.5428 74.1365C35.4728 74.2565 38.5428 74.2665 41.4728 74.1865C48.4677 73.8365 55.3818 72.5311 62.0228 70.3065L62.4128 70.1765C64.6528 69.4465 66.1128 68.8765 66.2428 68.8265Z" fill="#F29AA7"/>
</g>
<path d="M47.2329 9.22658C42.0829 9.58658 46.3029 15.6566 50.7029 17.9466C55.1029 20.2366 59.0629 12.3166 59.7029 10.9466C60.3429 9.57662 50.3529 9.00658 47.2329 9.22658Z" fill="white"/>
<path d="M62.0129 68.8266C61.5229 71.2766 60.9329 72.8866 60.2729 73.3066H60.1929C59.5944 73.6078 58.9539 73.8168 58.2929 73.9266H58.1629C54.4329 74.7066 46.9929 75.0366 39.1629 74.9266H38.6829C31.6851 74.9298 24.6952 74.452 17.7629 73.4966C15.2229 73.0666 13.4429 72.4966 12.8129 71.9266C12.6262 71.7266 12.4802 71.4923 12.3829 71.2366C9.14293 64.1266 7.65291 14.9566 10.7029 12.1166C13.5129 9.49657 24.8729 8.31657 36.2629 8.17657H37.1629C49.2829 8.08657 61.1629 9.17659 62.6029 10.8866C65.0229 13.8866 64.8629 54.8966 62.0129 68.8266Z" fill="#FF7E7F"/>
<path d="M58.1728 70.1965C57.7528 71.8765 57.2628 72.9665 56.7328 73.3065C56.0364 73.6586 55.2861 73.8918 54.5128 73.9965C49.4417 74.7445 44.3181 75.079 39.1928 74.9965H38.7128C28.0728 75.0565 15.8728 74.3365 11.1128 72.8765C10.4497 72.7234 9.82834 72.4264 9.29282 72.0065C6.81282 69.5965 5.20282 42.3964 5.57282 25.4764C5.73282 18.3664 6.2428 13.0765 7.1828 12.2065C10.2928 9.30648 23.8128 8.20648 36.2928 8.26648H37.1928C47.9928 8.39648 57.7928 9.41644 59.0928 10.9764C61.5628 14.0064 61.3228 57.8565 58.1728 70.1965Z" fill="#FFA597"/>
<path d="M11.9126 10.2164C11.9126 10.2164 35.9126 5.81635 59.0826 10.9963H62.6526C62.6526 10.9963 60.7826 8.79633 48.5326 7.91633C36.2781 7.0151 23.958 7.78894 11.9126 10.2164Z" fill="#FFEDE2"/>
<path d="M60.2728 73.3065H60.1928C59.5813 73.5749 58.945 73.7826 58.2928 73.9265H58.1628C55.2428 74.6365 48.7428 75.6465 35.6928 75.4065C16.3628 75.0665 11.4028 72.9864 11.1128 72.8564C11.1128 72.8564 13.6928 73.1865 17.7928 73.5565C25.4839 74.2861 33.2074 74.6198 40.9328 74.5565L42.9328 74.5065C46.3628 74.4365 49.1828 74.3165 51.4628 74.1865C52.5728 74.1065 53.5628 74.0465 54.4628 73.9665C56.4115 73.8694 58.352 73.649 60.2728 73.3065Z" fill="#C92F66"/>
<g opacity="0.3" style="mix-blend-mode:multiply">
<path d="M10.0527 13.8363C6.45269 15.8363 8.96271 47.4063 15.4727 57.3463C21.9827 67.2863 54.0427 46.0563 58.0927 36.3463C62.1427 26.6363 56.5227 13.9263 51.2327 11.0163C45.9427 8.10629 13.9627 11.6263 10.0527 13.8363Z" fill="#F9B5C7"/>
</g>
<g opacity="0.3" style="mix-blend-mode:overlay">
<path d="M28.4529 74.2063C19.2929 71.5663 54.3129 52.0163 57.3429 50.8663C60.3729 49.7163 58.9829 70.2563 56.7829 72.8663C54.5829 75.4763 28.4529 74.2063 28.4529 74.2063Z" fill="white"/>
</g>
<g opacity="0.8" style="mix-blend-mode:multiply">
<path d="M60.7529 11.0063C59.8629 11.0063 61.2929 26.6863 60.7529 45.1763C60.2129 63.6663 59.3529 67.3764 60.2729 68.0764C61.1929 68.7764 64.5529 49.6363 64.2729 35.2563C63.9929 20.8763 63.0629 11.8863 62.6029 11.6263C62.005 11.3675 61.386 11.1601 60.7529 11.0063Z" fill="#E39AA8"/>
</g>
<g opacity="0.8" style="mix-blend-mode:multiply">
<path d="M62.0128 68.8265C61.5228 71.2765 60.9328 72.8865 60.2728 73.3065H60.1928C59.5943 73.6077 58.9538 73.8167 58.2928 73.9265H58.1628C55.2428 74.6365 48.7428 75.6466 35.6928 75.4066C16.3628 75.0666 11.4028 72.9865 11.1128 72.8565C10.4497 72.7035 9.82834 72.4065 9.29282 71.9865C6.81282 69.5765 5.20282 42.3765 5.57282 25.4565C5.78282 32.8265 6.75281 62.4565 9.06281 68.3265C9.76232 69.7124 10.9585 70.7836 12.4128 71.3265C16.0128 73.0265 21.9228 73.8565 28.3128 74.1365C31.2428 74.2565 34.3128 74.2665 37.2428 74.1865C44.2379 73.8385 51.1523 72.533 57.7928 70.3065L58.1828 70.1765C60.4628 69.4465 61.8828 68.8765 62.0128 68.8265Z" fill="#F29AA7"/>
</g>
<path d="M43.0129 9.22658C37.8629 9.58658 42.0729 15.6566 46.4829 17.9466C50.8929 20.2366 54.8429 12.3166 55.4829 10.9466C56.1229 9.57662 46.1229 9.00658 43.0129 9.22658Z" fill="white"/>
<g opacity="0.78" style="mix-blend-mode:multiply">
<path d="M7.65302 66.4062C7.65302 66.4062 26.153 70.9462 41.493 70.5862C58.173 70.1962 58.493 66.5862 59.493 58.7662C60.153 53.6362 60.493 20.6962 60.133 15.8462C59.773 10.9962 58.033 10.5562 58.033 10.5562L7.33301 64.4861L7.65302 66.4062Z" fill="#CD2F50"/>
</g>
<path d="M56.5127 61.2764C56.0127 63.7264 55.4327 65.3363 54.7627 65.7563H54.6827C54.0871 66.0562 53.4501 66.2651 52.7927 66.3763H52.6627C48.9227 67.1663 41.4827 67.4963 33.6627 67.4363H33.1827C26.1848 67.4392 19.195 66.9614 12.2627 66.0063C9.73266 65.5763 7.94268 65.0563 7.31268 64.4363C7.12597 64.2364 6.97993 64.002 6.88269 63.7463C3.65269 56.6363 2.15266 7.46633 5.20266 4.62633C8.02266 2.00633 19.3827 0.826332 30.7627 0.686332H31.6527C43.7627 0.596332 55.6527 1.68635 57.0827 3.39635C59.5127 6.33635 59.3527 47.3464 56.5127 61.2764Z" fill="#FF7E7F"/>
<path d="M52.6531 62.6465C52.2231 64.3165 51.7431 65.4165 51.2131 65.7565C50.5131 66.1084 49.7595 66.3416 48.983 66.4465C43.912 67.195 38.7884 67.5294 33.6631 67.4465H33.1831C22.5431 67.5065 10.353 66.7865 5.58305 65.3265C4.92289 65.1736 4.30477 64.8765 3.77305 64.4565C1.28305 62.0365 -0.31695 34.8465 0.0530501 17.9265C0.21305 10.8265 0.723066 5.53644 1.66307 4.66644C4.76307 1.76644 18.293 0.666438 30.763 0.726438H31.6531C42.4531 0.856438 52.2531 1.87646 53.5431 3.43646C56.0531 6.43646 55.8131 50.3065 52.6531 62.6465Z" fill="url(#paint0_linear_728_2255)"/>
<path d="M6.40283 2.66617C6.40283 2.66617 30.4028 -1.7338 53.5728 3.4462H57.1128C57.1128 3.4462 55.2528 1.24617 42.9928 0.356173C30.7478 -0.532828 18.4388 0.244263 6.40283 2.66617Z" fill="#FFEDE2"/>
<path d="M54.763 65.7564H54.683C54.0746 66.0239 53.4417 66.2316 52.793 66.3764H52.663C49.733 67.0964 43.233 68.0964 30.183 67.8664C10.853 67.5264 5.90303 65.4464 5.60303 65.3164C5.60303 65.3164 8.18302 65.6464 12.283 66.0164C19.9741 66.746 27.6976 67.0798 35.423 67.0164H37.473C40.903 66.9464 43.713 66.8264 45.993 66.6964H46.043C47.153 66.6164 48.143 66.5564 49.043 66.4764C50.9628 66.3557 52.8732 66.1153 54.763 65.7564Z" fill="#C92F66"/>
<g opacity="0.3" style="mix-blend-mode:multiply">
<path d="M4.54263 6.28649C0.94263 8.28649 3.45262 39.8564 9.97262 49.7964C16.4926 59.7364 48.5326 38.5064 52.5926 28.7964C56.6526 19.0864 51.0126 6.37649 45.7226 3.46649C40.4326 0.556486 8.46263 4.07649 4.54263 6.28649Z" fill="#F9B5C7"/>
</g>
<g opacity="0.3" style="mix-blend-mode:overlay">
<path d="M22.9426 66.6566C13.7826 64.0166 48.8026 44.4665 51.8326 43.3065C54.8626 42.1465 53.4726 62.7065 51.2726 65.3565C49.0726 68.0065 22.9426 66.6566 22.9426 66.6566Z" fill="white"/>
</g>
<g opacity="0.5" style="mix-blend-mode:multiply">
<path d="M55.2527 3.44629C54.3627 3.44629 55.7927 19.1263 55.2527 37.6163C54.7127 56.1063 53.8427 59.8163 54.7627 60.5163C55.6827 61.2163 59.0427 42.0663 58.7627 27.6963C58.4827 13.3263 57.5527 4.32628 57.0927 4.06628C56.4986 3.80646 55.8829 3.59901 55.2527 3.44629Z" fill="#E39AA8"/>
</g>
<g opacity="0.8" style="mix-blend-mode:multiply">
<path d="M56.513 61.2766C56.013 63.7266 55.433 65.3365 54.763 65.7565H54.6831C54.0875 66.0564 53.4505 66.2653 52.7931 66.3765H52.6631C49.7331 67.0965 43.2331 68.0965 30.1831 67.8665C10.8531 67.5265 5.90307 65.4465 5.60307 65.3165C4.94291 65.1637 4.32479 64.8666 3.79307 64.4465C1.30307 62.0265 -0.29693 34.8365 0.0730696 17.9165C0.27307 25.2865 1.24305 54.9166 3.55305 60.7866C4.25256 62.1724 5.44875 63.2436 6.90306 63.7866C10.5031 65.4866 16.4131 66.3166 22.8131 66.5966C25.7431 66.7166 28.813 66.7266 31.733 66.5966C38.7307 66.2425 45.6476 64.9371 52.2931 62.7166L52.6831 62.5865C54.9531 61.8965 56.383 61.3266 56.513 61.2766Z" fill="#F29AA7"/>
</g>
<path d="M37.5027 1.67648C32.3527 2.03648 36.5627 8.10651 40.9727 10.3965C45.3827 12.6865 49.3327 4.7665 49.9727 3.4465C50.6127 2.1265 40.6527 1.44648 37.5027 1.67648Z" fill="white"/>
<defs>
<linearGradient id="paint0_linear_728_2255" x1="27.6331" y1="67.4865" x2="27.6331" y2="0.726437" gradientUnits="userSpaceOnUse">
<stop stop-color="#FFBDC8"/>
<stop offset="1" stop-color="#FFE8D3"/>
</linearGradient>
</defs>
</svg>
