<svg width="69" height="76" viewBox="0 0 69 76" fill="none" xmlns="http://www.w3.org/2000/svg">
<path d="M66.2326 68.8228C65.7326 71.2728 65.1526 72.8828 64.4826 73.3028H64.4026C63.8063 73.5987 63.1694 73.8042 62.5126 73.9128H62.3826C58.6426 74.6928 51.2026 75.0328 43.3826 74.9128H42.9026C35.905 74.9184 28.9153 74.444 21.9826 73.4928C19.4426 73.0528 17.6626 72.4928 17.0326 71.9228C16.848 71.7213 16.7023 71.4873 16.6026 71.2328C13.3626 64.1228 11.8726 14.9528 14.9226 12.1028C17.7326 9.48282 29.0926 8.30285 40.4826 8.16285H41.3826C53.5026 8.08285 65.3826 9.16285 66.8226 10.8829C69.2326 13.8929 69.0726 54.8928 66.2326 68.8228Z" fill="#7EFFF7"/>
<path d="M62.3928 70.2426C61.9628 71.9126 61.4728 73.0126 60.9428 73.3426C60.2461 73.696 59.4961 73.9325 58.7228 74.0426C53.6516 74.7901 48.5281 75.1246 43.4028 75.0426H42.9228C32.2828 75.1126 20.0928 74.3826 15.3228 72.9226C14.6643 72.7703 14.0468 72.4769 13.5128 72.0626C11.0228 69.6426 9.4228 42.4527 9.7928 25.5327C9.9528 18.4327 10.4628 13.1426 11.4028 12.2626C14.5028 9.36263 28.0328 8.26263 40.5028 8.32263H41.4028C52.2128 8.45263 62.0128 9.47263 63.3028 11.0426C65.8228 13.9926 65.5328 57.8526 62.3928 70.2426Z" fill="#2CC791"/>
<path d="M16.1226 10.2425C16.1226 10.2425 40.1226 5.84251 63.2926 11.0325H66.8226C66.8226 11.0325 64.9626 8.82251 52.7026 7.94251C40.4614 7.04493 28.1549 7.81869 16.1226 10.2425Z" fill="#E2E6FF"/>
<path d="M64.4828 73.3028H64.4027C63.7913 73.5596 63.159 73.7637 62.5128 73.9128H62.3828C59.4528 74.6328 52.9527 75.6328 39.9027 75.4028C20.5727 75.0528 15.6228 72.9728 15.3228 72.8428C15.3228 72.8428 17.9027 73.1828 22.0027 73.5528C29.6939 74.2818 37.4174 74.6155 45.1428 74.5528H47.1927C50.6227 74.4728 53.4328 74.3528 55.7128 74.2228H55.7628L58.7628 74.0128C60.6822 73.8936 62.5924 73.6565 64.4828 73.3028Z" fill="#2FC987"/>
<g opacity="0.3" style="mix-blend-mode:multiply">
<path d="M14.2628 13.8329C10.6628 15.8329 13.1728 47.4129 19.6928 57.3429C26.2128 67.2729 58.2528 46.0629 62.3128 36.3429C66.3728 26.6229 60.7328 13.9229 55.4428 11.0229C50.1528 8.12291 18.1828 11.6329 14.2628 13.8329Z" fill="#B5F9E2"/>
</g>
<g opacity="0.3" style="mix-blend-mode:overlay">
<path d="M32.6629 74.2424C23.5029 71.6024 58.5229 52.0525 61.5529 50.9025C64.5829 49.7525 63.1929 70.2924 60.9929 72.9024C58.7929 75.5124 32.6629 74.2424 32.6629 74.2424Z" fill="white"/>
</g>
<g opacity="0.8" style="mix-blend-mode:multiply">
<path d="M64.9728 11.0029C64.0728 11.0029 65.5028 26.6729 64.9728 45.1729C64.4428 63.6729 63.5628 67.3629 64.4828 68.0729C65.4028 68.7829 68.7628 49.6229 68.4828 35.2529C68.2028 20.8829 67.2728 11.8829 66.8128 11.6129C66.2166 11.3611 65.6014 11.1571 64.9728 11.0029Z" fill="#9AE3D1"/>
</g>
<g opacity="0.8" style="mix-blend-mode:multiply">
<path d="M66.2328 68.8226C65.7328 71.2726 65.1528 72.8826 64.4828 73.3026H64.4028C63.8065 73.5985 63.1695 73.804 62.5128 73.9126H62.3828C59.4528 74.6326 52.9528 75.6326 39.9028 75.4026C20.5728 75.0526 15.6228 72.9726 15.3228 72.8426C14.6643 72.6903 14.0468 72.3969 13.5128 71.9826C11.0228 69.5626 9.4228 42.3726 9.7928 25.4526C9.9928 32.8126 10.9628 62.4527 13.2728 68.3127C13.9731 69.6979 15.169 70.7688 16.6228 71.3127C20.2228 73.0027 26.1328 73.8427 32.5328 74.1227C35.4528 74.2427 38.5328 74.2527 41.4528 74.1227C48.45 73.7713 55.3668 72.4694 62.0128 70.2527L62.4028 70.1227C64.6728 69.4427 66.1028 68.8826 66.2328 68.8226Z" fill="#9AF2E0"/>
</g>
<path d="M47.2229 9.24249C42.0729 9.61249 46.2829 15.6725 50.6929 17.9625C55.1029 20.2525 59.0529 12.3325 59.6929 11.0225C60.3329 9.71249 50.3429 9.00249 47.2229 9.24249Z" fill="white"/>
<path d="M62.0029 68.8225C61.5129 71.2725 60.9229 72.8825 60.2529 73.3025H60.1829C59.5836 73.5996 58.9432 73.8053 58.2829 73.9125H58.1529C54.4129 74.6925 46.9729 75.0325 39.1529 74.9125H38.6729C31.7014 74.9547 24.7352 74.5203 17.8229 73.6125C15.2829 73.1725 13.4929 72.6125 12.8229 72.0425C12.6383 71.8409 12.4926 71.607 12.3929 71.3525C9.16292 64.2425 7.66293 15.0725 10.7129 12.2225C13.5329 9.60248 24.8929 8.42248 36.2829 8.28248H37.1829C49.2929 8.20248 61.1829 9.28248 62.6129 11.0025C65.0029 13.8925 64.8229 54.8925 62.0029 68.8225Z" fill="#7EFFF7"/>
<path d="M58.1626 70.2426C57.7326 71.9126 57.2526 73.0126 56.7226 73.3426C56.0246 73.6929 55.2752 73.9292 54.5026 74.0426C49.428 74.7897 44.3012 75.1241 39.1726 75.0426H38.6926C28.0626 75.1126 15.8626 74.3826 11.0926 72.9226C10.4348 72.7682 9.81772 72.475 9.28257 72.0626C6.80257 69.6426 5.19256 42.4527 5.56256 25.5327C5.72256 18.4327 6.23258 13.1426 7.17258 12.2626C10.2726 9.36263 23.8026 8.26263 36.2826 8.32263H37.1826C47.9826 8.45263 57.7826 9.47263 59.0726 11.0426C61.5426 13.9926 61.3026 57.8526 58.1626 70.2426Z" fill="#97E1FF"/>
<path d="M11.9028 10.2428C11.9028 10.2428 35.9028 5.84285 59.0628 11.0328H62.6028C62.6028 11.0328 60.7429 8.82285 48.4929 7.94285C36.2483 7.04386 23.9384 7.81763 11.9028 10.2428Z" fill="#E2E6FF"/>
<path d="M60.2528 73.3028H60.1828C59.5669 73.557 58.9315 73.7609 58.2828 73.9128H58.1528C55.2228 74.6328 48.7228 75.6328 35.6728 75.4028C16.3428 75.0528 11.3928 72.9728 11.0928 72.8428C11.0928 72.8428 13.6828 73.1828 17.7828 73.5528C25.4739 74.2818 33.1974 74.6155 40.9228 74.5528H42.9728C46.4028 74.4728 49.2228 74.3528 51.4928 74.2228L54.4928 74.0128C56.4256 73.8953 58.3493 73.6582 60.2528 73.3028Z" fill="#2FC987"/>
<g opacity="0.3" style="mix-blend-mode:multiply">
<path d="M10.0425 13.8329C6.43253 15.8329 8.94254 47.4129 15.4625 57.3429C21.9825 67.2729 54.0225 46.0629 58.0825 36.3429C62.1425 26.6229 56.5025 13.9229 51.2225 11.0229C45.9425 8.12291 13.9525 11.6329 10.0425 13.8329Z" fill="#B5F9E2"/>
</g>
<g opacity="0.3" style="mix-blend-mode:overlay">
<path d="M28.4326 74.2424C19.2826 71.6024 54.2926 52.0525 57.3226 50.9025C60.3526 49.7525 58.9726 70.2924 56.7626 72.9024C54.5526 75.5124 28.4326 74.2424 28.4326 74.2424Z" fill="white"/>
</g>
<g opacity="0.8" style="mix-blend-mode:multiply">
<path d="M60.7429 11.0029C59.8529 11.0029 61.2829 26.6729 60.7429 45.1729C60.2029 63.6729 59.3429 67.3629 60.2529 68.0729C61.1629 68.7829 64.5329 49.6229 64.2529 35.2529C63.9729 20.8829 63.0429 11.8829 62.5829 11.6129C61.9873 11.3597 61.3719 11.1557 60.7429 11.0029Z" fill="#9AE3D1"/>
</g>
<g opacity="0.8" style="mix-blend-mode:multiply">
<path d="M62.0026 68.8226C61.5126 71.2726 60.9226 72.8826 60.2526 73.3026H60.1826C59.5833 73.5998 58.9428 73.8054 58.2826 73.9126H58.1526C55.2226 74.6326 48.7226 75.6326 35.6726 75.4026C16.3426 75.0526 11.3926 72.9726 11.0926 72.8426C10.4348 72.6882 9.81772 72.395 9.28257 71.9826C6.80257 69.5626 5.19256 42.3726 5.56256 25.4526C5.76256 32.8126 6.73259 62.4527 9.05259 68.3127C9.74569 69.6996 10.9394 70.7719 12.3926 71.3127C15.9926 73.0027 21.9026 73.8427 28.3026 74.1227C31.2326 74.2427 34.3026 74.2527 37.2226 74.1227C44.2295 73.8008 51.1599 72.5257 57.8226 70.3327L58.2126 70.2027C60.4526 69.4427 61.8726 68.8826 62.0026 68.8226Z" fill="#9AF2E0"/>
</g>
<path d="M42.9927 9.24249C37.8427 9.61249 42.0627 15.6725 46.4627 17.9625C50.8627 20.2525 54.8227 12.3325 55.4627 11.0225C56.1027 9.71249 46.1127 9.00249 42.9927 9.24249Z" fill="white"/>
<g opacity="0.78" style="mix-blend-mode:multiply">
<path d="M7.63275 66.4025C7.63275 66.4025 26.1428 70.9525 41.4828 70.5925C58.1628 70.2025 58.4828 66.5925 59.4828 58.7725C60.1528 53.6325 60.4827 20.6925 60.1227 15.8425C59.7627 10.9925 58.0228 10.5625 58.0228 10.5625L7.32275 64.4925L7.63275 66.4025Z" fill="#2FCDA1"/>
</g>
<path d="M56.4928 61.2426C56.0028 63.6926 55.4128 65.3026 54.7428 65.7226H54.6728C54.0718 66.0156 53.432 66.221 52.7728 66.3326H52.6428C48.9128 67.1126 41.4728 67.4426 33.6428 67.3826H33.1528C26.1585 67.3886 19.1721 66.9141 12.2428 65.9626C9.7028 65.5226 7.9228 64.9626 7.2428 64.3926C7.06178 64.1902 6.91941 63.9563 6.82279 63.7026C3.58279 56.5926 2.08279 7.42255 5.13279 4.57255C7.95279 1.95255 19.3128 0.772578 30.7028 0.632578H31.6028C43.7128 0.552578 55.6028 1.63255 57.0428 3.35255C59.4928 6.34255 59.3428 47.3426 56.4928 61.2426Z" fill="#7EFFF7"/>
<path d="M52.6528 62.6428C52.2228 64.3228 51.7428 65.4228 51.2128 65.7528C50.5149 66.1031 49.7654 66.3394 48.9928 66.4528C43.9216 67.1999 38.7981 67.5343 33.6728 67.4528H33.1828C22.5528 67.5128 10.3528 66.7928 5.5828 65.3328C4.92588 65.1761 4.30922 64.8831 3.7728 64.4728C1.2928 62.0528 -0.317201 34.8628 0.052799 17.9428C0.212799 10.8428 0.722784 5.55279 1.66278 4.67279C4.77278 1.77279 18.2928 0.672785 30.7728 0.732785H31.6728C42.4728 0.862785 52.2728 1.88279 53.5628 3.45279C56.0428 6.44279 55.8228 50.3028 52.6528 62.6428Z" fill="url(#paint0_linear_728_2250)"/>
<path d="M6.39258 2.66249C6.39258 2.66249 30.3926 -1.73751 53.5626 3.44249H57.0926C57.0926 3.44249 55.2326 1.24248 42.9826 0.362476C30.7381 -0.53602 18.4282 0.237779 6.39258 2.66249Z" fill="#E2E6FF"/>
<path d="M54.7425 65.7525H54.6725C54.0572 66.0082 53.4217 66.2123 52.7725 66.3625H52.6425C49.7125 67.0725 43.2225 68.0825 30.1625 67.8525C10.8425 67.5025 5.88252 65.4225 5.58252 65.2925C5.58252 65.2925 8.17252 65.6225 12.2725 66.0025C19.9637 66.7317 27.6871 67.0655 35.4125 67.0025H37.4125C40.8425 66.9225 43.6625 66.8025 45.9425 66.6725L48.9425 66.4625C50.8888 66.3478 52.826 66.1107 54.7425 65.7525Z" fill="#2FC987"/>
<g opacity="0.3" style="mix-blend-mode:multiply">
<path d="M4.53272 6.2429C0.932724 8.2429 3.43274 39.8229 9.95274 49.7529C16.4727 59.6829 48.5127 38.4729 52.5727 28.7529C56.6327 19.0329 50.9927 6.33289 45.7127 3.42289C40.4327 0.512892 8.44272 4.0829 4.53272 6.2429Z" fill="#B5F9E2"/>
</g>
<g opacity="0.3" style="mix-blend-mode:overlay">
<path d="M22.9325 66.6526C13.8225 64.0126 48.8225 44.4626 51.8225 43.3126C54.8225 42.1626 53.4625 62.7026 51.2625 65.3126C49.0625 67.9226 22.9325 66.6526 22.9325 66.6526Z" fill="white"/>
</g>
<g opacity="0.5" style="mix-blend-mode:multiply">
<path d="M55.2329 3.44287C54.3429 3.44287 55.7729 19.1229 55.2329 37.6229C54.6929 56.1229 53.8329 59.8129 54.7529 60.5229C55.6729 61.2329 59.0329 42.0729 58.7529 27.7029C58.4729 13.3329 57.5529 4.33287 57.0829 4.06287C56.4838 3.80706 55.8651 3.59973 55.2329 3.44287Z" fill="#9AE3D1"/>
</g>
<g opacity="0.8" style="mix-blend-mode:multiply">
<path d="M56.4928 61.2426C56.0028 63.6926 55.4128 65.3026 54.7428 65.7226H54.6728C54.0718 66.0156 53.432 66.221 52.7728 66.3326H52.6428C49.7128 67.0426 43.2228 68.0525 30.1628 67.8225C10.8428 67.4725 5.8828 65.3925 5.5828 65.2625C4.92588 65.1058 4.30922 64.8129 3.7728 64.4026C1.2928 61.9826 -0.317201 34.7926 0.052799 17.8726C0.262799 25.2326 1.22279 54.8725 3.54279 60.7325C4.23747 62.1221 5.43535 63.1948 6.8928 63.7325C10.4828 65.4225 16.4028 66.2625 22.7928 66.5425C25.7228 66.6625 28.7928 66.6725 31.7228 66.5425C38.7167 66.1913 45.6302 64.8893 52.2728 62.6725L52.6628 62.5326C54.9428 61.8926 56.3628 61.3226 56.4928 61.2426Z" fill="#9AF2E0"/>
</g>
<path d="M37.4829 1.6726C32.3429 2.0426 36.5529 8.1026 40.9529 10.3926C45.3529 12.6826 49.3129 4.76262 49.9529 3.44262C50.5929 2.12262 40.6029 1.4526 37.4829 1.6726Z" fill="white"/>
<defs>
<linearGradient id="paint0_linear_728_2250" x1="27.6128" y1="67.4928" x2="27.6128" y2="0.732785" gradientUnits="userSpaceOnUse">
<stop stop-color="#BDFFF0"/>
<stop offset="1" stop-color="#D3D3FF"/>
</linearGradient>
</defs>
</svg>
