<svg width="69" height="76" viewBox="0 0 69 76" fill="none" xmlns="http://www.w3.org/2000/svg">
<path d="M66.2231 68.8264C65.7331 71.2764 65.1431 72.8864 64.4731 73.3064H64.4031C63.8046 73.6076 63.164 73.8166 62.5031 73.9264H62.3731C58.6331 74.7064 51.2031 75.0364 43.3731 74.9264H42.8831C35.9011 74.9647 28.9247 74.5237 22.0031 73.6064C19.4631 73.1764 17.6731 72.6064 17.0031 72.0364C16.8164 71.8365 16.6703 71.6021 16.5731 71.3464C13.3431 64.2364 11.8431 15.0664 14.8931 12.2264C17.7131 9.60637 29.0731 8.42643 40.4631 8.28643H41.3631C53.4731 8.19643 65.3631 9.28639 66.7931 10.9964C69.2231 13.8864 69.0631 54.8964 66.2231 68.8264Z" fill="#FFF47E"/>
<path d="M62.3828 70.1965C61.9528 71.8765 61.4728 72.9665 60.9428 73.3065C60.2458 73.657 59.4957 73.8902 58.7228 73.9965C53.6517 74.7445 48.5281 75.079 43.4028 74.9965H42.9128C32.2828 75.0565 20.0828 74.3365 15.3128 72.8765C14.6534 72.7215 14.0357 72.4246 13.5028 72.0065C11.0228 69.5965 9.41278 42.3964 9.78278 25.4764C9.94278 18.3664 10.4528 13.0765 11.3928 12.2065C14.5028 9.30648 28.0228 8.20648 40.5028 8.26648H41.4028C52.2028 8.39648 62.0028 9.41644 63.2928 10.9764C65.7628 14.0064 65.5228 57.8565 62.3828 70.1965Z" fill="#C7AD2C"/>
<path d="M16.123 10.2162C16.123 10.2162 40.1231 5.8162 63.2831 10.9962H66.8231C66.8231 10.9962 64.963 8.79618 52.713 7.91618C40.4685 7.01769 28.1587 7.79152 16.123 10.2162Z" fill="#EEFFE2"/>
<path d="M64.473 73.3065H64.403C63.7908 73.5731 63.1546 73.7807 62.503 73.9265H62.373C59.443 74.6365 52.943 75.6465 39.893 75.4065C20.573 75.0665 15.613 72.9864 15.313 72.8564C15.313 72.8564 17.903 73.1865 22.003 73.5565C29.6941 74.2863 37.4176 74.6201 45.143 74.5565L47.143 74.5065C50.573 74.4365 53.393 74.3165 55.673 74.1865C56.793 74.1065 57.773 74.0465 58.673 73.9665C60.6184 73.8703 62.5557 73.6498 64.473 73.3065Z" fill="#C9AC2F"/>
<g opacity="0.3" style="mix-blend-mode:multiply">
<path d="M14.2627 13.8363C10.6627 15.8363 13.1627 47.4063 19.6827 57.3463C26.2027 67.2863 58.2427 46.0563 62.3027 36.3463C66.3627 26.6363 60.7227 13.9263 55.4427 11.0163C50.1627 8.10629 18.1727 11.6263 14.2627 13.8363Z" fill="#F9EEB5"/>
</g>
<g opacity="0.3" style="mix-blend-mode:overlay">
<path d="M32.6629 74.2063C23.5029 71.5663 58.5229 52.0163 61.5429 50.8663C64.5629 49.7163 63.1929 70.2563 60.9929 72.8663C58.7929 75.4763 32.6629 74.2063 32.6629 74.2063Z" fill="white"/>
</g>
<g opacity="0.8" style="mix-blend-mode:multiply">
<path d="M65.0031 11.0063C64.1131 11.0063 65.5431 26.6863 65.0031 45.1763C64.4631 63.6663 63.6031 67.3764 64.5131 68.0764C65.4231 68.7764 68.8031 49.6363 68.5131 35.2563C68.2231 20.8763 67.3131 11.8863 66.8431 11.6263C66.249 11.3665 65.6333 11.1591 65.0031 11.0063Z" fill="#E3D99A"/>
</g>
<g opacity="0.8" style="mix-blend-mode:multiply">
<path d="M66.2228 68.8265C65.7328 71.2765 65.1428 72.8865 64.4728 73.3065H64.4028C63.8043 73.6077 63.1637 73.8167 62.5028 73.9265H62.3728C59.4428 74.6365 52.9428 75.6466 39.8928 75.4066C20.5728 75.0666 15.6128 72.9865 15.3128 72.8565C14.6534 72.7015 14.0357 72.4046 13.5028 71.9865C11.0228 69.5765 9.41278 42.3765 9.78278 25.4565C9.99278 32.8265 10.9528 62.4565 13.2728 68.3265C13.9651 69.7142 15.1591 70.7866 16.6128 71.3265C20.2128 73.0265 26.1328 73.8565 32.5228 74.1365C35.4528 74.2565 38.5228 74.2665 41.4528 74.1865C48.4468 73.843 55.3608 72.5443 62.0028 70.3265L62.3928 70.1965C64.6728 69.4465 66.0928 68.8765 66.2228 68.8265Z" fill="#F2E79A"/>
</g>
<path d="M47.2129 9.22658C42.0629 9.58658 46.2829 15.6566 50.6829 17.9466C55.0829 20.2366 59.0429 12.3166 59.6829 10.9466C60.3229 9.57662 50.3329 9.00658 47.2129 9.22658Z" fill="white"/>
<path d="M62.0031 68.8266C61.5131 71.2766 60.9231 72.8866 60.2531 73.3066H60.1831C59.5846 73.6078 58.944 73.8168 58.2831 73.9266H58.1531C54.4231 74.7066 46.9831 75.0366 39.1531 74.9266H38.6731C31.6753 74.9298 24.6854 74.452 17.7531 73.4966C15.2131 73.0666 13.4331 72.4966 12.8031 71.9266C12.6164 71.7266 12.4703 71.4923 12.3731 71.2366C9.13309 64.1266 7.64309 14.9566 10.6831 12.1166C13.5031 9.49657 24.8631 8.31657 36.2531 8.17657H37.1531C49.2731 8.08657 61.1531 9.17659 62.5931 10.8866C65.0031 13.8866 64.8431 54.8966 62.0031 68.8266Z" fill="#FFF47E"/>
<path d="M58.1528 70.1965C57.7328 71.8765 57.2428 72.9665 56.7128 73.3065C56.0164 73.6586 55.2661 73.8918 54.4928 73.9965C49.4217 74.7445 44.2982 75.079 39.1728 74.9965H38.6928C28.0528 75.0565 15.8528 74.3365 11.0928 72.8765C10.4297 72.7234 9.80832 72.4264 9.2728 72.0065C6.7928 69.5965 5.1828 42.3964 5.5528 25.4764C5.7128 18.3664 6.22281 13.0765 7.16281 12.2065C10.2728 9.30648 23.7928 8.20648 36.2728 8.26648H37.1728C47.9728 8.39648 57.7728 9.41644 59.0628 10.9764C61.5428 14.0064 61.3028 57.8565 58.1528 70.1965Z" fill="#FCFF97"/>
<path d="M11.8931 10.2162C11.8931 10.2162 35.893 5.8162 59.063 10.9962H62.6031C62.6031 10.9962 60.7331 8.79618 48.4831 7.91618C36.2385 7.01769 23.9287 7.79152 11.8931 10.2162Z" fill="#EEFFE2"/>
<path d="M60.2428 73.3065H60.1728C59.5613 73.5749 58.9249 73.7826 58.2728 73.9265H58.1428C55.2228 74.6365 48.7228 75.6465 35.6728 75.4065C16.3428 75.0665 11.3828 72.9864 11.0928 72.8564C11.0928 72.8564 13.6728 73.1865 17.7728 73.5565C25.4639 74.2861 33.1874 74.6198 40.9128 74.5565L42.9128 74.5065C46.3428 74.4365 49.1628 74.3165 51.4428 74.1865C52.5628 74.1065 53.5528 74.0465 54.4428 73.9665C56.3882 73.8703 58.3255 73.6498 60.2428 73.3065Z" fill="#C9AC2F"/>
<g opacity="0.3" style="mix-blend-mode:multiply">
<path d="M10.0029 13.8363C6.40289 15.8363 8.9129 47.4063 15.4229 57.3463C21.9329 67.2863 53.9929 46.0563 58.0429 36.3463C62.0929 26.6363 56.4629 13.9263 51.1829 11.0163C45.9029 8.10629 13.9429 11.6263 10.0029 13.8363Z" fill="#F9EEB5"/>
</g>
<g opacity="0.3" style="mix-blend-mode:overlay">
<path d="M28.4329 74.2063C19.2729 71.5663 54.2929 52.0163 57.3229 50.8663C60.3529 49.7163 58.9629 70.2563 56.7629 72.8663C54.5629 75.4763 28.4329 74.2063 28.4329 74.2063Z" fill="white"/>
</g>
<g opacity="0.8" style="mix-blend-mode:multiply">
<path d="M60.7329 11.0063C59.8429 11.0063 61.2729 26.6863 60.7329 45.1763C60.1929 63.6663 59.3329 67.3764 60.2529 68.0764C61.1729 68.7764 64.5329 49.6363 64.2529 35.2563C63.9729 20.8763 63.0428 11.8863 62.5828 11.6263C61.9849 11.3675 61.366 11.1601 60.7329 11.0063Z" fill="#E3D99A"/>
</g>
<g opacity="0.8" style="mix-blend-mode:multiply">
<path d="M62.0031 68.8265C61.5131 71.2765 60.9231 72.8865 60.2531 73.3065H60.183C59.5846 73.6077 58.944 73.8167 58.2831 73.9265H58.153C55.233 74.6365 48.733 75.6466 35.683 75.4066C16.353 75.0666 11.3931 72.9865 11.1031 72.8565C10.4399 72.7035 9.81858 72.4065 9.28305 71.9865C6.80305 69.5765 5.19305 42.3765 5.56305 25.4565C5.77305 32.8265 6.74304 62.4565 9.05304 68.3265C9.74935 69.7148 10.9467 70.787 12.403 71.3265C16.003 73.0265 21.913 73.8565 28.303 74.1365C31.233 74.2565 34.3031 74.2665 37.2331 74.1865C44.2282 73.8385 51.1426 72.533 57.7831 70.3065L58.1731 70.1765C60.4431 69.4465 61.8631 68.8765 62.0031 68.8265Z" fill="#F2E79A"/>
</g>
<path d="M43.003 9.22658C37.853 9.58658 42.063 15.6566 46.463 17.9466C50.863 20.2366 54.823 12.3166 55.463 10.9466C56.103 9.57662 46.103 9.00658 43.003 9.22658Z" fill="white"/>
<g opacity="0.78" style="mix-blend-mode:multiply">
<path d="M7.633 66.4062C7.633 66.4062 26.133 70.9462 41.473 70.5862C58.153 70.1962 58.473 66.5862 59.473 58.7662C60.133 53.6362 60.473 20.6962 60.113 15.8462C59.753 10.9962 58.013 10.5562 58.013 10.5562L7.31299 64.4861L7.633 66.4062Z" fill="#CDB62F"/>
</g>
<path d="M56.4931 61.2764C55.9931 63.7264 55.4131 65.3363 54.7431 65.7563H54.6632C54.0676 66.0562 53.4306 66.2651 52.7731 66.3763H52.6432C48.9032 67.1663 41.4632 67.4963 33.6432 67.4363H33.1632C26.1653 67.4392 19.1755 66.9614 12.2431 66.0063C9.71314 65.5763 7.92316 65.0563 7.29316 64.4363C7.10645 64.2364 6.96038 64.002 6.86314 63.7463C3.63314 56.6363 2.13314 7.46633 5.18314 4.62633C7.99314 2.00633 19.3631 0.826332 30.7431 0.686332H31.6531C43.7631 0.596332 55.6531 1.68635 57.0831 3.39635C59.4931 6.33635 59.3331 47.3464 56.4931 61.2764Z" fill="#FFF47E"/>
<path d="M52.653 62.6465C52.223 64.3165 51.743 65.4165 51.213 65.7565C50.5131 66.1084 49.7595 66.3416 48.9831 66.4465C43.912 67.195 38.7884 67.5294 33.6631 67.4465H33.183C22.543 67.5065 10.353 66.7865 5.58303 65.3265C4.9221 65.1759 4.30351 64.8785 3.77305 64.4565C1.28305 62.0365 -0.31695 34.8465 0.0530501 17.9265C0.21305 10.8265 0.723051 5.53644 1.66305 4.66644C4.76305 1.76644 18.2931 0.666438 30.7631 0.726438H31.6731C42.4731 0.856438 52.273 1.87646 53.563 3.43646C56.003 6.43646 55.793 50.3065 52.653 62.6465Z" fill="url(#paint0_linear_728_2253)"/>
<path d="M6.38281 2.66617C6.38281 2.66617 30.3828 -1.7338 53.5528 3.4462H57.0928C57.0928 3.4462 55.2328 1.24617 42.9728 0.356173C30.7278 -0.532828 18.4188 0.244263 6.38281 2.66617Z" fill="#EEFFE2"/>
<path d="M54.743 65.7564H54.663C54.0546 66.0239 53.4216 66.2316 52.773 66.3764H52.643C49.713 67.0964 43.213 68.0964 30.163 67.8664C10.833 67.5264 5.88301 65.4464 5.58301 65.3164C5.58301 65.3164 8.16303 65.6464 12.263 66.0164C19.9541 66.746 27.6776 67.0798 35.403 67.0164H37.453C40.883 66.9464 43.693 66.8264 45.973 66.6964C47.083 66.6164 48.073 66.5564 48.973 66.4764C50.9096 66.3578 52.8367 66.1174 54.743 65.7564Z" fill="#C9AC2F"/>
<g opacity="0.3" style="mix-blend-mode:multiply">
<path d="M4.5231 6.28649C0.923095 8.28649 3.4331 39.8564 9.9531 49.7964C16.4731 59.7364 48.5131 38.5064 52.5731 28.7964C56.6331 19.0864 50.9931 6.37649 45.7031 3.46649C40.4131 0.556486 8.4431 4.07649 4.5231 6.28649Z" fill="#F9EEB5"/>
</g>
<g opacity="0.3" style="mix-blend-mode:overlay">
<path d="M22.9231 66.6566C13.7631 64.0166 48.7831 44.4665 51.8131 43.3065C54.8431 42.1465 53.4531 62.7065 51.2531 65.3565C49.0531 68.0065 22.9231 66.6566 22.9231 66.6566Z" fill="white"/>
</g>
<g opacity="0.5" style="mix-blend-mode:multiply">
<path d="M55.2327 3.44629C54.3427 3.44629 55.7727 19.1263 55.2327 37.6163C54.6927 56.1063 53.8227 59.8163 54.7427 60.5163C55.6627 61.2163 59.0227 42.0663 58.7427 27.6963C58.4627 13.3263 57.5327 4.32628 57.0727 4.06628C56.478 3.80789 55.8625 3.60049 55.2327 3.44629Z" fill="#E3D99A"/>
</g>
<g opacity="0.8" style="mix-blend-mode:multiply">
<path d="M56.493 61.2766C55.993 63.7266 55.413 65.3365 54.743 65.7565H54.6631C54.0675 66.0564 53.4304 66.2653 52.773 66.3765H52.6431C49.7131 67.0965 43.2131 68.0965 30.1631 67.8665C10.8331 67.5265 5.88303 65.4465 5.58303 65.3165C4.9221 65.1659 4.30351 64.8686 3.77305 64.4465C1.28305 62.0265 -0.31695 34.8365 0.0530501 17.9165C0.25305 25.2865 1.22305 54.9166 3.53305 60.7866C4.23256 62.1724 5.42875 63.2436 6.88305 63.7866C10.4831 65.4866 16.3931 66.3166 22.7931 66.5966C25.7231 66.7166 28.793 66.7266 31.713 66.5966C38.7107 66.2425 45.6276 64.9371 52.273 62.7166L52.6631 62.5865C54.9331 61.8965 56.363 61.3266 56.493 61.2766Z" fill="#F2E79A"/>
</g>
<path d="M37.4832 1.67648C32.3332 2.03648 36.5432 8.10651 40.9532 10.3965C45.3632 12.6865 49.3132 4.7665 49.9532 3.4465C50.5932 2.1265 40.6032 1.44648 37.4832 1.67648Z" fill="white"/>
<defs>
<linearGradient id="paint0_linear_728_2253" x1="27.613" y1="67.4865" x2="27.613" y2="0.726437" gradientUnits="userSpaceOnUse">
<stop stop-color="#FFF6BD"/>
<stop offset="1" stop-color="#DCFFD3"/>
</linearGradient>
</defs>
</svg>
